<svg xmlns="http://www.w3.org/2000/svg" viewBox="0 0 212 159"><path fill="#006233" d="M212 159V0H0v159Z"/><g fill="#fff" fill-rule="evenodd" stroke="#fff"><path stroke-width=".4" d="M1072 2780c-26 39-7 64 19 66 18 1 55-25 55-56l-10-6c5 16-1 21-13 32-23 21-71 23-51-36z" transform="matrix(.13397 0 0 .1219 -61 -257)"/><path d="M1277 2882c146 4 192-137 102-258l-8 13c5 56 14 112 15 170-18 20-44 13-49-10 1-32-10-58-23-83l-7 13c9 21 18 44 20 70-42 50-88 60-71-6-33 58 17 98 73 10 13 60 59 22 62 9 5-39 3-103-8-153 41 70 42 121 21 155-24 37-76 55-127 70z" transform="matrix(.13397 0 0 .1219 -61 -257)"/><path d="M1360 2722c-31 2-47-4-30-27 16-23 32-5 36 26 4 28-55 64-75 64-31 0-45-39-17-75-36 104 79 44 86 12zm-22-24c-3 0-6 7-4 8 5 4 14 2 15 0 2-5-5-8-11-8z" transform="matrix(.13397 0 0 .1219 -61 -257)"/><path d="M1191 2771c-30 59-1 83 38 77 22-4 51-20 67-42 0-48 0-95-4-141 15-18-2-18-7-37-3 11-9 23-3 32 4 46 6 94 6 142-30 24-53 33-69 33-33-1-40-29-28-64z" transform="matrix(.13397 0 0 .1219 -61 -257)"/><path d="M1252 2787c-1-45-1-95-5-126 15-18-1-18-6-38-3 12-10 24-4 32 2 48 5 96 5 143 4-2 8-3 10-11z" transform="matrix(.13397 0 0 .1219 -61 -257)"/><path stroke-width=".4" d="m1135 2785-9-15c-1-7 4-13 4-17l13 18m5 3c8 3 17 3 25 3 33 1 68-4 64 40-3 39-36 62-65 62-42 0-78-46-13-131 6-1 14 1 21 1 11 1 23 0 36-11-1-28-1-54-5-79-5-9 1-21 4-32 5 19 22 20 6 37 4 28 4 56 4 73-8 12-14 25-36 30-24-4-34-36-59-25 7-30 69-37 75-13-4 24-62 14-77 92-5 24 21 47 47 45 25-2 52-20 55-49 2-25-33-22-47-22-22 1-35-3-43-7m21-54c4-4 18-7 22-1l-10 8z" transform="matrix(.13397 0 0 .1219 -61 -257)"/><path d="M1194 2651c4 8 5 13 5 21-2 10-11 20-20 20-6 1-12-1-17-10 0-1-2-4-5-2-10 16-17 23-26 23-19 0-13-16-30-21-7-1-19 6-24 20-23 64-43 0-35-29 2 28 9 45 16 44 5 0 9-12 16-25 5-9 17-26 29-26s5 21 28 21c11 0 21-9 32-26 2 0 3 4 3 5 2 6 12 22 26 8-1-4-1-9-4-10z" transform="matrix(.13397 0 0 .1219 -61 -257)"/><path stroke-width=".4" d="M1267 2598c-12 6-21 1-26-5 8-1 15-5 17-12-4-9-13-12-27-13-18 1-27 8-28 18 8 0 16-2 19 6-15 7-32 10-51 10-30 1-35-13-43-25l-5-2c-9 0-16 33-27 33-11-1-8-21-11-32-3 17 3 84 36 12 1-3 2-2 3 0 9 20 27 27 47 28 16 1 37-6 59-19 6 7 11 14 23 16 15 0 30-10 34-23 2-7 2-20-5-20-10 0-17 24-15 45l1-5m-44-29c7-3 13-4 18 2l-8 4c-3-2-7-3-10-6zm48 15c2-7 3-13 9-17 1 8 1 12-9 17zm39 11c-2-6-4-11-4-18-2-13 10-21 20-20 11 1 18 5 28 9l29 7c6 3 0 10-1 11-26 10-44 26-61 26-9 1-18-5-26-19 0-25-1-55-4-73l7-10c2 25 2 51 3 77 2 4 5 8 9 10zm17 2c-14 4-12-8-14-15-1-8 0-18 11-16l38 14z" transform="matrix(.13397 0 0 .1219 -61 -257)"/><path stroke-width=".4" d="m1314 2621 2 10h2l-1-9" transform="matrix(.13397 0 0 .1219 -61 -257)"/><path stroke-linecap="round" stroke-linejoin="round" stroke-width="4" d="m1094 2719 7-8 8 7-7 7zm18-3 7-7 8 7-7 7zm-49-74 7-8 8 7-8 7-8-6zm3 21 7-8 8 7-8 7zm128 35 7-5 6 6-7 5zm-86-135 5-5 5 4-5 5zm12-2 5-5 5 5-5 4zm246 54-5 3-4-4 5-3z" transform="matrix(.13397 0 0 .1219 -61 -257)"/><path stroke-width=".4" d="m1159 2747-1 8 13 2 10-8z" transform="matrix(.13397 0 0 .1219 -61 -257)"/><path d="m1265 2600 4-1v10l-3 1z" transform="matrix(.13397 0 0 .1219 -61 -257)"/></g><path fill="#fff" d="M105 110c19 0 34-14 34-31 0-10-4-18-11-24 4 5 7 11 7 18 0 15-14 27-30 27S75 88 75 73c0-7 3-13 8-18a30 30 0 0 0-12 24c0 17 15 31 34 31z"/><g fill="#fff" stroke="#000" stroke-width="8"><path d="M-54 1623c-88 44-198 32-291-28-4-2-6 1-2 12 10 29 18 52-12 95-13 19 2 22 24 20 112-11 222-36 275-57zm-2 52c-35 14-95 31-162 43-27 4-26 21 22 27 49 5 112-30 150-61z" transform="matrix(.08644 0 0 .07866 105 0)"/><path d="M0 1579c12 0 34-5 56-8 41-7 11 56-56 56v21c68 0 139-74 124-107-21-48-79-7-124-7s-103-41-124 7c-15 33 56 107 124 107v-21c-67 0-97-63-56-56 22 3 44 8 56 8z" transform="matrix(.08644 0 0 .07866 105 0)"/><path d="M54 1623c88 44 198 32 291-28 4-2 6 1 2 12-10 29-18 52 12 95 13 19-2 22-24 20-112-11-222-36-275-57zm2 52c35 14 94 31 162 43 27 4 26 21-22 27-49 5-112-30-150-61z" transform="matrix(.08644 0 0 .07866 105 0)"/><path d="M3 1665c2 17 5 54 28 38 31-21 38-37 38-67 0-19-23-47-69-47s-69 28-69 47c0 30 7 46 38 67 23 16 25-21 28-38 1-6 6-4 6 0z" transform="matrix(.08644 0 0 .07866 105 0)"/></g><g fill="#fff" stroke="#000" stroke-width="8"><path d="M-29 384c-13-74-122-79-139-91-20-13-17 0-10 20 20 52 88 73 119 79 25 4 33 6 30-8z" transform="matrix(.08644 0 0 .07866 105 0)"/><path d="M4 386c11-76-97-112-110-129-15-18-17-7-10 14 13 45 60 98 88 112 23 12 30 17 32 3z" transform="matrix(.08644 0 0 .07866 105 0)"/><path d="M93 430c10-91-78-105-101-134-15-18-16-8-11 13 10 46 54 100 81 117 21 13 30 18 31 4z" transform="matrix(.08644 0 0 .07866 105 0)"/><path d="M66 410c-91-59-155-26-181-29-25-3-33 13 10 37 53 29 127 25 156 14 30-12 21-18 15-22zm137 40c-28-98-93-82-112-94s-21-9-17 13c8 39 75 82 108 95 12 4 27 10 21-14z" transform="matrix(.08644 0 0 .07866 105 0)"/><path d="M190 467c-78-63-139-16-163-23-18-5-10 7-3 12 50 35 112 54 160 32 19-8 20-10 6-21zm169 64c1-62-127-88-154-126-16-23-30-11-22 26 12 48 100 101 148 111 29 6 28-4 28-11z" transform="matrix(.08644 0 0 .07866 105 0)"/><path d="M355 542c-81-73-149-49-174-56-25-6-35 9 4 39 48 36 122 43 153 36s23-14 17-19zm145 107c-23-106-96-128-114-148-17-20-35-14-20 34 18 57 77 107 108 119 30 13 28 3 26-5z" transform="matrix(.08644 0 0 .07866 105 0)"/><path d="M499 663c-59-95-136-92-160-105-23-14-39-2-8 39 36 50 110 78 144 80s28-7 24-14z" transform="matrix(.08644 0 0 .07866 105 0)"/><path d="M575 776c34-108-44-148-52-166-9-18-18-18-23 1-22 77 49 152 60 167 11 14 13 7 15-2z" transform="matrix(.08644 0 0 .07866 105 0)"/><path d="M559 806c-27-121-98-114-114-131-17-17-19-5-16 17 8 59 79 99 111 119 10 6 22 13 19-5zm68 142c49-114-9-191-27-208-18-16-29-23-23 0 8 35-20 125 23 191 14 22 16 43 27 17z" transform="matrix(.08644 0 0 .07866 105 0)"/><path d="M601 971c11-70-29-134-72-159-25-15-26-11-26 10 2 65 63 119 81 149 17 28 16 7 17 0z" transform="matrix(.08644 0 0 .07866 105 0)"/><path d="M590 1153c-36-132 39-208 62-223 22-16 36-22 26 3-15 37 1 140-56 205-18 22-25 45-32 15z" transform="matrix(.08644 0 0 .07866 105 0)"/><path d="M598 1124c30-115-35-180-55-193-19-13-31-18-22 3 12 32-1 122 49 178 16 19 22 38 28 12z" transform="matrix(.08644 0 0 .07866 105 0)"/><path d="M561 1070c-54 58-55 143-31 193 15 29 17 27 31 6 38-61 15-149 17-188 1-37-11-17-17-11z" transform="matrix(.08644 0 0 .07866 105 0)"/><path d="M650 1162c0 80-49 145-101 165-30 11-30 8-26-16 14-90 83-123 108-152 24-28 19-5 19 3z" transform="matrix(.08644 0 0 .07866 105 0)"/><path d="M464 1400c88-80 41-136 45-188 2-28-9-21-19-11-56 55-59 153-47 191 5 17 13 15 21 8z" transform="matrix(.08644 0 0 .07866 105 0)"/><path d="M582 1348c-29 88-106 142-171 145-38 2-37-1-24-27 49-94 136-105 175-129 36-22 23 2 20 11z" transform="matrix(.08644 0 0 .07866 105 0)"/><path d="M343 1513c114-57 91-152 112-176 15-17-3-15-12-9-67 39-121 101-122 167 0 25 2 28 22 18z" transform="matrix(.08644 0 0 .07866 105 0)"/><path d="M187 1619c144 23 211-86 253-96 22-5 6-14-5-15-96-11-218 34-255 84-15 20-15 24 7 27z" transform="matrix(.08644 0 0 .07866 105 0)"/><path d="M333 1448a279 279 0 0 1-218 179c-38 3-38-1-24-26 65-118 178-138 218-168 34-26 27 6 24 15zM29 384c13-74 122-79 139-91 20-13 17 0 10 20-20 52-88 73-119 79-25 4-33 6-30-8z" transform="matrix(.08644 0 0 .07866 105 0)"/><path d="M-4 386c-11-76 97-112 110-129 15-18 17-7 10 14-13 45-60 98-88 112-23 12-30 17-32 3z" transform="matrix(.08644 0 0 .07866 105 0)"/><path d="M-93 430c-10-91 78-105 101-134 15-18 16-8 11 13-10 46-54 100-81 117-21 13-30 18-31 4z" transform="matrix(.08644 0 0 .07866 105 0)"/><path d="M-66 410c91-59 155-26 181-29 25-3 33 13-10 37-53 29-127 25-156 14-30-12-21-18-15-22zm-137 40c28-98 93-82 112-94s21-9 17 13c-8 39-75 82-108 95-12 4-27 10-21-14z" transform="matrix(.08644 0 0 .07866 105 0)"/><path d="M-190 467c78-63 139-16 163-23 18-5 10 7 3 12-50 35-112 54-160 32-19-8-20-10-6-21zm-169 64c-1-62 127-88 154-126 16-23 30-11 22 26-12 48-100 101-148 111-29 6-28-4-28-11z" transform="matrix(.08644 0 0 .07866 105 0)"/><path d="M-355 542c81-73 149-49 174-56 25-6 35 9-4 39-48 36-122 43-153 36s-23-14-17-19zm-145 107c23-106 96-128 114-148 17-20 35-14 20 34-18 57-77 107-108 119-30 13-28 3-26-5z" transform="matrix(.08644 0 0 .07866 105 0)"/><path d="M-499 663c59-95 136-92 160-105 23-14 39-2 8 39-36 50-110 78-144 80s-28-7-24-14z" transform="matrix(.08644 0 0 .07866 105 0)"/><path d="M-575 776c-34-108 44-148 52-166 9-18 18-18 23 1 22 77-49 152-60 167-11 14-13 7-15-2z" transform="matrix(.08644 0 0 .07866 105 0)"/><path d="M-559 806c27-121 98-114 114-131 17-17 19-5 16 17-8 59-79 99-111 119-10 6-22 13-19-5zm-68 142c-49-114 9-191 27-208 18-16 29-23 23 0-8 35 20 125-23 191-14 22-16 43-27 17z" transform="matrix(.08644 0 0 .07866 105 0)"/><path d="M-601 971c-11-70 29-134 72-159 25-15 26-11 26 10-2 65-63 119-81 149-17 28-16 7-17 0z" transform="matrix(.08644 0 0 .07866 105 0)"/><path d="M-590 1153c36-132-39-208-62-223-22-16-36-22-26 3 15 37-1 140 56 205 18 22 24 45 32 15z" transform="matrix(.08644 0 0 .07866 105 0)"/><path d="M-598 1124c-30-115 35-180 55-193 19-13 31-18 22 3-12 32 1 122-49 178-16 19-22 38-28 12z" transform="matrix(.08644 0 0 .07866 105 0)"/><path d="M-561 1070c54 58 55 143 31 193-15 29-17 27-31 6-38-61-15-149-17-188-1-37 11-17 17-11z" transform="matrix(.08644 0 0 .07866 105 0)"/><path d="M-650 1162c0 80 49 145 101 165 30 11 30 8 26-16-14-90-83-123-108-152-24-28-19-5-19 3z" transform="matrix(.08644 0 0 .07866 105 0)"/><path d="M-464 1400c-88-80-41-136-45-188-2-28 9-21 19-11 56 55 59 153 47 191-5 17-13 15-21 8z" transform="matrix(.08644 0 0 .07866 105 0)"/><path d="M-582 1348c29 88 106 142 171 145 38 2 37-1 24-27-49-94-136-105-175-129-36-22-23 2-20 11z" transform="matrix(.08644 0 0 .07866 105 0)"/><path d="M-343 1513c-114-57-91-152-112-176-15-17 3-15 12-9 67 39 121 101 122 167 0 25-2 28-22 18z" transform="matrix(.08644 0 0 .07866 105 0)"/><path d="M-187 1619c-144 23-211-86-253-96-22-5-6-14 5-15 96-11 218 34 255 84 15 20 15 24-7 27z" transform="matrix(.08644 0 0 .07866 105 0)"/><path d="M-333 1448c29 95 137 173 218 179 38 3 38-1 24-26-65-118-178-138-218-168-34-26-27 6-24 15z" transform="matrix(.08644 0 0 .07866 105 0)"/></g><path fill="#006233" d="m120 37-9-1c2 2 7 1 9 1zm14 3c-1-2-9-3-10-5 2 3 8 3 10 5zm-1 3c-3-3-9-2-11-3 4 4 7 1 11 3zm-17-12 6 4-6-3v-1zm29 17c-1-3-5-5-6-6 1 3 5 4 6 6zm1 4c-4-5-9-5-11-6 1 1 8 3 11 6zm8 8c0-6-4-8-4-11 0 4 4 9 4 11zm-2 2c-1-4-7-5-8-7 0 2 7 5 8 7zm5-2c3 3 0 8 2 12-2-2-1-10-2-12zm-6 14c5 5 3 10 5 12-2-3-2-9-5-12zm10 1c-4 4-1 10-4 13 3-2 2-10 4-13zm-5 0c0-4-5-7-6-9 0 2 5 6 6 9zm-2 11-2 13c-1-4 2-11 2-13zm6 8c-2 5-6 5-7 8 1-3 6-6 7-8zm-13 2c-2 4 0 9-2 11 3-2 1-8 2-11zm7 11c-4 5-10 5-12 8 2-4 10-5 12-8zm-11-1c-6 4-4 7-8 11 5-4 4-8 8-11zm-3 14c-5 0-13 6-17 5 4 1 13-4 17-5zm-8-6c-1 5-14 8-16 11 2-4 14-7 16-11zm-31-88c-2-1-4-2-4-4 0 2 2 3 4 4zm-3 1-7-2 6 3zm-8 10 9-1c-2 2-7 1-9 1zm-14 3c1-2 9-3 10-5-2 3-8 3-10 5zm1 3c3-3 9-2 11-3-4 4-7 1-11 3zm11-8c2-3 7-3 8-5-2 3-6 3-8 5zm14-3c4-2 9 0 11-1-2 2-9 1-11 1zM65 48c1-3 5-5 6-6-1 3-5 4-6 6zm-1 4c4-5 9-5 11-6-1 1-8 3-11 6zm-8 8c0-6 4-8 4-11 0 4-4 9-4 11zm2 2c1-4 7-5 8-7 0 2-7 5-8 7zm-5-2c-3 3 0 8-2 12 2-2 1-10 2-12zm6 14c-5 5-3 10-5 12 2-3 2-9 5-12zm-10 1c4 4 1 10 4 13-3-2-2-10-4-13zm5 0c0-4 5-7 6-9 0 2-5 6-6 9zm2 11 2 13c1-4-2-11-2-13zm-6 8c2 5 6 5 7 8-1-3-6-6-7-8zm13 2c2 4 0 9 2 11-3-2-1-8-2-11zm-7 11c4 5 10 5 12 8-2-4-10-5-12-8zm11-1c6 4 4 7 8 11-5-4-4-8-8-11zm3 14c5 0 13 6 17 5-4 1-13-4-17-5zm8-6c1 5 14 8 16 11-2-4-14-7-16-11zm20-81c1-5 6-5 7-8 0 3-6 6-7 8zm15-11c0 3-6 5-7 8 0-4 6-6 7-8Zm-4 8c3-4 8-3 10-5-1 2-8 2-10 5Z"/><path fill="none" stroke="#f7c608" stroke-linecap="round" stroke-linejoin="round" stroke-width="8.1" d="M476 1012a477 477 0 1 1-954 0 477 477 0 0 1 954 0z" transform="matrix(.08529 0 0 .0776 105 0)"/><path fill="#f7c608" d="M97 115v1h-4l1-3h3v1m-7-1v-1h1l3 1-1 3-3-1v-1"/><path fill="#006233" d="M96 115v1l-3-1 1-2 2 1h1-1m-5-1v-1l3 1-1 2h-2l-1-1"/><path fill="#f7c608" d="M86 112h-1s0 1 0 0l-3-1 2-2 2 1 1 1h-1m-6-4h1l3 2-2 2-2-2v-1"/><path fill="#006233" d="M85 111v1h-1l-2-1 2-2 2 1v1m-5-3c0-1 0-1 0 0l3 1-2 2-2-2"/><path fill="#f7c608" d="M76 106h-1l-2-2 2-2 2 2v1m-5-5h1c0-1 0-1 0 0l2 2-2 2-2-2v-1"/><path fill="#006233" d="M76 105h-1l-2-1 2-2 2 2-1 1m-4-5h1l2 2-2 2-1-2v-1"/><path fill="#f7c608" d="M69 97h-1l-2-2 3-2 2 3h-1v1m-3-6v-1l1 1 1 2-3 2-1-3 1-1"/><path fill="#006233" d="m69 96-1 1v-1l-1-2 2-1 1 2v1m-3-5h1l1 2-2 1-1-2"/><path fill="#f7c608" d="M65 87h-2v-3l3-1 1 3-1 1m-1-7 1 1v2l-3 1v-4"/><path fill="#006233" d="m65 86-1 1v-1l-1-2h3v2h-1m0-5 1 3h-3v-2l1-1"/><path fill="#f7c608" d="M64 76h-1v-3h3v3l-1 1v-1m1-6 1 1-1 2h-3v-3h1"/><path fill="#006233" d="M64 76h-1v-3h3l-1 3m0-6 1 1v2h-3l1-2 1-1"/><path fill="#f7c608" d="M66 66h-1v-1l1-3 3 2-1 2h-1m3-6 1 1-2 3-3-2 2-2h1"/><path fill="#006233" d="m66 65 1-2h2l-1 3h-1m2-5h1l-1 2h-2l1-3h1"/><path fill="#f7c608" d="M71 56v-1l2-2 2 2-2 2h-1m5-5v1l-2 2-2-2 2-2h1"/><path fill="#006233" d="M72 56v-1l1-2 2 2-2 2v-1m3-4h1v1l-2 2-2-2 2-1h1"/><path fill="#f7c608" d="m80 49-1-1v-1l3-1 2 2-3 2h-1v-1m6-3h1l-1 1-2 1-2-2 3-2 1 1"/><path fill="#006233" d="M80 48v-1l2-1 2 2-3 1m5-3v1l-2 1-2-2 2-1h1"/><path fill="#f7c608" d="M90 43v-1l3-1 1 3-3 1h-1v-1m7-2v1l-3 1-1-3h4"/><path fill="#006233" d="m90 43 1-1h2l1 2h-3c0 1 0 0 0 0m5-2 1 1h-1l-2 1-1-2 3-1v1"/><path fill="#f7c608" d="M101 41v-1h4v3h-3l-1-1m8 0-1 1h-3v-3h3l1 1"/><path fill="#006233" d="M102 41v-1h3v2h-3m6 0h-3v-2h3v1"/><path fill="#f7c608" d="m112 41 1-1 3 1-1 3-3-1v-1m7 2v1h-1l-3-1 1-3 3 1v1"/><path fill="#006233" d="M113 42v-1h1l2 1-1 2-2-1v-1m6 2h-4l1-2h2l1 1"/><path fill="#f7c608" d="M124 45v-1h1l2 2-1 2-3-1v-1m6 3v1h-1l-2-2 1-2 3 1v1"/><path fill="#006233" d="M124 45h1l2 1-1 2-2-1-1-1h1m5 3h-1l-2-1 1-2 2 1v1"/><path fill="#f7c608" d="M133 51h1l2 2-2 2-2-2v-1m5 5h-1l-2-2 2-2 2 2v1"/><path fill="#006233" d="m133 52 1-1 2 2-2 1-1-1v-1m4 4h-1l-2-2 2-1 2 2v1"/><path fill="#f7c608" d="m140 60 1-1 1 1 1 2-3 1-1-2v-1m4 6h-2l-1-3 3-1 1 3"/><path fill="#006233" d="M141 60h1l1 2-2 1-2-2h1v-1m2 5c0 1 0 0 0 0l-1-2 2-1 1 2-1 1"/><path fill="#f7c608" d="m145 69 1 1 1 3h-4v-3h1m1 6h-1l-1-3h4v2l-1 1"/><path fill="#006233" d="M145 70h1v3h-2l-1-2 1-1m1 6-1-1v-2h2v2"/><path fill="#f7c608" d="m146 80 1 1v3l-4-1 1-3h1m-1 7-1-1v-3l4 1-1 2-1 1"/><path fill="#006233" d="M146 81h1l-1 3-2-1v-2h1m-1 5-1-1 1-2 2 1v2h-1"/><path fill="#f7c608" d="m144 91 1 1-2 2-3-1 2-3h1m-3 6h-1v-1l1-2 3 1-1 3h-1"/><path fill="#006233" d="M143 91h1v1l-1 2-2-1 1-2h1m-3 5v-1l1-2 2 1-1 2h-1"/><path fill="#f7c608" d="m138 100 1 1-2 3-3-2 2-3h1v1m-4 5-1-1 2-2 3 2-2 2-1-1"/><path fill="#006233" d="m138 101-1 2-2-1 1-2h1m-4 4 2-2 2 1-2 2h-1"/><path fill="#f7c608" d="M130 108v1l-2 2-2-3 3-1h1m-6 4-1-1h1l2-2 2 3-3 1h-1"/><path fill="#006233" d="M130 108v1l-2 1-2-1 2-2h1v1m-5 3v-1l2-1 2 1-2 2-1-1"/><path fill="#f7c608" d="M120 113v2h-3l-1-2 3-1h1m-7 2v-1h3l1 2-3 1-1-1"/><path fill="#006233" d="M119 114h1-1l-2 1-1-2 2-1 1 1m-6 1h1l2-1 1 2-3 1v-1"/><path fill="#f7c608" d="m109 116-1 1h-3v-3h3l1 1m-8 0 1-1h3v3h-3l-1-1"/><path fill="#006233" d="m108 116-1 1h-2v-2l2-1 1 1m-6 0h3v2h-3v-1"/></svg>