<svg xmlns="http://www.w3.org/2000/svg" viewBox="0 0 800 600"><defs><clipPath id="a"><path fill-opacity=".7" d="M-85 0h682v512H-85z"/></clipPath></defs><g fill-rule="evenodd" clip-path="url(#a)" transform="translate(100) scale(1.17187)"><path fill="#009" d="M-85 0h682v512H-85z"/><path fill="#fc0" d="m-85 0 682 512V0Z"/><path fill="#fff" d="m-21 75-25-18-24 18 9-29-24-17h30l9-29 9 29h31l-25 17m61 66L6 130l9-29-24-18h30l9-28 9 28h31l-25 18 9 29m28 54 9-28-24-18h30l9-29 9 29h31l-25 18 9 28-24-17m61 43-24-17h30l9-29 9 29h30l-24 17 9 29-24-18-24 18m60 8h31l9-29 9 29h30l-24 18 9 29-24-18-24 18 9-29m82 37 9-29 9 29h30l-24 17 9 29-24-18-25 18 10-29-25-17m116 26 9 28h30l-24 18 9 29-24-18-25 18 10-29-25-18h31m85 26 9 29h30l-24 18 9 28-24-17-25 17 10-28-25-18h30m95 55h30l-24 17 9 29-24-18-25 18 10-29-25-17h30l10-29"/></g></svg>