<svg xmlns="http://www.w3.org/2000/svg" version="1.0" viewBox="0 0 800 600"><path fill="#fff" fill-rule="evenodd" d="M0 0h800v600H0Z" color="#000" overflow="visible" style="marker:none"/><g font-size="12"><path fill-rule="evenodd" stroke="#000" stroke-width="2.1" d="M495 397c-33 15-41 35-56 51-15 17-37 51-79 40-2-9-7-33-23-44-10-6-22-15-25-29-17 4-61 8-64-16 0-8 7-20-1-29l-13-1c-3-3 0-14 2-16-5-1-16-11-2-19 3-4 3-7 3-11l-9-1c-15 0-13-9-9-19l23-43c3-4 3-7 1-11-3-4-2-12 0-17 1-5 4-13 2-15-2-3-2-10-1-11l1-7c0-1 1-5 3-7 2-1 3-6 2-8-2-1 1-11 3-12s7-2 9-8c-1-7 5-15 9-19 2-2 1-9 1-9h6c1 0 7-8 12-9l17-7 8-9 7 3 11-3c5 0 16-4 20-10s3 7 3 8c0 0 7-3 17-3 10 1 22 5 26 4 3-1 7 3 7 3s7 4 13 4h11l1 5 16 6c5 3 10 6 16 6 7 1 9 3 9 3l-3 6s8 2 11 10c4 6 10 15 14 16l8 3-6 7 4 5 9 8-4 7 1 5c1 4 1 10 4 12 4 1 4 6 4 6s1 1-4 2c-4 1-7 1-5 4l6 9-7 2-8 1s3 14 6 16c3 3-4 4-8 2-5-2-2 6 1 7s-1 2-5 2c-3-1-6 0-5 4 2 6 5 9-1 12s-11 16-8 20c3 5 4 12 4 12h-14s-1 2 3 6l7 9c0 2-11 1-11 3 9 47 32 60 32 62z"/><path fill="#fff" fill-rule="evenodd" stroke="#000" stroke-width=".2" d="M261 171c-5 4-9 10-5 14l8 6s-10-3-12 1-4 9 0 11l10 5-12-1c-1 5-3 13 6 17l46 18c6 3 18 5 24 5l26 1-14 4c-2 0 28 10 32 9 3-6 34-35 51 1 2 8-5 20-11 23-6 2-9 5-11 12-3 7-9 19-16 18-9-6-13-6-9-1 5 7 16 7 22-1 4-6 9-21 18-25 5-2 11-13 11-13s9-1 12 3c4 4 13 4 19 3 5-1 15-3 11-3l13 1c3 0 2-10-4-15-6-4-23-12-27-17s-30-20-37-21c-8 0-17-5-17-5s14 0 7-2c-7-1-20-6-27-9-6-2-12-2-19-2-8 0-56-12-69-19l50 13c11 1 14-1-3-9-8-5-40-22-67-29-2 3-1 4-6 7z"/><path fill="none" stroke="#fff" stroke-linecap="round" stroke-width="5.2" d="m395 272 1 1 2 3 1 3-2 2-2 3-3 1-2 2-1 2-1 4v3l-2 2h-4l-2-2v-2"/><path fill="#fff" fill-rule="evenodd" stroke="#fff" stroke-width="2.1" d="M377 267c6-8 39-24 31 7-2 3 1 4 2 2 9-36-28-21-34-12-2 4 1 4 1 3z"/><path fill="none" stroke="#000" stroke-linecap="round" stroke-width="4.2" d="M258 216c12-1 26 0 36 6 10 7 19 9 30 9h16"/><path fill="none" stroke="#000" stroke-width="4.2" d="M411 234c21 8 24 11 33 16l19 12c6 3 9 7 9 7 5 4-20-15-37-11-6 0-7 0-12-6-6-6-12-12-21-15l-26-10"/><path fill="none" stroke="#000" stroke-linecap="round" stroke-width="3.7" d="m434 270 8 1 7 1 8 1 7 1 4 3"/><path fill="none" stroke="#fff" stroke-width="4.8" d="M262 253c8 10 20 16 33 19-1 3-16 3-22 10"/><g fill="none" stroke="#000" stroke-width="4.2"><path d="M548 132c0 2 1 14-1 14-6 1-11 2-16 8-6 6-19 15-26 2-4-8 5-11 10-11 4 0 12-4 19-6 8-2 11-6 12-6zm29 29c1-1 6-8 4-15-4-6 16 5 12 12-5 4-16 4-16 3z"/><path d="M529 135v-15c4 0 15-2 17 2 9 13-16 19-17 17zm-21 26 16 56s9 39-18 49h-12l3 13c12 13 20 10 30 5l17-7c5-3 13-21 14-26 2-12 10-37 34-90-4-1-33 2-35 2-1 2-5 9-12 12s-18-6-7-13c5-3 23 1 23-9-1-8-13-7-18-6-5 0-11 6-14 9-7 7-17 8-21 5z"/><path d="M484 293c4 6 7 13 9 23s7 23 21 27c11 3 21 8 23 16 3 9 4 20 4 20l18-24-1-21c0-13-10-16-20-20s-21-8-24-14c-3-5-10-15-15-18-4-4-15 11-15 11z"/><path d="M502 406c9 17 12 39 15 56 7-13 18-22 29-30 1-12 4-30 7-36 18-25 6-40 6-40-18 21-19 36-57 50z"/><path d="M485 459c0 4 5 19 15 20 9 0 15-7 16-15l-4-29z"/></g><path fill="#fff" fill-rule="evenodd" stroke="#000" stroke-width="2.1" d="M485 271c-2-6 1-6 6-3 9 5 2 18-7 21-5 2-8-4 0-7 7-1 1-12 1-11z"/><path fill="none" stroke="#000" stroke-width="2.7" d="M546 351v1l1 3v16m-5-16v3l1 8v9m-4 50h1v5l-1 7m-5-9 1 9-1 2m-5-9 1 11v4m-6-12v3l1 8-1 7m-5-16 1 6v7l-1 6v1m32-102v10"/><path fill="none" stroke="#000" stroke-width="2.1" d="M497 271c6 1 21 0 28-5l6-4m-34 12c6 2 21 3 28 0l7-4m-36 12c3 4 6 6 7 11l1 5m-12-14c4 6 7 8 8 13l1 6m-12-15c2 8 8 24 13 29l5 6"/><path fill="none" stroke="#000" stroke-width="2.5" d="M513 467c-3 0-9-5-11-7l-1-3m10 15a36 36 0 0 1-14-11"/><path fill="none" stroke="#000" stroke-width="2.9" d="M509 476c-4-1-11-7-13-9l-2-2"/><path fill="none" stroke="#000" stroke-width="2.1" d="M556 181v17l2 4m9-33c-3 0-7 3-8 4l-1 2"/><path fill="none" stroke="#000" stroke-width="2.7" d="M534 172c6 10 4 44 3 48l-1 4"/><path fill="none" stroke="#000" stroke-width="2.1" d="M515 151c-3 1-8 5-8 7m12-4c-3 1-8 5-8 7"/><path fill="none" stroke="#feffff" stroke-width="3.1" d="M270 262c-5 0-5 14 1 14"/><path fill="none" stroke="#feffff" stroke-width="3.1" d="M271 262c5 0 5 14-1 14"/><path fill="none" stroke="#feffff" stroke-width="7.5" d="m271 262-1 12"/></g></svg>