<svg xmlns="http://www.w3.org/2000/svg" xml:space="preserve" viewBox="0 0 800 600"><path fill="#00b140" d="M0 120h800v480H0Z"/><path fill="#fff" d="M0 0h800v300H0Z"/><g stroke="#000"><g stroke-width="1.2"><g fill="#c8102e"><path d="M247 174c-26 4-92 10-118 6l5 12c43-4 83 10 121-5z"/><path d="M146 203c-16-4-43-32-48-49 13 9 44 20 54 19-3 2-12 9-19 10z"/></g><path fill="#c8102e" d="M198 195c5 6 30 4 42-4l-3-6-3 5-4-4-1 7-7-6-1 7-4-6-2 7-6-5-3 7-3-9c-2 1-4 5-5 7zm2-21c0 2 2 7 6 8 0-2-2-7-1-9l4 3 1-6 4 3 1-7 5 3v-7c-8 1-18 9-20 12zm479 77c-2-5-8-10-13-14l9-21c-9 2-26 3-36 2 19-18 59-55 71-72-4 23-1 75 9 93-10-4-22-12-28-21-4 13-9 27-12 32"/><path fill="#c8102e" d="M311 152c1 6 1 10 6 12 4 2 14 5 20 15-7-2-18-5-19 2 0 7 3 6 7 7 7 2 13 9 13 20-5-4-12-6-17-6s-6 1-7 6c-2 10 1 10 6 11 4 0 14 5 14 20-5-4-15-7-21-8-3 0-4 2-4 7-1 6 0 8 6 10s13 6 14 15c-5-3-14-2-17-1-2 2-4 8 2 20 12-4 24-7 37-8 28-3 21-21 21-50 0-30 62-62 155-114-23 55 8 49 25 43l89-35c-43 28-65 57-27 70-49 15-71 55-45 80-18-6-43 5-53 22 19-2 55 2 78 8 21 6 56-1 60-19v-3c0-6-2-11-4-14-6-8-15-9-21-9-7 0-15 3-15 8s4 8 14 8c5 0 13 0 22-7a24 24 0 0 1 4 17c-9 5-18 7-27 7-19 0-37-7-37-27s21-31 38-31c24 0 57 9 57 45 0 46-63 67-100 67 6 5 13 10 21 12 26 10 50 22 58 41-10 0-27-8-34-16 21 25-5 70-2 86s23 6 23 18-12 10-16 5c-5-5-19-10-26-5s-17 7-21 3c-5-5-21-3-28 3s-16 7-19 2-2-11 10-13c-5-6-22 4-25-7-2-8 2-11 17-10-2-4-13-5-11-13 1-8 10-12 20-1 27 30 39 13 48 0-3-7 1-11 6-15-3-5-1-12 1-16-4-3-7-14-2-18-4 0-10-4-10-12-5 4-12 3-16-1-6 3-21 3-27-3-9 3-25 2-29-4-8 2-22-5-25-12-5 0-9-1-13-4-12 9-28 25-12 37 16 13 49 3 50 34-8-7-22-5-27-11-16 22-39 43-73 51 5 3 14 4 18 3 7 0 14 6 8 13s-17 1-24-5c-10-8-16-4-19-2s-6 3-11-1c-5-5-9-1-11 1-4 5-13-6-27 7-7 6-23-2-17-11-7 2-19-7-9-16s27 10 41 5c-3-4-10-11-23-13-8-1-9-8-5-14 4-7 16-2 25 9 7 8 16 8 25 7 6-4 16-5 21-3 0-4 6-8 12-8-1-6 1-11 10-12h2c-6 0-12-3-16-7-12 3-25-3-27-13-18-2-20-20-16-27l2-1c-6 4-13 6-22 3-8 11-22 16-36 12-4 6-9 10-16 12 1 7-1 14-10 23 3-12-14-16-10-36-1 14-46 39-53 71 6 2 13 4 18 4 11-3 15 9 11 13s-12 7-16 3-12 1-16-6c-3-7-14-5-18 0-5 5-20-6-30 5-4 4-18 8-26 6s-12-10-10-14c-5-5-5-11 0-16-2-7 4-21 15-16 7 4 30 20 51 1 17-16 7-30 18-31-1-7 3-16 8-17l-1-9-7-2c-9 2-18 4-28 4 0 7-8 23-15 31-2-62-61-68-69-117-1 7-9 14-9 20-1 7-5 11-12 9-7-3-9-15-2-17 7-1 6-13 10-14s5-6 4-12c-2-5 0-12 2-16s-1-12-7-14c-6-3-8-9-6-14-6-5-4-14 4-16 11-2 11 15 17 17-1-4 0-10 3-14-3-8 1-14 8-14 13 0 8 20 5 26 5-5 11-12 16-7 5 4 4 14-1 18-5 3-14 8-11 14 5 9 9 20 9 34 7 5 12 11 12 16 5 1 14 5 16 10 6-1 14 1 17 6 2-1 7-2 10-1 0-5 2-9 4-12-10-11-9-28 1-35-3-7-2-20 8-26 0-7 2-17 12-23-2-7 3-18 9-18-1-7 0-16 8-21-2-2-3-5-2-8-15 4-21 12-26 20l-4-11c0 9-6 12-7 24-5-5-7-13-6-19 0-4-8-8-6-16 12 10 36-13 57-5-21-41-35-21-46-14-10 7-17-4-16-11-14-3-31-2-49 1 14-16 45-24 68-22 10-18 22-15 34-13h26c5-15 38-16 41-28 3 2 1 11-1 18 8-2 15-5 18-10 1 5-1 18-4 22l10-2-25 16c-2 1-4 4 2 7-6 1-23 7-29 2"/><path fill="#c8102e" d="M86 228c8-5 19-1 21 6 2 5-7 9-8 4-1-6-5-10-13-10zm31-16c9-3 18 3 18 11 0 6-10 7-9 2 1-6-2-11-9-13zm34 14c9 4 10 15 4 20-4 4-12-2-8-4 6-4 7-10 4-16zM82 340c7 5 18 2 21-6 2-5-7-9-8-4-2 6-6 10-13 10zm53 113c3-8 14-11 21-6 4 4-1 12-4 8-5-4-11-5-17-2zm-10 24c1-9 14-15 21-12 5 2 3 11-1 9-6-4-15-3-20 3zm14 21c-3-8 4-17 12-17 6 0 7 9 2 9-7-1-12 2-14 8zm139-7c1-10-8-17-16-15-5 2-5 11 0 9 7-2 12 0 16 6zm53 2c-2-8 6-16 15-15 5 1 5 10 0 9-6-2-12 0-15 6zm133-2c1-9-8-16-17-13-5 1-4 10 1 9 6-3 12-1 16 4zm-149-17c-1-9 8-16 17-15 5 1 4 11-1 10-6-2-12-1-16 5zm13-26c0-9 11-15 19-11 5 2 2 11-3 9-6-4-11-3-16 2zm203 50c-2-9 6-16 15-15 5 0 5 10 0 9-6-2-12 0-15 6zm132-4c2-9-6-17-14-16-6 1-6 10-1 9 6-1 12 1 15 7zm-149-17c-1-9 7-16 16-14 5 1 4 10 0 9-7-2-12-1-16 5zm5-24c0-9 10-15 18-12 5 2 3 11-2 8-6-3-11-2-16 4z"/><path fill="none" d="m552 153-125 45c-16 5-24 6-34 27"/><path fill="none" d="M510 129c-56 35-102 65-115 94s-13 46-44 51m-91 54c14-16 44-35 72-36-6 9-10 18-14 27m-1 11c7-9 25-28 36-36-5 15-14 51-9 76 3-24 16-60 29-81 10 23 24 56 24 76 3-24-3-67-12-86 24 12 54 46 67 67-8-30-39-65-54-76 39 6 96 31 118 49-35-31-78-55-108-67 47-4 136 6 161 16-37-20-114-31-160-28 49-20 135-42 205-52-53 3-122 16-192 32 31-21 128-59 151-66m-299-14c4-13 22-17 36-21m-13 31c-11-1-13-5-7-10 4-2 13-7 19-8l-8-1c6-3 17-6 20-10m-37 7-14 1m-17 65-8 1m-40 143c0 8 3 16 8 22 5 5 34 6 35-3m-39-31c11 10 43 4 43-4m-42-31c4 9 41 16 42 7m-34-33c0 9 35 16 36 9m-24-32c1 8 24 15 27 12m-18-30c1 5 18 10 23 8m-15-29c4 4 10 8 22 10m-78-50c0-5 6-6 5-12m57 37c2 3 7 9 8 14 3-2 5-7 6-9 3 2 5 5 6 9l3-13 12 5c1-3-1-8-4-10l9-2-8-8 9-6-11-5 4-7m-83-14c-2 0-3 4 1 7 2 2 2 10-2 12"/><path fill="none" d="M273 202c-13 28-25 83-21 122m14 54c0 6 10 7 10-7"/><path fill="none" d="M275 378c1 5 11 6 9-9"/><path fill="none" d="M271 382c0 11 8 10 8 0m5-8c3 7 11 4 9-11"/><path fill="none" d="M293 369c4 6 11 1 12-8m-50-23c-5 5-11 17-4 28 4 7 16 11 17 7"/><path fill="none" d="M251 366c-4 1-11 10-8 19 2 7 16 11 18 6m129-17c15 2 34-8 35-27"/><path fill="none" d="M424 356c8 5 25 7 32-6m-25 10c-7 17-14 35 1 48 13 11 23-5 39 11 4 5-1 14-49 40M195 339c3 6 3 18-3 17m-44 123c10-15 22-3 31-6"/><path fill="#fff" d="M227 144c-2 5 3 10 7 11 5 0 13-3 11-8"/><path fill="none" d="M222 145c2-4 33 7 46 0M121 250c-1 2-1 10 4 14m215 212c3-2 11-5 18-4 6 2 18 0 25-3"/><g fill="none"><path d="M273 202c-3 27 4 70 21 88m-30-64c1 25 7 54 19 70m-26-43c3 18 8 37 17 49m-21-21c3 11 7 21 12 29m-14-2 6 10"/><path d="M272 219c-1 9-6 15-11 19m12-7c-1 9-7 16-15 20m17-8c-1 9-10 19-20 24m22-12c-1 9-12 22-24 26m28-14c-4 12-17 26-29 29m34-17c-1 9-19 27-35 32"/></g><path fill="none" d="M178 333c2 8-5 15-8 13"/><path fill="none" d="M212 361c-31-6-54-17-67-41-3-6 6-8 5-13m-9-34c-5-9-7-18-4-25"/><path fill="none" d="M162 323c0 5-6 12-8 10m59 27c-3 8 4 24 19 29m11-4-4 6m16 11c-2 4-13 1-15-2m-26 48c-13 12-26 13-41 14-15 2-19-5-25 1m166-103c1 8 1 16-6 28-4 6 0 13 0 22m74-27c6-5 11-13 13-20m-35 23c8-10 9-24 3-35m-39 47c5-6 7-16 7-28m-99 47c2 5 11 8 12 5"/><path fill="none" d="M306 349c0 5-6 10-11 6 1 8-5 11-10 7 1 11-9 13-15 4-8 34-32 60-34 77-1 4-17 3-13-9m190-53c-9-2-25-4-31 2m34 24c-8 3-14 4-20 4m43 20c8-1 17-6 20-19m-36 12c7-2 13-6 16-12"/><path fill="none" d="M463 433c-5-1-16-3-24-2m-5 21c3-1-2-9-7-9m-55 22 22-11m21-3c4 1 9 6 7 8m30-113c5 8 14 13 26 8 1 2 3 4 7 6m33-16c6 4-5 21-20 20"/><path fill="none" d="M600 445c2 5 10 4 13 0 3-5 10-19 6-49s-34-34-69-41c-34-7-43-17-50-37"/><path fill="none" d="M606 430c3 4 11 3 13-1m-12-15c5 2 13 1 13-4m-15-14c4 0 14 1 13-4m-23-8c3-2 12-11 7-14m-23 13c5-3 11-19 5-21m-32 18c9-4 17-21 11-22m-40 18c14-4 19-22 13-24m7 107c15 1 23 9 29 12m-33-165c14-1 27 19 46 34m106-122 5-22M551 476l11-1m123-286-10 27m-361 66c-26 8-53 25-71 55 10 2 28 0 36-3l1 23c8-6 18-15 26-17l-1 25c12-11 33-12 39 5 5-25 43-26 53-5 11-19 38-27 55-19 8-21 42-32 64-27-8-10-6-20 0-29"/></g><path stroke-linejoin="round" stroke-width="1.7" d="m230 145 12 2s-8 11-12-2z"/></g><path fill="#c8102e" stroke="#000" d="M469 415c-7 16-24 11-37 13 20 12 40 15 61-5-5-1-10-3-15-9z"/></svg>