<svg xmlns="http://www.w3.org/2000/svg" xmlns:xlink="http://www.w3.org/1999/xlink" version="1" viewBox="0 0 640 480"><defs><path id="a" fill="#c8b100" d="M279 205v1h-2v-1h1v-1h-1 1v-1 1h1-1v1h1"/></defs><path fill="#c60b1e" d="M0 0h640v480H0z"/><path fill="#ffc400" d="M0 120h640v240H0z"/><path fill="#ad1519" d="M127 213h-1v-1h-1l-1-1v-2l1-1 2-1h1l1-1h10l2 1h3l1 1v3l-1 1-1 1h-1l-7-1-8 1"/><path fill="none" stroke="#000" stroke-linejoin="round" stroke-width=".3" d="M127 213h-1v-1h-1l-1-1v-2l1-1 2-1h1l1-1h10l2 1h3l1 1v3l-1 1-1 1h-1l-7-1-8 1z"/><path fill="#c8b100" d="m133 207 2-2 1 2-1 2c0 1-2 0-2-2"/><path fill="none" stroke="#000" stroke-width=".3" d="m133 207 2-2 1 2-1 2c0 1-2 0-2-2z"/><path fill="#c8b100" d="m134 207 1-2v4l-1-2"/><path fill="none" stroke="#000" stroke-width=".3" d="m134 207 1-2v4l-1-2z"/><path fill="#c8b100" d="m134 205 1-1h1l-1 2-1-1"/><path fill="#c8b100" d="M135 204v1h-1v-3h1v2"/><path fill="none" stroke="#000" stroke-width=".3" d="M135 204v1h-1v-3h1v2"/><path fill="#c8b100" d="M136 204v1h-2v-1h1v-1h-1v-1h1v2h1"/><path fill="none" stroke="#000" stroke-width=".3" d="M136 204v1h-2v-1h1v-1h-1v-1h1v2h1"/><path fill="none" stroke="#000" stroke-width=".3" d="M135 204h1l-1 2-1-1v-1"/><path fill="#c8b100" d="M135 213h-5v-2l-1-2-2-2v-1c1-1 4 1 5 4h5c2-3 4-5 5-4l1 1c-1-1-2 0-3 2v4h-5"/><path fill="none" stroke="#000" stroke-width=".3" d="M135 213h-5v-2l-1-2-2-2v-1c1-1 4 1 5 4h5c2-3 4-5 5-4l1 1c-1-1-2 0-3 2v4h-5z"/><path fill="none" stroke="#000" stroke-width=".3" d="M127 207c1-1 3 1 4 3m11-3-4 3"/><path fill="#c8b100" d="m128 215-1-1 8-1 7 1v1l-1 1-6-1-7 1v-1"/><path fill="none" stroke="#000" stroke-width=".3" d="m128 215-1-1 8-1 7 1v1l-1 1-6-1-7 1v-1"/><path fill="#c8b100" d="m135 218 6-1v-1l-6-1-7 1 1 1 6 1"/><path fill="none" stroke="#000" stroke-width=".3" d="m135 218 6-1v-1l-6-1-7 1 1 1 6 1z"/><path fill="#c8b100" d="M142 213h-2l-1-1h-3l-1-1-1 1h-4l-1 1-1-1v1h-1v1l8-1 7 1v-1"/><path fill="none" stroke="#000" stroke-width=".3" d="M142 213h-2l-1-1h-3l-1-1-1 1h-4l-1 1-1-1v1h-1v1l8-1 7 1v-1z"/><path fill="#c8b100" d="m135 211 1 1 1-1v1h2v-1l1 1 1 1v-1h1v1h1l1-1-1 1-1 1-1-1h-3a2 2 0 0 1-1-1 2 2 0 0 1-1 1 2 2 0 0 1-2-1l-1 1-1-1a2 2 0 0 1-1 1 2 2 0 0 1-1-1l-2 1-1 1-1-1-1-1 1 1h1v-1l1 1 1-1a1 1 0 0 0 0-1h1l1 1 1-1 1 1 1-1"/><path fill="none" stroke="#000" stroke-width=".3" d="m135 211 1 1 1-1v1h2v-1l1 1 1 1v-1h1v1h1l1-1-1 1-1 1-1-1h-3a2 2 0 0 1-1-1 2 2 0 0 1-1 1 2 2 0 0 1-2-1l-1 1-1-1a2 2 0 0 1-1 1 2 2 0 0 1-1-1l-2 1-1 1-1-1-1-1 1 1h1v-1l1 1 1-1a1 1 0 0 0 0-1h1l1 1 1-1 1 1 1-1z"/><path fill="#c8b100" d="m135 213-8 1 8-1 7 1s0 1 0 0l-7-1"/><path fill="none" stroke="#000" stroke-linejoin="round" stroke-width=".3" d="m135 213-8 1 8-1 7 1s0 1 0 0l-7-1z"/><path fill="#fff" d="M132 214h1l-1 1v-1"/><path fill="none" stroke="#000" stroke-width=".3" d="M132 214h1l-1 1v-1z"/><path fill="#ad1519" d="M135 215h-1l-1-1h3-2"/><path fill="none" stroke="#000" stroke-width=".3" d="M135 215h-1l-1-1h3-2"/><path fill="#058e6e" d="M130 215h-1v-1h2v1h-1"/><path fill="none" stroke="#000" stroke-width=".3" d="M130 215h-1v-1h2v1h-1"/><path fill="#ad1519" d="M127 215h1-1"/><path fill="none" stroke="#000" stroke-width=".3" d="M127 215h1-1"/><path fill="#fff" d="M137 214v1-1"/><path fill="none" stroke="#000" stroke-width=".3" d="M137 214v1-1z"/><path fill="#058e6e" d="M139 215h1v-1h-2l1 1"/><path fill="none" stroke="#000" stroke-width=".3" d="M139 215h1v-1h-2l1 1"/><path fill="#ad1519" d="M142 215h-1v1h1"/><path fill="none" stroke="#000" stroke-width=".3" d="M142 215h-1v1h1"/><path fill="#ad1519" d="M135 217h-6a25 25 0 0 1 12 0h-6"/><path fill="none" stroke="#000" stroke-linejoin="round" stroke-width=".3" d="M135 217h-6a25 25 0 0 1 12 0h-6z"/><path fill="none" stroke="#000" stroke-width=".3" d="M142 212z"/><path fill="#c8b100" d="M137 211v1-1"/><path fill="none" stroke="#000" stroke-width=".3" d="M137 211v1-1z"/><path fill="#c8b100" d="M132 211v1-1"/><path fill="none" stroke="#000" stroke-width=".3" d="M132 211v1-1z"/><path fill="#c8b100" d="M127 212h1-1"/><path fill="none" stroke="#000" stroke-width=".3" d="M127 212h1-1z"/><path fill="#c8b100" d="M135 209h-1v1h1v-1h-1"/><path fill="none" stroke="#000" stroke-width=".3" d="M135 209h-1v1h1v-1h-1"/><path fill="#c8b100" d="M133 211h2v-1h-2"/><path fill="none" stroke="#000" stroke-width=".3" d="M133 211h2v-1h-2"/><path fill="#c8b100" d="M136 211h-1v-1h2"/><path fill="none" stroke="#000" stroke-width=".3" d="M136 211h-1v-1h2"/><path fill="#c8b100" d="M129 209v1l1 1v-2h-1"/><path fill="none" stroke="#000" stroke-width=".3" d="M129 209v1l1 1v-2h-1"/><path fill="#c8b100" d="M128 211v1l2-1h-2"/><path fill="none" stroke="#000" stroke-width=".3" d="M128 211v1l2-1h-2"/><path fill="#c8b100" d="M132 211h-2l1-1v1"/><path fill="none" stroke="#000" stroke-width=".3" d="M132 211h-2l1-1v1"/><path fill="#c8b100" d="M127 211v1h-2l1-1h1"/><path fill="none" stroke="#000" stroke-width=".3" d="M127 211v1h-2l1-1h1"/><path fill="#c8b100" d="m129 211 1-1v1a1 1 0 0 1-1 0"/><path fill="none" stroke="#000" stroke-width=".3" d="m129 211 1-1v1a1 1 0 0 1-1 0z"/><path fill="#c8b100" d="m140 209 1 1-1 1h-1v-2h1"/><path fill="none" stroke="#000" stroke-width=".3" d="m140 209 1 1-1 1h-1v-2h1"/><path fill="#c8b100" d="M141 211v1l-1-1h1"/><path fill="none" stroke="#000" stroke-width=".3" d="M141 211v1l-1-1h1"/><path fill="#c8b100" d="M138 211h2l-2-1v1"/><path fill="none" stroke="#000" stroke-width=".3" d="M138 211h2l-2-1v1"/><path fill="#c8b100" d="M143 211v1h1l-1-1h-1"/><path fill="none" stroke="#000" stroke-width=".3" d="M143 211v1h1l-1-1h-1"/><path fill="#c8b100" d="M134 210a1 1 0 0 1 1 0 1 1 0 0 1 0 1 1 1 0 0 1-1-1"/><path fill="none" stroke="#000" stroke-width=".3" d="M134 210a1 1 0 0 1 1 0 1 1 0 0 1 0 1 1 1 0 0 1-1-1z"/><path fill="#c8b100" d="m139 211 1-1a1 1 0 0 1 0 1 1 1 0 0 1-1 0"/><path fill="none" stroke="#000" stroke-width=".3" d="m139 211 1-1a1 1 0 0 1 0 1 1 1 0 0 1-1 0z"/><path fill="#c8b100" d="m125 212-1-1a1 1 0 0 1 1 0v1"/><path fill="none" stroke="#000" stroke-width=".3" d="m125 212-1-1a1 1 0 0 1 1 0v1z"/><path fill="#c8b100" d="M125 212v1-1"/><path fill="none" stroke="#000" stroke-width=".3" d="M125 212v1-1z"/><path fill="#c8b100" d="m144 212 1-1h1-2v1"/><path fill="none" stroke="#000" stroke-width=".3" d="m144 212 1-1h1-2v1z"/><path fill="#c8b100" d="M144 212v1-1"/><path fill="none" stroke="#000" stroke-width=".3" d="M144 212v1-1z"/><path fill="#c8b100" d="M124 223h21v-5h-21v5z"/><path fill="none" stroke="#000" stroke-width=".4" d="M124 223h21v-5h-21v5z"/><path fill="#c8b100" d="M126 227a1 1 0 0 1 1 0h16l-1-1 1-2h-16a1 1 0 0 1-1 0l1 2a1 1 0 0 1-1 1"/><path fill="none" stroke="#000" stroke-linejoin="round" stroke-width=".4" d="M126 227a1 1 0 0 1 1 0h16l-1-1 1-2h-16a1 1 0 0 1-1 0l1 2a1 1 0 0 1-1 1z"/><path fill="#c8b100" d="M127 227h17l-1 1h-16l-1-1h1"/><path fill="none" stroke="#000" stroke-width=".4" d="M127 227h17l-1 1h-16l-1-1h1z"/><path fill="#c8b100" d="M127 223h16l1 1h-18l1-1"/><path fill="none" stroke="#000" stroke-width=".4" d="M127 223h16l1 1h-18l1-1z"/><path fill="#005bbf" d="M150 317h-4l-4-1-4 1h-7l-4-1-4 1h-3v3l3-1 4-1 4 1a8 8 0 0 0 7 0l4-1 4 1 3 1v-2"/><path fill="none" stroke="#000" stroke-width=".4" d="M150 317h-4l-4-1-4 1h-7l-4-1-4 1h-3v3l3-1 4-1 4 1a8 8 0 0 0 7 0l4-1 4 1 3 1v-2z"/><path fill="#ccc" d="m150 320-4-1-4-1-4 1-3 1-4-1-4-1-4 1-3 1v2h3l4-1 4 1 3 1 4-1a10 10 0 0 1 8 0h3v-2"/><path fill="none" stroke="#000" stroke-width=".4" d="m150 320-4-1-4-1-4 1-3 1-4-1-4-1-4 1-3 1v2h3l4-1 4 1 3 1 4-1a10 10 0 0 1 8 0h3v-2"/><path fill="#005bbf" d="m150 322-4-1-4-1-4 1-3 1-4-1h-8l-3 1v3l3-1 4-1 4 1 3 1 4-1a10 10 0 0 1 8 0h3v-2"/><path fill="none" stroke="#000" stroke-width=".4" d="m150 322-4-1-4-1-4 1-3 1-4-1h-8l-3 1v3l3-1 4-1 4 1 3 1 4-1a10 10 0 0 1 8 0h3v-2"/><path fill="#ccc" d="m150 327-4-1-4-1-4 1-3 1-4-1-4-1-4 1-3 1v-3l3-1h8l3 1 4-1a10 10 0 0 1 8 1h3v3"/><path fill="none" stroke="#000" stroke-width=".4" d="m150 327-4-1-4-1-4 1-3 1-4-1-4-1-4 1-3 1v-3l3-1h8l3 1 4-1a10 10 0 0 1 8 1h3v3"/><path fill="#005bbf" d="m150 329-4-1-4-1-4 1-3 1-4-1-4-1-4 1-3 1v-2l3-1 4-1 4 1 3 1 4-1 4-1 4 1 3 1v2"/><path fill="none" stroke="#000" stroke-width=".4" d="m150 329-4-1-4-1-4 1-3 1-4-1-4-1-4 1-3 1v-2l3-1 4-1 4 1 3 1 4-1 4-1 4 1 3 1v2z"/><path fill="#c8b100" d="M126 308v1l-2 2h22c-2 0-3-1-3-2v-1h-17"/><path fill="none" stroke="#000" stroke-linejoin="round" stroke-width=".4" d="M126 308v1l-2 2h22c-2 0-3-1-3-2v-1h-17z"/><path fill="#c8b100" d="M127 307h17l-1 1h-16l-1-1h1"/><path fill="none" stroke="#000" stroke-width=".4" d="M127 307h17l-1 1h-16l-1-1h1z"/><path fill="#c8b100" d="M124 317h22v-6h-22v6z"/><path fill="none" stroke="#000" stroke-width=".4" d="M124 317h22v-6h-22v6z"/><path fill="#ad1519" d="M122 287c-2 1-4 2-3 3l1 1c2 1 3 3 2 4l2-4-2-4"/><path fill="none" stroke="#000" stroke-width=".4" d="M122 287c-2 1-4 2-3 3l1 1c2 1 3 3 2 4l2-4-2-4z"/><path fill="#ccc" d="M127 306h15v-77h-15v77z"/><path fill="none" stroke="#000" stroke-width=".4" d="M138 229v76m2-76v76m-13 1h15v-77h-15v77z"/><path fill="#ad1519" d="M158 258a50 50 0 0 0-23-2c-9 1-16 5-16 8l-3-8c-1-3 7-7 17-9h10c6 0 12 0 15 2v9"/><path fill="none" stroke="#000" stroke-linejoin="round" stroke-width=".4" d="M158 258a50 50 0 0 0-23-2c-9 1-16 5-16 8l-3-8c-1-3 7-7 17-9h10c6 0 12 0 15 2v9"/><path fill="#ad1519" d="M127 267c-5 0-8-1-8-3 0-1 1-3 4-4h4v7"/><path fill="none" stroke="#000" stroke-width=".4" d="M127 267c-5 0-8-1-8-3 0-1 1-3 4-4h4v7"/><path fill="#ad1519" d="m143 262 5 2c1 1-2 3-6 5v-7"/><path fill="none" stroke="#000" stroke-width=".4" d="m143 262 5 2c1 1-2 3-6 5v-7"/><path fill="#ad1519" d="M117 282c0-1 4-4 10-6l8-3c8-4 14-8 13-9v-1l1 8c1 2-5 6-12 9l-10 4c-5 2-9 5-9 6l-1-8"/><path fill="none" stroke="#000" stroke-linejoin="round" stroke-width=".4" d="M117 282c0-1 4-4 10-6l8-3c8-4 14-8 13-9v-1l1 8c1 2-5 6-12 9l-10 4c-5 2-9 5-9 6l-1-8z"/><path fill="#c8b100" d="M126 254c2-1 3-1 2-3l-2-1-3 1 2 6h1l1-1-1-2zm-1-3 2 1-1 1a4 4 0 0 1 0 1l-1-3m7-2h-2l1 6h5l-1-1h-2l-1-5m8 5 3-6a5 5 0 0 1-1 0l-2 4-2-4h-2a131 131 0 0 1 3 6h1m9-5h1l-2-1-3 1c0 2 3 2 3 4l-1 1-2-1v-1a7 7 0 0 1 0 1l1 1c2 0 3 0 4-2 0-2-4-2-3-3l1-1 1 1"/><path fill="#ad1519" d="m278 212-1 1-1-1-2 1-1-1-1 1h-3v-1h-1v-2l2-2h16l2 2v1l-1 1-1 1h-1v-1h-1l-1-1-2 1-1-1-1 1-1-1"/><path fill="none" stroke="#000" stroke-width=".3" d="m278 212-1 1-1-1-2 1-1-1-1 1h-3v-1h-1v-2l2-2h16l2 2v1l-1 1-1 1h-1v-1h-1l-1-1-2 1-1-1-1 1-1-1z"/><path fill="#c8b100" d="m277 208 1-2 1 2-1 1-1-2"/><path fill="none" stroke="#000" stroke-width=".3" d="m277 208 1-2 1 2-1 1-1-2z"/><path fill="#c8b100" d="m277 208 1-2v3l-1-2"/><path fill="none" stroke="#000" stroke-width=".3" d="m277 208 1-2v3l-1-2z"/><path fill="#c8b100" d="M271 215a5 5 0 0 0 0-1l7-1 7 1v1l-1 1-6-1-7 1v-1"/><path fill="none" stroke="#000" stroke-width=".3" d="M271 215a5 5 0 0 0 0-1l7-1 7 1v1l-1 1-6-1-7 1v-1"/><path fill="#c8b100" d="m278 218 6-1 1-1h-1l-6-1-7 1 1 1 6 1"/><path fill="none" stroke="#000" stroke-width=".3" d="m278 218 6-1 1-1h-1l-6-1-7 1 1 1 6 1z"/><path fill="#fff" d="M284 208v1l-1-1"/><path fill="none" stroke="#000" stroke-width=".2" d="M284 208v1l-1-1zm-1-1h1-1zm-1-1h1v1l-1-1zm-1 0v-1l1 1h-1zm-2 0 1-1v1h-1z"/><path fill="none" stroke="#000" stroke-linecap="round" stroke-width=".3" d="M288 211v-1c0-1-1-3-3-3l-1 1"/><path fill="none" stroke="#000" stroke-width=".3" d="M283 209v-1l-2-2-2 1"/><path fill="none" stroke="#000" stroke-width=".2" d="M288 210h1c1 0 0 0 0 0h-1zm0-2h1l-1 1v-1zm-1-1h1l-1 1v-1zm-1 0v-1l1 1h-1zm-2 0 1-1v1c0 1 0 0 0 0h-1z"/><path fill="#c8b100" d="M285 213h-1l-1-1h-4l-1-1-1 1h-4l-1 1-1-1v2l7-1 7 1v-1"/><path fill="none" stroke="#000" stroke-width=".3" d="M285 213h-1l-1-1h-4l-1-1-1 1h-4l-1 1-1-1v2l7-1 7 1v-1z"/><path fill="#fff" d="M271 208h1v1l-1-1"/><path fill="none" stroke="#000" stroke-width=".2" d="M271 208h1v1l-1-1zm1-1h-1zm1-1h1l-1 1v-1zm1 0v-1l1 1h-1zm1 0 1-1v1h-1z"/><path fill="none" stroke="#000" stroke-linecap="round" stroke-width=".3" d="M268 211a3 3 0 0 1 0-1l2-3 2 1"/><path fill="none" stroke="#000" stroke-width=".3" d="m273 209-1-1 3-2a3 3 0 0 1 2 1"/><path fill="none" stroke="#000" stroke-width=".2" d="M267 210h1-1zm0-2h1l-1 1v-1zm1-1h1l-1 1v-1zm1 0 1-1v1h-1zm1 0 1-1v1h-1z"/><path fill="#c8b100" d="m278 211 1 1 1-1v1h2l1-1v1l1 1 1-1v1h1l1-1-1 1-1 1v-1a2 2 0 0 1-1 0h-2a2 2 0 0 1-1 0l-1-1a2 2 0 0 1-1 1l-1-1-2 1-1-1a2 2 0 0 1-1 1l-1-1-1 1h-1l-1 1-1-1-1-1h1v1h1l1-1 1 1 1-1a1 1 0 0 0 0-1l1 1 1-1 1 1 1-1h1"/><path fill="none" stroke="#000" stroke-width=".3" d="m278 211 1 1 1-1v1h2l1-1v1l1 1 1-1v1h1l1-1-1 1-1 1v-1a2 2 0 0 1-1 0h-2a2 2 0 0 1-1 0l-1-1a2 2 0 0 1-1 1l-1-1-2 1-1-1a2 2 0 0 1-1 1l-1-1-1 1h-1l-1 1-1-1-1-1h1v1h1l1-1 1 1 1-1a1 1 0 0 0 0-1l1 1 1-1 1 1 1-1h1z"/><path fill="#c8b100" d="m278 213-7 1h-1l8-1 7 1s1 0 0 0c0 0 0 1 0 0l-7-1"/><path fill="none" stroke="#000" stroke-width=".3" d="m278 213-7 1h-1l8-1 7 1s1 0 0 0c0 0 0 1 0 0l-7-1z"/><path fill="#fff" d="M275 214h1l-1 1v-1"/><path fill="none" stroke="#000" stroke-width=".3" d="M275 214h1l-1 1v-1z"/><path fill="#ad1519" d="M278 215h-1v-1h2-1"/><path fill="none" stroke="#000" stroke-width=".3" d="M278 215h-1v-1h2-1"/><path fill="#058e6e" d="M273 215h-1v-1h2v1h-1"/><path fill="none" stroke="#000" stroke-width=".3" d="M273 215h-1v-1h2v1h-1"/><path fill="#ad1519" d="M271 215h1-1"/><path fill="none" stroke="#000" stroke-width=".3" d="M271 215h1-1"/><path fill="#fff" d="M280 214h1l-1 1v-1"/><path fill="none" stroke="#000" stroke-width=".3" d="M280 214h1l-1 1v-1z"/><path fill="#058e6e" d="M283 215h1l-1-1h-1v1h1"/><path fill="none" stroke="#000" stroke-width=".3" d="M283 215h1l-1-1h-1v1h1"/><path fill="#ad1519" d="M285 215h-1v1h1"/><path fill="none" stroke="#000" stroke-width=".3" d="M285 215h-1v1h1"/><path fill="#ad1519" d="M278 217h-6a25 25 0 0 1 12 0h-6"/><path fill="none" stroke="#000" stroke-linejoin="round" stroke-width=".3" d="M278 217h-6a25 25 0 0 1 12 0h-6z"/><path fill="none" stroke="#000" stroke-width=".3" d="M285 212z"/><path fill="#c8b100" d="M281 211h-1v1l1-1"/><path fill="none" stroke="#000" stroke-width=".3" d="M281 211h-1v1l1-1z"/><path fill="#c8b100" d="M275 211h1l-1 1v-1"/><path fill="none" stroke="#000" stroke-width=".3" d="M275 211h1l-1 1v-1zm-4 1z"/><path fill="#c8b100" d="M278 209h-1l1 1 1-1h-1"/><path fill="none" stroke="#000" stroke-width=".3" d="M278 209h-1l1 1 1-1h-1"/><path fill="#c8b100" d="M276 211h2v-1h-2"/><path fill="none" stroke="#000" stroke-width=".3" d="M276 211h2v-1h-2"/><path fill="#c8b100" d="M280 211h-2v-1h2"/><path fill="none" stroke="#000" stroke-width=".3" d="M280 211h-2v-1h2"/><path fill="#c8b100" d="m273 209-1 1 1 1v-2"/><path fill="none" stroke="#000" stroke-width=".3" d="m273 209-1 1 1 1v-2"/><path fill="#c8b100" d="m271 211 1 1 1-1h-2"/><path fill="none" stroke="#000" stroke-width=".3" d="m271 211 1 1 1-1h-2"/><path fill="#c8b100" d="M275 211h-2l1-1 1 1"/><path fill="none" stroke="#000" stroke-width=".3" d="M275 211h-2l1-1 1 1"/><path fill="#c8b100" d="M270 211v1h-2l1-1h1"/><path fill="none" stroke="#000" stroke-width=".3" d="M270 211v1h-2l1-1h1"/><path fill="#c8b100" d="m272 211 1-1a1 1 0 0 1 0 1 1 1 0 0 1-1 0"/><path fill="none" stroke="#000" stroke-width=".3" d="m272 211 1-1a1 1 0 0 1 0 1 1 1 0 0 1-1 0z"/><path fill="#c8b100" d="m283 209 1 1-1 1-1-2h1"/><path fill="none" stroke="#000" stroke-width=".3" d="m283 209 1 1-1 1-1-2h1"/><path fill="#c8b100" d="m285 211-1 1-1-1h2"/><path fill="none" stroke="#000" stroke-width=".3" d="m285 211-1 1-1-1h2"/><path fill="#c8b100" d="M281 211h2l-1-1-1 1"/><path fill="none" stroke="#000" stroke-width=".3" d="M281 211h2l-1-1-1 1"/><path fill="#c8b100" d="M286 211v1h1l-1-1"/><path fill="none" stroke="#000" stroke-width=".3" d="M286 211v1h1l-1-1"/><path fill="#c8b100" d="M277 210h1v1a1 1 0 0 1-1-1"/><path fill="none" stroke="#000" stroke-width=".3" d="M277 210h1v1a1 1 0 0 1-1-1z"/><path fill="#c8b100" d="m282 211 1-1v1a1 1 0 0 1-1 0"/><path fill="none" stroke="#000" stroke-width=".3" d="m282 211 1-1v1a1 1 0 0 1-1 0z"/><path fill="#c8b100" d="M277 205h2l-1 1-1-1"/><use xlink:href="#a"/><path fill="none" stroke="#000" stroke-width=".3" d="M279 205v1h-2v-1h1v-1h-1 1v-1 1h1-1v1h1z"/><use xlink:href="#a"/><path fill="none" stroke="#000" stroke-width=".3" d="M278 205h1l-1 1-1-1h1"/><path fill="#c8b100" d="m268 212-1-1h1v1"/><path fill="none" stroke="#000" stroke-width=".3" d="m268 212-1-1h1v1z"/><path fill="#c8b100" d="M268 212h1v1h-1v-1"/><path fill="none" stroke="#000" stroke-width=".3" d="M268 212h1v1h-1v-1z"/><path fill="#c8b100" d="M288 212v-1h1-1v1"/><path fill="none" stroke="#000" stroke-width=".3" d="M288 212v-1h1-1v1z"/><path fill="#c8b100" d="M288 212h-1v1-1"/><path fill="none" stroke="#000" stroke-width=".3" d="M288 212h-1v1-1z"/><path fill="#c8b100" d="M267 223h22v-5h-22v5z"/><path fill="none" stroke="#000" stroke-width=".4" d="M267 223h22v-5h-22v5z"/><path fill="#c8b100" d="M286 227h-17l1-1-1-2h17l-1 2 1 1"/><path fill="none" stroke="#000" stroke-linejoin="round" stroke-width=".4" d="M286 227h-17l1-1-1-2h17l-1 2 1 1z"/><path fill="#c8b100" d="M270 227h17l-1 1h-16l-1-1h1"/><path fill="none" stroke="#000" stroke-width=".4" d="M270 227h17l-1 1h-16l-1-1h1z"/><path fill="#c8b100" d="M270 223h16l1 1h-18l1-1"/><path fill="none" stroke="#000" stroke-width=".4" d="M270 223h16l1 1h-18l1-1z"/><path fill="#005bbf" d="M263 317h4l3-1 4 1h8l3-1 4 1h4v3l-4-1-4-1-3 1-4 1-4-1-4-1-4 1-3 1v-2"/><path fill="none" stroke="#000" stroke-width=".4" d="M263 317h4l3-1 4 1h8l3-1 4 1h4v3l-4-1-4-1-3 1-4 1-4-1-4-1-4 1-3 1v-2z"/><path fill="#ccc" d="m263 320 4-1 3-1 4 1 4 1 4-1 3-1 4 1 4 1v2h-4l-4-1-3 1-4 1-4-1-4-1-4 1h-3v-2"/><path fill="none" stroke="#000" stroke-width=".4" d="m263 320 4-1 3-1 4 1 4 1 4-1 3-1 4 1 4 1v2h-4l-4-1-3 1-4 1-4-1-4-1-4 1h-3v-2"/><path fill="#005bbf" d="m263 322 4-1 3-1 4 1 4 1 4-1h7l4 1v3l-4-1-4-1-3 1-4 1-4-1-4-1-4 1h-3v-2"/><path fill="none" stroke="#000" stroke-width=".4" d="m263 322 4-1 3-1 4 1 4 1 4-1h7l4 1v3l-4-1-4-1-3 1-4 1-4-1-4-1-4 1h-3v-2"/><path fill="#ccc" d="m263 327 4-1 3-1 4 1 4 1 4-1 3-1 4 1 4 1v-3l-4-1h-7l-4 1-4-1h-4l-4 1h-3v3"/><path fill="none" stroke="#000" stroke-width=".4" d="m263 327 4-1 3-1 4 1 4 1 4-1 3-1 4 1 4 1v-3l-4-1h-7l-4 1-4-1h-4l-4 1h-3v3"/><path fill="#005bbf" d="m263 329 4-1 3-1 4 1 4 1 4-1 3-1 4 1 4 1v-2l-4-1-4-1-3 1-4 1-4-1-4-1-4 1-3 1v2"/><path fill="none" stroke="#000" stroke-width=".4" d="m263 329 4-1 3-1 4 1 4 1 4-1 3-1 4 1 4 1v-2l-4-1-4-1-3 1-4 1-4-1-4-1-4 1-3 1v2z"/><path fill="#c8b100" d="M286 308v1c0 1 1 2 3 2h-22l3-2v-1h16"/><path fill="none" stroke="#000" stroke-linejoin="round" stroke-width=".4" d="M286 308v1c0 1 1 2 3 2h-22l3-2v-1h16z"/><path fill="#c8b100" d="M270 307h17l-1 1h-16l-1-1h1"/><path fill="none" stroke="#000" stroke-width=".4" d="M270 307h17l-1 1h-16l-1-1h1z"/><path fill="#c8b100" d="M267 317h22v-6h-22v6z"/><path fill="none" stroke="#000" stroke-width=".4" d="M267 317h22v-6h-22v6z"/><path fill="#ad1519" d="m291 287 3 3-2 1-2 4-2-4c0-2 1-3 3-4"/><path fill="none" stroke="#000" stroke-width=".4" d="m291 287 3 3-2 1-2 4-2-4c0-2 1-3 3-4z"/><path fill="#ccc" d="M270 306h16v-77h-16v77z"/><path fill="none" stroke="#000" stroke-width=".4" d="M281 229v76m2-76v76m-13 1h16v-77h-16v77z"/><path fill="#ad1519" d="M254 258a50 50 0 0 1 24-2c9 1 16 5 16 8h-1l4-8c0-3-7-7-18-9a54 54 0 0 0-9 0c-7 0-12 0-16 2v9"/><path fill="none" stroke="#000" stroke-linejoin="round" stroke-width=".4" d="M254 258a50 50 0 0 1 24-2c9 1 16 5 16 8h-1l4-8c0-3-7-7-18-9a54 54 0 0 0-9 0c-7 0-12 0-16 2v9"/><path fill="#ad1519" d="M286 267c4 0 7-1 7-3 1-1-1-3-3-4h-4v7"/><path fill="none" stroke="#000" stroke-width=".4" d="M286 267c4 0 7-1 7-3 1-1-1-3-3-4h-4v7"/><path fill="#ad1519" d="m270 262-6 2c0 1 2 3 6 5v-7"/><path fill="none" stroke="#000" stroke-width=".4" d="m270 262-6 2c0 1 2 3 6 5v-7"/><path fill="#ad1519" d="M295 282c1-1-3-4-9-6l-8-3c-9-4-15-8-14-9v-1l-1 8c-1 2 5 6 13 9 2 2 7 4 10 4l8 6 1-8"/><path fill="none" stroke="#000" stroke-linejoin="round" stroke-width=".4" d="M295 282c1-1-3-4-9-6l-8-3c-9-4-15-8-14-9v-1l-1 8c-1 2 5 6 13 9 2 2 7 4 10 4l8 6 1-8z"/><path fill="#c8b100" d="m264 254 2-6a5 5 0 0 1-1 0l-1 5-3-4h-2a131 131 0 0 1 4 6h1m6-7h-2v6h4v-1h-2v-5m7 1h2l-6-1v1a19 19 0 0 1 2 0l-1 5h2l1-5m2 6h1l1-3v1l1 1 1 2h2-1l-1-3 2-1-1-2-1-1h-3l-1 6m3-5 1 1-2 1 1-2m8 7v2h1l1 1v-7a3 3 0 0 1-1-1l-6 4h1v1l2-2 2 2zm-2-2 2-1v2l-2-1"/><path fill="none" d="m182 192 2-2 2 2-2 2-2-2z"/><path fill="#ad1519" stroke="#000" stroke-width=".3" d="M206 175c6 0 12 1 15 3l8 2h7c3 0 7 1 10 3l8 4-2 2v4l-4 4-2 2-5 4h-3v2l-32-3-32 3-1-2h-2l-5-4-2-2-5-4v-4l-1-2 7-4 10-3a29 29 0 0 0 15-2l15-2z"/><path fill="#c8b100" stroke="#000" stroke-width=".4" d="M206 217c-12 0-22-1-30-3a1 1 0 0 1 0-3 120 120 0 0 1 61 2l-1 1c-7 2-18 3-30 3"/><path fill="#ad1519" d="M206 216c-10 0-20-2-27-3 7-2 17-4 27-4 11 0 20 2 28 3-8 2-17 4-28 4"/><path fill="none" stroke="#000" stroke-width=".1" d="M207 216v-7m-2 7v-7"/><path fill="none" stroke="#000" stroke-width=".2" d="M204 216v-7m-2 7v-7"/><path fill="none" stroke="#000" stroke-width=".3" d="M201 216v-7m-3 6v-5m1 5v-6"/><path fill="none" stroke="#000" stroke-width=".4" d="M195 215v-5m2 5v-5m-5 5v-5m1 5v-5m1 5v-5m-3 5v-5"/><path fill="none" stroke="#000" stroke-width=".5" d="M190 215v-5m-2 4v-4"/><path fill="none" stroke="#000" stroke-width=".6" d="M186 214v-3m1 3v-3m-2 3v-3"/><path fill="none" stroke="#000" stroke-width=".7" d="M184 214v-3m-2 2v-2m-1 2v-1"/><path fill="none" stroke="#000" stroke-width=".9" d="M180 213v-1"/><path fill="none" d="M214 215v-5m-3 6v-6m-2 6v-7"/><path fill="#c8b100" stroke="#000" stroke-width=".4" d="M206 207c-12 0-22 2-30 4v-3c-1-2-3-2-3-2 9-3 20-4 33-4s25 1 33 4l-2 2-1 3c-7-2-18-4-30-4"/><path fill="#c8b100" stroke="#000" stroke-width=".4" d="M206 202c-13 0-24 1-33 4l-1-1 1-1a130 130 0 0 1 67 0v1l-1 1c-8-3-20-4-33-4"/><path fill="none" stroke="#000" stroke-linejoin="round" stroke-width=".4" d="M206 216c-10 0-20-2-27-3 7-2 17-4 27-4 11 0 20 2 28 3-8 2-17 4-28 4z"/><path fill="#fff" stroke="#000" stroke-width=".4" d="m197 205 1-1 1 1-1 1-1-1"/><path fill="#ad1519" stroke="#000" stroke-width=".4" d="M206 206h-3l-1-1 1-1h6l1 1-1 1h-3"/><path fill="#058e6e" stroke="#000" stroke-width=".4" d="M190 207h-2l-1-1 1-1 2-1h2l1 1v1h-3"/><path fill="#fff" stroke="#000" stroke-width=".4" d="m181 207 1-1 1 1-1 1-1-1"/><path fill="#ad1519" stroke="#000" stroke-width=".4" d="m174 209 1-2h3l-2 2-2-1"/><path fill="#058e6e" stroke="#000" stroke-width=".4" d="M222 207h2l1-1v-1l-3-1h-2l-1 1 1 1h2"/><path fill="#fff" stroke="#000" stroke-width=".4" d="m213 205 1-1 1 1-1 1-1-1m16 2 1-1 1 1-1 1-1-1"/><path fill="#ad1519" stroke="#000" stroke-width=".4" d="m238 209-1-2h-3l2 2 2-1"/><path fill="none" stroke="#000" stroke-width=".4" d="M177 213a115 115 0 0 1 58 0"/><path fill="#c8b100" d="m182 184 2 1 2-3c-2-2-4-4-4-7v-1c0-4 5-7 12-7l8 2 1-2-9-2c-8 0-13 5-14 9v1c0 3 2 5 3 7l-1 2"/><path fill="none" stroke="#000" stroke-width=".4" d="m182 184 2 1 2-3c-2-2-4-4-4-7v-1c0-4 5-7 12-7l8 2 1-2-9-2c-8 0-13 5-14 9v1c0 3 2 5 3 7l-1 2"/><path fill="#c8b100" d="m182 184-4-7c0-4 2-6 6-8-2 1-3 3-4 6 0 3 2 5 3 7l-1 2"/><path fill="none" stroke="#000" stroke-width=".4" d="m182 184-4-7c0-4 2-6 6-8-2 1-3 3-4 6 0 3 2 5 3 7l-1 2"/><path fill="#c8b100" d="m160 187-2-6 1-4c2-4 8-7 16-7l6 1-1 1a26 26 0 0 0-5 0c-7 0-13 2-15 6a7 7 0 0 0 0 3l2 6-2 4-2-1 2-3"/><path fill="none" stroke="#000" stroke-width=".4" d="m160 187-2-6 1-4c2-4 8-7 16-7l6 1-1 1a26 26 0 0 0-5 0c-7 0-13 2-15 6a7 7 0 0 0 0 3l2 6-2 4-2-1 2-3z"/><path fill="#c8b100" d="m163 173-4 4a9 9 0 0 0-1 4l2 6-1 3c-2-2-3-4-3-7 0-4 3-7 7-10"/><path fill="none" stroke="#000" stroke-width=".4" d="m163 173-4 4a9 9 0 0 0-1 4l2 6-1 3c-2-2-3-4-3-7 0-4 3-7 7-10z"/><path fill="#c8b100" d="M206 164c2 0 3 1 4 3v6l1 8-5 5-5-5 1-8v-2l1-4c0-1 1-3 3-3"/><path fill="none" stroke="#000" stroke-width=".4" d="M206 164c2 0 3 1 4 3v6l1 8-5 5-5-5 1-8v-2l1-4c0-1 1-3 3-3z"/><path fill="#c8b100" d="m206 166 2 1v6l1 7-3 3-3-3 1-7v-1a28 28 0 0 1 0-5l2-1"/><path fill="none" stroke="#000" stroke-width=".4" d="m206 166 2 1v6l1 7-3 3-3-3 1-7v-1a28 28 0 0 1 0-5l2-1z"/><path fill="#c8b100" d="m230 184-2 1-2-3c2-2 4-4 4-7a7 7 0 0 0 0-1c0-4-5-7-12-7l-8 2a23 23 0 0 0 0-2l8-2c8 0 13 5 14 9v1c0 3-1 5-3 7l1 2"/><path fill="none" stroke="#000" stroke-width=".4" d="m230 184-2 1-2-3c2-2 4-4 4-7a7 7 0 0 0 0-1c0-4-5-7-12-7l-8 2a23 23 0 0 0 0-2l8-2c8 0 13 5 14 9v1c0 3-1 5-3 7l1 2"/><path fill="#c8b100" d="m230 184 4-7c0-4-2-6-6-8 2 1 4 3 4 6s-1 5-3 7l1 2"/><path fill="none" stroke="#000" stroke-width=".4" d="m230 184 4-7c0-4-2-6-6-8 2 1 4 3 4 6s-1 5-3 7l1 2"/><path fill="#c8b100" d="m252 187 2-6a9 9 0 0 0-1-4c-2-4-8-7-16-7l-6 1 1 1a25 25 0 0 1 5 0c7 0 13 2 15 6v3l-2 6 2 4 2-1-2-3"/><path fill="none" stroke="#000" stroke-width=".4" d="m252 187 2-6a9 9 0 0 0-1-4c-2-4-8-7-16-7l-6 1 1 1a25 25 0 0 1 5 0c7 0 13 2 15 6v3l-2 6 2 4 2-1-2-3z"/><path fill="#c8b100" d="m249 173 4 4a9 9 0 0 1 1 4l-2 6 1 3c2-2 3-4 3-7 0-4-3-7-7-10"/><path fill="none" stroke="#000" stroke-width=".4" d="m249 173 4 4a9 9 0 0 1 1 4l-2 6 1 3c2-2 3-4 3-7 0-4-3-7-7-10z"/><path fill="#fff" d="m204 181 2-1 2 1-2 2-2-2"/><path fill="none" stroke="#000" stroke-width=".4" d="m204 181 2-1 2 1-2 2-2-2z"/><path fill="#fff" stroke="#000" stroke-width=".4" d="m204 178 2-2 2 2-2 2-2-2m1-4 1-1 2 1-2 2-1-2m0-3 1-1 1 1-1 1-1-1m0-3 1-1 1 1-1 1-1-1"/><path fill="#c8b100" stroke="#000" stroke-width=".4" d="M206 192h1v2c0 2 2 4 5 4 2 0 4-1 4-3l1-2v2c1 2 3 4 5 4s5-2 5-5l1-2 1 2-1 2c0 3 2 4 5 4 1 0 3 0 3-2l1-1v2l2 3 4-2 4-3v2l-4 4-4 1-3-3a7 7 0 0 1-3 1c-3 0-5-1-6-3l-5 2-6-3a7 7 0 0 1-4 2c-3 0-5-1-6-3-1 2-4 3-6 3a7 7 0 0 1-5-2c-1 2-3 3-5 3l-5-2c-1 2-3 3-6 3a7 7 0 0 1-3-1l-3 3-4-1-4-4v-2l3 3 4 2c2 0 2-2 2-3v-2l1 1c1 2 2 2 4 2 3 0 5-2 5-4l-1-2 1-2 1 2c0 3 2 5 5 5 2 0 4-2 5-4v-2l1 2c0 1 2 3 4 3 3 0 5-2 5-5v-1h1"/><path fill="#fff" stroke="#000" stroke-width=".4" d="m239 198-1-2-1 1v2l2-1m-21-4-1-2-1 1 1 2 1-1m-23 0v-2l2 2-1 1-1-1m-21 4 1-2 1 1v2l-2-1"/><path fill="#c8b100" stroke="#000" stroke-width=".4" d="m183 184 2 3v-1h1v4l-1 1a2 2 0 0 0-1 0 2 2 0 0 0-2 1s0-1-1-2l-1-2v-1h1l1 1c-1-2 0-3 1-4"/><path fill="#c8b100" stroke="#000" stroke-width=".4" d="M183 194a2 2 0 0 1-1-1l1-1-2-1h-3v1l-3 2 4 1-1 1h2l2-1 1-2m3 0a2 2 0 0 0 0-1 2 2 0 0 0-1-1s1-1 2-1l2-1 1-1v1a6 6 0 0 1 0 1l3 1c0 1-1 2-3 2a6 6 0 0 0 1 1h-3l-2-1"/><path fill="#ad1519" stroke="#000" stroke-width=".4" d="m182 192 2-2 2 2-2 2-2-2"/><path fill="#c8b100" stroke="#000" stroke-width=".4" d="m206 181 2 4 1-1h1v1l-1 3a8 8 0 0 1-1 1 2 2 0 0 0-2 0h-1l-1-1-1-3-1-1h1l1 1 2-4m-1 11a2 2 0 0 1-1-1l1-2-2-1h-3l-1-1v1l1 1-4 2 4 1-1 1v1h1l3-1 2-1m3 0v-3l1-1h3l1-1v2l3 2-3 1v2h-1l-2-1-2-1m22-8-2 3-1-1h-1v4l1 1a2 2 0 0 1 1 0l2 1 1-2 1-2v-1h-1l-1 1c1-2 0-3-1-4"/><path fill="#c8b100" stroke="#000" stroke-width=".4" d="m229 194 1-1a2 2 0 0 0 0-1l1-1h4-1a6 6 0 0 1 0 1l3 2-3 1v1h-1l-2-1-2-2m-3 0a2 2 0 0 1 0-1l1-1-2-1-2-1a171 171 0 0 1-1-1v1l1 1-4 1 3 2-1 1h4a11 11 0 0 0 1-1"/><path fill="#ad1519" stroke="#000" stroke-width=".4" d="m226 192 2-2a2 2 0 0 1 0 4l-2-2m23 5h-2v2h2v-2"/><path fill="#c8b100" stroke="#000" stroke-width=".4" d="m246 198 1-1h2l3-2 3-1c0-2-1-3-3-3l-2 1v-1l-2 2v3l-1-1-2-2h-2a5 5 0 0 0 0 1h-3l2 3h-1a4 4 0 0 0 0 1h4a15 15 0 0 0 1 0m-80 0-1-1h-2l-2-3h-3c0-2 1-3 3-3l2 1v-1l2 2v3l1-1 2-2 1-1v2h4l-2 3h1v1h-4a15 15 0 0 1-1 0"/><path fill="#ad1519" stroke="#000" stroke-width=".4" d="M163 197h2l1 2h-2l-1-2m41-7 2-1 2 2-2 2-2-2"/><path fill="#005bbf" stroke="#000" stroke-width=".3" d="M202 161c0-3 2-4 4-4 3 0 4 1 4 4s-2 4-4 4-4-2-4-4"/><path fill="#c8b100" stroke="#000" stroke-width=".3" d="M205 149v3h-2v2h2v6h-3v2h8v-2h-3v-6h3v-3h-3v-2h-2z"/><path fill="#ccc" d="M207 331c-13 0-25-3-36-9-8-4-13-11-13-20v-32h97v32c0 9-5 17-13 20-11 5-23 9-36 9"/><path fill="none" stroke="#000" stroke-width=".5" d="M207 331c-13 0-25-3-36-9-8-4-13-11-13-20v-32h97v32c0 9-5 17-13 20-11 5-23 9-36 9z"/><path fill="#ccc" d="M206 270h49v-53h-49v53z"/><path fill="none" stroke="#000" stroke-width=".5" d="M206 270h49v-53h-49v53z"/><path fill="#ad1519" d="M206 302c0 13-10 23-24 23-13 0-24-10-24-23v-32h48v32"/><path fill="#c8b100" stroke="#000" stroke-width=".5" d="m169 321 5 3v-55h-5v52z"/><path fill="#c8b100" stroke="#000" stroke-linejoin="round" stroke-width=".5" d="M158 302c0 6 3 11 6 15v-48h-6v33z"/><path fill="#c7b500" stroke="#000" stroke-width=".5" d="M179 325a27 27 0 0 0 6 0v-56h-6v56z"/><path fill="#c8b100" stroke="#000" stroke-width=".5" d="m190 324 6-3v-52h-6v55z"/><path fill="#ad1519" d="M158 270h48v-53h-48v53z"/><path fill="none" stroke="#000" stroke-width=".5" d="M158 270h48v-53h-48v53z"/><path fill="#c8b100" stroke="#000" stroke-width=".5" d="M201 316c2-2 5-7 5-12v-35h-5v47z"/><path fill="none" stroke="#000" stroke-width=".5" d="M206 302c0 13-10 23-24 23-13 0-24-10-24-23v-32h48v32"/><path fill="#ad1519" d="M255 270v32c0 13-11 23-24 23-14 0-25-10-25-23v-32h49"/><path fill="none" stroke="#000" stroke-width=".5" d="M255 270v32c0 13-11 23-24 23-14 0-25-10-25-23v-32h49"/><path fill="#c8b100" d="M215 294v1l-1 1-1-1v-1h-1v1l1 2v4h2v-4a3 3 0 0 0 2-2h4v-1h-6m22 0v1h-4a3 3 0 0 1-1 1l5 5-1 1-5-5v8h-2v-8l-5 5-1-1 5-5a2 2 0 0 1 0-1h-4v-1h13zm2 0v1h5l1 2v4h2v-4l2-2v-1h-2v1l-1 1-1-1a1 1 0 0 1 0-1h-6m-6 22 3-1 1 2a18 18 0 0 1-4 1c0 1-1 2-3 2l-2-2a18 18 0 0 1-5-1l1-2 4 1 1-1v-7h2v7l2 1zm-11-2-1 2a17 17 0 0 1-4-3l-2-1c-1-1-2-2-1-4a15 15 0 0 1-1-5h2a13 13 0 0 0 1 5h1l4-5 2 1-4 5v3a15 15 0 0 0 3 2zm-6-5h1v2a1 1 0 0 1-1 0 1 1 0 0 1 0-2zm-2-4h-2v-5h1v5zm1-5h2v4l-2 1v-5zm5 13a16 16 0 0 0 5 3l1-2a14 14 0 0 1-4-2l-2 1m0 2a17 17 0 0 0 4 2l-1 2a19 19 0 0 1-4-2l1-2m2-9h1l3-3-1-1-3 4m-2-1-1-2 3-3 2 1-4 4m18 10 1 1a17 17 0 0 0 4-3h2c1-1 2-3 1-4a15 15 0 0 0 1-5h-2a13 13 0 0 1-1 4 3 3 0 0 0-1 0l-4-4-2 1 4 4a2 2 0 0 0 1 3 15 15 0 0 1-3 3zm7-5a1 1 0 0 0-2 0 1 1 0 0 0 0 1 1 1 0 0 0 1 0 1 1 0 0 0 0-1zm2-5h1l1-4-2-1v6zm-2-5-1 1v2l-1 2h2v-5m-5 13a16 16 0 0 1-5 3v-2a14 14 0 0 0 4-2l1 1m1 2a18 18 0 0 1-5 2l1 1 4-2-1-1m-2-10-1 1-3-3 1-2 3 4m1-1 1-1-3-3-1 1 3 4m-20-9 1 1h4l1-1h-6m21 0v1h-5v-1h5m-11 22 1-1 1 1-1 1-1-1zm2-8h1v-5h-1v5m-2 0-1-1v-4h1v5m-17-16 1-2v-5h2v5l2 2h4-6a1 1 0 0 0-1 0h-3m13 0h4a2 2 0 0 1 0-1l-5-5 1-1 5 5v-7h2v7l5-5 1 1-5 5 1 1h4-13zm21 0a1 1 0 0 1 1 0h3l-2-2v-5h-2v5l-1 2h-5 6m-30-15 6 7 1-1-6-7h5v-2h-4l-3-2c-1 0-3 1-3 3l2 2v5h2v-5zm32 0v5h-2v-5l-6 7-1-1 6-7h-5v-2h5l2-2c2 0 3 1 3 3l-2 2zm-16 0v3h-2v-3a3 3 0 0 1-2-1h-3v-2h4l2-2 3 2h4v2h-4a3 3 0 0 1-2 1zm-18 4-2 1v4h2v-5m2 0h1v5h-1v-5m30 0h-1v5h1v-5m2 0h2v4l-2 1v-5m-25 0h1l3 3-1 1-3-4m-2 1-1 2 3 3 2-1-4-4m19-1h-2l-3 3 1 1 4-4m1 1 1 2-3 3-2-1 4-4m-20 9v-1h5v1h-5m-7-17 1-1 1 1-1 1-1-1zm12 1v1h-5v-1h5m0-2v-1h-5v1h5m16 18-1-1h-4l-1 1h6m4-17 1-1 2 1-1 1-2-1zm-16 0 1-1 1 1-1 1-1-1zm6 1 1 2h5v-2h-6m0-2 1-1h4l1 1h-6m-6 6h-1v4l1 1v-5m2 0 2 1v4h-2v-5"/><path fill="none" stroke="#c8b100" stroke-width=".3" d="m233 316 3-1 1 2a18 18 0 0 1-4 1l-3 2-2-2a18 18 0 0 1-5-1l1-2 4 1 1-1v-7h2v7l2 1zm-5-20a2 2 0 0 1 0-1h-4v-1h4l-5-6 1-1 5 5v-7h2v7l5-5 1 1-4 5v1h4v1h-4v1l4 5-1 1-5-5v8h-1v-8h-1l-4 5-2-1 5-5m-13-17 6 7 1-1-5-7h4v-2h-4l-3-2c-1 0-2 1-2 3l1 2v5h2v-5zm7 35-1 1a17 17 0 0 1-4-3h-2c-1-1-2-3-1-4a15 15 0 0 1-1-5h2a13 13 0 0 0 1 4h1l4-4 2 1-4 4-1 3a15 15 0 0 0 4 3zm-9-13v-4c-1 0-2-1-2-3l2-2v-5h2v5l1 2h5v1h-5a3 3 0 0 1-1 2v4h-2m2 8h2v2a1 1 0 0 1-1 0 1 1 0 0 1 0-2zm-2-4-1-1-1-4h2v5zm2-6 1 1v2l1 2-2 1v-6zm5 14a16 16 0 0 0 5 3v-2a14 14 0 0 1-4-2l-1 1m-1 2a17 17 0 0 0 5 2l-1 1a19 19 0 0 1-4-2v-1"/><path fill="none" stroke="#c8b100" stroke-width=".3" d="m222 305 2 1 3-3-1-2-4 4m-1-1-1-1 3-3h1l-4 4m-7-9 1-1 1 1-1 1-1-1zm26 19v2a17 17 0 0 0 4-3l2-1c2-1 2-2 1-4a15 15 0 0 0 1-5h-2a13 13 0 0 1-1 5 3 3 0 0 0-1 0l-4-5-1 1 4 5a2 2 0 0 0 0 3 15 15 0 0 1-3 2zm8-13v-4l2-2-2-2v-6h-1v5l-2 2h-5v1h5l2 2v4h1zm-2 8a1 1 0 0 0-2 0 1 1 0 0 0 0 1 1 1 0 0 0 2 0 1 1 0 0 0 0-1zm2-4 2-1v-4l-2-1v6zm-1-6-2 1v4h1l1-2v-3m1-20v5h-1v-5a2 2 0 0 1-1 0l-6 7-1-1 6-7h-4v-2h4l3-2c1 0 2 1 2 3 0 1 0 2-2 2zm-16 0v3h-1v-3a3 3 0 0 1-2-2h-4v-1h4c0-1 1-2 3-2s2 1 2 2h4v2h-4a3 3 0 0 1-2 1zm9 34a16 16 0 0 1-5 3v-2a14 14 0 0 0 4-2l1 1m1 1a18 18 0 0 1-5 3l1 1 4-2v-1m-28-32-1 1v4h1v-5m2 0 2 1v4h-2v-5m31 0-2 1v4h2v-5"/><path fill="none" stroke="#c8b100" stroke-width=".3" d="m247 283 2 1v4h-2v-5m-8 22-2 1-3-3 1-2 4 4m1-1 1-1-3-3h-2l4 4m-18-20 1-1 3 4-1 1-3-4m-2 1-1 2 3 3 2-1-4-4m19-1-2-1-3 4 1 1 4-4m1 1 1 1-3 4-2-1 4-4m-20 9v-2h5v2h-5m0 1v2h5v-2h-5m-7-18 1-1 1 1-1 1-1-1zm12 1v1h-5v-1h5m0-2v-1h-5v1h5m20 19 1-1 1 1-1 1-1-1zm-4-1-1-2h-4l-1 2h6m0 1-1 2h-4l-1-2h6m-12 22 1-1 1 1-1 1-1-1zm2-8h2v-4h-2v5m-1 0-2-1v-4h2v5m15-33 1-1 2 1-2 1-1-1zm-16 0 1-1 1 1-1 1-1-1zm6 1 1 1h4l1-1h-6m0-2 1-1h4l1 1h-6m-6 5-1 1v4h1v-5m2 0 2 1v4h-2v-5"/><path fill="#058e6e" d="M228 295c0-2 1-3 2-3 2 0 3 1 3 3 0 1-1 2-3 2l-2-2"/><path fill="#db4446" d="M231 230v-1h-2l-3-1-1-2-3 1 2 1 2 1 3 1h2"/><path fill="none" stroke="#000" stroke-width=".4" d="M231 230v-1h-2l-3-1-1-2-3 1 2 1 2 1 3 1h2z"/><path fill="#ed72aa" stroke="#000" stroke-width=".4" d="M238 228v3l1 1h-1l-1-1v1l1 1 1 2v1l-1-1h-1v3l-1-1-1-1 1 2v2l-1-1-1-1v1l2 5c1 1 3 4 6 3s2-5 1-7l-1-4v-4l1-3 1-2v-3l1 2v1l1-1 2-2v2l-2 2h2l-1 2-1 2-2 1-1 5 2 5c0 11 4-1 5l-3 1c-1 0-2 1-2 3l1 2 2 1v1s1 0 0 0l-1 2-1 3 1 1v1h-2v-1h-1v1h-1l-1-1 1-1s1 0 0 0h-1v-2h2l1-1-1-1v-1l-1-1v3-1l-1-2v2h-1l-1-1v-4h-3l1 3v2l-1 1-2-1h-2l-1 1c1 0 0 0 0 0h-2l1-1h-2v-2h1v-1s-1 0 0 0v-1l1-1 1 2 2 1 1-1v-2l-1 1v-2l-1 1v1-4l2-2h5l-4-2-2-2v-1h-1a5 5 0 0 0-1 1l-1 1v-2l-1 2-2 1v-2l-1 1h-2l1 2h-2l-1-1 1-1-1 1-1-1v-1h1v-1l-1-1h1v-1l1 1h2l2-1 1-1-1-1-1-1h-1l-2-1h1v-1h1-4l2-1h1-1l-1-1-1-1h-1v-2h1-1l-1-1 1-1h1l1 1v-1l1-1h1l1 1-1 1v1l1 1 2 1 2 2h4l1-1-1-2h1l2-1-1-2-2-1v-1h1l2-1 1-1h1l3 2 2 2"/><path d="M228 227v-1h1-1v1"/><path fill="none" stroke="#000" stroke-width=".3" d="M228 227v-1h1-1v1z"/><path d="M232 226v-1h1l1 1h-2v-1"/><path fill="none" d="M232 226v-1h1l1 1h-2v-1z"/><path fill="none" stroke="#000" stroke-width=".3" d="M237 231v-1"/><path fill="#db4446" d="M217 227h2v-1l-1-1v1l-1 1"/><path fill="none" stroke="#000" stroke-width=".4" d="M217 227h2v-1l-1-1v1l-1 1z"/><path fill="#db4446" d="m215 228-1-1-2 1h2v1l1-1"/><path fill="none" stroke="#000" stroke-width=".4" d="m215 228-1-1-2 1h2v1l1-1z"/><path fill="#db4446" d="M214 231h-1v1h2l-1-1"/><path fill="none" stroke="#000" stroke-width=".4" d="M214 231h-1v1h2l-1-1z"/><path d="M228 231v-1l1 1h-1"/><path fill="none" stroke="#000" stroke-width=".3" d="M228 231v-1l1 1h-1"/><path d="M229 231v-1l1 1h-1"/><path fill="none" stroke="#000" stroke-width=".3" d="M229 231v-1l1 1h-1"/><path d="M229 227v1-1"/><path fill="none" stroke="#000" stroke-width=".3" d="M229 227v1-1"/><path d="M230 228h-1"/><path fill="none" stroke="#000" stroke-width=".3" d="M230 228h-1"/><path fill="none" stroke="#000" stroke-width=".4" d="M224 234h-1v1h4l-1 1v3h1a5 5 0 0 0 1-1l1-1v3l1-1 1-1v-1l1 2v1l1-1 1-1-1-1 1 1m-11 1 1-1 1-1 1-1m1 5 1-1 1-1"/><path fill="#db4446" d="M217 240h-1l-2 1h2v-1"/><path fill="none" stroke="#000" stroke-width=".4" d="M217 240h-1l-2 1h2v-1z"/><path fill="#db4446" d="M216 243h-1l-1 2 1-1 1 1v-2"/><path fill="none" stroke="#000" stroke-width=".4" d="M216 243h-1l-1 2 1-1 1 1v-2z"/><path fill="#db4446" d="M217 246v1l2 1-1-1 1-1h-2"/><path fill="none" stroke="#000" stroke-width=".4" d="M217 246v1l2 1-1-1 1-1h-2zm16 1 2 2-1 3"/><path fill="#db4446" d="m224 253-1-1-1 1h2v-1"/><path fill="none" stroke="#000" stroke-width=".4" d="m224 253-1-1-1 1h2v-1z"/><path fill="#db4446" d="m222 255-1 1-1 1 1-1 1 1v-2"/><path fill="none" stroke="#000" stroke-width=".4" d="m222 255-1 1-1 1 1-1 1 1v-2z"/><path fill="#db4446" d="M224 258v1l1 1v-1l1-1h-2"/><path fill="none" stroke="#000" stroke-width=".4" d="M224 258v1l1 1v-1l1-1h-2z"/><path fill="#db4446" d="M236 259h-1l-1 2 1-1h1v-1"/><path fill="none" stroke="#000" stroke-width=".4" d="M236 259h-1l-1 2 1-1h1v-1z"/><path fill="#db4446" d="M236 262v1l1 1v-1h1-1a16 16 0 0 1-1-1"/><path fill="none" stroke="#000" stroke-width=".4" d="M236 262v1l1 1v-1h1-1a16 16 0 0 1-1-1z"/><path fill="#db4446" d="m239 263 1 1 1 1-1-1 1-1h-2"/><path fill="none" stroke="#000" stroke-width=".4" d="m239 263 1 1 1 1-1-1 1-1h-2z"/><path fill="#ffd691" stroke="#000" stroke-width=".5" d="M209 316c2 1 3 2 3 4s-2 4-5 4-5-2-5-4 1-3 3-4h-1v-1h1l1 1v-1h1l1 1v-1h1v2"/><path fill="#058e6e" stroke="#000" stroke-width=".5" d="m206 327-5-3h-6l2 1 4 2h6m1 0 5-3 6 1h-2l-4 2h-5"/><path fill="#ad1519" stroke="#000" stroke-width=".5" d="M207 324a5 5 0 0 1 0-7 5 5 0 0 1 1 3 5 5 0 0 1-1 4"/><path fill="#058e6e" stroke="#000" stroke-width=".5" d="M206 329v-5h1v5h-1"/><path fill="#fff" d="m254 191 1-1 1 1-1 1-1-1"/><path fill="none" stroke="#000" stroke-width=".4" d="m254 191 1-1 1 1-1 1-1-1z"/><path fill="#fff" d="m255 188 1-1 1 1-1 1-1-1"/><path fill="none" stroke="#000" stroke-width=".4" d="m255 188 1-1 1 1-1 1-1-1z"/><path fill="#fff" d="m256 185 1-1 1 1-1 1-1-1"/><path fill="none" stroke="#000" stroke-width=".4" d="m256 185 1-1 1 1-1 1-1-1z"/><path fill="#fff" d="m257 182 1-1 1 1-1 1-1-1"/><path fill="none" stroke="#000" stroke-width=".4" d="m257 182 1-1 1 1-1 1-1-1z"/><path fill="#fff" d="m256 179 1-1 1 1-1 1-1-1"/><path fill="none" stroke="#000" stroke-width=".4" d="m256 179 1-1 1 1-1 1-1-1z"/><path fill="#fff" d="m254 176 1-1 1 1-1 1-1-1"/><path fill="none" stroke="#000" stroke-width=".4" d="m254 176 1-1 1 1-1 1-1-1z"/><path fill="#fff" d="m252 174 1-1 1 1-1 1-1-1"/><path fill="none" stroke="#000" stroke-width=".4" d="m252 174 1-1 1 1-1 1-1-1z"/><path fill="#fff" d="m250 172 1-1 1 1-1 1-1-1"/><path fill="none" stroke="#000" stroke-width=".4" d="m250 172 1-1 1 1-1 1-1-1z"/><path fill="#fff" d="m247 170 1-1 1 1-1 1-1-1"/><path fill="none" stroke="#000" stroke-width=".4" d="m247 170 1-1 1 1-1 1-1-1z"/><path fill="#fff" d="m243 169 1-1 2 1-1 1-2-1"/><path fill="none" stroke="#000" stroke-width=".4" d="m243 169 1-1 2 1-1 1-2-1z"/><path fill="#fff" d="m240 169 1-1 1 1-1 1-1-1"/><path fill="none" stroke="#000" stroke-width=".4" d="m240 169 1-1 1 1-1 1-1-1z"/><path fill="#fff" d="m237 168 1-1 1 1-1 1-1-1"/><path fill="none" stroke="#000" stroke-width=".4" d="m237 168 1-1 1 1-1 1-1-1z"/><path fill="#fff" d="m233 169 1-1 1 1-1 1-1-1"/><path fill="none" stroke="#000" stroke-width=".4" d="m233 169 1-1 1 1-1 1-1-1z"/><path fill="#fff" d="m230 169 1-1 1 1-1 1-1-1"/><path fill="none" stroke="#000" stroke-width=".4" d="m230 169 1-1 1 1-1 1-1-1z"/><path fill="#fff" stroke="#000" stroke-width=".4" d="m232 171 1-1 1 1-1 1-1-1m0 3 1-1 1 1-1 1-1-1m0 3 1-1 2 1-1 1-1-1m-1 3 1-1 1 1-1 1-1-1m-2 3 1-1 1 1-1 1-1-1"/><path fill="#fff" d="m228 167 1-1 1 1-1 1-1-1"/><path fill="none" stroke="#000" stroke-width=".4" d="m228 167 1-1 1 1-1 1-1-1z"/><path fill="#fff" d="m225 165 1-1 1 1-1 1-1-1"/><path fill="none" stroke="#000" stroke-width=".4" d="m225 165 1-1 1 1-1 1-1-1z"/><path fill="#fff" d="m222 164 1-1 1 1-1 1-1-1"/><path fill="none" stroke="#000" stroke-width=".4" d="m222 164 1-1 1 1-1 1-1-1z"/><path fill="#fff" d="m218 163 1-1 1 1-1 1-1-1"/><path fill="none" stroke="#000" stroke-width=".4" d="m218 163 1-1 1 1-1 1-1-1z"/><path fill="#fff" d="m215 164 1-1 1 1-1 1-1-1"/><path fill="none" stroke="#000" stroke-width=".4" d="m215 164 1-1 1 1-1 1-1-1z"/><path fill="#fff" d="m212 164 1-1 1 1-1 1-1-1"/><path fill="none" stroke="#000" stroke-width=".4" d="m212 164 1-1 1 1-1 1-1-1z"/><path fill="#fff" d="m209 165 1-1 1 1-1 1-1-1"/><path fill="none" stroke="#000" stroke-width=".4" d="m209 165 1-1 1 1-1 1-1-1z"/><path fill="#fff" d="m156 191 1-1 1 1-1 1-1-1"/><path fill="none" stroke="#000" stroke-width=".4" d="m156 191 1-1 1 1-1 1-1-1z"/><path fill="#fff" d="m155 188 1-1 1 1-1 1-1-1"/><path fill="none" stroke="#000" stroke-width=".4" d="m155 188 1-1 1 1-1 1-1-1z"/><path fill="#fff" d="m154 185 1-1 1 1-1 1-1-1"/><path fill="none" stroke="#000" stroke-width=".4" d="m154 185 1-1 1 1-1 1-1-1z"/><path fill="#fff" d="m153 182 1-1 1 1-1 1-1-1"/><path fill="none" stroke="#000" stroke-width=".4" d="m153 182 1-1 1 1-1 1-1-1z"/><path fill="#fff" d="m154 179 1-1 1 1-1 1-1-1"/><path fill="none" stroke="#000" stroke-width=".4" d="m154 179 1-1 1 1-1 1-1-1z"/><path fill="#fff" d="m156 176 1-1 1 1-1 1-1-1"/><path fill="none" stroke="#000" stroke-width=".4" d="m156 176 1-1 1 1-1 1-1-1z"/><path fill="#fff" d="m158 174 1-1 1 1-1 1-1-1"/><path fill="none" stroke="#000" stroke-width=".4" d="m158 174 1-1 1 1-1 1-1-1z"/><path fill="#fff" d="m161 172 1-1 1 1-1 1-1-1"/><path fill="none" stroke="#000" stroke-width=".4" d="m161 172 1-1 1 1-1 1-1-1z"/><path fill="#fff" d="m164 170 1-1 1 1-1 1-1-1"/><path fill="none" stroke="#000" stroke-width=".4" d="m164 170 1-1 1 1-1 1-1-1z"/><path fill="#fff" d="m167 169 1-1 1 1-1 1-1-1"/><path fill="none" stroke="#000" stroke-width=".4" d="m167 169 1-1 1 1-1 1-1-1z"/><path fill="#fff" d="m170 169 1-1 1 1-1 1-1-1"/><path fill="none" stroke="#000" stroke-width=".4" d="m170 169 1-1 1 1-1 1-1-1z"/><path fill="#fff" d="m173 168 1-1 1 1-1 1-1-1"/><path fill="none" stroke="#000" stroke-width=".4" d="m173 168 1-1 1 1-1 1-1-1z"/><path fill="#fff" d="m177 169 1-1 1 1-1 1-1-1"/><path fill="none" stroke="#000" stroke-width=".4" d="m177 169 1-1 1 1-1 1-1-1z"/><path fill="#fff" d="m180 169 1-1 1 1-1 1-1-1"/><path fill="none" stroke="#000" stroke-width=".4" d="m180 169 1-1 1 1-1 1-1-1z"/><path fill="#fff" stroke="#000" stroke-width=".4" d="m178 171 1-1 1 1-1 1-1-1m0 3 1-1 1 1-1 1-1-1m-1 3 1-1 1 1-1 1-1-1m1 3 1-1 1 1-1 1-1-1m2 3 1-1 1 1-1 1-1-1"/><path fill="#fff" d="m182 167 1-1 1 1-1 1-1-1"/><path fill="none" stroke="#000" stroke-width=".4" d="m182 167 1-1 1 1-1 1-1-1z"/><path fill="#fff" d="m185 165 1-1 1 1-1 1-1-1"/><path fill="none" stroke="#000" stroke-width=".4" d="m185 165 1-1 1 1-1 1-1-1z"/><path fill="#fff" d="m188 164 1-1 1 1-1 1-1-1"/><path fill="none" stroke="#000" stroke-width=".4" d="m188 164 1-1 1 1-1 1-1-1z"/><path fill="#fff" d="m192 163 1-1 1 1-1 1-1-1"/><path fill="none" stroke="#000" stroke-width=".4" d="m192 163 1-1 1 1-1 1-1-1z"/><path fill="#fff" d="m195 164 1-1 1 1-1 1-1-1"/><path fill="none" stroke="#000" stroke-width=".4" d="m195 164 1-1 1 1-1 1-1-1z"/><path fill="#fff" d="m198 164 1-1 1 1-1 1-1-1"/><path fill="none" stroke="#000" stroke-width=".4" d="m198 164 1-1 1 1-1 1-1-1z"/><path fill="#fff" d="m201 165 1-1 1 1-1 1-1-1"/><path fill="none" stroke="#000" stroke-width=".4" d="m201 165 1-1 1 1-1 1-1-1z"/><path fill="#c8b100" stroke="#000" stroke-width=".4" d="M175 229h-1v-1h-2v4h2v2h-4v7h2v14h-3v8h27v-8h-4v-14h2v-7h-3v-2h1v-4h-1v1h-1v-1h-2v1h-1v-1h-1v4h1v2h-3v-8h2v-3h-2v1h-1v-1h-1v1h-1v-1h-2v3h2v8h-4v-2h2v-4h-2v1h-1v-1h-2v1zm-6 34h27m-27-2h27m-27-2h27m-27-2h27m-27-2h27m-24-1h20m-20-2h20m-20-2h20m-20-2h20m-20-2h20m-20-2h20m-20-1h20m-22-2h24m-24-2h24m-24-2h24m-24-1h24m-20-2h17m-10-2h3m-3-2h3m-3-1h3m-3-2h3m-5-2h7m-12 7h3m-5-2h7m-7 32v-1m0-2v-2m-2 2v2m4 0v-2m1 4v-2m0-2v-2m0-2v-1m0-2v-2m-1 7v-2m-4 2v-2m7 0v2m2-2v-1m-5-2v1m3-1v1m3-1v1m-1-1v-2m2-2v2m0-6v2m-2-3v1m2-3v2m-4-2v2m-3-2v2m-2-3v1m3-1v1m4-1v2m1-4v2m-3-2v2m-3-2v2m-2-4v2m7-2v2m-4-5v2m15-2h-3m5-2h-7m7 32v-2m0-1v-2m2 2v1m-3 0v-2m-2 4v-2m0-2v-2m0-2v-1m0-2v-2m2 7v-2m3 2v-2m-7 0v2m-1-2v-1m5-2v1m-4-1v1m-3-1v2m2-2v-2m-2-2v2m0-6v2m2-4v2m-2-3v2m3-2v2m4-2v2m1-3v1m-3-1v1m-3-1v2m-2-4v2m3-2v2m4-2v2m2-4v2m-7-2v2m3-5v2m-7 18v-2m0-6v-2m0 6v-2m0-5v-2m0-2v-2m0-3v-2m0-2v-2m-8 5h4m3-6h3m4 5h3"/><path fill="#c8b100" stroke="#000" stroke-width=".4" d="M187 263v-5c0-1-1-4-5-4s-4 3-4 4v4h9z"/><path fill="#c8b100" stroke="#000" stroke-width=".4" d="M179 258h-2l1-3 2 2-1 1zm6 0h3l-1-3-2 2v1zm-2-2 1-2h-4l1 2h2zm-4-6v-5c0-1-1-2-3-2s-2 1-2 3v5h5zm7 0v-5l2-2c1 0 3 1 3 3v5h-5zm-2-12v-4h-4v4h4zm3 0v-4h4v4h-4zm-10 0 1-4h-5l1 4h3z"/><path fill="#0039f0" d="M185 263v-4c0-1 0-3-3-3s-3 2-3 3v4h6zm-7-13v-4c0-1 0-3-2-3-1 0-2 1-2 3v4h4zm8 0v-4l2-3c2 0 2 1 2 3v4h-4z"/><path fill="#ad1519" d="M191 270c0-10 7-18 15-18s16 8 16 18-7 17-16 17-15-7-15-17"/><path fill="none" stroke="#000" stroke-width=".6" d="M191 270c0-10 7-18 15-18s16 8 16 18-7 17-16 17-15-7-15-17z"/><path fill="#005bbf" d="M195 270c0-7 5-13 11-13s11 5 11 13c0 7-5 13-11 13s-11-6-11-13"/><path fill="none" stroke="#000" stroke-width=".6" d="M195 270c0-7 5-13 11-13s11 5 11 13c0 7-5 13-11 13s-11-6-11-13z"/><path fill="#c8b100" d="m201 261-1 3v2l-1-1-1 2v1h1l1 1h-1v1h1l-1 1h1l1 1 1-1h1l-1-1h1v-1h-1a1 1 0 0 1 0-1h2l1-1v-1l-2-1-1 1 1-2-2-3"/><path fill="none" stroke="#000" stroke-linejoin="round" stroke-width=".3" d="m201 261-1 3v2l-1-1-1 2v1h1l1 1h-1v1h1l-1 1h1l1 1 1-1h1l-1-1h1v-1h-1a1 1 0 0 1 0-1h2l1-1v-1l-2-1-1 1 1-2-2-3z"/><path fill="#c8b100" d="M199 270h4v-1h-4v1z"/><path fill="none" stroke="#000" stroke-width=".3" d="M199 270h4v-1h-4v1z"/><path fill="#c8b100" d="m211 261-1 3 1 2-2-1-1 2 1 1h1l1 1h-2v1h1v1h1v1l1-1h1l-1-1h2v-1h-1a1 1 0 0 1-1-1h2l1-1v-1l-1-1-2 1 1-2-2-3"/><path fill="none" stroke="#000" stroke-linejoin="round" stroke-width=".3" d="m211 261-1 3 1 2-2-1-1 2 1 1h1l1 1h-2v1h1v1h1v1l1-1h1l-1-1h2v-1h-1a1 1 0 0 1-1-1h2l1-1v-1l-1-1-2 1 1-2-2-3z"/><path fill="#c8b100" d="M209 270h4v-1h-4v1z"/><path fill="none" stroke="#000" stroke-width=".3" d="M209 270h4v-1h-4v1z"/><path fill="#c8b100" d="m206 270-1 2 1 3-2-1-1 1v2l1-1 1 1a1 1 0 0 1 0 1h-1v1h1l-1 1h1l1 1 1-1h1l-1-1h1v-1h-1a1 1 0 0 1 0-1l1-1 1 1 1-1v-1l-2-1-1 1 1-3-2-2"/><path fill="none" stroke="#000" stroke-linejoin="round" stroke-width=".3" d="m206 270-1 2 1 3-2-1-1 1v2l1-1 1 1a1 1 0 0 1 0 1h-1v1h1l-1 1h1l1 1 1-1h1l-1-1h1v-1h-1a1 1 0 0 1 0-1l1-1 1 1 1-1v-1l-2-1-1 1 1-3-2-2z"/><path fill="#c8b100" d="M204 279h4v-1h-4v1z"/><path fill="none" stroke="#000" stroke-width=".3" d="M204 279h4v-1h-4v1z"/><path fill="#c8b100" d="M238 223h-1a2 2 0 0 1 0 1h-1a1 1 0 0 1 0-1c-1 0-1 0 0 0v-1h-1l-1 1a1 1 0 0 1 0-1l-1-1v3l3 1 2 3 1-1h2l-2-1v-1h-1v-2"/><path fill="none" stroke="#000" stroke-width=".3" d="M238 223h-1a2 2 0 0 1 0 1h-1a1 1 0 0 1 0-1c-1 0-1 0 0 0v-1h-1l-1 1a1 1 0 0 1 0-1l-1-1v3l3 1 2 3 1-1h2l-2-1v-1h-1v-2z"/><path d="M235 224h1-1"/><path fill="none" d="M235 224h1-1z"/><path d="M236 225v-1 1h1-1"/><path fill="none" d="M236 225v-1 1h1-1"/><path d="m235 224-1-1v1h1"/><path fill="none" d="m235 224-1-1v1h1m-1-1z"/><path d="M237 226v-1 1"/><path fill="none" d="M237 226v-1 1zm2 1z"/><path fill="#c8b100" d="M236 221v1-1"/><path fill="none" stroke="#000" stroke-width=".3" d="M236 221v1-1"/><path fill="#c8b100" d="M235 222h1l-1-1v1"/><path fill="none" stroke="#000" stroke-width=".3" d="M235 222h1l-1-1v1"/><path fill="#c8b100" d="m236 223-1-1h2l-1 1"/><path fill="none" stroke="#000" stroke-width=".3" d="m236 223-1-1h2l-1 1"/><path fill="#c8b100" d="M235 222h1-1"/><path fill="none" stroke="#000" stroke-width=".3" d="M235 222h1-1z"/><path fill="#c8b100" d="M233 221v-1 1"/><path fill="none" stroke="#000" stroke-width=".3" d="M233 221v-1 1z"/><path fill="#c8b100" d="M234 221v1l-1-1h1"/><path fill="none" stroke="#000" stroke-width=".3" d="M234 221v1l-1-1h1m-1 0z"/><path fill="#c8b100" d="M237 223v1-1"/><path fill="none" stroke="#000" stroke-width=".3" d="M237 223v1-1"/><path fill="#c8b100" d="m238 224-1-1 1 1"/><path fill="none" stroke="#000" stroke-width=".3" d="m238 224-1-1 1 1"/><path fill="#c8b100" d="M237 223h1v1h-1v-1"/><path fill="none" stroke="#000" stroke-width=".3" d="M237 223h1v1h-1v-1z"/><path fill="#c8b100" d="M240 224v1h-1l1-1"/><path fill="none" stroke="#000" stroke-width=".3" d="M240 224v1h-1l1-1"/><path fill="#c8b100" d="m240 226-1-1h1v1"/><path fill="none" stroke="#000" stroke-width=".3" d="m240 226-1-1h1v1"/><path fill="#c8b100" d="m239 224-1 1h1v-1"/><path fill="none" stroke="#000" stroke-width=".3" d="m239 224-1 1h1v-1"/><path fill="#c8b100" d="M240 225h-1 1"/><path fill="none" stroke="#000" stroke-width=".3" d="M240 225h-1 1z"/><path fill="#c8b100" d="M241 227h1-1"/><path fill="none" stroke="#000" stroke-width=".3" d="M241 227h1-1z"/><path fill="#c8b100" d="M240 226v1h1v-1h-1"/><path fill="none" stroke="#000" stroke-width=".3" d="M240 226v1h1v-1h-1m1 1zm38-22v1h-2v-1h1v-1h-1 1v-1 1h1-1v1h1"/><path fill="none" d="M134 217v-1m0 1v-1m0 1v-1m0 1v-1m-1 1v-1"/><path fill="none" stroke="#000" stroke-width=".1" d="M133 217v-1m0 1v-1m-1 1v-1m0 1v-1m-1 1v-1m1 1v-1m0 1v-1m-1 1v-1m0 1v-1m0 1v-1m-1 1v-1m1 1v-1m-1 1v-1m0 1v-1m0 1v-1m-1 1v-1"/><path fill="none" stroke="#000" stroke-width=".2" d="M129 217v-1"/><path fill="none" d="M136 217v-1m-1 1v-1m0 1v-1m143 1v-1m-1 1v-1m0 1v-1m0 1v-1m0 1v-1"/><path fill="none" stroke="#000" stroke-width=".1" d="M276 217v-1m0 1v-1m0 1v-1m0 1v-1m-1 1v-1m0 1v-1m0 1v-1m0 1v-1m-1 1v-1m0 1v-1m0 1v-1m0 1v-1m0 1v-1m-1 1v-1m0 1v-1m0 1v-1"/><path fill="none" stroke="#000" stroke-width=".2" d="M273 217v-1"/><path fill="none" d="M279 217v-1m0 1v-1m-1 1v-1"/></svg>