<svg xmlns="http://www.w3.org/2000/svg" xmlns:xlink="http://www.w3.org/1999/xlink" viewBox="0 0 800 600"><defs><path id="a" d="M0 12A16 16 0 0 1-14-4a7 8 0 0 1 12-6l1 5a1 1 0 1 0 2 0l1-5a7 8 0 0 1 12 6A16 16 0 0 1 0 12Z" transform="rotate(35) scale(4.625)"/></defs><path fill="#0155a5" d="M0 0h800v600H0z"/><path fill="#fff" d="M0 257v172l229 171h228ZM114 0H0v86l686 514h114v-86Zm229 0h228l229 171v172Z"/><g fill="#ee3e34" transform="scale(.87912 .95238)"><use xlink:href="#a" width="100%" height="100%" x="455" y="315"/><use xlink:href="#a" width="100%" height="100%" x="91" y="423"/><use xlink:href="#a" width="100%" height="100%" x="819" y="207"/><use xlink:href="#a" width="100%" height="100%" x="212" y="147"/><use xlink:href="#a" width="100%" height="100%" x="698" y="483"/><use xlink:href="#a" width="100%" height="100%" x="661" y="98"/><use xlink:href="#a" width="100%" height="100%" x="249" y="532"/></g></svg>