<svg xmlns="http://www.w3.org/2000/svg" version="1.0" viewBox="0 0 800 600"><g font-size="12"><path fill="#fff" fill-rule="evenodd" d="M0 0h800v600H0Z"/><path fill="#09c" d="M800 513 115 0H0v86l688 514h112v-87"/></g><g font-size="12"><path fill="#005bbf" d="M400 424c-90 0-87-82-87-82V215h171v127s3 82-84 82"/><path fill="none" stroke="#000" d="M297 401c-60 0-59-56-59-56v-87h117v87s2 56-58 56z" transform="matrix(1.46311 0 0 1.46403 -35 -163)"/><path fill="#d81126" d="M398 134s-18-8-35 5c0 0-31-5-34 25v4l2 3 1 1v3l2 3 1 8 2 5 1 5 2 7 2 3c2 0 24 7 56 7 31-1 42-3 56-7l3-3v-6s4-6 3-7v-4l4-8 1-4v-3l3-3v-10c-1-5-6-21-29-16 0 0-16-13-41-8"/><path fill="none" stroke="#000" stroke-width="1.5" d="M296 203s-12-6-24 3c0 0-21-3-23 17l1 3v2l1 1v2l1 2 1 5 1 4 1 3 1 5 2 2c1 0 16 5 38 5 21-1 29-2 38-5l2-2v-4s3-4 2-5v-3l3-5 1-3 1-2 1-2v-7c-1-3-4-14-20-11 0 0-11-9-28-5z" transform="matrix(1.46311 0 0 1.46403 -35 -163)"/><path fill="#bcac0b" d="M460 190c-71-22-123-1-123-1l1 2 2 5v4s0 5 2 5c0 0 49-19 112 1l1-4 2-6 3-6"/><path fill="#c8b100" fill-opacity=".9" d="M395 304h-31s-3 28 21 35v3h6v3s-9 7-2 16v3h2v5h1v7s-1 25-26 37v1h66v-1c-25-12-27-37-27-37v-7h2v-5h1v-3c8-9-1-16-1-16v-3h6v-3c22-7 19-35 19-35h-37"/><path fill="none" stroke="#000" d="M294 319h-20s-2 19 13 24v2h4v2s-6 5-1 11v2h1v3h1v5s-1 17-18 25v1h45v-1c-17-8-18-25-18-25v-5h1v-3h1v-2c5-6-1-11-1-11v-2h4v-2c15-5 13-24 13-24z" transform="matrix(1.46311 0 0 1.46403 -35 -163)"/><path fill="none" stroke="#000" stroke-width=".3" d="M287 343h19m-19 1h19m-15 3h11m-12 11h13m-12 2h11m-11 3h11m-18 23h25m-33 6h40m-41 1h43" transform="matrix(1.46311 0 0 1.46403 -35 -163)"/><path fill="#ccc" d="M400 303a19 19 0 1 0 0-38 19 19 0 0 0 0 38"/><path fill="none" stroke="#000" d="M297 318a13 13 0 1 0 0-26 13 13 0 0 0 0 26z" transform="matrix(1.46311 0 0 1.46403 -35 -163)"/><path fill="#ccc" d="M354 247h-12v-12h-10v12h-11v10h11v12h10v-12h12v-10"/><path fill="none" stroke="#000" d="M266 280h-8v-8h-7v8h-8v7h8v8h7v-8h8v-7" transform="matrix(1.46311 0 0 1.46403 -35 -163)"/><path fill="#ccc" d="M479 247h-12v-12h-12v12h-12v10h12v12h12v-12h12v-10"/><path fill="none" stroke="#000" d="M351 280h-8v-8h-8v8h-8v7h8v8h8v-8h8v-7" transform="matrix(1.46311 0 0 1.46403 -35 -163)"/><path fill="#ccc" d="M416 232h-12v-11h-10v11h-14v11h14v11h10v-11h12v-11"/><path fill="none" stroke="#000" d="M308 270h-8v-8h-7v8h-8v7h8v8h7v-8h8v-7" transform="matrix(1.46311 0 0 1.46403 -35 -163)"/><path fill="#ccc" d="M354 298h-12v-11h-10v11h-11v11h11v11h10v-11h12v-11"/><path fill="none" stroke="#000" d="M266 315h-8v-8h-7v8h-8v7h8v8h7v-8h8v-7" transform="matrix(1.46311 0 0 1.46403 -35 -163)"/><path fill="#ccc" d="M479 298h-12v-11h-12v11h-12v11h12v11h12v-11h12v-11"/><path fill="none" stroke="#000" d="M351 315h-8v-8h-8v8h-8v7h8v8h8v-8h8v-7" transform="matrix(1.46311 0 0 1.46403 -35 -163)"/><path fill="#ccc" d="M354 351h-12v-12h-10v12h-11v10h11v12h10v-12h12v-10"/><path fill="none" stroke="#000" d="M266 351h-8v-8h-7v8h-8v7h8v8h7v-8h8v-7" transform="matrix(1.46311 0 0 1.46403 -35 -163)"/><path fill="#ccc" d="M479 351h-12v-12h-12v12h-12v10h12v12h12v-12h12v-10"/><path fill="none" stroke="#000" d="M351 351h-8v-8h-8v8h-8v7h8v8h8v-8h8v-7" transform="matrix(1.46311 0 0 1.46403 -35 -163)"/><path fill="#005bbf" d="M398 109a12 12 0 1 0 0-23 12 12 0 0 0 0 23"/><path fill="none" stroke="#000" d="M297 186a8 8 0 1 0 0-16 8 8 0 0 0 0 16z" transform="matrix(1.46311 0 0 1.46403 -35 -163)"/><path fill="#fc0" d="M410 96h-10V80h4v-3h-4v-3h-3v3h-3v3h3v16h-9v2h22v-2"/><path fill="#bcac0b" stroke="#000" stroke-width=".5" d="M304 177h-7v-11h3v-2h-3v-2h-2v2h-2v2h2v11h-6v1h15v-1" transform="matrix(1.46311 0 0 1.46403 -35 -163)"/><path fill="#fc0" d="M353 123s8-2 13 1c0 0-6 6-5 15l3 9c2 1 3 5 2 8h1s3-6 0-10-4-9-1-15l6-8c4 3 14 1 17-2 3-1 5-4-1-4-5 0-13 0-19 4 0 0-3-4-19-3-15 3-27 9-29 24-2 6 4 20 10 25l1-5s-10-12-7-22 15-17 28-17"/><path fill="#bcac0b" stroke="#000" stroke-width=".7" d="M265 195s6-1 9 1c0 0-3 4-3 10l2 6c1 1 2 4 1 7h2s1-5-1-8-3-6-1-10l4-6c3 2 10 1 12-1 2-1 3-3-1-3-3 0-9 0-13 3 0 0-2-3-13-1-10 1-18 5-20 15-1 4 3 14 7 17l1-3s-7-8-5-15 10-12 19-12z" transform="matrix(1.46311 0 0 1.46403 -35 -163)"/><path fill="#fff" d="m382 121 4-1h-8l4 1"/><path fill="none" stroke="#000" stroke-width=".7" d="M278 195s-2 2 0 0 7-3 9-2c3 0 0 1-1 1h-5" transform="matrix(1.46311 0 0 1.46403 -35 -163)"/><path fill="#fc0" d="M445 124h-13s4 7 4 16l-3 8-3 10h-1s-2-8 1-10c3-5 5-11 2-17l-6-7c-6 2-15 0-18-1-3-3-4-5 2-6 4 0 13 0 19 4 0 0 3-3 19-1 14 1 26 9 29 22 2 7-4 22-10 25l-2-3s11-12 8-22c-3-12-15-19-28-18"/><path fill="#bcac0b" stroke="#000" stroke-width=".7" d="M328 196h-9s3 5 3 11l-2 5c-1 2-2 5-1 7h-2s-1-5 1-7c2-3 3-7 1-11l-4-5c-4 1-10 0-12-1-2-2-3-3 1-4 3 0 9 0 13 3 0 0 2-2 13-1 10 1 18 6 20 15 1 5-3 15-7 18l-1-3s7-8 5-15c-2-8-10-12-19-12z" transform="matrix(1.46311 0 0 1.46403 -35 -163)"/><path fill="#fff" d="M416 121h-5l5-1 4 1h-4"/><path fill="none" stroke="#000" stroke-width=".7" d="M315 196s2 2 0 0-7-3-9-3c-3 1 0 1 1 1h5" transform="matrix(1.46311 0 0 1.46403 -35 -163)"/><path fill="#fc0" d="M391 114v34c0 2 4 7 7 8 0 0 7-3 7-8v-36h-3v30c0 4-1 8-4 10 0 0-4-2-6-9v-29h-1"/><path fill="#bcac0b" stroke="#000" stroke-width=".7" d="M291 189v23c0 2 3 5 5 6 0 0 5-2 5-6v-24h-2v20c0 3-1 6-3 7 0 0-3-1-4-6v-20h-1" transform="matrix(1.46311 0 0 1.46403 -35 -163)"/><path fill="#fff" d="M319 159a4 4 0 1 0 0-9 4 4 0 0 0 0 9"/><path fill="none" stroke="#000" d="M242 220a3 3 0 1 0 0-5 3 3 0 0 0 0 5z" transform="matrix(1.46311 0 0 1.46403 -35 -163)"/><path fill="#fff" d="M316 150a4 4 0 1 0 0-8 4 4 0 0 0 0 8"/><path fill="none" stroke="#000" d="M240 214a3 3 0 1 0 0-6 3 3 0 0 0 0 6z" transform="matrix(1.46311 0 0 1.46403 -35 -163)"/><path fill="#fff" d="M318 139a4 4 0 1 0 0-8 4 4 0 0 0 0 8"/><path fill="none" stroke="#000" d="M241 206a3 3 0 1 0 0-5 3 3 0 0 0 0 5z" transform="matrix(1.46311 0 0 1.46403 -35 -163)"/><path fill="#fff" d="M323 130a4 4 0 1 0 0-7 4 4 0 0 0 0 7"/><path fill="none" stroke="#000" d="M245 200a3 3 0 1 0 0-5 3 3 0 0 0 0 5z" transform="matrix(1.46311 0 0 1.46403 -35 -163)"/><path fill="#fff" d="M331 124a4 4 0 1 0 0-9 4 4 0 0 0 0 9"/><path fill="none" stroke="#000" d="M250 196a3 3 0 1 0 0-6 3 3 0 0 0 0 6z" transform="matrix(1.46311 0 0 1.46403 -35 -163)"/><path fill="#fff" d="M340 120a4 4 0 1 0 0-8 4 4 0 0 0 0 8"/><path fill="none" stroke="#000" d="M256 193a3 3 0 1 0 0-5 3 3 0 0 0 0 5z" transform="matrix(1.46311 0 0 1.46403 -35 -163)"/><path fill="#fff" d="M350 118a4 4 0 1 0 0-7 4 4 0 0 0 0 7"/><path fill="none" stroke="#000" d="M263 192a3 3 0 1 0 0-5 3 3 0 0 0 0 5z" transform="matrix(1.46311 0 0 1.46403 -35 -163)"/><path fill="#fff" d="M359 118a4 4 0 1 0 0-9 4 4 0 0 0 0 9"/><path fill="none" stroke="#000" d="M269 192a3 3 0 1 0 0-6 3 3 0 0 0 0 6z" transform="matrix(1.46311 0 0 1.46403 -35 -163)"/><path fill="#fff" d="M367 118a4 4 0 1 0 0-7 4 4 0 0 0 0 7"/><path fill="none" stroke="#000" d="M275 192a3 3 0 1 0 0-5 3 3 0 0 0 0 5z" transform="matrix(1.46311 0 0 1.46403 -35 -163)"/><path fill="#fff" d="M391 115a4 4 0 1 0 0-7 4 4 0 0 0 0 7"/><path fill="none" stroke="#000" d="M291 190a3 3 0 1 0 0-5 3 3 0 0 0 0 5z" transform="matrix(1.46311 0 0 1.46403 -35 -163)"/><path fill="#fff" d="M398 117a4 4 0 1 0 0-8 4 4 0 0 0 0 8"/><path fill="none" stroke="#000" d="M296 191a3 3 0 1 0 0-5 3 3 0 0 0 0 5z" transform="matrix(1.46311 0 0 1.46403 -35 -163)"/><path fill="#fff" d="M398 146a4 4 0 1 0 0-7 4 4 0 0 0 0 7"/><path fill="none" stroke="#000" d="M296 211a3 3 0 1 0 0-5 3 3 0 0 0 0 5z" transform="matrix(1.46311 0 0 1.46403 -35 -163)"/><path fill="#fff" d="M479 162a4 4 0 1 0 0-9 4 4 0 0 0 0 9"/><path fill="none" stroke="#000" d="M351 222a3 3 0 1 0 0-6 3 3 0 0 0 0 6z" transform="matrix(1.46311 0 0 1.46403 -35 -163)"/><path fill="#fff" d="M481 152a4 4 0 1 0 0-7 4 4 0 0 0 0 7"/><path fill="none" stroke="#000" d="M353 215a3 3 0 1 0 0-5 3 3 0 0 0 0 5z" transform="matrix(1.46311 0 0 1.46403 -35 -163)"/><path fill="#fff" d="M480 142a4 4 0 1 0 0-8 4 4 0 0 0 0 8"/><path fill="none" stroke="#000" d="M352 208a3 3 0 1 0 0-5 3 3 0 0 0 0 5z" transform="matrix(1.46311 0 0 1.46403 -35 -163)"/><path fill="#fff" d="M476 131a4 4 0 1 0 0-7 4 4 0 0 0 0 7"/><path fill="none" stroke="#000" d="M349 201a3 3 0 1 0 0-5 3 3 0 0 0 0 5z" transform="matrix(1.46311 0 0 1.46403 -35 -163)"/><path fill="#fff" d="M468 126a4 4 0 1 0 0-8 4 4 0 0 0 0 8"/><path fill="none" stroke="#000" d="M344 197a3 3 0 1 0 0-5 3 3 0 0 0 0 5z" transform="matrix(1.46311 0 0 1.46403 -35 -163)"/><path fill="#fff" d="M460 121a4 4 0 1 0 0-7 4 4 0 0 0 0 7"/><path fill="none" stroke="#000" d="M338 194a3 3 0 1 0 0-5 3 3 0 0 0 0 5z" transform="matrix(1.46311 0 0 1.46403 -35 -163)"/><path fill="#fff" d="M449 118a4 4 0 1 0 0-7 4 4 0 0 0 0 7"/><path fill="none" stroke="#000" d="M331 192a3 3 0 1 0 0-5 3 3 0 0 0 0 5z" transform="matrix(1.46311 0 0 1.46403 -35 -163)"/><path fill="#fff" d="M440 118a4 4 0 1 0 0-7 4 4 0 0 0 0 7"/><path fill="none" stroke="#000" d="M325 192a3 3 0 1 0 0-5 3 3 0 0 0 0 5z" transform="matrix(1.46311 0 0 1.46403 -35 -163)"/><path fill="#fff" d="M432 117a4 4 0 1 0 0-8 4 4 0 0 0 0 8"/><path fill="none" stroke="#000" d="M319 191a3 3 0 1 0 0-5 3 3 0 0 0 0 5z" transform="matrix(1.46311 0 0 1.46403 -35 -163)"/><path fill="#fff" d="M438 149a4 4 0 1 0 0-7 4 4 0 0 0 0 7"/><path fill="none" stroke="#000" d="M323 213a3 3 0 1 0 0-5 3 3 0 0 0 0 5z" transform="matrix(1.46311 0 0 1.46403 -35 -163)"/><path fill="#fff" d="M439 142a4 4 0 1 0 0-8 4 4 0 0 0 0 8"/><path fill="none" stroke="#000" d="M324 208a3 3 0 1 0 0-5 3 3 0 0 0 0 5z" transform="matrix(1.46311 0 0 1.46403 -35 -163)"/><path fill="#fff" d="M407 117a4 4 0 1 0 0-9 4 4 0 0 0 0 9"/><path fill="none" stroke="#000" d="M302 191a3 3 0 1 0 0-5 3 3 0 0 0 0 5z" transform="matrix(1.46311 0 0 1.46403 -35 -163)"/><path fill="#fff" d="M388 115a4 4 0 1 0 0-7 4 4 0 0 0 0 7"/><path fill="none" stroke="#000" d="M289 190a3 3 0 1 0 0-5 3 3 0 0 0 0 5z" transform="matrix(1.46311 0 0 1.46403 -35 -163)"/><path fill="#fff" d="M383 115a4 4 0 1 0 0-7 4 4 0 0 0 0 7"/><path fill="none" stroke="#000" d="M286 190a3 3 0 1 0 0-5 3 3 0 0 0 0 5z" transform="matrix(1.46311 0 0 1.46403 -35 -163)"/><path fill="#fff" d="M359 149a4 4 0 1 0 0-7 4 4 0 0 0 0 7"/><path fill="none" stroke="#000" d="M269 213a3 3 0 1 0 0-5 3 3 0 0 0 0 5z" transform="matrix(1.46311 0 0 1.46403 -35 -163)"/><path fill="#fff" d="M357 140a4 4 0 1 0 0-9 4 4 0 0 0 0 9"/><path fill="none" stroke="#000" d="M268 207a3 3 0 1 0 0-6 3 3 0 0 0 0 6z" transform="matrix(1.46311 0 0 1.46403 -35 -163)"/><path fill="#fff" d="M360 131a4 4 0 1 0 0-8 4 4 0 0 0 0 8"/><path fill="none" stroke="#000" d="M270 201a3 3 0 1 0 0-6 3 3 0 0 0 0 6z" transform="matrix(1.46311 0 0 1.46403 -35 -163)"/><path fill="#fff" d="M378 117a4 4 0 1 0 0-9 4 4 0 0 0 0 9"/><path fill="none" stroke="#000" d="M282 191a3 3 0 1 0 0-6 3 3 0 0 0 0 6z" transform="matrix(1.46311 0 0 1.46403 -35 -163)"/><path fill="#fff" d="M370 118a4 4 0 1 0 0-7 4 4 0 0 0 0 7"/><path fill="none" stroke="#000" d="M277 192a3 3 0 1 0 0-5 3 3 0 0 0 0 5z" transform="matrix(1.46311 0 0 1.46403 -35 -163)"/><path fill="#fff" d="M364 124a4 4 0 1 0 0-7 4 4 0 0 0 0 7"/><path fill="none" stroke="#000" d="M273 196a3 3 0 1 0 0-5 3 3 0 0 0 0 5z" transform="matrix(1.46311 0 0 1.46403 -35 -163)"/><path fill="#fff" d="M398 121a4 4 0 1 0 0-7 4 4 0 0 0 0 7"/><path fill="none" stroke="#000" d="M296 194a3 3 0 1 0 0-5 3 3 0 0 0 0 5z" transform="matrix(1.46311 0 0 1.46403 -35 -163)"/><path fill="#fff" d="M398 129a4 4 0 1 0 0-8 4 4 0 0 0 0 8"/><path fill="none" stroke="#000" d="M296 199a3 3 0 1 0 0-5 3 3 0 0 0 0 5z" transform="matrix(1.46311 0 0 1.46403 -35 -163)"/><path fill="#fff" d="M398 137a4 4 0 1 0 0-7 4 4 0 0 0 0 7"/><path fill="none" stroke="#000" d="M296 205a3 3 0 1 0 0-5 3 3 0 0 0 0 5z" transform="matrix(1.46311 0 0 1.46403 -35 -163)"/><path fill="#fff" d="M411 115a4 4 0 1 0 0-7 4 4 0 0 0 0 7"/><path fill="none" stroke="#000" d="M305 190a3 3 0 1 0 0-5 3 3 0 0 0 0 5z" transform="matrix(1.46311 0 0 1.46403 -35 -163)"/><path fill="#fff" d="M417 114a4 4 0 1 0 0-7 4 4 0 0 0 0 7"/><path fill="none" stroke="#000" d="M309 189a3 3 0 1 0 0-5 3 3 0 0 0 0 5z" transform="matrix(1.46311 0 0 1.46403 -35 -163)"/><path fill="#fff" d="M423 115a4 4 0 1 0 0-7 4 4 0 0 0 0 7"/><path fill="none" stroke="#000" d="M313 190a3 3 0 1 0 0-5 3 3 0 0 0 0 5z" transform="matrix(1.46311 0 0 1.46403 -35 -163)"/><path fill="#fff" d="M438 131a4 4 0 1 0 0-7 4 4 0 0 0 0 7"/><path fill="none" stroke="#000" d="M324 201a3 3 0 1 0 0-5 3 3 0 0 0 0 5z" transform="matrix(1.46311 0 0 1.46403 -35 -163)"/><path fill="#fff" d="M429 118a4 4 0 1 0 0-7 4 4 0 0 0 0 7"/><path fill="none" stroke="#000" d="M317 192a3 3 0 1 0 0-5 3 3 0 0 0 0 5z" transform="matrix(1.46311 0 0 1.46403 -35 -163)"/><path fill="#fff" d="M435 124a4 4 0 1 0 0-7 4 4 0 0 0 0 7"/><path fill="none" stroke="#000" d="M321 196a3 3 0 1 0 0-5 3 3 0 0 0 0 5z" transform="matrix(1.46311 0 0 1.46403 -35 -163)"/><path fill="#fff" d="m398 183-10 6 9 5 11-5-10-6"/><path fill="none" stroke="#000" stroke-width=".5" d="m296 236-7 4 6 4 8-4-7-4" transform="matrix(1.46311 0 0 1.46403 -35 -163)"/><path fill="#fff" d="m376 184-16 2v10l16-2v-10"/><path fill="none" stroke="#000" stroke-width=".5" d="m281 237-11 1v7l11-1z" transform="matrix(1.46311 0 0 1.46403 -35 -163)"/><path fill="#058e6e" fill-opacity=".9" d="m373 187-12 2 2 5 12-1-2-6"/><path fill="none" stroke="#000" stroke-width=".5" d="m279 239-8 1 1 4 8-1-1-4" transform="matrix(1.46311 0 0 1.46403 -35 -163)"/><path fill="#fff" d="m420 184 15 3v10l-16-3 1-10"/><path fill="none" stroke="#000" stroke-width=".5" d="m311 237 10 2v7l-11-2z" transform="matrix(1.46311 0 0 1.46403 -35 -163)"/><path fill="#058e6e" fill-opacity=".9" d="m421 187 12 2v5l-12-1v-6"/><path fill="none" stroke="#000" stroke-width=".5" d="m312 239 8 1v4l-8-1v-4" transform="matrix(1.46311 0 0 1.46403 -35 -163)"/><path fill="none" stroke="#000" stroke-width=".5" d="M254 242s37-14 84 1m-82 7s36-14 80 0m-80-9 7 2-5 6" transform="matrix(1.46311 0 0 1.46403 -35 -163)"/><path fill="red" d="m340 200 5-6-7-1 2 3v4"/><path fill="none" stroke="#000" stroke-width=".5" d="m256 248 4-4-5-1 1 2zm82-5-8 1 5 6" transform="matrix(1.46311 0 0 1.46403 -35 -163)"/><path fill="red" d="m455 200-4-4h7l-3 1v3"/><path fill="none" stroke="#000" stroke-width=".5" d="m335 248-3-3h5l-2 1zm-70-6 1-1-1-1-1 1zm21-3h1l-1-1-1 1zm0 4 1-1-1-1-1 1zm20-3 1-1-1-1-1 1zm20 3 1-1-1-1-1 1zm0 3 1-1-1-1-1 1zm-20-3 1-1-1-1-1 1zm-40 3 1-1-1-1-1 1z" transform="matrix(1.46311 0 0 1.46403 -35 -163)"/><path fill="#fc0" d="M337 175s0 11 5 9c8-1 8-10 8-10h1s0 7 8 7c5-1 5-11 4-13l1-1s3 13 11 10c7-2 7-9 7-9s1 9 7 7c6 0 8-1 8-10h3s-2 12 5 10c8 0 8-5 8-5h1s0 7 7 7c6 0 6-6 6-9h6s-6 10 3 12c9 1 9-6 9-6h3s-2 10 4 10c5 2 8-1 9-9h1s-1 14-11 12c-5-1-6-7-6-9 0 0-3 6-10 5-6-2-6-8-6-9 0 0-3 7-9 6-6-2-7-3-7-6 0 0-3 6-8 4-4 0-7-3-7-6 0 0-1 6-7 6-5 0-8-1-9-4 0 0-2 6-7 6s-8-2-9-6c0 0-2 7-7 9-6 1-8-3-8-3s-1 6-7 6c-4 1-7 0-9-6l-1-8 3 3"/><path fill="#bcac0b" stroke="#000" stroke-width=".7" d="M254 231s0 7 4 6c5-1 5-7 5-7h1s0 5 5 5c4-1 4-8 3-9l2-1s1 9 6 8c5-2 5-7 5-7s1 6 5 5c4 0 5-1 5-7h2s-1 8 4 8c5-1 5-5 6-5 0 0 1 6 5 6s4-5 4-7h4s-4 8 2 9 6-5 6-5h2s-1 7 3 7c3 1 5-1 6-6l1 1s-1 8-7 7c-4-1-5-5-5-6 0 0-2 4-7 3-4-1-4-4-4-5 0 0-2 4-6 3-3-1-5-2-5-4 0 0-1 4-5 4-3-1-5-3-5-5 0 0-1 4-5 4-3 1-5-1-6-3 0 0 0 4-5 4-2 1-5-1-6-3 0 0 0 4-5 5-4 1-5-2-5-2s-1 4-5 4c-3 1-5 0-6-4l-1-5z" transform="matrix(1.46311 0 0 1.46403 -35 -163)"/><path fill="#fc0" d="M350 175a3 3 0 1 0 0-4 3 3 0 0 0 0 4"/><path fill="#bcac0b" stroke="#000" stroke-width=".7" d="M263 231a2 2 0 1 0 0-3 2 2 0 0 0 0 3z" transform="matrix(1.46311 0 0 1.46403 -35 -163)"/><path fill="#fc0" d="M382 171a3 3 0 1 0 0-6 3 3 0 0 0 0 6"/><path fill="#bcac0b" stroke="#000" stroke-width=".7" d="M285 228a2 2 0 1 0 0-3 2 2 0 0 0 0 3z" transform="matrix(1.46311 0 0 1.46403 -35 -163)"/><path fill="#fc0" d="M414 171a3 3 0 1 0 0-4 3 3 0 0 0 0 4"/><path fill="#bcac0b" stroke="#000" stroke-width=".7" d="M307 228a2 2 0 1 0 0-3 2 2 0 0 0 0 3z" transform="matrix(1.46311 0 0 1.46403 -35 -163)"/><path fill="#fc0" d="M446 177a3 3 0 1 0 0-5 3 3 0 0 0 0 5"/><path fill="#bcac0b" stroke="#000" stroke-width=".7" d="M329 232a2 2 0 1 0 0-3 2 2 0 0 0 0 3z" transform="matrix(1.46311 0 0 1.46403 -35 -163)"/><path fill="#fc0" d="M397 168h-2l-6 3 2-4c-6 0-6-3-6-3l6-2-2-4 6 3s-3-2-3-8l3 2s0-7 3-7 3 7 3 7l3-2c0 6-3 8-3 8l6-3v4l4 2s0 3-4 3v4l-5-3h-5"/><path fill="#bcac0b" stroke="#000" stroke-width=".7" d="M295 226h-1l-4 2 1-2c-4-1-4-3-4-3l4-1-1-3 4 2s-2-1-2-5l2 1s0-4 2-5c2 1 2 5 2 5l2-1c0 4-2 5-2 5l4-2v3l4 1s0 2-4 3v2l-3-2z" transform="matrix(1.46311 0 0 1.46403 -35 -163)"/><path fill="#fff" d="M398 170a4 4 0 1 0 0-9 4 4 0 0 0 0 9"/><path fill="none" stroke="#000" stroke-width=".4" d="M296 227a3 3 0 1 0 0-6 3 3 0 0 0 0 6z" transform="matrix(1.46311 0 0 1.46403 -35 -163)"/><path fill="#fff" d="M398 167a3 3 0 1 0 0-5 3 3 0 0 0 0 5"/><path fill="none" stroke="#000" stroke-width=".3" d="M296 225a2 2 0 1 0 0-3 2 2 0 0 0 0 3z" transform="matrix(1.46311 0 0 1.46403 -35 -163)"/><path fill="#fc0" d="M432 171h3c0 3 4 4 4 4v-4l6-1-6-3 3-5-7 2s3 0 4-6h-3s2-6-1-8c-3 0-5 6-5 6l-3-1c-1 6 2 9 2 9l-5-6v6h-5s-2 1 4 4l-2 4s5 0 6-2h2l3 1"/><path fill="#bcac0b" stroke="#000" stroke-width=".7" d="M319 228h2c0 2 3 3 3 3v-3l4-1-4-2 2-3c-3 0-5 2-5 2s2-1 3-5h-2s1-4-1-5c-2 0-3 4-3 4l-2-1c-1 4 1 6 1 6s-1-3-3-3v3h-4s-1 1 3 3l-1 3s3 0 4-2l1 1h2" transform="matrix(1.46311 0 0 1.46403 -35 -163)"/><path fill="#fff" d="M430 172a4 4 0 1 1 2-8 4 4 0 0 1-2 8"/><path fill="none" stroke="#000" stroke-width=".4" d="M318 229a3 3 0 1 1 1-6 3 3 0 0 1-1 6z" transform="matrix(1.46311 0 0 1.46403 -35 -163)"/><path fill="#fff" d="M430 170a3 3 0 1 1 2-5 3 3 0 0 1-2 5"/><path fill="none" stroke="#000" stroke-width=".3" d="M318 227a2 2 0 1 1 1-3 2 2 0 0 1-1 3z" transform="matrix(1.46311 0 0 1.46403 -35 -163)"/><path fill="#fc0" d="M363 171h-2l-5 4 1-4-6-3 5-3-2-4c5 0 7 3 7 3s-4-2-4-8l3 2 1-8c3 0 5 6 5 6l3-1c1 6-3 9-3 9s3-5 6-5v5s4-2 6 1l-5 3 2 4s-6 0-6-2h-3l-3 1"/><path fill="#bcac0b" stroke="#000" stroke-width=".7" d="M272 228h-1l-3 3v-3l-4-2 3-2-1-3c3 0 5 2 5 2s-3-1-3-5l2 1 1-5c2 0 3 4 3 4l2-1c1 4-1 6-1 6s1-3 3-3v3s3-1 4 1l-3 2 1 3s-4 0-4-2h-2l-2 1" transform="matrix(1.46311 0 0 1.46403 -35 -163)"/><path fill="#fff" d="M364 171a4 4 0 1 0-1-9 4 4 0 0 0 1 9"/><path fill="none" stroke="#000" stroke-width=".4" d="M273 228a3 3 0 1 0-1-6 3 3 0 0 0 1 6z" transform="matrix(1.46311 0 0 1.46403 -35 -163)"/><path fill="#fff" d="M364 170a3 3 0 1 0 0-5 3 3 0 0 0 0 5"/><path fill="none" stroke="#000" stroke-width=".3" d="M273 227a2 2 0 1 0 0-3 2 2 0 0 0 0 3z" transform="matrix(1.46311 0 0 1.46403 -35 -163)"/><path fill="#fc0" d="M462 180s-1-3-2-2l-5 2v-5s-4-1-4-4l6-1 1-3s4 1 4 4c0 0-1-6 2-9l1 3s2-4 8-4l-3 6-3 4-2 3-1 3-2 3"/><path fill="#bcac0b" stroke="#000" stroke-width=".7" d="M340 234s-1-2-2-1l-3 1v-3s-3-1-3-3l4-1 1-2s3 1 3 3c0 0-1-4 1-6l1 2s1-3 5-3l-2 4-2 3-1 2-1 2z" transform="matrix(1.46311 0 0 1.46403 -35 -163)"/><path fill="#fff" d="M460 174a4 4 0 0 1 5-3v3l-1 3v3h-2c-2-2-4-3-2-6"/><path fill="none" stroke="#000" stroke-width=".4" d="M338 230a3 3 0 0 1 5-2l-1 2-1 2v2h-1c-2-1-3-2-2-4z" transform="matrix(1.46311 0 0 1.46403 -35 -163)"/><path fill="#fff" d="M461 174a3 3 0 0 1 4 0l-1 3a3 3 0 0 1-3-3"/><path fill="none" stroke="#000" stroke-width=".3" d="M339 230a2 2 0 0 1 3 0l-1 2a2 2 0 0 1-2-2z" transform="matrix(1.46311 0 0 1.46403 -35 -163)"/><path fill="#fc0" d="M334 178s1-3 4-1l4 1v-3l5-4s-3-3-7-1v-5s-5 2-5 5c0 0 2-6-1-9l-2 3s-1-5-7-5l3 6 3 5 1 2v3l2 3"/><path fill="#bcac0b" stroke="#000" stroke-width=".7" d="M252 233s1-2 3-1l3 1v-2l3-3s-1-2-5-1v-3s-3 1-3 3c0 0 1-3-1-6l-1 2s-1-3-5-3l2 4 2 3 1 2v2z" transform="matrix(1.46311 0 0 1.46403 -35 -163)"/><path fill="#fff" d="M338 172a4 4 0 0 0-7-2l1 2v3l2 3c3 0 4-3 4-6"/><path fill="none" stroke="#000" stroke-width=".4" d="M255 229a3 3 0 0 0-5-2l1 2v2l1 2c2 0 3-2 3-4z" transform="matrix(1.46311 0 0 1.46403 -35 -163)"/><path fill="#fff" d="M335 174a3 3 0 0 0-3-2v3h2l1-1"/><path fill="none" stroke="#000" stroke-width=".3" d="M253 230a2 2 0 0 0-2-1v2h1c1 0 2 0 1-1z" transform="matrix(1.46311 0 0 1.46403 -35 -163)"/><path fill="none" stroke="#000" stroke-width="1.5" d="M257 252s34-14 77 0" transform="matrix(1.46311 0 0 1.46403 -35 -163)"/><path fill="none" stroke="#000" stroke-width=".5" d="M338 241c-47-15-84-1-84-1" transform="matrix(1.46311 0 0 1.46403 -35 -163)"/><path fill="red" d="m398 186-6 3 6 2 6-2-6-3"/><path fill="none" stroke="#000" stroke-width=".5" d="m296 238-4 2 4 2 4-2-4-2" transform="matrix(1.46311 0 0 1.46403 -35 -163)"/></g></svg>