<svg xmlns="http://www.w3.org/2000/svg" viewBox="0 0 32 24"><clipPath id="a"><path d="M0 0h24v4l-3 2v5h3v3H0Z"/></clipPath><clipPath id="b"><path d="M0 0v6h22v6h-1Zm21 0H11v13H0v-1z"/></clipPath><path fill="#012169" d="M0 0h32v24H0z"/><g clip-path="url(#a)" transform="scale(.66667 1)"><path stroke="#fff" stroke-width="2.4" d="m0 0 21 12m0-12L0 12"/><path stroke="#c8102e" stroke-width="1.6" d="m0 0 21 12m0-12L0 12" clip-path="url(#b)"/><path stroke="#fff" stroke-width="4" d="M11 0v14M0 6h24"/><path stroke="#c8102e" stroke-width="2.4" d="M11 0v14M0 6h24"/></g><path stroke="#fff" stroke-width="3" d="M48 20H0m48-9H21m0-9h27" transform="scale(.66667 1)"/><path stroke="#c8102e" stroke-width="3" d="M21 5h27M0 14h48M0 23h48" transform="scale(.66667 1)"/></svg>