<svg xmlns="http://www.w3.org/2000/svg" xmlns:xlink="http://www.w3.org/1999/xlink" viewBox="0 0 640 480"><path fill="#d21034" d="M0 0h640v480H0z"/><path fill="#00209f" d="M0 0h640v240H0z"/><g fill="#f1b517" stroke="#000" stroke-width=".2"><path fill="#fff" stroke="none" d="M244 180h152v120H244z"/><path fill="#016a16" stroke="#016a16" stroke-width=".3" d="m350 267-30 1h-31l-22 7c-7 2-6 4-11 5l-7 1-5 2v17h152v-16l-5-2-8-2c-5-1-4-3-10-5-7-1-23-8-23-8z"/><g transform="translate(-80) scale(1.6)"><g id="a"><path d="m245 144 1-1 2 11v4l-3-14z"/><path fill="#fff" d="m243 136 1 9h1l-2-9z"/><path d="m246 155-5-12h2l5 14-2-2z"/><path fill="#fff" d="m239 136 2 8h2l-4-8z"/><path d="m242 151-3-6h1l5 9-3-3z"/><path fill="#fff" d="m236 139 3 7h1l-4-7z"/><path fill="#0a328c" d="m242 151-11-12c-4 3-3 8-3 8l13 10 1-6z"/><path fill="#d20014" d="m249 158-9-8c-3 0 0 5 0 6l9 8v-6z"/><path d="m248 157-17-19h-1l18 21v-2zm-18-20-1-1v-1l-3-2 1 4h3z"/><path d="m228 138 2-2 1 1-2 2-1-1z"/><path fill="#0a328c" stroke="#0a328c" d="M226 141v1l4-3h3l1-1c-2-2-4 0-4 0l-4 3z"/><path fill="#d20014" stroke="#d20014" d="m228 143 2-3c1 0 3 1 4-2h-4l-1 1-3 3 2 1z"/><path fill="#0a328c" d="m237 155-14-12c-3 3-1 10-1 10l15 8v-6z"/><path fill="#d20014" d="m249 164-12-10c-4 1-1 7 0 8l12 6v-4z"/><path d="m249 162-26-19 26 21v-2zm-27-20-1-1-4-2 3 3h1v1l1-1z"/><path d="m220 143 3-2 1 1-2 2-2-1z"/><path fill="#0a328c" stroke="#0a328c" d="M219 147v1l4-4 2-1h1c-2-2-4 0-4 0l-3 4z"/><path fill="#d20014" stroke="#d20014" d="m221 149 1-4c2 0 3 1 4-3-1 2-4 1-4 1v1l-3 4 2 1z"/><path fill="#0a328c" d="m236 162-18-11c-2 2 0 6 0 6l1 6c0 2 1 4 3 5 1 6 8 7 10 1l4-7z"/><path fill="#d20014" d="m248 169-12-8c-4 1 0 8 0 9l12 4v-5z"/><path d="m246 166-28-15h-1l30 17-1-2zm-29-16h-1v-1l-4-1 2 3h2l1-1z"/><path d="m215 152 2-3 1 1-1 2h-2z"/><path fill="#0a328c" stroke="#0a328c" d="m214 155 1 1 3-4 2-1 1-1c-2-2-4 1-4 1l-3 4z"/><path fill="#d20014" stroke="#d20014" d="M217 157v-5c2 1 3 1 4-2l-4 1v1l-2 4 2 1z"/></g><use xlink:href="#a" width="100%" height="100%" transform="matrix(-1 0 0 1 500 0)"/></g><g transform="translate(-80) scale(1.6)"><path fill="#016a16" stroke="#016a16" d="m249 126-1 9h3v-9l3-1-1-3h-7v3l3 1z"/><g id="b" fill="#016a16"><path d="M250 122c-8-8-14-4-16-3h3l-1 1 3-1-1 1 2-1-1 1h1c1 0 0 0 0 0 2 0 5 2 5 3"/><path d="M248 123c-1-2-16-5-19 1l3-1v1l1-2v2l1-1v1l2-2v1l2-1-1 1"/><path d="M247 124c-4-3-9-1-9-1-4 2-6 2-7 5l2-1v2l1-3v2l1-3v2l2-2 1 1v-2l1 1h1l1-1 1 1v-1h5"/><path d="M246 124c-2 0-10 3-12 6a13 13 0 0 1 1-1l1 1v-1 1h2v-1 1l1-1v1l1-2v1l1-1v1-2l1 1 1-1v1l4-3"/><path d="M247 125c-4 1-7 6-7 8 2-2 2-2 2 0l1-2v2l1-2v-1h1v-3 1l1-1 2-1"/><path d="m247 125-1 3h1l-2 1h1l-2 2h2l-2 2 1-1-1 3 1-1 1 5v-3l2 2-1-3 2 2-1-3 1 1-2-3 2 1-1-3 1 2v-3l1 1-2-2h1v-1h1v-1m-1 0c-3 3-1 7-3 10"/></g><use xlink:href="#b" width="100%" height="100%" transform="matrix(-1 0 0 1 500 0)"/><path d="m251 167 1-15-1-11h-3l-1 11 2 15h2z"/><path d="M248 142h4l-1-3h-3v3z"/><path d="M248 140h3v-3h-2l-1 3z"/><path d="M248 138h3v-3h-2l-1 3z"/><path d="M251 135h-2l-1 1h3v-1zm0 29h-2m2-2h-3m4-2h-4m4-2h-4m4-2h-4m4-2h-4m4-2h-5m5-2h-5m5-2h-5m5-2h-4m3-2h-3"/><path fill="#0a328c" stroke="#0a328c" d="m250 119-2-2 1-1v-2l4 1-1 3v1h-2z"/><path d="m250 125-1-1 1-7h1l-1 8z"/><path fill="#d20014" stroke="#d20014" d="M252 119v-2l-3-1-1 1 2 1 2 1z"/></g><g transform="translate(-80) scale(1.6)"><use xlink:href="#c" width="100%" height="100%" transform="matrix(1 0 0 -1 0 320)"/><path fill="#016a16" stroke="#fff" stroke-linecap="round" d="m238 162-1 2-2-2v-2h3v2z"/><ellipse cx="236.5" cy="160.1" fill="#fff" stroke="none" rx="1.8" ry=".9"/><path fill="#016a16" stroke="#f1b517" d="M236 161v-3h1v3h-1z"/><path id="c" fill="#016a16" stroke="#fff" stroke-linecap="round" stroke-width=".2" d="m239 160-2 1-2-1a1 1 0 0 0-1 0c0 1 1 2 3 2l2-2a1 1 0 0 0 0 0z"/><g id="d"><path d="m246 173-7-2-3-6h-11v4l10 2 1 1 10 3v-2z"/><path fill="#503200" d="m239 174-11-16h-1l11 17 1-1z"/><path fill="#fff" d="m229 159-2-2-1-1v1l1 2 2-1z"/><path d="m240 164-23-2v3l22 2 1-3z"/><path d="M217 161v5l1-5h-1zm4 1v4l1-4h-1zm15 1v4h1v-4h-1zm3 1v4h1v-2l1 1 1-1-1-1h-1l1-1h-2zm-8 0-3 4h1l4-2-2-2zm-7 9 3-3v-1l-4 3 1 1zm8-1-4-3 3 4 1-1zm-9-7 4 3-3-4-1 1zm4-2v5h1l1-5h-2zm1 11v-4h-1v4h1zm5-6-4 1 4 1v-2zm-11 2 5-1-5-1v2z"/><ellipse cx="227.7" cy="168.5" rx="1.3" ry="1.2"/><path fill-rule="evenodd" stroke-linecap="round" d="M234 169c0 3-3 6-6 6-4 0-7-3-7-6 0-4 3-7 7-7 3 0 6 3 6 7zm-1 0c0 2-2 5-5 5s-6-3-6-5c0-3 3-6 6-6s5 3 5 6z"/><path d="m223 165-1-1m9 0h1m1 9-1-1m-9 2 1-1m22-11 1 6-1 1-1-7h1z"/><path fill="#fff" d="M246 161c-1 0-2 1-3-1-2 2 0 2 0 4 1 0 1-2 3-2h2l-1-1h-1z"/><path fill="#fff" d="M246 163v-2h-1v2h1z"/><path fill-rule="evenodd" d="M241 167v2l-1 1v5l-1 1 1 1h1l1-1-1-1v-1h1l1-1v-3l-1-1v-2h-1zm1 3v-1l-1 1v1l1 2v-3z"/><path fill="#fff" d="M234 172v2h1v1h-2c0 2 3 2 4 1 1 0 1-3-2-3l-1-1zm1 1"/><path d="m215 173-1-4m2 4-1-3m4 2-4-2m5 2-6-3"/><path fill="#d20014" stroke="#d20014" d="M210 166h-2v1l-5 1 4-1-1-2 2-1 2 2z"/><path fill="#503200" d="m213 168-5-4 5 5v-1z"/><path d="m218 172-4-3v-1h-1l-1 1h1l4 3h1z"/><circle cx="232.5" cy="177.1" r=".7"/><circle cx="230.6" cy="175.7" r=".7"/><circle cx="228.1" cy="176.6" r=".7"/><circle cx="224.2" cy="177.4" r=".7"/><circle cx="222.5" cy="177.6" r=".7"/><circle cx="220.8" cy="177.6" r=".7"/><circle cx="219.2" cy="177.6" r=".7"/><circle cx="220" cy="176.3" r=".7"/><circle cx="221.6" cy="176.4" r=".7"/><circle cx="223.1" cy="176.2" r=".7"/><circle cx="222.4" cy="175" r=".7"/><circle cx="220.8" cy="174.9" r=".7"/><path fill-rule="evenodd" d="M236 178v-1l1 1h7c0-1 0-1 0 0h4-1l1 1h-4l-2-1h-6zm2 0h-1 1c1 0 0 0 0 0zm2 0h-1 1zm4 0h-1 1zm-2 0h-1 1zm4 0h-1 1zm-2 0zm3 0v1l-1-1h1z"/></g><use xlink:href="#d" width="100%" height="100%" transform="matrix(-1 0 0 1 500 0)"/><path fill="#0a328c" stroke="#0a328c" d="M250 166c-3 0-5 1-5 2l5 1h4v-1l-4-2z"/><path d="M254 168v7l-4 2-5-2v-7l5 1 4-1z"/><path fill="#d20014" stroke="#d20014" d="M245 168v1l3 7 1-5 2 5 2-5 1 3v-2l-1-3a8 8 0 0 1-1 0l-1 4-1-4a15 15 0 0 1-1 0l-1 4-2-4-1-1z"/><path fill="#0a328c" stroke="#0a328c" d="M254 174v1l-4 2-5-2v-1l5 1 4-1z"/><path d="M252 175h-1v2l1-1v-1zm-5 0v1h1v-1a9 9 0 0 1-1 0zm-2-1v1l1 1v-2h-1zm9 0v2-2z"/><path fill="none" d="M254 168v7l-4 2-5-2v-7"/><path fill="#fff" stroke="#fff" d="M253 168h-7l4-1 3 1z"/><path d="M249 168v1h1v-1h-1zm4 0h-1v1h1v-1zm-6-2v1-1zm3 0h-1l1 1 1-1a10 10 0 0 0-1 0zm3 0-1 1h1v-1zm-7 3v-1l-1-1v1l1 1zm8 0v-2 2zm10-9 2 2c0 2-2 2-2 2h-2v-1l1-3h1zm-1 3h2"/><path fill="#d20014" stroke="#f1b517" d="M264 161v-2h-1l-2 1 1 1 1-1 1 1z"/><path fill-rule="evenodd" d="M214 175v1l-8 3 1-2 1 1c0-2 2-3 2-3l-4 2h1l-2 3 4 1-1 1 4-2-3-1v1l-2-1 7-2 1 1v-1a1 1 0 0 0 1 0l1-1h-1a1 1 0 0 0-1 0l-1-1zm2 1v1l-1-1h1z"/><path d="M293 178v-2h-1c1-1-1-4-1-4l4 4h-1l1 3-1 1h-1v-1l-8-3-1-1h2l7 3z"/><path d="m286 177 1-2h-1l-1 1c-1 1 0 1 1 1z"/></g><g fill="#fff" stroke-width=".3"><path d="M290 289v-3h-3l-1 3h4z"/><path d="m264 293-4-3c19 2 23-5 28-5 3-1 3 3-2 1l1 4s-14 8-27 4l4-1zm85-4v-3h5v3h-5z"/><path d="m376 292 4-2c-22 0-17-4-28-5-3-1-5 3 2 1l-1 4h3c8 5 18 5 25 4l-5-2z"/><path d="M285 286v5s13 5 35 5 34-5 34-5v-5s-9 5-34 5-35-5-35-5z"/></g><path fill="#000" stroke="none" d="m287 291 1-3h1l-1 3 2 1-3-1zm4-1v-2h1l-1 1v1zm5-1 1 1-1 2v1a1 1 0 0 1-1 0h-1a1 1 0 0 1-1-1v-1l1-2v4h1l1-1v-3zm1 4v-3h1l2 3v-3h1l-1 4h-1l-1-3-1 3v-1zm4 1v-4h1l-1 4zm1-2 1-1h2l1 1v1a2 2 0 0 1 0 1 2 2 0 0 1-1 0 2 2 0 0 1-1 1 2 2 0 0 1-1-1 2 2 0 0 1-1-1 2 2 0 0 1 0-1zm1 0v2h2l1-1v-1l-1-1a1 1 0 0 0-1 0h-1v1zm4 3v-4l2 3 1-3v4h-1l-2-3v3zm5 0v-4h3v1h-2v1h2-2v2h-1zm3 0 2-4 2 4h-1v-1h-2v1h-1zm1-1h2l-1-1a10 10 0 0 1 0-1v1l-1 1zm3 1v-4h1v4h-1zm3 0v-3h-2v-1h4v1h-2v3zm4 0v-4 4h2-2zm2 0 2-4 2 4-1-1h-2v1h-1zm1-2h2l-1-1-1 1zm5 2v-4h2-2v1h2v1h-2l1 2h-1zm3-3v-1l2-1h1v1l1 1v1l-1 1a2 2 0 0 1-1 0h-1a2 2 0 0 1-1-1 2 2 0 0 1 0-1zm1 0v1l1 1 1-1v-1a2 2 0 0 0 0-1 1 1 0 0 0-1 0h-1v1zm4 2-1-4h3v1l-1 1a1 1 0 0 1 1 0l1 1-1-1a7 7 0 0 0-1 0h-1v2zm0-3h1a2 2 0 0 0 1 0 1 1 0 0 0 0-1h-2v1zm6 0h1l-1 1-1 1h-1a2 2 0 0 1 0-1 3 3 0 0 1-1-1v-1l1-1h2v1l-1-1-1 1v1a2 2 0 0 0 0 1h1a1 1 0 0 0 1 0v-1zm2 1-1-4h2l-2 1 1 1 2-1v1h-2v2l2-1-2 1z"/></g></svg>