<svg xmlns="http://www.w3.org/2000/svg" viewBox="0 0 640 480"><g fill-rule="evenodd"><path fill="#6fdcff" d="M0 0h640v480H0z"/><g fill="#ffe400"><path d="M60 467c3 3 2 9 11 8 14 0 15-9 15-14 0-6-21-15-22-23-1-9 5-11 10-11 4 0 8 2 8 5s-3 3-6 3 1-2-1-3-5 2-5 4 7 3 12 1c1 5 1 5-5 13 4-3 5-4 10-2-5-4-1-14-1-16s-1-5-3-6c-4-4-12-4-17-2-8 3-8 13-6 16l20 21c1 2 2 9-7 9-9 1-12-11-13-15-3 4-5 16-14 16-9-1-10-7-9-10l21-21c2-3 1-13-6-16-5-2-13-2-17 2-2 1-3 4-3 6s4 12-1 16c5-2 5-1 10 2-6-8-6-8-5-13 5 2 12 1 12-1s-2-6-5-4c-3 1 2 3-1 3-4 0-6-1-6-3s3-5 8-5 11 2 10 11c-1 8-22 18-22 24s1 13 15 13c9 1 10-5 13-8z"/><path d="M59 343c3-3 6-12 15-12 14 0 19 8 19 14s-28 54-29 63c-1 8 5 11 10 11 4 0 8-3 8-5s-3-4-6-4 1 2-1 4-5-3-5-5 7-2 12-1c1-5 1-5-6-13 5 3 6 4 11 2-5 5-1 14-1 16s-1 5-3 7c-4 3-12 3-17 1-8-3-8-13-6-16l27-58c1-3-2-11-11-11-9-1-12 9-14 13l13-1v3c-7 0-13 2-13 2v6h6l-1 3h-5l-1 6h-4l-1-6h-6v-3h6l-1-6-12-2v-3l12 1c-1-4-4-14-13-13-9 0-13 8-11 11l27 58c2 3 1 13-6 16-5 2-13 2-17-1-2-2-3-4-3-7s4-11-1-16c5 2 5 1 10-2-6 8-6 8-5 13 5-1 12-1 12 1s-2 6-5 5c-3-2 2-4-1-4-4 0-6 1-6 4s3 5 8 5 11-3 10-11c-1-9-29-57-29-63s5-14 19-14c9 0 12 9 15 12z"/><path d="M59 319c3 4 6 13 15 12 14 0 19-7 19-13s-28-54-29-63 5-11 10-11c4 0 8 3 8 5s-3 3-6 3 1-1-1-3-5 2-5 4 7 3 12 2c1 4 1 5-6 13 5-4 6-4 11-3-5-4-1-13-1-16s-1-5-3-6c-4-4-12-4-17-1-8 3-8 12-6 15l27 59c1 3-2 10-11 11s-12-9-14-13l13 1v-3l-13-2v-6h6l-1-3h-5l-1-6h-4l-1 6h-6v3h6l-1 6-12 2v3l12-1c-1 4-4 14-13 13s-13-8-11-11l27-59c2-3 1-12-6-15-5-3-13-3-17 1-2 1-3 4-3 6s4 12-1 16c5-1 5-1 10 3-6-8-6-9-5-13 5 1 12 0 12-2s-2-5-5-4c-3 2 2 3-1 3-4 0-6 0-6-3s3-5 8-5 11 2 10 11-29 57-29 63 5 13 19 13c9 1 12-8 15-12z"/><path d="M59 161c3-4 6-13 15-12 14 0 19 7 19 13s-28 54-29 63 5 11 10 11c4 0 8-3 8-5s-3-3-6-3 1 1-1 3-5-2-5-4 7-3 12-2c1-4 1-5-6-13 5 4 6 4 11 3-5 4-1 13-1 16s-1 5-3 6c-4 4-12 4-17 1-8-3-8-12-6-15l27-59c1-2-2-10-11-11s-12 9-14 13l13-1v3l-13 2v6h6l-1 3h-5l-1 6h-4l-1-6h-6v-3h6l-1-6-12-2v-3l12 1c-1-4-4-14-13-13s-13 9-11 11l27 59c2 3 1 12-6 15-5 3-13 3-17-1-2-1-3-4-3-6s4-12-1-16c5 1 5 1 10-3-6 8-6 9-5 13 5-1 12 0 12 2s-2 5-5 4c-3-2 2-3-1-3-4 0-6 0-6 3s3 5 8 5 11-2 10-11-29-57-29-63 5-13 19-13c9-1 12 8 15 12z"/><path d="M59 137c3 3 6 12 15 12 14 0 19-8 19-14S65 81 64 72c-1-8 5-11 10-11 4 0 8 3 8 5s-3 4-6 4 1-2-1-4-5 3-5 5 7 2 12 1c1 5 1 5-6 13 5-3 6-4 11-2-5-5-1-14-1-16s-1-5-3-7c-4-3-12-3-17-1-8 3-8 13-6 16l27 58c1 3-2 11-11 11-9 1-12-9-14-13l13 1v-3c-7 0-13-2-13-2v-6h6l-1-3h-5l-1-6h-4l-1 6h-6v3h6l-1 6-12 2v3l12-1c-1 4-4 14-13 13-9 0-13-8-11-11l27-58c2-3 1-13-6-16-5-2-13-2-17 1-2 2-3 4-3 7s4 11-1 16c5-2 5-1 10 2-6-8-6-8-5-13 5 1 12 1 12-1s-2-6-5-5c-3 2 2 4-1 4-4 0-6-1-6-4s3-5 8-5 11 3 10 11c-1 9-29 57-29 63s5 14 19 14c9 0 12-9 15-12z"/><path d="M60 13c3-3 2-9 11-8 14 0 15 9 15 14 0 6-21 15-22 23-1 9 5 11 10 11 4 0 8-2 8-5s-3-3-6-3 1 2-1 3-5-2-5-4 7-3 12-1c1-5 1-5-5-13 4 3 5 4 10 2-5 4-1 14-1 16s-1 5-3 6c-4 4-12 4-17 2-8-3-8-13-6-16l20-21c1-2 2-9-7-9-9-1-12 11-13 15-3-4-5-16-14-16-9 1-10 7-9 10l21 21c2 3 1 13-6 16-5 2-13 2-17-2-2-1-3-4-3-6s4-12-1-16c5 2 5 1 10-2-6 8-6 8-5 13 5-2 12-1 12 1s-2 6-5 4c-3-1 2-3-1-3-4 0-6 1-6 3s3 5 8 5 11-2 10-11c-1-8-22-18-22-24S33 5 47 5c9-1 10 5 13 8z"/></g><g fill="#ffe400" transform="translate(-195 8) scale(1.0673)"><rect width="170.2" height="161.3" x="426" y="105" rx="85.1" ry="80.6"/><path d="m507 56-6 33c-1 14 18 13 15 0l-9-33zm7 260 8-32c2-13-17-14-15-1l7 33zM378 185l34 8c14 2 15-16 1-14l-35 6zm272 3-35-7c-14-2-14 17 0 14l35-7zm-243-88 21 26c10 10 23-4 10-11l-31-15zm211 171-24-25c-10-9-22 6-9 12l33 13zM449 71l9 32c5 12 22 4 14-7l-23-25zm123 232-7-33c-4-13-22-6-14 6l21 27zm30-214-28 20c-11 9 4 21 11 9l17-29zM419 282c1 1 24-15 30-18 11-8-2-21-11-10l-19 28zm-35-144 30 19c12 6 19-11 5-14l-35-5zm254 99-28-21c-12-7-20 9-6 13l34 8zM557 64l-18 28a8 8 0 0 0 14 5l4-33zm-93 244 20-27c7-12-11-19-14-6l-6 33zm-78-69 34-7c14-4 6-21-6-13l-28 20zm252-103-35 5c-14 3-7 20 5 13l30-18z"/><path d="m535 58-13 31c-4 13 15 16 14 2l-1-33zm-49 256 15-30c5-13-13-17-14-3l-1 33zM476 61l2 33c2 13 21 9 15-4l-17-29zm68 251 1-33c-1-13-20-10-15 3l14 30zM428 83l15 30c8 12 23 1 12-8l-27-22zm165 208-13-31c-6-12-23-2-12 8l25 23zM393 117l26 23c11 8 21-8 7-13l-33-10zm234 139-24-24c-10-9-22 5-8 11l32 13zm-249-97 32 13c13 5 17-13 3-14l-35 1zm267 57-31-15c-13-6-19 12-4 13l35 2zm-268-6 35 1c14-1 11-19-3-14l-32 13zm270-45-35-3c-14 0-12 18 2 14l33-11zm-246 98c1 1 26-11 32-13 13-7 1-22-9-12l-23 25zm222-152-32 12c-13 6-3 21 8 12l24-24zM443 299l23-25c9-11-8-20-13-7l-10 32zM583 75l-26 23c-9 10 7 21 13 8l13-31z"/><g transform="matrix(2.1824 0 0 2.063 -405 -273)"><path d="M360 248c1 2 1 16 15 30 14 13 38 16 38 16s0 2-2 2l-14-2-8-4-2 2c-1 0-7-7-10-8-2-2-11-11-13-15l-5-8-4 2-6-12c-2-7-2-11-1-11l2 10c2 5 5 7 5 7l-3-9c-1-6-2-14-1-16l2-2s-2 3-1 11 5 14 6 14c1-1 0-2-1-7s1-7 2-7l1 7zm-10 13c-2-3-7-12-8-11l8 14v4l-9-8c1 2 8 10 7 11s-6-5-6-5c0 1 6 6 5 7s-3-3-3-3l3 6c0 1-2-3-2-1l4 4h-2l5 2 12 13c5 4 18 10 19 10s3-2 2-3c0-1-13-5-17-9l-14-12-3-1h3l-4-2h3c0-1-5-2-4-3l3 1-4-3 3 1-3-4 4 3c1-1-1-8-1-8l3 1c1-1-1-2-4-4zm46 49c-1 0-2 0-1-2l7-2 4-3c1-1 2 1 1 2l-5 3-6 2zm13-5c-1-2 0-3 2-4l5-5c2-1 24-10 31-15s28-20 34-31c5-10 3-11 3-12l2 4-2 10s9-5 12-13 5-15 7-15-3 13-5 18c-3 5-6 7-5 8 0 1 8-5 11-10s5-9 6-8c0 1-3 11-7 16l-9 9c1 1 7 2 13-3 6-4 6-10 7-9 1 0-1 8-6 13s-14 6-13 7l16-4c-1 2-21 10-21 10h9c5-1 10-5 11-5 0 2-4 5-10 7-6 1-9 4-10 4l12-1-15 5 13-2-19 6c1 1 16-3 16-3l-27 9 23-5-12 4 9-1-24 7c-1 1 12-2 12 0s-28 11-28 9 17-6 17-7l-10 1 6-4h-5l9-5h-3l20-8-10 2 12-6c-1-1-7 3-7 2l10-6-6 1c0-1 10-9 8-9-1 0-3 3-4 1 1-2 9-5 7-7-3-1-13 1-17 3s-18 17-22 19l-17 8-7 5c-7 1-7 3-10 4l-12 6zm-16 7c-2 1-3 3-2 4l4-2h8l8-1 11-1 3-1h-12l-10 1h-10z"/><rect width="3.4" height="3" x="402" y="309" rx="1.7" ry="1.5"/><path d="M445 308c2-1 6 1 9 2 6 2 17 1 17 2l-3 3c-2 1-9-1-9-1l4 2h-6l3 1h-5v2h-4v2l-5-1c-2 0 1 1 0 1-1 1-4-1-4-1l-1 2-3-1-1 1-2-1c-1 0 0 2-2 2-1 0-1-3-2-2l-1 2-2-2c-1-1-1 2-2 2l-1-2-1 2-2-3-1 2-1-1c-1 0-2 2-3 1v-1h-2v-1l-3 1h-3l2-2v-4c2-1 6 1 12-1l22-6z"/></g></g></g></svg>