<svg xmlns="http://www.w3.org/2000/svg" viewBox="0 0 640 480"><defs><clipPath id="a"><path fill-opacity=".7" d="M-85 0h683v512H-85z"/></clipPath></defs><g fill-rule="evenodd" clip-path="url(#a)" transform="translate(80) scale(.9375)"><path fill="#be0027" d="M-128 0h769v512h-769z"/><path fill="#ff0" d="M105 261c14-16 42 0 65-12-27 1-42-13-63-11 22-14 41 4 66-3-33-3-32-18-62-20 27-11 40 12 67 7-31-8-36-26-59-30 34-5 32 15 65 18-34-15-25-27-53-38 31-1 29 21 61 27-27-18-24-33-46-46 26 1 29 28 56 36-24-19-18-35-39-52 27 6 23 30 51 44-21-22-13-38-31-57 26 8 16 31 42 52-15-25-6-41-20-62 23 12 12 35 34 58-11-26 0-42-11-64 20 15 8 39 25 62-6-32 7-37 3-65 15 19-2 38 10 65-1-31 15-38 12-64 16 23-8 43 2 67 2-30 22-38 22-61 12 21-14 37-10 65 9-31 30-35 32-56 8 25-21 36-19 63 8-27 34-31 40-51 3 26-23 31-30 60 14-24 37-26 48-45-1 26-30 30-39 54 17-21 38-17 55-35-2 23-32 22-47 46 18-17 45-12 59-26-1 20-37 19-54 37 21-11 48-5 63-15-3 18-41 14-59 28 25-7 44 3 65-4-10 17-45 6-63 18 22-4 45 9 65 5-7 15-45-1-65 8 24 0 40 16 63 15-12 14-46-5-65-2 23 5 42 24 60 25-15 12-43-14-65-11 23 6 42 33 56 33-15 10-43-22-62-21 23 11 34 37 49 41-19 6-37-29-58-30 24 15 25 38 43 48-19 5-33-35-53-39 20 15 23 45 35 55-19 1-26-41-46-47 17 15 13 46 26 59-20-4-18-40-39-53 15 20 8 47 18 63-20-8-12-41-31-59 11 20 0 44 8 64-18-9-6-47-20-62 6 23-5 43-1 64-18-21 3-43-13-65 4 25-13 43-11 64-14-17 8-45-3-67 2 25-20 47-19 63-12-20 13-44 7-67-2 24-25 37-29 58-8-24 20-41 17-64-8 22-30 31-38 52-6-23 26-36 27-61-10 24-36 29-45 47-3-24 34-34 35-57-12 22-41 23-51 40-1-24 38-27 44-51-12 18-44 16-57 31 2-22 44-23 51-43-16 15-45 9-61 21 9-21 48-17 57-32-17 9-48 0-64 9 14-20 45-8 63-22-29 4-46-7-66-2z"/><path fill="#ff0" d="M356 256a99 99 0 1 1-199 0 99 99 0 0 1 199 0z"/><path fill="#be0027" d="M343 256a86 86 0 1 1-172 0 86 86 0 0 1 172 0z"/><path fill="#ff0" d="M331 256a74 74 0 1 1-148 0 74 74 0 0 1 148 0z"/><path fill="#be0027" d="M194 208c21-1 46 1 63 15 18-11 39-16 60-14l11 20c-16-2-31 0-50 8 24 18 36 43 35 72l-10 10c4-28-11-60-33-77 18 26 29 49 26 81l-10 6c4-28-2-61-23-80 12 18 24 49 17 81l-12 5c8-26 3-59-11-79a95 95 0 0 0-10 78l-11-3c-5-30 2-64 16-82-14 8-27 43-23 78l-10-4c-4-26 8-61 25-80-20 12-35 42-33 74l-8-6c-4-29 13-57 32-74-16-7-30-9-50-8l9-21z"/></g></svg>