<svg xmlns="http://www.w3.org/2000/svg" xmlns:xlink="http://www.w3.org/1999/xlink" version="1" viewBox="0 0 640 480"><defs><path id="a" fill="silver" stroke="#000" stroke-width="1.2" d="M319-507h18v-43c0-43-36-65-36-65l18 108z"/><path id="b" stroke-width=".6" d="m301 397 18 18-18 17 9 9 18-17 35 35-18 18 9 8 18-17 18 17-54 54-35-36 18-17 9 9 8-9-35-36-9 9 9 9-18 18-17-18 9-9-9-9-36 35 9 9 9-9 18 18-18 18-9-9-9 9 36 35 9-9-9-8 17-18 36 35-53 53-18-17 18-18-9-9-18 18-35-36 17-17-9-9-17 17-18-17 124-124z"/><path id="c" fill="#fff133" stroke="#000" stroke-width="1.2" d="m345-596 9 22s1-10 8-12l7-2 32 59c6 9-3 16-1 16l26-11s-10 1-15-6l-35-60 12-5c5-3 10 8 10 8l-13-27s0 9-4 11l-8 3-8-13c-4-7 4-14 4-14l-23 11s8 5 11 9l5 9-8 3c-4 2-8 0-10-1z"/><path id="d" fill="#fff133" stroke="#000" stroke-width="1.2" d="M319-507h18v-43c0-43-36-65-36-65l18 108z"/><path id="e" fill="#fff133" stroke="#000" stroke-width="1.2" d="M567-657c0-44-151-80-337-80s-336 36-336 80v26c0-44 151-71 336-71s337 45 337 89v-44z"/><path id="f" d="m230-826-53 54 36 35-18 18-36-36-53 53 53 54 36-36 18 18v53h35v-53l18-18 35 36 53-54-53-53-35 36-18-18 36-35-54-54z"/><path id="g" d="m221-826-8 54v35l-18 18v-36l-18 53 18 54v-36l17 18v53h18v-53l18-18v36l18-54-18-53v36l-18-18v-35l-9-54z"/><path id="h" d="M142-1020c0-18 17-36 35-36s36 18 36 36-18 35-18 35l71 71h-36l-53-53-53 53H89l70-71s-17-18-17-36z"/><path id="i" d="M567-657c0-44-151-80-337-80s-336 36-336 80v26c0-44 151-71 336-71s337 45 337 89v-44z"/></defs><g fill-rule="evenodd"><path fill="#fff" d="M320 0h320v480H320z"/><path fill="#fff" stroke="#000" stroke-width=".2" d="M478 187c0 1-12 45-24 60-14 18-23 18-23 18l-14-4s8 1 25-20c17-22 22-58 22-57l14 3z"/><path fill="#fff" stroke="#000" stroke-width=".2" d="M439 191c0-2 7 44 28 65 11 11 18 11 18 11l17-4s-10 1-26-20c-17-22-22-53-22-53l-15 1z"/><path fill="#fff" stroke="#000" stroke-width=".2" d="M438 189s12 45 24 60c14 18 23 18 23 18l14-4s-8 1-25-21c-17-21-22-57-22-56l-14 3z"/><path fill="#fff" stroke="#000" stroke-width=".2" d="M477 189c0-2-7 44-28 65-11 11-18 11-18 11l-17-4s10 1 26-20c17-22 22-53 22-53l15 1z"/><path fill="#fff133" stroke="#000" stroke-width=".2" d="m449 223 2 4 1-2h2l6 11v4l5-3s-2 1-3-1l-7-12 3-1 2 2-3-6-1 3h-1l-2-2c-1-2 1-3 1-3l-5 2 2 2 1 2h-3z"/><path fill="#b00" d="M411 330zm-2 1zm-2 2zm22-21zm-1 2zm-1 2zm-1 0zm8-10zm-1 2zm-1 2zm-2 1zm-12 13zm-2 1zm-2 2zm-1 1zm11-10zm-1 2zm-2 1zm-1 1zm24-38zm0 1zm-1 2zm-1 2zm4-11zm-1 2zm-1 2zm-6 16zm-1 2zm-1 2zm-1 2zm6-13zm0 1zm-1 2zm-1 2zm10-29zm0 1zm-1 2zm2-10zm-1 2zm0 2zm-1 8zm-1 2zm-1 2zm57 48zm2 1zm2 2zm-21-21zm1 1zm2 2zm1 1zm-8-11zm1 2zm1 2zm1 2zm12 13zm1 1zm2 2zm1 1zm-10-10zm1 1zm2 2zm1 1zm-21-39zm0 1zm1 2zm0 2zm-2-12zm0 3zm1 2zm5 16zm0 2zm1 2zm1 2zm-5-13zm0 1zm1 2zm1 2zm-8-30zm0 2zm1 1zm-1-10zm0 3zm0 2zm1 8zm1 1zm0 2z"/><path fill="#fff133" stroke="#000" stroke-width=".2" d="m467 221-2 5-1-3h-2l-6 12v3l-5-2s2 0 3-2l7-12-3-1-2 2 3-5 1 2 1 1 2-3c1-2-1-3-1-3l5 2-2 2-1 2 1 1 2-1z"/><g transform="matrix(.1 0 0 .1 424 295)"><path fill="silver" d="m325-255-50 50L450-30l50-50z"/><circle cx="354.3" cy="-1428" r="35.4" fill="#fff133" stroke="#000" stroke-width="1.2" transform="rotate(135 458 74)"/><path fill="silver" stroke="#000" stroke-width="1.2" d="m-402-957 38 38-25 25-38-38c-13-12 12-37 25-25z"/><path fill="#fff133" stroke="#000" stroke-width="1.2" d="m-347-926-50 50c-14 0-25-12-25-25 11-26 25-39 50-50 13 0 25 10 25 25z"/><path fill="silver" stroke="#000" stroke-width="1.2" d="m-352-932 38 38-51 50-37-38c5-20 30-45 50-50z"/><path fill="#fff133" stroke="#000" stroke-width="1.2" d="m-309-889-50 50c-14 0-25-11-25-25 11-26 25-38 50-50 12 1 24 11 25 25z"/><path fill="silver" stroke="#000" stroke-width="1.2" d="M-314-894 28-551l-50 50-343-343c6-20 31-45 51-50z"/><path fill="#fff133" stroke="#000" stroke-width="1.2" d="m49-531-50 50c-14 0-26-11-25-25 11-26 25-38 50-50 12 1 24 11 25 25z"/><path fill="silver" stroke="#000" stroke-width="1.2" d="m49-531 225 226-50 50L-1-481c5-20 30-45 50-50z"/><path fill="silver" stroke="#000" stroke-width="1.2" d="m187-418-75 75c-14 0-26-12-26-25 0 0 0-25 25-50s51-25 51-25c11 1 21 12 25 25z"/><path fill="silver" stroke="#000" stroke-width="1.2" d="m187-418 50 75-50 50-75-50c-3-2 0-25 25-50s49-25 50-25z"/><path fill="silver" stroke="#000" stroke-width="1.2" d="M337-507c0-35 0-86 17-130 18 44 18 95 18 130h-35z" transform="matrix(-.7 .7 .6 .6 755 -275)"/><use xlink:href="#a" stroke-width="1.2" transform="matrix(.7 -.7 .6 .6 254 226)"/><use xlink:href="#a" stroke-width="1.2" transform="matrix(-.7 .7 .6 .6 755 -275)"/><path fill="#fff133" stroke="#000" stroke-width="1.2" d="m-314-894 37 37c25 25 113 138 113 138s117 92 142 117l38 38c-25-25-180-130-180-130s92 143 130 180l-38-37c-25-25-117-143-117-143s-100-75-125-100l-50-50c25 25 175 125 175 125s-100-150-125-175z"/><path fill="silver" stroke="#000" stroke-width="1.2" d="M300-230c50 75 100 125 112 138 24 23 50 25 50 25s0-25-25-50c-12-13-62-63-137-113zm-63-113c88 88 188 138 250 200 50 50 16 89 2 101s-52 50-102 0c-63-63-113-163-200-251 0-25 25-50 50-50z"/><path fill="silver" stroke="#000" stroke-width="1.2" d="M218 258h23v73h-23z" transform="matrix(-1.2 -1.4 -1.4 1.3 1166 -103)"/><g fill="silver" stroke="#000"><use xlink:href="#b" stroke-width=".6" transform="matrix(-2.3 0 0 2.2 361 -1734)"/><path stroke-width="1.2" d="M-194-423v39l-97 97v-78l20-19h39l38-39zm98-97-77 78-1 38 78-78v-38zm-78 116-39-39v-39l39 39v39zm102-99-39-39v-39l39 39v39zm-43-76v39l-20-20 20-19zm-102 99v39l-20-19 20-20z"/><path stroke-width="1.2" d="m-35-580-39 39v39l39-41v-37zm-241-42-39-39v-39l39 39v39zm82 79-39-39v-39l39 39v39zm19-100-58-58v-39l78 78-20 19zm-62-95v39l-20-20 20-19z"/><path stroke-width="1.2" d="m-276-622 39-39v-39l-39 39v39zm-97-21 58-58v-39l-78 78 20 19zm53 23-78 78h-39l-19 19v78l136-137v-38zm88 236-117-117h-39l116 117h39zm-59 19-117-117 20-19 116 117-19 19z"/><path stroke-width="1.2" d="M-291-365v78l-117-117v-78l117 117zm-104-178-117-117h-39l117 117h39zm-59 19-116-117 19-19 117 117-20 19z"/><path stroke-width="1.2" d="M-454-524v78l-116-117v-78l116 117zm16-138-19-19v-39l39 39-19 19zm102-99-19-20v-39l39 40-20 19zm99 259v-39l-19 19 19 20zm43-41 39-39-20-19-19 19v39zm-122-159 19-19-19-20v39z"/></g><path fill="#fff133" stroke="#000" stroke-width="2.3" d="m555-47-33-36L410 22l32 35z"/><path fill="silver" stroke="#000" stroke-width="2.3" d="M527 214c0 28-68 67-68-34h68v34z"/><path fill="silver" stroke="#000" stroke-width="2.3" d="M706-55c280 0 215 312 191 235-18-56-68-134-124-152-76-25-50 18-78 18s-2-43-79-18c-56 18-105 96-123 152-24 77-101-235 213-235z"/><path fill="silver" stroke="#000" stroke-width="2.3" d="M425 214a269 269 0 0 0 539 0v-34c0-55-67 236-269 236S425 179 425 180v34z"/><path fill="silver" stroke="#000" stroke-width="2.3" d="M864 216c0 28 67 67 67-34h-67v34z"/><path fill="silver" stroke="#000" stroke-width="2.3" d="M425 180A269 269 0 1 0 695-89a270 270 0 0 0-270 270zm102 0c0 28-44 6-18 82 18 53 51 86 107 104 77 24 51-18 79-18s2 42 78 18c56-18 90-51 108-107 24-77-18-51-18-79s42-2 18-78C863 46 829 12 773-6c-76-24-50 17-78 17s-2-41-79-17c-56 17-89 52-107 107-24 77 18 51 18 79z"/><path fill="silver" stroke="#000" stroke-width="1.2" d="M127 158c-21 0-2 67-9 51s-12-33-12-51 4-36 11-52c8-16-11 52 10 52z" transform="matrix(-1.7 0 0 1.8 1107 -99)"/><path fill="silver" stroke="#000" stroke-width="1.2" d="M372 140c0 16-2 32-10 45-8 14 10-45-8-45 18 0 2-59 8-45 7 14 10 29 10 45z" transform="matrix(-1.9 0 0 2 1166 -106)"/><path fill="silver" stroke="#000" stroke-width="2.3" d="M603 397a231 231 0 0 0 183 0c29-11-91 19-91-15 0 34-120 4-92 15zm92-419c0-33 120-3 91-15s-58-18-91-18-64 6-92 18 92-18 92 16z"/><ellipse cx="82.1" cy="160.9" fill="#fff133" stroke="#000" stroke-width="1.2" rx="18.4" ry="20.1" transform="scale(-2 2) rotate(-47 -401 723)"/><path fill="#fff133" stroke="#000" stroke-width="2.3" d="M852-49a257 257 0 0 1 74 80l12-7a285 285 0 0 0-78-84l-8 11zM461 317a257 257 0 0 0 74 80l-8 11a285 285 0 0 1-78-84l12-7z"/><path fill="#fff133" stroke="#000" stroke-width="2.3" d="M443 356c9 16 25 30 38 43 13 14 29 24 43 34l3-25a285 285 0 0 1-77-84l-7 32zm391 61a257 257 0 0 0 80-74l11 8a285 285 0 0 1-84 78l-7-12z"/><ellipse cx="82.1" cy="160.9" fill="#fff133" stroke="#000" stroke-width="1.2" rx="18.4" ry="20.1" transform="scale(-2 2) rotate(-47 -18 556)"/><path fill="#fff133" stroke="#000" stroke-width="2.3" d="M842 427a340 340 0 0 0 83-77l3 31a285 285 0 0 1-84 78l-2-32z"/><path fill="#fff133" stroke="#000" stroke-width="2.3" d="m836 414 1 28 6 8-1-28-6-8zm-298-12-7 8-2 26 6-6 3-28z"/><ellipse cx="82.1" cy="160.9" fill="#fff133" stroke="#000" stroke-width="1.2" rx="18.4" ry="20.1" transform="scale(-2 2) rotate(-47 -126 829)"/></g><path fill="#fff" stroke="#000" stroke-width=".2" d="m431 176-7-3-7 3s15 7 15 32c0 18-25 22-25 43 0 9 7 18 14 18s17-4 28-15c-7 4-15 8-21 8-4-1-11-4-11-11 0-14 24-21 24-43 0-25-10-32-10-32z"/><path fill="#fff" stroke="#000" stroke-width=".2" d="m430 176-9-3-2 3s14 7 14 32c0 18-25 22-25 43 0 9 5 17 13 17 14 1 18-4 28-14-9 7-21 10-26 7-6-3-7-7-7-11 0-14 24-20 24-42 0-25-10-32-10-32z"/><path fill="#fff" stroke="#000" stroke-width=".2" d="M431 176c-1 0-7-3-14 4-3 3-3 11-3 14l-11-11s6-17 22-10l6 3z"/><path fill="#fff" stroke="#000" stroke-width=".2" d="M429 175c-1 0-7-1-13 4-3 3-3 9-3 12l-9-8s5-16 20-10l5 2z"/><use xlink:href="#c" stroke-width="1.2" transform="matrix(-.2 0 -.1 .2 440 337)"/><use xlink:href="#c" stroke-width="1.2" transform="matrix(.2 0 0 -.1 321 95)"/><g transform="matrix(.1 0 0 .1 424 295)"><g transform="rotate(45 478 -505)"><circle cx="354.3" cy="-1428" r="35.4" fill="silver" stroke="#000" stroke-width="1.2" transform="translate(124 284)"/><path fill="#fff133" stroke="#000" stroke-width="1.2" d="M461-1127v53h35v-53c0-17-35-17-35 0z"/><path fill="silver" stroke="#000" stroke-width="1.2" d="M443-1066h71c9-10 9-26 0-35a84 84 0 0 0-71 0c-8 9-10 24 0 35z"/><path fill="#fff133" stroke="#000" stroke-width="1.2" d="M443-1074v53h71v-53a83 83 0 0 0-71 0z"/><path fill="silver" stroke="#000" stroke-width="1.2" d="M443-1013h71c9-10 9-26 0-35a84 84 0 0 0-71 0c-8 9-10 25 0 35z"/><path fill="#fff133" d="M443-117h71v248h-71z"/><path fill="#fff133" stroke="#000" stroke-width="1.2" d="M443-1020v484h71v-485a83 83 0 0 0-71 1z"/><path fill="silver" stroke="#000" stroke-width="1.2" d="M443-507h71c9-9 9-26 0-35a87 87 0 0 0-71 0c-8 9-10 25 0 35z"/><path fill="#fff133" stroke="#000" stroke-width="1.2" d="M443-507v319h71v-319a83 83 0 0 0-71 0z"/><path fill="#fff133" stroke="#000" stroke-width="1.2" d="M425-329h106c10-10 10-26 1-36 0 0-18-18-54-18s-53 18-53 18c-7 9-6 24 0 36z"/><path fill="#fff133" stroke="#000" stroke-width="1.2" d="m425-329 18 88h71l17-88c1-4-17-18-53-18s-52 17-53 18z"/><path fill="#fff133" stroke="#000" stroke-width="1.2" d="M337-507c0-35 0-86 17-130 18 44 18 95 18 130h-35z" transform="matrix(1 0 0 .8 124 173)"/><use xlink:href="#d" stroke-width="1.2" transform="matrix(-1 0 0 .8 833 173)"/><use xlink:href="#d" stroke-width="1.2" transform="matrix(1 0 0 .8 124 173)"/><path fill="#fff133" stroke="#000" stroke-width="1.2" d="M478-117c18 89 18 160 18 177 0 34-18 54-18 54s-17-18-17-54c0-17 0-88 17-177zm-35-124c0 124-35 230-35 319 0 71 51 73 70 72 18-1 72-1 71-72 0-89-35-195-35-319a53 53 0 0 0-71 0z"/><path fill="silver" stroke="#000" stroke-width="1.2" d="M443-1020v53c0 35 18 177 18 177s-18 148-18 184v53c0-36 35-219 35-219s36 166 36 219v-53c0-36-18-184-18-184s18-124 18-160v-70c0 35-36 212-36 212s-35-177-35-212z"/></g><path fill="#fff133" stroke="#000" stroke-width="1.2" d="M218 258h23v73h-23z" transform="matrix(1.2 -1.4 1.4 1.3 -662 -103)"/><path fill="#fff133" stroke="#000" stroke-width="2.3" d="M-23 214c0 28 67 67 67-34h-67v34z"/><path fill="#fff133" stroke="#000" stroke-width="2.3" d="M-203-55c-279 0-214 312-190 235 18-56 67-134 123-152 77-25 51 18 79 18s2-43 78-18C-57 46-7 124 11 180 35 257 112-55-203-55z"/><path fill="#fff133" stroke="#000" stroke-width="2.3" d="M78 214a269 269 0 0 1-539 0v-34c0-55 68 236 270 236S78 179 78 180v34z"/><ellipse cx="82.1" cy="160.9" fill="silver" stroke="#000" stroke-width="1.2" rx="18.4" ry="20.1" transform="rotate(-47 -508 805) scale(1.9)"/><path fill="silver" stroke="#000" stroke-width="2.3" d="m-51-47 33-36L94 22 61 57z"/><path fill="#fff133" stroke="#000" stroke-width="2.3" d="M-360 216c0 28-67 67-67-34h67v34z"/><path fill="#fff133" stroke="#000" stroke-width="2.3" d="M78 180A269 269 0 1 1-191-89C-43-89 78 32 78 181zm-101 0c0 28 43 6 18 82-18 53-51 86-108 104-76 24-50-18-78-18s-2 42-79 18c-56-18-90-51-107-107-24-77 18-51 18-79s-42-2-18-78c18-56 52-90 108-108 76-24 50 17 78 17s2-41 78-17C-56 11-23 46-5 101c24 77-18 51-18 79z"/><path fill="#fff133" stroke="#000" stroke-width="1.2" d="M127 158c-21 0-2 67-9 51s-12-33-12-51 4-36 11-52c8-16-11 52 10 52z" transform="matrix(1.7 0 0 1.8 -604 -99)"/><path fill="#fff133" stroke="#000" stroke-width="1.2" d="M372 140c0 16-2 32-10 45-8 14 10-45-8-45 18 0 2-59 8-45 7 14 10 29 10 45z" transform="matrix(1.9 0 0 2 -662 -106)"/><path fill="#fff133" stroke="#000" stroke-width="2.3" d="M-100 397a231 231 0 0 1-183 0c-28-11 92 19 92-15 0 34 119 4 91 15zm-91-419c0-33-120-3-92-15s59-18 92-18 63 6 91 18c29 12-91-18-91 16z"/><path fill="silver" stroke="#000" stroke-width="2.3" d="M-348-49a257 257 0 0 0-75 80l-11-7a285 285 0 0 1 78-84l8 11zM43 317a257 257 0 0 1-74 80l7 11a285 285 0 0 0 78-84l-11-7z"/><path fill="silver" stroke="#000" stroke-width="2.3" d="M60 356c-9 16-25 30-37 43-13 14-29 24-44 34l-3-25a285 285 0 0 0 78-84l6 32zm-391 61a257 257 0 0 1-80-74l-11 8a285 285 0 0 0 84 78l7-12z"/><ellipse cx="82.1" cy="160.9" fill="silver" stroke="#000" stroke-width="1.2" rx="18.4" ry="20.1" transform="rotate(-47 220 482) scale(1.9)"/><path fill="silver" stroke="#000" stroke-width="2.3" d="M-338 427a340 340 0 0 1-83-77l-4 31a285 285 0 0 0 84 78l3-32z"/><path fill="silver" stroke="#000" stroke-width="2.3" d="m-332 414-2 28-5 8 1-28 6-8zm297-12 7 8 2 26-5-6-3-28z"/><ellipse cx="82.1" cy="160.9" fill="silver" stroke="#000" stroke-width="1.2" rx="18.4" ry="20.1" transform="rotate(-47 18 1004) scale(1.9)"/><g fill="#fff133" stroke="#000"><use xlink:href="#b" stroke-width=".6" transform="matrix(2.3 0 0 2.2 143 -1734)"/><path stroke-width="1.2" d="M697-423v39l98 97v-78l-20-19h-39l-39-39zm-97-97 77 78 1 38-78-78v-38zm78 116 39-39v-39l-39 39v39zm-102-99 39-39v-39l-39 39v39zm43-76v39l20-20-20-19zm102 99v39l19-19-19-20z"/><path stroke-width="1.2" d="m538-580 40 39v39l-40-41v-37zm241-42 39-39v-39l-39 39v39zm-81 79 39-39v-39l-39 39v39zm-19-100 58-58v-39l-78 78 20 19zm62-95v39l20-20-20-19z"/><path stroke-width="1.2" d="m779-622-39-39v-39l39 39v39zm98-21-59-58v-39l78 78-19 19zm-54 23 78 78h39l20 19v78L823-582v-38zm-87 236 117-117h39L775-384h-39zm59 19 117-117-20-19-117 117 20 19z"/><path stroke-width="1.2" d="M795-365v78l117-117v-78L795-365zm104-178 117-117h39L938-543h-39zm58 19 117-117-19-19-117 117 19 19z"/><path stroke-width="1.2" d="M957-524v78l117-117v-78L957-524zm-16-138 20-19v-39l-39 39 19 19zm-101-99 19-20v-39l-39 40 19 19zM740-502v-39l20 19-20 20zm-42-41-39-39 20-19 19 19v39zm122-159-20-19 20-20v39z"/></g></g><path fill="#b00" d="M452 279zm0-2zm0-2zm0-2zm0 15zm0-2zm0-2zm0-2zm0-20zm0-2zm0-2zm0-2zm0 15zm0-2zm0-3zm0-1zm0 49zm0-2zm0-3zm0-2zm0 15zm0-2zm0-2zm0-2zm0-20zm0-1zm0-3zm0-2zm0 15zm0-2zm0-2zm0-2zm-1 49zm0-2zm0-2zm0-2zm0 12zm0-2zm0-2zm1-19zm0-2zm0-3zm0-1zm-1 14zm1-2zm0-2zm0-2zm-1 36zm0-2zm0-2zm0-2zm0 13zm0-2zm0-2zm0-11zm0-2zm0-2zm4-77zm0-2zm0-3zm0-2zm0 15zm0-2zm0-2zm0-2zm0-20zm0-1zm0-3zm0-2zm0 15zm0-2zm0-2zm0-2zm0 49zm0-2zm0-2zm0-2zm0 14zm0-1zm0-3zm0-2zm0-19zm0-2zm0-3zm0-1zm0 14zm0-2zm0-2zm0-2zm0 49zm0-2zm0-2zm0-2zm0 13zm0-3zm0-2zm0-19zm0-2zm0-2zm0-2zm0 15zm0-2zm0-3zm0-2zm0 37zm0-2zm0-3zm0-2zm0 13zm0-2zm0-2zm0-11zm0-2zm0-2zm12-91zm-4-3zm1 2zm-1-6zm2 0zm-13 0zm3 0zm3 0zm2 0zm-11-1zm1 1zm-1-2zm52 99zm2 0zm3-1zm2-1zm16-7zm2-6zm-1 4zm-34 13zm2 0zm4-1zm0-1zm14-2zm2-1zm-54 7zm2 0zm3 0zm2 0zm-17 0zm2 0zm3 0zm2 0zm24 0zm3-1zm2 0zm3 0zm-19 1zm3 0zm3 0zm2-1zm-60-1zm2 0zm3 1zm3 0zm-16-2zm3 0zm2 1zm24 2zm2 0zm3 0zm3 0zm-18-1zm2 0zm3 1zm2 0zm-35-21zm-3 4zm0 4zm1 3zm7-17zm-1 2zm-3 1zm-1 17zm3 2zm4 2zm110-5zm0 0zm5-3zm-3 2zm-7-10zm-2-1zm-4-1zm13 5zm-3-1zm-2-1z"/><g transform="matrix(.1 0 0 .1 438 288)"><path fill="#fff133" stroke="#000" stroke-width="1.2" d="M213-1995v53h-53v36h53v106h35v-106h53v-36h-53v-53h-35z"/><ellipse cx="239.2" cy="-1813.5" fill="#fff133" stroke="#000" stroke-width="1.2" rx="62" ry="57.3" transform="matrix(.6 0 0 .6 94 -679)"/><path fill="#fff" stroke="#000" stroke-width="1.2" d="M602-1119c0 68-10 145-29 205-120-27-268-40-339-40-87 0-246 13-345 26-19-59-30-123-30-192 0-273 105-390 367-495 233 105 377 222 377 496z" transform="matrix(1.1 0 0 1.3 -6 364)"/><use xlink:href="#e" stroke-width="1.2" transform="matrix(1.2 0 0 .7 -33 -635)"/><g fill="#fff133" stroke="#000" stroke-width="1.2"><use xlink:href="#f" transform="matrix(1.2 0 0 .7 -33 -767)"/><use xlink:href="#g" transform="matrix(1.1 -.2 .3 .7 -190 -704)"/><use xlink:href="#g" transform="matrix(1.1 .2 -.3 .7 182 -778)"/><use xlink:href="#h" transform="matrix(.9 -.1 .2 .7 29 -522)"/><use xlink:href="#h" transform="matrix(.9 .1 -.2 .7 125 -554)"/><use xlink:href="#i" transform="matrix(1.2 0 0 .7 -33 -674)"/></g><use xlink:href="#e" stroke-width="1.2" transform="matrix(1.1 0 0 .7 -9 -387)"/><g fill="#fff133" stroke="#000" stroke-width="1.2"><use xlink:href="#f" transform="matrix(1.1 0 0 .7 -13 -519)"/><use xlink:href="#g" transform="matrix(1.1 -.2 .3 .7 -161 -456)"/><use xlink:href="#g" transform="matrix(1.1 .2 -.3 .7 190 -530)"/><use xlink:href="#h" transform="matrix(.9 -.1 .2 .7 45 -274)"/><use xlink:href="#h" transform="matrix(.9 .1 -.2 .7 136 -306)"/><use xlink:href="#i" transform="matrix(1.1 0 0 .7 -13 -426)"/></g><use xlink:href="#e" stroke-width="1.2" transform="matrix(1.1 0 0 .7 -16 -865)"/><g fill="#fff133" stroke="#000" stroke-width="1.2"><use xlink:href="#f" transform="matrix(1.1 0 0 .7 -6 -1031)"/><use xlink:href="#g" transform="matrix(1 -.2 .3 .7 -151 -972)"/><use xlink:href="#g" transform="matrix(1.1 .2 -.2 .7 192 -1042)"/><use xlink:href="#h" transform="matrix(.9 -.1 .2 .7 51 -800)"/><use xlink:href="#h" transform="matrix(.9 .1 -.2 .7 139 -831)"/><use xlink:href="#i" transform="matrix(1.1 0 0 .7 -6 -944)"/></g><ellipse cx="234.1" cy="-822.1" fill="#b90000" rx="375.9" ry="120.5" transform="matrix(1 0 0 .4 13 -517)"/></g><path fill="#fff" stroke="#000" stroke-width=".2" d="m485 178 7-3 7 3s-15 7-15 32c0 18 25 21 25 43 0 9-7 17-14 17s-17-3-28-14c7 4 15 8 21 7 4 0 11-3 11-10 0-14-24-22-24-43 0-25 10-32 10-32z"/><path fill="#fff" stroke="#000" stroke-width=".2" d="m486 178 9-3 2 3s-14 7-14 32c0 18 25 21 25 43 0 9-5 17-13 17-14 1-18-5-28-14 9 7 21 9 26 7 6-3 7-7 7-11 0-14-24-21-24-42 0-25 10-32 10-32z"/><path fill="#fff" stroke="#000" stroke-width=".2" d="M485 178c1 0 7-3 14 4 3 3 3 10 3 14l11-11s-6-17-22-10l-6 3z"/><path fill="#fff" stroke="#000" stroke-width=".2" d="M487 177c1-1 7-1 13 4 3 3 3 8 3 12l9-8s-5-16-20-11l-5 3z"/><use xlink:href="#c" stroke-width="1.2" transform="matrix(.2 0 .1 .2 476 339)"/><use xlink:href="#c" stroke-width="1.2" transform="matrix(-.2 0 0 -.1 595 97)"/><path fill="#b00" d="M458 384zm-5 3zm3-1zm-5 4zm4 0z"/><path fill="#ffe000" d="M0 0h320v480H0z"/></g></svg>