<svg xmlns="http://www.w3.org/2000/svg" version="1" viewBox="0 0 640 480"><g fill-rule="evenodd" stroke-width="1pt"><path fill="#f41408" d="M0 0h640v480H0z"/><path fill="#21873b" d="M0 320h640v160H0z"/><path d="M0 0h640v160H0z"/><path fill="#f31509" d="M220 141c23-49 85-73 139-53 28 11 47 28 58 53H220zm-25 6c-24-1-49-6-53-7-4-2-4-4-4-6 1-1 3-3 6-3 6 2 29 7 51 16zm124-85c-4-21-5-45-5-48 1-4 3-5 5-5s5 2 5 5c0 5 0 27-5 48zm12 0c-3-21-1-44-1-48 1-4 4-5 6-4 1 0 4 2 4 5-1 5-3 26-9 47zm10 1c0-21 3-44 4-48s4-4 6-4c2 1 4 3 3 6-1 5-5 26-13 46zm11 3c2-22 7-44 9-48 1-4 4-4 6-3 2 0 4 2 3 5-2 5-8 26-18 46zm11 3c4-21 11-43 13-47s5-3 6-3c2 1 4 3 3 6-2 5-10 25-22 44zm10 3c6-20 16-42 18-45s4-3 6-2c2 0 4 3 2 6-2 4-12 24-26 41zm10 5c8-20 20-40 22-44 3-3 5-2 7-2 1 1 3 4 1 7-3 4-15 23-30 39zm9 6c10-20 24-39 27-42 2-3 5-3 6-2 2 1 3 4 1 7-3 4-17 22-34 37zm9 6c12-19 27-37 30-40s6-2 7-1c2 1 3 4 1 7-4 4-20 20-38 34zm9 7c13-18 30-35 33-37 4-3 6-2 7-1 2 2 2 5 0 7-4 3-21 19-40 31zm7 7c15-16 34-32 37-34 4-2 6-1 7 0 2 2 2 5-1 6-4 4-22 18-43 28zm7 8c16-15 36-29 40-31s6-1 7 0c1 2 1 5-2 7-4 3-24 15-45 24zm6 8c17-14 39-26 43-28 4-1 5 0 6 2 1 1 1 4-2 6-5 2-25 13-47 20zm5 10c19-12 42-23 46-24 4-2 6 0 6 1 1 2 1 5-2 6-6 3-27 12-50 17zm4 9c20-11 44-20 48-21s6 1 7 3c0 2-1 4-4 5-5 2-28 10-51 13zm4 10c21-9 45-16 49-17 5-1 6 1 7 3 0 2-1 5-4 5-6 2-29 7-52 9zM308 62c-6-21-10-44-10-47 0-4 2-5 4-5 2-1 5 1 5 4 1 5 3 27 1 48zm-11 1c-9-20-14-42-15-46 0-4 2-5 4-5 2-1 5 1 6 3 1 6 5 27 5 48zm-11 2c-10-19-18-41-19-45s1-5 3-5c2-1 5 0 6 3 2 5 8 26 10 47zm-11 3c-12-18-21-39-23-43-1-4 1-5 3-6s5 0 6 3c2 5 10 25 14 46zm-10 4c-13-17-25-38-27-41-1-4 1-6 2-6 2-1 5-1 7 2 2 5 12 24 18 45zm-10 5c-15-16-29-36-31-39-2-4 0-6 1-6 2-1 6-1 7 1 3 5 15 24 23 44zm-9 5c-17-15-33-33-35-36-2-4-1-6 1-7s5-1 7 2c3 4 17 22 27 41zm-9 6c-18-13-36-30-38-34-3-3-1-5 0-6 2-1 5-1 7 1 4 4 19 21 31 39zm-9 7c-19-12-38-27-41-30s-1-5 0-7c1-1 5-1 7 1 4 3 21 19 34 36zm-7 7c-21-10-41-24-44-27s-2-5-1-6c2-2 5-2 7-1 5 4 23 18 38 34zm-7 8c-22-8-43-21-46-23-4-3-3-5-2-6 1-2 4-3 7-1 5 3 24 15 41 30zm-6 9c-23-7-45-17-49-20-3-2-3-4-2-6s4-2 7-1c5 3 26 13 44 27zm-6 9c-22-5-46-14-50-16s-3-4-2-6c0-1 3-3 6-1 5 2 27 11 46 23zm-4 9c-23-3-47-10-51-12s-4-4-3-5c0-2 3-4 6-3 5 2 28 9 48 20z"/><path fill="#f31509" d="M195 147c-24-1-49-6-53-7-4-2-4-4-4-6 1-1 3-3 6-3 6 2 29 7 51 16z"/><path d="M129 142h382v12H129z"/></g></svg>