<svg xmlns="http://www.w3.org/2000/svg" xmlns:xlink="http://www.w3.org/1999/xlink" viewBox="0 0 800 600"><defs><path id="a" d="M164 161c0 9-2 14-7 13-2-5 1-8 7-13zm-11 20c-4-2-1-19 1-26 1 9 3 22-1 26z"/><path id="b" d="M155 182c7 2 13-5 14-14-5 8-15 8-14 14zm-6 8c-5-1-2-19-1-26 2 7 6 24 2 26zm2 0c0-6 7-5 11-8-1 3-4 9-11 8zm-7 8c-5-2-2-21-2-28 1 6 7 26 2 28zm3-1c4 2 10-1 11-7-4 3-11 1-11 7z"/><path id="c" d="M140 206c-5 1-3-16-3-31 2 15 7 28 3 31zm2 0c4 1 10-1 12-7-7 2-11 0-12 7z"/><path id="d" d="M184 169c-1 8-4 13-9 12-1-5 2-8 9-11zm-13 21c8 1 11-5 16-13-7 5-16 6-16 13z"/><path id="e" d="M169 189c-4-6 0-12 3-18-1 9 2 13-3 18zm-2 8c-1-5 8-6 12-9-1 3-3 11-12 9z"/><path id="f" d="M165 198c-6-1-3-11 1-17-2 7 3 13-1 16z"/><path id="g" d="M161 206c-7-3-3-12 0-17-1 7 4 12 0 17z"/><path id="h" d="M162 205c4 5 11-1 12-8-6 5-11 4-12 8z"/><path id="i" d="M327 170c1 4 1 12 8 11 1-8-5-8-8-11z"/><path id="j" d="M339 190c0-8-9-6-16-13 2 7 9 15 16 12z"/><path id="k" d="M341 189c5-4 1-11-4-17 2 7-2 13 4 17zm2 8c-8 1-10-3-13-8 5 3 12 1 12 8zm1 1c-4-3 1-10-1-17 3 4 7 14 0 17z"/><path id="l" d="M348 206c-8 2-10-3-12-10 6 6 10 3 12 10z"/><path id="m" d="M349 206c6 0 3-11 0-16 1 6-3 13 0 16z"/><path id="n" d="M346 161c1 5-1 14 6 14 3-5-3-10-6-14zm11 20c4-3 0-13-1-25-1 11-4 22 1 25z"/><path id="o" d="M354 182c1-6-8-7-14-14 1 6 6 14 14 14zm6 9c-4-4 1-17 2-27 0 9 4 25-2 27zm-2-1c-7 0-9-5-10-8 4 3 10 2 10 8zm7 7c5 0 3-20 2-27 0 7-6 25-2 28zm-3 0c-4 1-9-2-10-6 4 2 10 1 10 7zm7 9c6 2 4-24 3-31 0 8-7 28-3 31z"/><path id="p" d="M368 206c-6 1-10-3-12-7 6 2 11 1 12 7z"/><path id="q" d="M390 216c-2 9-4 16 0 16s2-9 0-16zm0 24c5 2 10-9 9-18-2 8-9 12-8 18zm-1 0c1-6-2-6-5-12 1 7 2 12 5 12z"/><path id="r" d="M390 249c5 1 11-11 11-20-2 10-13 14-11 20z"/><path id="s" d="M388 248c2-4-2-4-5-12 0 9 1 13 5 12zm2 9c6 2 10-13 13-20-6 10-14 15-13 21z"/><path id="t" d="M388 257c2-5-3-5-6-13 0 10 2 14 6 13zm2 9c4 0 12-11 12-18-4 8-15 13-12 18z"/><path id="u" d="M387 265c2-6-3-6-5-12 0 9 1 13 5 12zm0 10c7 1 9-8 14-18-5 8-14 12-14 18z"/><path id="v" d="M387 274c2-5-3-5-6-13-1 11 1 14 6 13z"/><path id="w" d="M373 241c-3 9-4 13 0 16 4-3 2-8 0-16zm-2 23c2-7-3-8-5-15-1 9 1 16 5 15z"/><path id="x" d="M373 265c4 1 8-7 6-15-3 8-9 9-6 15zm-3 7c3-5-2-5-5-12 0 9 1 13 5 12z"/><path id="y" d="M370 281c2-6-3-5-7-12 0 10 2 13 7 12zm2-8c3 0 9-5 7-12-2 5-9 5-7 11zm-1 7c5 1 9-6 8-11-3 5-8 5-7 11z"/><path id="z" d="M387 298c1-5-1-6 1-13-7 9-4 13-1 13z"/><path id="A" d="M387 299c5 1 15-9 16-16-3 5-18 11-16 16zm-7 6c3-2 3-8 0-10-1 6-5 10 0 10z"/><path id="B" d="M383 307c5 1 11-8 15-12-4 4-19 6-15 12zm-7 4c4-2 1-7 0-16-3 7-4 16 0 16z"/><path id="C" d="M377 314c2 2 15-6 19-12-12 8-22 7-19 12zm-1 7c3-2-3-8-4-17 0 11-2 19 4 18z"/><path id="D" d="M379 319c2 2 12-5 17-12-7 6-19 7-17 12zm-10 11c4-1 3-10 0-18-3 10-4 19 0 18z"/><path id="E" d="M378 325c1 1 16-9 16-13-5 6-20 8-16 13zm-17 14c5-2 2-11 3-19-4 8-8 17-3 19z"/><path id="F" d="M370 332c1 2 13-3 19-11-7 5-21 6-19 11z"/><path id="G" d="M362 340c3 5 18-3 20-11-4 6-22 6-20 11z"/><path id="H" d="M369 344c3 0 10-5 11-8-5 2-12 6-11 8z"/><path id="I" d="M346 311c4 0 8-6 5-12-1 6-11 11-4 12zm7-4c3 2 10-5 9-10-4 6-11 8-9 10z"/><path id="J" d="M346 317c2 3 15-10 18-15-10 9-21 11-18 15zm-3 8c2 3 10-6 15-14-6 7-18 10-15 14z"/><path id="K" d="M344 318c2-6-2-7-3-13-3 4-3 14 2 13zm-4 7c5-1-2-8-3-13-1 9-1 14 3 13zm-3 6c3-1-2-4-3-12-2 3-3 13 2 12z"/><path id="L" d="M331 333c2-1 2-7-2-8-1 5-1 8 2 8z"/><path id="M" d="M319 349c4 1 6-4 6-8-4 1-8 3-6 8zm-2 5c1 4 10 0 12-6-7 4-14 0-12 6zm-4 0c4 0 2-6 2-13-3 5-6 12-2 13zm-5 6c5 1 2-8 0-14-1 5-5 14 0 14z"/><path id="N" d="M311 360c0 5 10 0 16-4-8 2-17-1-16 4zm-6 7c1 5 11 0 16-3-7 1-16-2-15 3zm-2 0c4 0 1-9 0-16-2 6-5 16 0 16zm-4 6c1 5 9 0 15-3-8 1-16-2-15 3z"/><path id="O" d="M349 365c2 4 12-3 17-7-7 2-19 1-17 7z"/><path id="P" d="M339 369c1 5 17 1 20-3-8 4-21-1-20 3zm-8 4c1 3 13 2 20 0-7 1-21-4-20 0z"/><path id="Q" d="M324 377c0 2 15 4 20-1-10 2-21-6-20 1z"/><path id="R" d="M313 379c-1 4 15 3 20 1-8-1-19-6-20-1z"/><path id="S" d="M313 376c3 3 12-12 15-18-7 7-20 15-15 18zm10-3c4 3 8-7 10-15-4 7-14 11-10 15z"/><path id="T" d="M331 370c5 3 7-6 8-12-3 5-11 8-7 12z"/><path id="U" d="M339 365c5 3 10-5 9-13-2 9-13 9-9 13zm-16 22c3 6 25-4 28-11-7 7-30 6-28 12z"/><path id="V" d="M126 233c-2-2-2-3 1-3h9l1-9c1-1 2-3 4 0 6 9 13 20 16 32 2 6 1 16-5 22 0-6-2-10-4-14-3-6-14-23-21-29z"/><path id="W" d="M150 282c7 0 8-8 8-11-4 1-9 6-8 11z"/><path id="X" d="M161 363c0 5-14 0-18-5 8 2 17 1 18 5zm9 2c3-2-3-7-8-8 0 3 4 11 8 9zm1 4c0 5-16 3-20-2 13 3 19-2 19 2z"/><path id="Y" d="M178 372c2 5-13 4-19 1 9 0 18-3 19 0z"/><path id="Z" d="M166 317c4 3 7-6 3-14-1 8-7 11-3 14z"/><path id="aa" d="M169 325c5 1 6-6 3-13 1 7-7 11-3 13z"/><path id="ab" d="M173 331c4 2 5-6 2-11 1 7-5 9-2 11zm-2 1c-2 5-11-5-13-10 6 6 14 6 13 10zm-4-8c-2 5-14-8-17-14 6 6 18 10 17 14z"/><path id="ac" d="M123 299c-6 3-14-10-17-16 5 7 18 12 17 16z"/><path id="ad" d="M127 306c-3 4-12-6-15-10 5 4 17 5 15 10z"/><path id="ae" d="M133 313c-1 5-15-6-18-11 6 6 19 5 18 11zm-3 5c-2 4-13-6-16-11 7 6 18 7 16 11zm-5-20c3-4 2-6-1-11-1 6-3 8 1 11zm4 7c7 0 0-8-1-14 0 7-2 13 1 14z"/><path id="af" d="M133 311c5-1 4-7 0-15 1 8-4 13 0 15zm-1 13c-2 5-15-7-17-11 6 5 17 7 16 11z"/><path id="ag" d="M140 332c-2 5-16-5-20-11 8 6 21 6 20 11z"/><path id="ah" d="M147 339c-2 7-16-4-20-9 9 6 22 4 21 9zm-13-18c4 2 6-8 3-16 0 9-7 15-3 17z"/><path id="ai" d="M141 330c4 1 3-10-1-18-1 8-4 15 0 18zm8 8c5 0 1-10-3-16 1 8-1 15 3 16zm-9 4c-2 3-5-2-12-5 6 1 12 3 12 5z"/><path id="aj" d="M137 256c5-3 1-10 0-16-2 6-6 14 0 17zm0 9c-7 0-6-10-6-15 2 8 8 10 6 16zm1-1c6 0 6-7 6-14-3 7-7 8-6 14z"/><path id="ak" d="M138 272c-5 1-7-4-8-11 4 7 8 5 8 11zm1 0c6 0 5-7 5-12-1 5-6 6-4 11z"/><path id="al" d="M130 269c0 5 3 12 8 11 2-6-4-7-8-11z"/><path id="am" d="M139 280c-2-4 5-6 7-11 0 7 0 12-7 11z"/><path id="an" d="M120 233c4-4 0-11-1-17-1 6-4 14 1 17zm0 7c-7 1-8-13-9-18 2 8 10 11 9 18zm1 0c5-2 4-8 5-12-3 5-6 6-5 12z"/><path id="ao" d="M120 249c-7 0-11-15-11-20 2 7 12 12 11 20zm1-1c7-1 6-5 5-12-2 7-6 5-5 12z"/><path id="ap" d="M120 257c-8 1-7-11-13-19 5 6 14 14 13 19zm2 0c5 0 6-9 6-12-2 3-8 7-6 12z"/><path id="aq" d="M108 248c3 9 7 18 12 18 2-6-5-6-12-18z"/><path id="ar" d="M122 264c-2-4 4-6 6-11 1 8 0 12-6 11zm-12-6c4 9 6 18 11 17 2-6-6-8-11-16z"/><path id="as" d="M123 273c-3-4 4-6 6-12 1 8 0 14-6 12z"/><path id="at" stroke="#000" stroke-width=".4" d="M243 132c0 1 1 1 1-1l-1-3 1-4-1 1v3l1 4z"/><path id="au" stroke="#000" stroke-width=".3" d="M242 132h1v-8c-1-1-2 0-2 1l-1 3c-1 2 1 3 1 4z"/><path id="av" stroke="#000" stroke-width=".4" d="M242 131h1v-6l-1 1v7z"/><path id="aw" fill="#fff" fill-rule="evenodd" stroke="#000" d="m328 160 11-21c0-2 3 3 0 5s-9 13-11 17c-1 2-3 1-2-1z"/></defs><g fill-rule="evenodd" stroke-width="1.3"><path d="M0 0h800v600H0Z"/><path fill="#090" d="M534 0h266v600H534Z"/><path fill="#bf0000" d="M266 0h268v600H266Z"/></g><path fill="#fff" fill-rule="evenodd" stroke="#000" stroke-width="1.2" d="m567 311 2 1 5-10c1-1-2-2-3-1zM320 455c-2 7-30-7-34-14 17 9 34 7 34 14zm-91-142c1 1 3 1 1-1l-2-5-3-6c-1-2-2 0-1 1l1 5zm38 47c5 2 9 8 9 13l3 14c-3-1-5-7-6-13 0-7-3-10-6-14zm10 11c3 6 8 9 8 12l2 11c-3-1-4-1-5-8 0-6-5-10-5-15z"/><path fill="#fff" fill-rule="evenodd" stroke="#000" stroke-linejoin="round" stroke-width="1.2" d="M353 403c5 4 8 8 9 14l6 15c-6-3-8-8-10-14-1-6-4-9-7-15zm92 0c-5 4-9 8-10 15l-7 14c6-3 8-8 11-14zm-6 0c-5 5-10 9-12 15-1 6-2 10-6 16 6-4 8-10 9-16l10-15zm-61 24c2 3 4 8 8 7 0-3-4-5-7-7zm6 1c8 2 14 2 15 7-6 0-10-3-14-7zm36-1c-1 3-4 8-7 7 0-3 5-4 8-7zm-5 1c-7 2-13 2-14 6 7 1 10-2 15-6z"/><path fill="#fff" fill-rule="evenodd" stroke="#000" stroke-width="1.2" d="m421 417-1-2-6-1c-1-2-2 0-2 1v3l1 3 5 1 2-1v-4zm-20 0 1-2 5-1 1 1v6l-4 1-3-1v-5zm-24 0 1-2 4-3c3 0 4 2 4 3v3l-1 3-5 1-3-1v-5zm19 0-1-2-4-1-3 2v5l1 2 5 1c1 0 2 1 2-1v-5zm-78-138c-2-4-6 6-15 13-5 2-9 10-9 16v11c0 2-2 7-1 8 5 2 11 10 13 13 1 1 4-11 5-15 1-6 1-13 6-18 3-3 11-7 11-9l-11-19z"/><path fill="#fff" fill-rule="evenodd" d="M318 280c-2-5-6 5-15 12-5 2-9 10-9 16v11c0 2-2 7-1 8 5 2 11 10 13 13 1 1 4-11 5-15 1-6 1-13 6-18 3-3 11-7 11-9l-11-19z"/><path fill="none" stroke="#000" stroke-width=".6" d="M303 291c-2 7 2 8 6 9 3 1 7 6 8 9m-23 3c2 6 5 6 9 7 3 1 7 6 9 9"/><path fill="#fff" fill-rule="evenodd" stroke="#000" stroke-width="1.2" d="m314 275 2-1 34 58-2 1z"/><path fill="#fff" fill-rule="evenodd" d="m314 275 2-1 34 58-2 1z"/><path fill="#fff" fill-rule="evenodd" stroke="#000" stroke-width="1.2" d="M318 273a4 4 0 1 1-8 0 4 4 0 0 1 8 0z"/><path fill="#fff" fill-rule="evenodd" d="M318 273a4 4 0 1 1-8 0 4 4 0 0 1 8 0z"/><path fill="#fff" fill-rule="evenodd" stroke="#000" stroke-width="1.2" d="M480 281c2-4 4 5 16 12 4 3 7 12 7 17v11l2 10-11 14c-3 2-3-9-5-14s0-12-5-19l-11-7 11-19z"/><path fill="#fff" fill-rule="evenodd" d="M481 281c2-4 5 5 15 12 5 3 7 12 7 18v11c0 3 3 8 1 10-4 3-9 11-11 14-3 2-5-11-6-16-3-5-1-12-6-18-4-4-13-7-12-8l12-20z"/><path fill="#fff" fill-rule="evenodd" stroke="#000" stroke-width="1.2" d="M484 277h-2l-34 59 34-59z"/><path fill="none" stroke="#000" stroke-width=".7" d="M496 293c0 7-5 7-7 10l-9 9m24 2c-2 7-7 5-9 7-5 0-9 5-9 10"/><path fill="#fff" fill-rule="evenodd" d="m484 277-2-2-34 60 2 1z"/><path fill="#fff" fill-rule="evenodd" stroke="#000" stroke-width="1.2" d="M480 274a5 5 0 1 0 7 0 5 5 0 0 0-7 0z"/><path fill="#fff" fill-rule="evenodd" d="M481 274c0 3 1 5 3 5 3 0 4-2 4-5 0-2-2-3-5-3-2 0-4 2-4 4z"/><g fill="#fff" fill-rule="evenodd"><path stroke="#000" d="M211 194h11v3h-12zm0 5h11v23h-12zm-1-8h13c0-4-4-9-7-9-2 0-6 5-6 9zm78 3h11v3h-12zm0 5h11v23h-12zm-1-8h13c0-4-4-9-7-9-2 0-6 5-6 9z" transform="matrix(1.17302 0 0 1.17188 100 0)"/><path d="M347 227h13v4h-14zm0 6h13v27h-14zm-1-9h15c0-5-4-11-8-11-2 0-7 6-7 11zm92 3h12v4h-14zm0 6h12v27h-14zm-2-9h16c0-5-5-11-9-11-2 0-7 6-7 11z"/></g><path fill="#fff" fill-rule="evenodd" d="M438 233h12v27h-14zm0-6h12v4h-14zm-2-3 16 1c0-5-5-11-9-11-3 0-7 6-7 11zm-89 10h13v26h-14zm0-5h13v3h-14zm-1-4h15c0-5-4-11-8-11-2 0-7 6-7 11z"/><g fill="#fff" fill-rule="evenodd"><path stroke="#000" d="m201 226 7 8h93l8-8-24-1-12-8h-38l-11 9h-24z" transform="matrix(1.17302 0 0 1.17188 100 0)"/><path d="m335 265 9 9h109l9-9-28-1-14-10h-45l-13 11h-28z"/></g><path fill="none" stroke="#000" stroke-width="1.2" d="M380 250h38c4-3 5-12 5-17 0-14-9-20-19-21l-4-2-1-11-3 11c0 2-1 3-3 3-12 1-20 11-20 21 0 9 1 13 7 17z"/><path fill="#fff" fill-rule="evenodd" d="M380 250h38c4-3 5-12 5-17 0-14-9-20-19-21l-4-2-1-11-3 11c0 2-1 3-3 3-12 1-20 11-20 21 0 9 1 13 7 17z"/><path fill="none" stroke="#000" stroke-width=".6" d="M378 237c0 4 2 4 2 2 0-8 0-15 7-20 1-1 0-2-2-2-5 2-8 13-7 20z"/><path fill="none" stroke="#000" stroke-width=".6" d="M384 240c1 5 4 4 4 1-2-5-1-15 4-18 2-2 0-4-3-3-4 3-7 12-5 19z"/><path fill="none" stroke="#000" stroke-width=".7" d="M418 236c0 4-2 4-2 2 0-7 0-14-7-18-2-2 0-2 2-2 7 2 10 11 7 18z"/><path fill="none" stroke="#000" stroke-width=".7" d="M414 239c-3 5-5 5-5 3 2-7 2-16-5-19-2-2 0-2 3-2 7 2 7 12 7 18z"/><g fill="#fff" fill-rule="evenodd"><path stroke="#000" d="M186 330h138l-13-10H198Z" transform="matrix(1.17302 0 0 1.17188 100 0)"/><path d="M318 387h162l-15-12H332Z"/></g><g fill="#fff" fill-rule="evenodd"><g stroke="#000" stroke-width=".5"><path stroke-width="1" d="M210 240h13v18h-13zm1 28h12v4h-12zm-1 7h13v15h-13zm-1 17h15v8h-15zm2-27h12l2-3h-16l2 4zm16-14v-9h8c-4 3-6 6-8 10zm72-11h-12v18h12zm0 29h-12v4h12zm1 7h-13v14h13zm0 17h-14v8h14z" transform="matrix(1.17302 0 0 1.17188 100 0)"/><path d="M288 158h6l1-2h-8zm8-7v-5h4c-1 1-3 2-4 5z" transform="matrix(-2.24446 0 0 2.28082 1097 -49)"/></g><path d="M346 281h15v21h-15zm1 33h14v5h-14zm-1 8h15v18h-15zm-1 20h17v10h-17zm2-31h14l3-4h-19l2 5zm19-17v-10h9c-4 3-7 7-9 11zm84-13h-14v21h14zm0 34h-14v5h14zm2 8h-16v17h16zm0 20h-17v10h17zm-3-31h-13l-2-5h18zm-17-18v-12h-10z"/></g><path fill="none" stroke="#000" stroke-width=".6" d="M348 299c0 2 3 1 3 0v-11c0-2 4-1 4 0v11h4v-13c0-5-11-5-11 0zm91 0c0 3 2 2 2 1v-11c0-2 5-2 5-1v12c0 2 3 2 3 0v-13c0-3-10-3-10 0v13zm-91 26h11v12h-11z"/><path fill-rule="evenodd" d="M355 330h4v3h-4zm-7 0h4v3h-4zm4-5h3v5h-3zm0 7h3v5h-3z"/><path fill="none" stroke="#000" stroke-width=".6" d="M439 325h10v12h-11z"/><path fill-rule="evenodd" d="M446 329h3v3h-3zm-7 0h3v3h-3zm3-4h4v4h-4zm0 7h4v5h-4z"/><path fill="#fff" fill-rule="evenodd" stroke="#000" stroke-width="1.2" d="M428 325h2v14h-2z"/><path fill="#fff" fill-rule="evenodd" stroke="#000" stroke-width="1.2" d="m392 343 3 9h6l-5-9zm-4 9 1 9h9l-3-8h-7zm13 1 6 9h11l-9-9-8 1zm-66 20c6-5 10-10 10-17h15c0 4 1 6 4 6h14v-9h-11v-47c0-17 20-26 28-26h-50v-2h107v2h-51c15 0 29 15 29 27v13h-2v-14c0-13-16-25-29-25-12 1-29 12-29 26v5h26v4l4 4 9 3v7l6 3v7l7 3v7l5 4v7l6 5h-15l9 10h-14l-7-10h-8l3 10h-9l-3-10h-11v11h-43zm43-28v9h10l-2-8h-8z"/><path fill="#fff" fill-rule="evenodd" d="m392 343 3 9h6l-5-9zm-4 9 1 9h9l-3-8h-7zm13 1 6 9h11l-9-9-8 1zm-66 20c6-5 10-10 10-17h15c0 4 1 6 4 6h14v-9h-11v-47c0-17 20-26 28-26h-50v-2h107v2h-51c15 0 29 15 29 27v13h-2v-14c0-13-16-25-29-25-12 1-29 12-29 26v5h26v4l4 4 9 3v7l6 3v7l7 3v7l5 4v7l6 5h-15l9 10h-14l-7-10h-8l3 10h-9l-3-10h-11v11h-43zm43-28v9h10l-2-8h-8z"/><path fill="none" stroke="#000" stroke-width=".6" d="M379 328h6v14h-6z"/><path fill="none" stroke="#000" stroke-width=".7" d="M369 344h7v-12l5-9c2 0 7 5 7 9v12h4v-28h-23z"/><path fill="none" stroke="#000" stroke-width=".6" d="M419 349h7v6h-7zm-5-10h7v6h-7zm-7-10h7v6h-7zm-7-9h8v6h-8z"/><path fill="none" stroke="#000" stroke-width=".6" d="M395 343h9l14 13v-8l-5-3v-5l-7-5v-6l-7-2v-8l-4-3z"/><path fill="#fff" fill-rule="evenodd" d="M428 325h2v14h-2z"/><g fill="#fff" fill-rule="evenodd" stroke="#000" stroke-linejoin="round" transform="matrix(1.17302 0 0 1.17188 100 0)"><use xlink:href="#a" width="100%" height="100%"/><use xlink:href="#b" width="100%" height="100%"/><use xlink:href="#c" width="100%" height="100%"/></g><g fill="#fff" fill-rule="evenodd" transform="matrix(1.17302 0 0 1.17188 100 0)"><use xlink:href="#a" width="100%" height="100%"/><use xlink:href="#b" width="100%" height="100%"/><use xlink:href="#c" width="100%" height="100%"/></g><g fill="#fff" fill-rule="evenodd" stroke="#000" stroke-linejoin="round" transform="matrix(1.17302 0 0 1.17188 100 0)"><use xlink:href="#d" width="100%" height="100%"/><use xlink:href="#e" width="100%" height="100%"/><use xlink:href="#f" width="100%" height="100%"/><use xlink:href="#g" width="100%" height="100%"/><use xlink:href="#h" width="100%" height="100%"/></g><g fill="#fff" fill-rule="evenodd" transform="matrix(1.17302 0 0 1.17188 100 0)"><use xlink:href="#d" width="100%" height="100%"/><use xlink:href="#e" width="100%" height="100%"/><use xlink:href="#f" width="100%" height="100%"/><use xlink:href="#g" width="100%" height="100%"/><use xlink:href="#h" width="100%" height="100%"/></g><g fill="#fff" fill-rule="evenodd" stroke="#000" stroke-linejoin="round" transform="matrix(1.17302 0 0 1.17188 100 0)"><use xlink:href="#i" width="100%" height="100%"/><use xlink:href="#j" width="100%" height="100%"/><use xlink:href="#k" width="100%" height="100%"/><use xlink:href="#l" width="100%" height="100%"/><use xlink:href="#m" width="100%" height="100%"/></g><g fill="#fff" fill-rule="evenodd" transform="matrix(1.17302 0 0 1.17188 100 0)"><use xlink:href="#i" width="100%" height="100%"/><use xlink:href="#j" width="100%" height="100%"/><use xlink:href="#k" width="100%" height="100%"/><use xlink:href="#l" width="100%" height="100%"/><use xlink:href="#m" width="100%" height="100%"/></g><g fill="#fff" fill-rule="evenodd" stroke="#000" stroke-linejoin="round" transform="matrix(1.17302 0 0 1.17188 100 0)"><use xlink:href="#n" width="100%" height="100%"/><use xlink:href="#o" width="100%" height="100%"/><use xlink:href="#p" width="100%" height="100%"/></g><g fill="#fff" fill-rule="evenodd"><path stroke="#000" d="M364 238c0-7-5-20-1-27 0-1-1-3-2-2-2 3-4 10-5 7 0-2-1-7-3-8-1 0-3-1-3 2l1 6c-1 1-3-3-5-4-1-1-4 1-1 3 8 7 16 10 21 25z" transform="matrix(1.17302 0 0 1.17188 100 0)"/><path d="M527 279c0-8-6-24-1-32 0-1-2-3-3-2-2 3-5 12-6 8 0-2-1-8-3-9-1 0-4-1-4 2l1 7c-1 1-3-3-5-5-2-1-5 2-2 4 10 8 19 12 25 29z"/></g><g fill="#fff" fill-rule="evenodd" transform="matrix(1.17302 0 0 1.17188 100 0)"><use xlink:href="#n" width="100%" height="100%"/><use xlink:href="#o" width="100%" height="100%"/><use xlink:href="#p" width="100%" height="100%"/></g><g fill="#fff" fill-rule="evenodd"><path stroke="#000" stroke-width=".5" d="M244 141c-1-1 0-1 1-1h5l1-5h1c3 5 7 11 9 17 1 3 1 8-3 11l-2-7c-1-4-7-12-11-15z" transform="matrix(-2.27214 0 0 2.28082 1105 -49)"/><path d="M550 273c2-2 1-3-2-3s-8 2-10 0-1-7-2-10c0-1-1-3-3 0-7 11-16 25-19 38-3 7-1 18 6 24l6-15c2-8 16-27 23-34z"/></g><g fill="#fff" fill-rule="evenodd" stroke="#000" stroke-linejoin="round" transform="matrix(1.17302 0 0 1.17188 100 0)"><use xlink:href="#q" width="100%" height="100%"/><use xlink:href="#r" width="100%" height="100%"/><use xlink:href="#s" width="100%" height="100%"/><use xlink:href="#t" width="100%" height="100%"/><use xlink:href="#u" width="100%" height="100%"/><use xlink:href="#v" width="100%" height="100%"/></g><g fill="#fff" fill-rule="evenodd" transform="matrix(1.17302 0 0 1.17188 100 0)"><use xlink:href="#q" width="100%" height="100%"/><use xlink:href="#r" width="100%" height="100%"/><use xlink:href="#s" width="100%" height="100%"/><use xlink:href="#t" width="100%" height="100%"/><use xlink:href="#u" width="100%" height="100%"/><use xlink:href="#v" width="100%" height="100%"/></g><g fill="#fff" fill-rule="evenodd"><path stroke="#000" stroke-width=".5" d="M257 167c3 0 4-5 4-6-2 0-5 3-4 6z" transform="matrix(-2.27214 0 0 2.28082 1105 -49)"/><path d="M522 332c-7 0-9-11-9-14 3 1 10 8 9 14z"/></g><g fill="#fff" fill-rule="evenodd" stroke="#000" stroke-linejoin="round" transform="matrix(1.17302 0 0 1.17188 100 0)"><use xlink:href="#w" width="100%" height="100%"/><use xlink:href="#x" width="100%" height="100%"/><use xlink:href="#y" width="100%" height="100%"/></g><g fill="#fff" fill-rule="evenodd" transform="matrix(1.17302 0 0 1.17188 100 0)"><use xlink:href="#w" width="100%" height="100%"/><use xlink:href="#x" width="100%" height="100%"/><use xlink:href="#y" width="100%" height="100%"/></g><g fill="#fff" fill-rule="evenodd"><path stroke="#000" stroke-width=".5" d="m236 159-1 1c0 1 2 8 5 10 2 2 14 4 19 5 3 1 5 2 7 5l-3-8c-1-3-4-6-7-6-6 0-12 0-17-2-3-1-4-3-6-5z" transform="matrix(-2.27214 0 0 2.28082 1105 -49)"/><path d="M570 314c0-1 2 0 2 2-1 3-4 18-12 23-5 3-32 9-45 13-6 1-12 4-16 9l5-19c3-4 9-12 16-12 11 0 27-1 38-5 6-3 10-6 13-11z"/></g><g fill="#fff" fill-rule="evenodd" stroke="#000" stroke-linejoin="round" transform="matrix(1.17302 0 0 1.17188 100 0)"><use xlink:href="#z" width="100%" height="100%"/><use xlink:href="#A" width="100%" height="100%"/><use xlink:href="#B" width="100%" height="100%"/><use xlink:href="#C" width="100%" height="100%"/><use xlink:href="#D" width="100%" height="100%"/><use xlink:href="#E" width="100%" height="100%"/><use xlink:href="#F" width="100%" height="100%"/><use xlink:href="#G" width="100%" height="100%"/><use xlink:href="#H" width="100%" height="100%"/></g><g fill="#fff" fill-rule="evenodd" stroke="#000" stroke-linejoin="round" transform="matrix(1.17302 0 0 1.17188 100 0)"><use xlink:href="#I" width="100%" height="100%"/><use xlink:href="#J" width="100%" height="100%"/><use xlink:href="#K" width="100%" height="100%"/><use xlink:href="#L" width="100%" height="100%"/></g><g fill="#fff" fill-rule="evenodd" transform="matrix(1.17302 0 0 1.17188 100 0)"><use xlink:href="#I" width="100%" height="100%"/><use xlink:href="#J" width="100%" height="100%"/><use xlink:href="#K" width="100%" height="100%"/><use xlink:href="#L" width="100%" height="100%"/></g><g fill="#fff" fill-rule="evenodd" transform="matrix(1.17302 0 0 1.17188 100 0)"><use xlink:href="#z" width="100%" height="100%"/><use xlink:href="#A" width="100%" height="100%"/><use xlink:href="#B" width="100%" height="100%"/><use xlink:href="#C" width="100%" height="100%"/><use xlink:href="#D" width="100%" height="100%"/><use xlink:href="#E" width="100%" height="100%"/><use xlink:href="#F" width="100%" height="100%"/><use xlink:href="#G" width="100%" height="100%"/><use xlink:href="#H" width="100%" height="100%"/></g><g fill="#fff" fill-rule="evenodd"><path stroke="#000" stroke-width=".5" d="M236 160h-1c2 7 2 9 9 12s9 1 15 1c3 0 7 2 9 4h2l-1-5c-1-3-5-6-8-7-5-2-10-1-15-2l-7-4z" transform="matrix(-2.00059 -1.08129 -1.07718 2.00824 1186 338)"/><path d="M543 403c1 0 2-1 1 1-11 13-14 17-30 16-15-3-20-7-31-13-6-4-15-5-22-3-4 1-5 1-4-1l8-7c5-5 15-7 23-5 12 2 21 10 33 12h19z"/></g><g fill="#fff" fill-rule="evenodd"><path stroke="#000" stroke-width=".5" d="m288 208 1 1v-3l-2 3z" transform="matrix(-2.2563 0 0 2.28082 1100 -49)"/><path d="M452 427c-3 0-4 3-5 1-1-4 0-7 2-7 3 1 6 6 3 6z"/></g><g fill="#fff" fill-rule="evenodd" stroke="#000" stroke-linejoin="round" transform="matrix(1.17302 0 0 1.17188 100 0)"><use xlink:href="#M" width="100%" height="100%"/><use xlink:href="#N" width="100%" height="100%"/></g><g fill="#fff" fill-rule="evenodd" transform="matrix(1.17302 0 0 1.17188 100 0)"><use xlink:href="#M" width="100%" height="100%"/><use xlink:href="#N" width="100%" height="100%"/></g><g fill="#fff" fill-rule="evenodd" stroke="#000" stroke-linejoin="round" transform="matrix(1.17302 0 0 1.17188 100 0)"><use xlink:href="#O" width="100%" height="100%"/><use xlink:href="#P" width="100%" height="100%"/><use xlink:href="#Q" width="100%" height="100%"/><use xlink:href="#R" width="100%" height="100%"/><use xlink:href="#S" width="100%" height="100%"/><use xlink:href="#T" width="100%" height="100%"/><use xlink:href="#U" width="100%" height="100%"/></g><g fill="#fff" fill-rule="evenodd" transform="matrix(1.17302 0 0 1.17188 100 0)"><use xlink:href="#O" width="100%" height="100%"/><use xlink:href="#P" width="100%" height="100%"/><use xlink:href="#Q" width="100%" height="100%"/><use xlink:href="#R" width="100%" height="100%"/><use xlink:href="#S" width="100%" height="100%"/><use xlink:href="#T" width="100%" height="100%"/><use xlink:href="#U" width="100%" height="100%"/></g><g fill="#fff" fill-rule="evenodd"><path stroke="#000" stroke-width=".5" d="M367 144c0-4-3-10-1-14l-1-1-2 4-2-4-2 1v3l-3-2c-1 0-3 1-1 2 4 4 8 5 10 13z" transform="matrix(-2.24164 0 0 2.28082 1093 -49)"/><path d="M271 279c-1-8 6-24 1-31-1-1 1-4 2-2 3 2 4 11 5 7 1-2 1-8 4-9 2-1 4-1 4 2l-1 6 7-5c1-2 5 0 1 3-9 8-17 11-23 29z"/></g><g fill="#fff" fill-rule="evenodd"><path stroke="#000" d="M132 343c-1 0-2 0-1 1 9 12 12 15 25 13 14-2 17-5 27-11 5-3 12-3 18-1 3 0 4 1 2-1l-6-7c-6-4-14-5-21-4-10 2-18 8-28 10-5 2-11 1-16 0z" transform="matrix(1.17302 0 0 1.17188 100 0)"/><path d="M255 402c-2 0-3 0-2 1 11 14 14 18 30 15 16-2 20-5 31-13 6-3 14-3 21-1 4 0 5 1 3-1l-7-8c-7-5-17-6-25-5-12 3-21 10-33 12-6 2-13 1-18 0z"/></g><g fill="#fff" fill-rule="evenodd"><path stroke="#000" d="M210 364c2 0 3 3 4 1 1-4 0-7-2-6-2 0-5 4-2 5z" transform="matrix(1.17302 0 0 1.17188 100 0)"/><path d="M346 427c2 0 4 3 5 1 1-5 0-8-3-7-2 0-5 4-2 6z"/></g><path fill="#fff" fill-rule="evenodd" stroke="#000" stroke-width="1.2" d="M341 430c6 1 6-12 0-18 3 9-4 17 0 18zm-2 0c1 6-15-1-19-6 8 4 19 1 19 6zm-7-9c1 7-13 1-18-4 10 4 18-1 18 5zm3 1c5 1 5-12-1-17 3 10-3 17 1 18zm-5-8c4 1 2-11-3-16 1 10-1 16 3 16zm-4 0c1 7-10 2-14-4 8 4 13 0 14 5zm-2-5c3-2 0-9-7-8 0 4 2 11 7 9zm26 28c1 6-16 4-20-3 10 2 20-2 20 3z"/><g fill="#fff" fill-rule="evenodd" transform="matrix(1.17302 0 0 1.17188 100 0)"><g stroke="#000"><use xlink:href="#V" width="100%" height="100%"/><use xlink:href="#W" width="100%" height="100%"/></g><use xlink:href="#V" width="100%" height="100%"/><use xlink:href="#W" width="100%" height="100%"/></g><path fill="#fff" fill-rule="evenodd" d="M341 430c6 1 6-12 0-18 3 9-4 17 0 18zm-2 0c1 6-15-1-19-6 8 4 19 1 19 6zm-7-9c1 7-13 1-18-4 10 4 18-1 18 5zm3 1c5 1 5-12-1-17 3 10-3 17 1 18zm-5-8c4 1 2-11-3-16 1 10-1 16 3 16zm-4 0c1 7-10 2-14-4 8 4 13 0 14 5zm-2-5c3-2 0-9-7-8 0 4 2 11 7 9zm26 28c1 6-16 4-20-3 10 2 20-2 20 3z"/><g fill="#fff" fill-rule="evenodd" stroke="#000" stroke-linejoin="round" transform="matrix(1.17302 0 0 1.17188 100 0)"><use xlink:href="#X" width="100%" height="100%"/><use xlink:href="#Y" width="100%" height="100%"/><path d="M185 376c2 4-12 4-19 1 9 0 17-5 19-2zm10 2c3 4-12 5-17 3 9-2 15-7 17-3z"/><path d="M178 370c-5 3-4-6-8-12 6 5 11 9 8 12zm8 3c-4 3-7-9-10-15 6 6 14 12 10 15zm11 3c-3 4-13-11-16-19 5 6 19 16 16 19z"/></g><g fill="#fff" fill-rule="evenodd" transform="matrix(1.17302 0 0 1.17188 100 0)"><use xlink:href="#X" width="100%" height="100%"/><use xlink:href="#Y" width="100%" height="100%"/><path d="M185 376c2 4-12 4-19 1 9 0 17-5 19-2zm10 2c3 4-12 5-17 3 9-2 15-7 17-3zm-17-8c-5 3-5-6-8-12 6 5 11 9 8 12z"/><path d="M186 373c-4 3-7-9-10-15 6 6 14 12 10 15zm11 3c-3 4-13-11-16-19 5 6 19 16 16 20z"/></g><path fill="#fff" fill-rule="evenodd" d="M320 455c-2 7-30-7-34-14 17 9 34 7 34 14z"/><g fill="#fff" fill-rule="evenodd"><path stroke="#000" d="M109 268c-1-1-3 0-2 1 0 3 4 15 10 20 4 3 28 8 38 10 6 1 11 4 15 9l-5-16c-2-5-7-10-13-11-10-1-23-1-32-6-5-2-8-5-11-9z" transform="matrix(1.17302 0 0 1.17188 100 0)"/><path d="M228 314c-2-1-4 0-3 1 0 4 5 18 12 24 5 3 33 9 45 11 7 2 12 5 17 11l-6-19c-2-6-8-12-15-13-12-1-27-1-38-7-5-2-9-6-12-10z"/></g><g fill="#fff" fill-rule="evenodd" stroke="#000" stroke-linejoin="round" transform="matrix(1.17302 0 0 1.17188 100 0)"><use xlink:href="#Z" width="100%" height="100%"/><use xlink:href="#aa" width="100%" height="100%"/><use xlink:href="#ab" width="100%" height="100%"/><path d="M164 316c-2 6-15-9-19-15 6 6 21 11 19 15z"/><path d="M164 311c4-1-1-5-6-11-1 6 0 11 6 11zm-8-4c2-2-2-3-7-9-1 4 4 11 6 9zm22 25c3 1 5-4 2-9-1 5-4 7-2 9z"/></g><g fill="#fff" fill-rule="evenodd" transform="matrix(1.17302 0 0 1.17188 100 0)"><use xlink:href="#Z" width="100%" height="100%"/><use xlink:href="#aa" width="100%" height="100%"/><use xlink:href="#ab" width="100%" height="100%"/><path d="M164 316c-2 6-15-9-19-15 6 6 21 11 19 15zm0-5c4-1-1-5-6-11-1 6 0 11 6 11z"/><path d="M156 307c2-2-2-3-7-9-1 4 4 11 6 9zm22 25c3 1 5-4 2-9-1 5-4 7-2 9z"/></g><g fill="#fff" fill-rule="evenodd" stroke="#000" stroke-linejoin="round" transform="matrix(1.17302 0 0 1.17188 100 0)"><use xlink:href="#ac" width="100%" height="100%"/><use xlink:href="#ad" width="100%" height="100%"/><use xlink:href="#ae" width="100%" height="100%"/><use xlink:href="#af" width="100%" height="100%"/><use xlink:href="#ag" width="100%" height="100%"/><use xlink:href="#ah" width="100%" height="100%"/><use xlink:href="#ai" width="100%" height="100%"/></g><g fill="#fff" fill-rule="evenodd" transform="matrix(1.17302 0 0 1.17188 100 0)"><use xlink:href="#ac" width="100%" height="100%"/><use xlink:href="#ad" width="100%" height="100%"/><use xlink:href="#ae" width="100%" height="100%"/><use xlink:href="#af" width="100%" height="100%"/><use xlink:href="#ag" width="100%" height="100%"/><use xlink:href="#ah" width="100%" height="100%"/><use xlink:href="#ai" width="100%" height="100%"/></g><g fill="#fff" fill-rule="evenodd" stroke="#000" stroke-linejoin="round" transform="matrix(1.17302 0 0 1.17188 100 0)"><use xlink:href="#aj" width="100%" height="100%"/><use xlink:href="#ak" width="100%" height="100%"/><use xlink:href="#al" width="100%" height="100%"/><use xlink:href="#am" width="100%" height="100%"/></g><g fill="#fff" fill-rule="evenodd" transform="matrix(1.17302 0 0 1.17188 100 0)"><use xlink:href="#aj" width="100%" height="100%"/><use xlink:href="#ak" width="100%" height="100%"/><use xlink:href="#al" width="100%" height="100%"/><use xlink:href="#am" width="100%" height="100%"/></g><g fill="#fff" fill-rule="evenodd" stroke="#000" stroke-linejoin="round" transform="matrix(1.17302 0 0 1.17188 100 0)"><use xlink:href="#an" width="100%" height="100%"/><use xlink:href="#ao" width="100%" height="100%"/><use xlink:href="#ap" width="100%" height="100%"/><use xlink:href="#aq" width="100%" height="100%"/><use xlink:href="#ar" width="100%" height="100%"/><use xlink:href="#as" width="100%" height="100%"/></g><g fill="#fff" fill-rule="evenodd" transform="matrix(1.17302 0 0 1.17188 100 0)"><use xlink:href="#an" width="100%" height="100%"/><use xlink:href="#ao" width="100%" height="100%"/><use xlink:href="#ap" width="100%" height="100%"/><use xlink:href="#aq" width="100%" height="100%"/><use xlink:href="#ar" width="100%" height="100%"/><use xlink:href="#as" width="100%" height="100%"/></g><path fill="#fff" fill-rule="evenodd" stroke="#000" stroke-width="1.2" d="M257 254c5 1 9-3 8-11-6 1-8 5-8 11zm-15-3c1 1 3 2 2-1v-17c0-2-4-1-2 0l1 7-1 8z"/><path fill="#fff" fill-rule="evenodd" d="M257 254c5 1 9-3 8-11-6 1-8 5-8 11zm-15-3c1 1 3 2 2-1v-17c0-2-4-1-2 0l1 7-1 8z"/><path fill="#fff" fill-rule="evenodd" stroke="#000" stroke-width="1.2" d="M258 243c0 3-3 3-2-2v-10l1-13c1-2 3-1 2 1v12l1 13zm22 34c-2 2-4 1-3-3l3-9c2-4 5-6 7-8 3-3 4 0 2 2l-7 7c-4 5-3 8-4 11z"/><g fill="#fff" fill-rule="evenodd" transform="matrix(1.17302 0 0 1.17188 100 0)"><use xlink:href="#at" width="100%" height="100%" stroke-width=".4" transform="matrix(-2.453 -.9787 -1.138 2.5207 903 145)"/><path d="M159 240c-2 2-5 1-3-2s5-5 5-8 2-8 4-10c2-1 4 1 2 2-2 2-3 8-3 10 0 3-4 5-5 8z"/></g><path fill="#fff" fill-rule="evenodd" d="M280 277c-2 2-4 1-3-3l3-9c2-4 5-6 7-8 3-3 4 0 2 2l-7 7c-4 5-3 8-4 11z"/><g fill="#fff" fill-rule="evenodd" transform="matrix(1.17302 0 0 1.17188 100 0)"><use xlink:href="#au" width="100%" height="100%" stroke-width=".3" transform="matrix(1.9463 0 0 4.087 -343 -314)"/><path d="M128 224c0 4 3 4 2 0 1-5-3-9-1-17 2-3 2-10 1-13 0-3-3-1-2 2s0 9-1 13c-2 9 2 14 2 18z"/></g><path fill="#fff" fill-rule="evenodd" d="M258 243c0 3-3 3-2-2v-10l1-13c1-2 3-1 2 1v12l1 13zm-29 70c1 1 3 1 1-1l-2-5-3-6c-1-2-2 0-1 1l1 5zm38 47c5 2 9 8 9 13l3 14c-3-1-5-7-6-13 0-7-3-10-6-14zm10 11c3 6 8 9 8 12l2 11c-3-1-4-1-5-8 0-6-5-10-5-15z"/><path fill-opacity=".2" fill-rule="evenodd" stroke="#000" stroke-width="1.2" d="m454 471 1 6c-8-4-19-2-26 1-3 2-8-1-3-5 4-3 19-1 28-2zm-110 0-1 6c8-4 17-1 25 2 6 3 7-1 6-2-2-2-6-5-9-5h-21Zm7-42c-3-1-5 0-7 3l-26 22c-4 3-6 7 6 11l15 5c2 0 2 3 2 3l-2 5c-1 1 1 4 2 2 7-5 19-2 30 2 2 0 8 0 7-4 0-5 3-7 4-7h34c5-1 5 5 7 7h12c8-3 20-3 25-1 2 1 3 0 2-1l-2-5c-1-3 0-5 1-5 21-2 28-10 21-16l-25-23c-2-3-3-4-8-2-13 6-30 11-48 11-15 0-37-7-47-12z"/><path fill="#fff" fill-rule="evenodd" d="m454 471 1 6c-8-4-19-2-26 1-3 2-8-1-3-5 4-3 19-1 28-2zm-110 0-1 6c8-4 17-1 25 2 6 3 7-1 6-2-2-2-6-5-9-5h-21Zm7-42c-3-1-5 0-7 3l-26 22c-4 3-6 7 6 11l15 5c2 0 2 3 2 3l-2 5c-1 1 1 4 2 2 7-5 19-2 30 2 2 0 8 0 7-4 0-5 3-7 4-7h34c5-1 5 5 7 7h12c8-3 20-3 25-1 2 1 3 0 2-1l-2-5c-1-3 0-5 1-5 21-2 28-10 21-16l-25-23c-2-3-3-4-8-2-13 6-30 11-48 11-15 0-37-7-47-12z"/><g fill="#fff" fill-rule="evenodd"><path stroke="#000" d="M339 332c0 3 12-2 17-13-7 8-19 8-17 13z" transform="matrix(1.17302 0 0 1.17188 100 0)"/><path d="M497 389c0 4 14-2 20-15-8 9-22 9-20 15z"/></g><g fill="#fff" fill-rule="evenodd"><path stroke="#000" stroke-width=".5" d="M253 179c2 2 4 4 4 6l1 5c-1 0-2 0-2-4z" transform="matrix(-2.36657 0 0 2.16094 1119 -18)"/><path d="M518 369c-3 6-9 10-9 14l-1 11c5-1 5-1 6-10 1-4 7-10 6-15z"/></g><g fill="#fff" fill-rule="evenodd"><path stroke="#000" stroke-width=".5" d="M254 180c2 1 3 3 3 5l2 6c-2 0-3-3-3-6z" transform="matrix(-2.39179 0 0 2.28082 1134 -49)"/><path d="M526 361c-5 2-6 7-6 12 0 4-3 9-5 13 5 1 6-7 7-13l4-11z"/></g><g fill="#fff" fill-rule="evenodd" transform="matrix(1.17302 0 0 1.17188 100 0)"><use xlink:href="#av" width="100%" height="100%" stroke-width=".4" transform="matrix(2.0818 0 0 3.0397 -130 -193)"/><path d="M375 207c0 3 2 3 2-1v-21c-1-2-3-1-2 1z"/></g><g fill="#fff" fill-rule="evenodd" transform="matrix(1.17302 0 0 1.17188 100 0)"><use xlink:href="#au" width="100%" height="100%" stroke-width=".3" transform="matrix(-1.9157 0 0 4.087 845 -314)"/><path d="M381 224c1 3-2 4-2 0 0-5 4-10 2-17l-1-14c1-4 3-1 2 1-1 3 0 9 1 12 3 8-2 13-2 17z"/></g><g fill="#fff" fill-rule="evenodd" transform="matrix(1.17302 0 0 1.17188 100 0)"><use xlink:href="#av" width="100%" height="100%" stroke-width=".5" transform="matrix(-1.9157 0 0 1.9463 852 -42)"/><path d="M388 214c0 2-2 2-2-1v-13c1-2 3-1 2 1z"/></g><g fill="#fff" fill-rule="evenodd"><path stroke="#000" d="M374 217c-3 2-7-8-4-9 2-1 8 8 4 9z" transform="matrix(1.17302 0 0 1.17188 100 0)"/><path d="M538 254c-3 3-8-9-4-10 2-1 9 9 4 10z"/></g><g fill="#fff" fill-rule="evenodd"><path stroke="#000" stroke-width=".4" d="M242 132c0 1 1 1 1-1l1-3-1-3h-1l1 3z" transform="matrix(2.77654 -1.14691 1.28798 2.95395 -325 165)"/><path d="M517 277c1 2 4 1 3-4l-3-8-7-8c-1-3-3 0-1 1l7 7c4 3 2 7 4 10z"/></g><g fill="#fff" fill-rule="evenodd" transform="matrix(1.17302 0 0 1.17188 100 0)"><use xlink:href="#at" width="100%" height="100%" stroke-width=".4" transform="matrix(2.367 -.9787 1.098 2.5207 -367 144)"/><path d="M352 239c1 2 4 1 2-3-2-2-5-4-5-7-1-3-2-8-4-10s-4 1-2 2 3 7 3 10 3 5 5 8z"/></g><path fill="#fff" fill-rule="evenodd" stroke="#000" stroke-linejoin="round" stroke-width="1.2" d="M359 403c5 5 11 9 12 15 1 5 2 10 6 16-6-4-9-10-10-16s-5-9-8-15z"/><path fill="#fff" fill-rule="evenodd" d="M359 403c5 5 11 9 12 15 1 5 2 10 6 16-6-4-9-10-10-16s-5-9-8-15zm-6 0c5 4 8 8 9 14 2 6 4 11 8 15-6-3-9-8-11-14-1-6-2-9-6-15zm92 0c-5 4-9 8-10 15l-7 14c6-3 8-8 11-14zm-6 0c-5 5-10 9-12 15-1 6-2 10-6 16 6-4 8-10 9-16l10-15zm-18 14-1-2-5-1c-1-2-2 0-2 1v3l1 3 5 1 3-1 1-4zm-20 0 1-2 5-1 2 1v5l-1 1-4 1c-2 1-2 0-3-1v-5zm-24 0 2-2 6-3c2 0 3 2 3 3v3l-1 3-5 1-2-1v-5zm21 0c1-1 0-2-2-2l-3-1-2 2v5l1 2 4 1c2 0 3 1 3-1v-5zm-19 10c2 2 5 8 8 7 0-3-3-5-7-7zm6 1c7 2 14 1 14 6-6 1-10-2-14-6zm36-1c-1 3-3 8-7 7 0-3 5-4 8-7zm-5 1c-7 2-12 2-14 6 7 1 10-2 16-6z"/><path fill="#fff" fill-opacity=".5" fill-rule="evenodd" stroke="#000" stroke-width="1.2" d="M436 355h16c0 6 3 12 9 15h-31c5-3 6-9 6-15z"/><path fill="#fff" fill-rule="evenodd" d="M436 355h16c0 6 3 12 9 15h-31c5-3 6-9 6-15z"/><path fill="none" stroke="#000" stroke-width=".6" d="M323 452v4c16 6 31 16 76 15 44 0 60-10 74-15 1-1 3-2 1-5-8-7-17-12-22-20-2-2-5-1-6 0-18 6-33 10-50 10-16 0-32-5-48-11-1-1-3 0-4 1l-24 20z"/><path fill-rule="evenodd" d="M344 441c-3-2-3 1-1 2 1 2 4 3 7 5h7c2 0 2 3 4 3 4 0 5-7 5-10s-2 0-2 0c1 2-2 8-3 8l-4-3h-5c-5 0-7-1-8-2z"/><path fill-rule="evenodd" d="M347 439h6c4 4 7-1 2-1-2 0-2-2-5-1l-3 1zm1 17c-2-1-2 1-1 2h8c4-1 2-7 0-8 0-1-2-1-1 1 1 1 3 4 1 5h-5zm13 1c1 0 0-2-2 0-1 2 0 8 5 9 4 2 8 0 9-2 0-1-2-2-1-5l3-1-2-4-3 2c0 2 2 1 1 2l-5 4c-1 1 2 3 1 4h-6c-2 0-2-3-1-4zm-16-8-4 2c0 1 2 4 3 3l1-2-2 3-5 1-4-2c-2-2-3 1-1 2 1 1 5 3 8 2s5-2 4-4c0-2-1-4-4-3zm110-1c-1-2 0-3 2-3 2 1 5 4 5 6 1 4-5 6-7 6-3 0-2-2 0-2s5 0 5-3l-5-3zm-12-9c-1-1 3-3 4-1l6 11c1 3-1 3-1 2l-7-9zm-9 6c2-1 2 3 1 3-1 1-3-2-1-3zm6-2c2-1 2 2 1 2-1 1-2-1-1-2z"/><path fill-rule="evenodd" d="M373 446c-3-2 0-4 2-2 4 4 6 11 10 13 2 2 0-8 1-11 0-2 1-1 1 0v13l4 3 3-1 4 1 2-3v4l-7-1h-6l-3-4c-3 0-2 4-6 4-3 0-3-1-1-3 1-2 4-3 3-4-2-5-7-11-10-13zm28 2 3 16 1-2-3-17c-1-2-3-1-2 0zm4 1c-1-3 1-3 1-1l2 14 13-1 2-4c0-2 3-2 3 1l-4 5c-6 0-13 2-17 1s-3-10-4-15z"/><path fill-rule="evenodd" d="M412 452c0-2 1-3 1-1 1 6 7 5 8 3v-4c-1-2 1-2 2-1v8c-2 2-8 2-10 1l-1-3zm-4-7c0 1 6 1 5-1zm6 1h4c0-1-4-2-4 0zm11-2c-3-2 1-2 2-1 2 5 3 11 7 15 1 1 2 0 2-1l-1-2c-1-3 3-4 5-3l1 3h4c0-3-2-1-3-3-2-1-1-6 3-4 1 1 2 4 1 6-1 1-4 2-6 1l-4-3c2 2 0 3-1 4-2 1-5 2-6 0l-8-17z"/><path fill="#fff" fill-rule="evenodd" stroke="#000" stroke-width="1.2" d="M341 142c-1-3 4-3 4 1-1 3 8 15 8 22 1 5-2 8-5 12-4 2-10 2-14 1-1-1-2-7-1-8 0-1 2 7 7 7 6 0 11-5 11-9 1-7-10-19-10-27zm18 19c1-2 2 2 1 2zm2-7s-1 0 0 0l6-8 3 2-8 6zm25-19 6-4c1-1 1 0 1 1l-5 4-1-1zm8 0 6-6 2 1-4 7h-2zm-7 6 1 1h4c1 0 1-5-1-3l-3 3zm-13 10c-2-1 1-5 4-2 6 5-7 19-14 26-2 1-3-3 0-4l13-14c1-1 1-2-2-5zm30-12c0-1-3 0-4-2 0-1 4-2 6 0s1 7-4 8c-3 0-9 6-8 6 1 1 11 3 17 1 3 0 3 4 0 4l-9 1c-3 1-4 6-7 8l-1-2c1-2 4-6 7-7l-6-1v-4c1-1 7-7 10-7l4-1zm9 2 3-4c2 0 3 0 3 2l-3 4c-1 1-2 0-1-1zm13-5c2 0 2 3 0 3zm-4 10c0 3 1 3 4 3 2 0 4 0 4-3l-1-2c0 2 0 5-1 4-1-2 0-2-1 1l-1-1h-1zm-18 12c0 4 0 10 2 10s7-7 9-12c1-2 4-2 3 0-3 3-2 12 0 14 0 2 4 0 5-2v-13c0-3 3-3 3 0l-1 14c1 2 5 4 7-1 1-4 2-7 0-11-2-2 2-2 4 1s-1 6-1 8c0 5-3 7-6 7l-6-2c-2 0-4 4-5 2-7 0-4-10-5-10-2 0-5 9-7 9s-6-7-5-10c1-4 4-4 3-3zm32-15c-3-2 0-7 3-5 2 4 6 13 8 13 1 1 1-6 2-9 0-3 4-1 3 1l-4 13 6 15c0 2-2 0-2 0-3-2-5-13-5-12l-4 14c-1 2-3 2-3-2l5-16c-3-6-6-11-10-13z"/><path fill="#fff" fill-rule="evenodd" stroke="#000" stroke-width="1.2" d="M441 173c-1 0-2 3 2 4 6 1 13-1 14-7l6-16c2-3 4-3 2-8-2-2-3-2-3 0l-7 22c-2 4-7 7-14 5z"/><path fill="#fff" fill-rule="evenodd" stroke="#000" stroke-width="1.2" d="M453 151c0-2-3-1-1 1l2 2 3-2c0-2-1-3-1-1h-2zm1-6 1 1 6-1-1-2-7 1zm18 4c1-3 4-3 3 1l-12 23c-1 3-2 2-1-1l11-23z"/><path fill="#fff" fill-rule="evenodd" stroke="#000" stroke-width="1.2" d="M456 177c0-1-2-4-2 1 0 7 11 5 14 2 2-2 0 9 4 10l8-5 13-23c2-3 0-5-2-3-3 7-9 23-15 26-4 4-3-3-3-6 0-1-3-3-5-1l-7 2c-1-1-2 0-2-3z"/><path fill="#fff" fill-rule="evenodd" stroke="#000" stroke-width="1.2" d="M475 164c0-1-2-1-2 1 0 3 1 3 2 3 2-3-1-2-1-4zm-5 8v3h7v-2h-7zm32-1c2-7 7 1 4 6-7 7-10 19-20 21-3 1-7-1-10-2 0 0 1-3 3-1s8 2 10 1c6-6 11-13 13-23zm-108 16-2 2-1 7c-2 2-3 3-3 1 1-2 3-6 1-7-1 0-2-1-1-3h5l1 2zm-2-3-7 7-3 4c0 1-2 2-3 1-1 0 0-4-1-1l-4 3-2-2c5 0 5-4 6-4 2 0 2 3 3 3l3-5 8-6c1-1 2 1 1 2zm10 9c-2 2-2 4-1 4 0 1 3 1 3-2 0-2 0 7 3 3 1-1 6 0 7-2v-5l-2 1c0 3-1 4-3 4l-1-5h-1l-1 4c-2 1-1-3-2-3-4-1-4 0-5 1zm17-4 3-3 1 3-2 2-1 7h-1zm-7-9-1 5h1v-5h-3z"/><path fill="#fff" fill-rule="evenodd" d="M341 142c-1-3 4-3 4 1-1 3 8 15 8 22 1 5-2 8-5 12-4 2-10 2-14 1-1-1-2-7-1-8 0-1 2 7 7 7 6 0 11-5 11-9 1-7-10-19-10-27z"/><path fill="#fff" fill-rule="evenodd" stroke="#000" stroke-width="1.2" d="m352 141 2 3h-2zm-11 20c-1 1 0 3 3 2 4-4 13-7 15-14 0-3 2-6 5-7 1-1 4 3 6 0 1-1 4 2 5 0v-6c0-1-1-1-2 1v4l-2 1-3-1h-2c-1 2-2 4-5 2-2-2-2-6-4-1l-5 4c-2 0-2-4-7-4-2 1-2 6-2 7 0 2 7 1 7 2-2 6-9 11-16 14z"/><path fill="#fff" fill-rule="evenodd" stroke="#000" stroke-linejoin="round" stroke-width="1.2" d="m298 186 2 4 1-4zm7 10c-1-1-4 1-1 2 0 1 5 2 6 0s-3-11-1-12c1 0 5 6 8 6 4 1 3-8 9-8 4 1 4-4 4-7l-7-8c-4-3-5 1-3 2l7 7c0 1-3 4-4 2l-7-9c-2-1-4 0-3 2l6 7-3 6c-3 0-6-6-7-8h-4v11c0 3-2 3-4 2zm-8-17 1 1 3-5-5-3c-2 3 3 4 3 4l-3 2zm7-16s1 5 2 2l-3-2zm2 7c-1 0-2 1-1 2 1 0 6 1 5-2-1-2 6 0 4-5l-3-3c-1 0-4 1-1 1 1 0 3 2 2 3-1 2-2-1-3-1l-2 3-2-2zm11-18-3 4 2 1 2-3zm4-1c-2-1 2-5 3-1 0 2 10 15 11 20 2 2 0 3-2 2l-14-21zm10 0c1-1 4-5 3-7s-2-2-3-2c-3 2 1 1 1 2l-2 5v1z"/><path fill="#fff" fill-rule="evenodd" d="m298 186 2 4 1-4zm7 10c-1-1-4 1-1 2 0 1 5 2 6 0s-3-11-1-12c1 0 5 6 8 6 4 1 3-8 9-8 4 1 4-4 4-7l-7-8c-4-3-5 1-3 2l7 7c0 1-3 4-4 2l-7-9c-2-1-4 0-3 2l6 7-3 6c-3 0-6-6-7-8h-4v11c0 3-2 3-4 2zm-8-17 1 1 3-5-5-3c-2 3 3 4 3 4l-3 2zm7-16s1 5 2 2l-3-2zm2 7c-1 0-2 1-1 2 1 0 6 1 5-2-1-2 6 0 4-5l-3-3c-1 0-4 1-1 1 1 0 3 2 2 3-1 2-2-1-3-1l-2 3-2-2zm11-18-3 4 2 1 2-3zm4-1c-2-1 2-5 3-1 0 2 10 15 11 20 2 2 0 3-2 2l-14-21zm10 0c1-1 4-5 3-7s-2-2-3-2c-3 2 1 1 1 2l-2 5v1zm123 26c0-1-2-4-2 0 0 8 10 6 13 3 2-2 0 9 3 10 1 0 6-3 7-5 6-7 9-16 14-23 1-3-1-5-2-3-5 7-11 23-17 26-5 4-3-3-3-6-1-1-2-3-5-1l-7 2c-2-1-3 0-3-3zm-97-18 1 4c-1 1-4-2-3-4z"/><path fill="#fff" fill-rule="evenodd" stroke="#000" stroke-width="1.2" d="M481 158c-1-1 1-6 3-4 5 5 6 22 9 35l-3 1c0-6-2-27-9-32z"/><path fill="#fff" fill-rule="evenodd" d="M362 154h-1l6-8 3 2zm119 4c-1-1 1-6 3-4 5 5 6 22 9 35l-3 1c0-6-2-27-9-32z"/><use xlink:href="#aw" width="100%" height="100%" fill-rule="evenodd" transform="matrix(1.17302 0 0 1.17188 100 0)"/><path fill="#fff" fill-rule="evenodd" d="M402 138c0-2-2 0-3-2 0-1 3-2 6-1 2 2 0 7-5 8-4 0-9 5-9 6 1 1 10 2 15 1 3-1 2 2-1 2l-10 2c-3 1-6 5-7 8l-1-3 6-7c1-1-5-1-7-2l-1-4c0-2 6-8 8-8l5-2zm-29 13c-2-2 1-5 4-3 4 4-7 18-15 25-1 2-2-2-1-3l13-14c0-1 1-4-1-5z"/><path fill="#fff" fill-rule="evenodd" stroke="#000" stroke-width="1.2" d="M380 142c-1-4 2-5 2-3 3 11 10 19 14 27 2 3 0 4-3 2l-6-7c-2 0-7 9-17 7-3 0-3-9-3-12 0-1 1-2 1 0 0 3 0 10 5 10 2 0 11-4 12-8 1-3-4-10-6-15z"/><path fill="#fff" fill-rule="evenodd" d="m352 141 2 3h-2zm-11 20c-1 1 0 3 3 2 4-4 13-7 15-14 0-3 2-6 5-7 1-1 4 3 6 0 1-1 4 2 5 0v-6c0-1-1-1-2 1v4l-2 1-3-1h-2c-1 2-2 4-5 2-2-2-2-6-4-1l-5 4c-2 0-2-4-7-4-2 1-2 6-2 7 0 2 7 1 7 2-2 6-9 11-16 14zm39-19c-1-4 2-5 2-3 3 11 10 19 14 27 2 3 0 4-3 2l-6-7c-2 0-7 9-17 7-3 0-3-9-3-12 0-1 1-2 1 0 0 3 0 10 5 10 2 0 11-4 12-8 1-3-4-10-6-15zm6-7 6-4c1-1 1 0 1 1l-5 4-1-1zm8 0 6-6 2 1-4 7h-2zm-7 6 1 1h4c1 0 1-5-1-3l-3 3zm26-2 3-3c2 0 3 0 3 2l-3 4c-1 1-2 0-1-1zm13-4c2 0 2 3 0 3zm-4 10c0 3 1 3 5 3 2 0 5 0 5-3l-2-2c0 2 0 5-1 3h-2l-1-1-1 1zm-18 13c0 4 0 10 2 10s7-7 9-12c1-2 4-2 3 0v14c1 2 5 0 7-2l1-13c0-3 2-3 2 0v14c0 1 6 4 7-1 1-4 3-7 0-12-1-2 3-2 5 1 1 2-1 6-1 9 1 5-3 7-6 7l-5-2-6 2c-7 0-3-9-4-9-3 0-5 9-7 9-3 0-6-8-5-10l2-2zm32-15c-3-1 0-7 3-5l8 13c2 1 1-6 2-9s4-1 4 1l-4 13 7 15c1 2-1 1-2 1l-5-11-2 15c0 2-4 2-2-1l4-17c-2-6-6-9-9-12z"/><path fill="#fff" fill-rule="evenodd" d="M441 173c-1 0-2 3 2 4 6 1 13-1 14-7l6-16c2-3 4-3 2-8-2-2-3-2-3 0l-7 22c-2 4-7 7-14 5z"/><path fill="#fff" fill-rule="evenodd" d="M453 151c0-2-3-1-1 1l2 2 3-2c0-2-1-3-1-1h-2zm1-6 1 1 6-1-1-2-7 1zm18 4c1-3 4-3 3 1l-12 23c-1 3-2 2-1-1l11-23zm2 15c1 0-1-1-1 1 0 3 1 3 2 3 2-3-1-2-1-4z"/><use xlink:href="#aw" width="100%" height="100%" fill-rule="evenodd" transform="matrix(1.17302 0 0 1.17188 100 0)"/><path fill="#fff" fill-rule="evenodd" d="M470 172v3h7v-3zm14 15 13-24c2-2 4 3 2 6-4 2-11 15-13 20 0 2-3 1-2-2z"/><path fill="#fff" fill-rule="evenodd" stroke="#000" stroke-width="1.2" d="M502 170c2-7 7 1 4 6-7 6-10 19-20 20l-10-3c0-1 1-3 3-2s8 2 10 0c6-6 11-14 13-22z"/><path fill="#fff" fill-rule="evenodd" d="M502 170c2-7 7 1 4 6-7 6-10 19-20 20l-10-3c0-1 1-3 3-2s8 2 10 0c6-6 11-14 13-22zm-100 22c-2 1-2 4-1 4 0 1 3 1 3-3 0-1 0 7 3 4 1-1 6 1 7-1v-6l-2 1-3 4-1-5h-1l-1 3c-2 0-1-2-2-3-4-3-4 0-5 0zm17-5 3-3 1 2-2 3-1 7h-1v-10zm-7-9-1 5h1v-5h-3zm-20 5-8 7-3 3-3 2c-1-2-1-5-3-3l-3 4-2-4c4-1 4-5 5-5 3 0 3 3 4 3l2-6 8-7c2-1 3 1 0 2zm1 4-2 2-2 7c-1 2-2 2-2 0 0-3 2-7 0-7-1 0-2-2-1-3l5-1v1z"/><path fill="#fff" fill-rule="evenodd" stroke="#000" stroke-width="1.2" d="M379 408h2l-1-10c-1-3-3-2-2 0zm8 0h2v-8h5c1 0 1-3-1-3l-8 1c0 4 2 0 2 10zm17-11v1l-4 2 2 2-2 3c-1 3 1 3 5 2v2c-3 0-6 1-7-1-2-5 3-6 1-7l-1-4c1-3 6-2 7-2zm5 11 5-10c0-2 2-2 2 0 0 4 3 6 4 9 1 2-1 3-1 2l-4-5-3 6c0 1-3 0-1-1z"/><path fill="#fff" fill-rule="evenodd" d="M379 408h2l-1-10c-1-3-3-2-2 0zm8 0h2v-8h5c1 0 1-3-1-3l-8 1c0 4 2 0 2 10zm17-11v1l-4 2 2 2-2 3c-1 3 1 3 5 2v2c-3 0-6 1-7-1-2-5 3-6 1-7l-1-4c1-3 6-2 7-2zm5 11 5-10c0-2 2-2 2 0 0 4 3 6 4 9 1 2-1 3-1 2l-4-5-3 6c0 1-3 0-1-1zm159-97c-1 1 1 2 1 1l5-10c1-1-2-2-3-1l-4 10z"/></svg>