<svg xmlns="http://www.w3.org/2000/svg" xmlns:xlink="http://www.w3.org/1999/xlink" version="1" viewBox="0 0 640 480"><path fill="red" d="M256 0h384v480H256z"/><path fill="#060" d="M0 0h256v480H0z"/><g fill="#ff0" fill-rule="evenodd" stroke="#000" stroke-linecap="round" stroke-linejoin="round" stroke-width=".6"><path d="M339 306c-32-1-180-93-181-108l9-13c14 21 165 111 180 107l-8 14"/><path d="M165 183c-3 8 38 33 88 64 50 30 93 49 96 46l2-3-4 1c-14-4-49-20-93-47a415 415 0 0 1-88-64h0l-1 2v1zm175 124h-3c-12-1-49-19-92-45-51-30-92-57-88-64l2-3v1c-4 12 82 61 87 64 50 31 92 49 96 44l-2 3v0z"/><path d="M256 207c32 0 72-4 95-13l-5-8c-13 7-53 12-90 13-44-1-74-5-90-15l-4 9c28 12 57 14 94 14"/><path d="M352 194c0 1-15 6-37 10a390 390 0 0 1-115 1c-23-4-35-9-40-11l2-2c12 5 24 8 38 10a412 412 0 0 0 114 0c23-4 35-9 37-11l1 3h0zm-4-8c-2 2-14 6-36 9a388 388 0 0 1-110 1c-21-3-33-8-37-10l1-2c3 2 15 6 37 10a385 385 0 0 0 109-1c21-3 33-9 35-10l1 3v0zm-198 60c20 11 64 16 106 16 38 1 87-5 106-15l-1-11c-6 9-59 18-106 17-47 0-90-7-105-17v10"/><path d="M363 245v2c-3 3-20 8-42 12a434 434 0 0 1-172-12v-3c10 7 36 11 45 13a408 408 0 0 0 169-13zm0-10v3c-3 3-20 8-42 12a434 434 0 0 1-172-12v-3c10 7 36 11 45 13a408 408 0 0 0 169-13v0zm-107 69c-46 0-85-12-93-14l6 9c14 6 53 16 87 15 35-1 65-4 87-15l6-9c-15 7-64 14-93 14"/><path d="M345 297a143 143 0 0 1-3 4 243 243 0 0 1-86 14c-41-1-74-9-89-16l-2-2h1l2 1a286 286 0 0 0 176 0l1-1zm5-9v1a287 287 0 0 1-2 3c-5 2-20 6-41 9-14 2-23 4-51 4-52-1-86-11-94-14l-1-2c30 8 61 14 95 14 26 0 37-2 51-4 24-4 37-8 41-9a3 3 0 0 0 0-1l2-1v0z"/><path d="M351 238c0 30-15 57-28 68a99 99 0 0 1-68 29c-30 0-58-20-66-28-15-17-27-39-28-68a95 95 0 0 1 98-94c24 1 52 13 71 36 12 15 18 32 21 57zm-95-103c58 0 106 47 106 105a106 106 0 0 1-212 0c0-58 48-105 106-105"/><path d="M256 134a106 106 0 0 1 0 212 106 106 0 0 1 0-212zM153 240a103 103 0 1 0 206 0 103 103 0 0 0-206 0z"/><path d="M256 143c53 0 97 44 97 97s-44 97-97 97-97-44-97-97 44-97 97-97zm-94 97a94 94 0 1 0 188 0 94 94 0 0 0-188 0z"/><path d="M260 134h-9v212h9z"/><path d="M259 133h3v215h-3V133zm-9 0h3v215h-3V133z"/><path d="M362 244v-8l-7-6-36-9-52-6-63 4-45 10-9 7v8l23-10 54-9h52l39 4 27 7z"/><path d="M256 224c25 0 49 2 68 6 20 4 34 9 39 14v3c-6-7-25-12-39-15a364 364 0 0 0-137 0c-15 3-36 9-38 15v-3c1-4 16-10 37-14 19-4 44-6 70-6zm0-9c25 0 49 2 68 6 20 4 34 9 39 14v3c-6-7-25-12-39-15a364 364 0 0 0-137 0c-15 3-36 9-38 15v-3c1-4 17-10 37-14 19-4 44-6 70-6zm-1-47c40 0 74 6 90 14l5 10c-13-7-50-15-94-14-37 0-75 4-95 14l7-11c16-8 54-12 87-13"/><path d="M256 177c22 0 44 1 61 4 16 3 32 7 34 10l2 3c-6-4-19-7-36-11-17-3-39-4-61-4-25 0-45 1-62 4-18 4-30 8-33 11l1-4c6-3 16-6 32-9 17-3 37-4 62-4zm0-9c21 0 43 1 59 4 13 2 26 6 31 10l2 4c-4-5-20-9-34-12a377 377 0 0 0-118 0c-15 3-25 7-29 9l2-3c6-3 15-6 27-8 16-3 37-4 60-4zm52 116c-19-4-38-4-52-4-66 1-87 13-89 17l-5-8c16-12 52-19 94-18 22 1 41 2 57 5l-5 8"/><path d="M256 279c18 0 36 1 53 4l-1 2a282 282 0 0 0-122 5c-7 1-18 6-19 9l-2-2c1-2 8-6 20-10 25-7 47-8 71-8v0zm0-9c19 0 39 1 58 5l-2 2a299 299 0 0 0-129 4c-7 2-20 7-21 10l-1-2c0-3 11-8 22-11 23-6 49-8 73-8z"/><path d="m349 291-7 12-23-20-59-40-66-36-34-12 7-13 3-2 21 6 70 36 41 25 34 25 14 16z"/><path d="M159 196c6-5 50 15 96 43s90 60 86 66l-1 2h0v-3c-2-6-34-31-86-63-50-30-93-48-97-43l2-2zm192 94c4-7-37-38-88-68-52-30-90-47-97-42l-1 3v-1l5-1c11 1 45 16 92 43 21 12 88 55 88 67l-1 2 2-3v0z"/></g><g transform="translate(0 27) scale(1.06667)"><path fill="#fff" stroke="#000" stroke-width=".7" d="M181 211a59 59 0 1 0 119 0h-1v-79H181v79z"/><path fill="red" stroke="#000" stroke-width=".5" d="M183 211c0 16 6 30 17 40a57 57 0 0 0 97-40v-77H183v77m91-54v59c-1 7-5 14-10 19-6 7-15 10-24 10a34 34 0 0 1-34-34v-54h68z"/><g id="e"><g id="d" fill="#ff0" stroke="#000" stroke-width=".5"><path stroke="none" d="M190 154c0-5 4-6 4-6s5 1 4 6h-8"/><path d="m187 148-1 6h4c0-5 4-6 4-6s4 1 4 6h5l-1-6h-15zm-1 6h17v2h-17l-1-1 1-1z"/><path d="M192 154c0-3 2-4 2-4s3 1 3 4h-5m-6-9h16l1 1h-17v-1zm1 1h15l1 1-1 1h-15l-1-1 1-1zm5-10h1v1h1v-1h1v1h1v-1h1v2h-5v-2zm4 3v6h-4v-6h4"/><path id="a" d="M191 142v3h-4v-3h4z"/><use xlink:href="#a" width="100%" height="100%" x="11"/><path id="b" d="M186 139h2v1-1h2v1-1h2v2l-1 1h-4l-1-1v-2z"/><use xlink:href="#b" width="100%" height="100%" x="11"/><path fill="#000" stroke="none" d="M194 141h1v1h-1v-1"/><path id="c" fill="#000" stroke="none" d="M189 143c0-1 0-1 0 0v1-1"/><use xlink:href="#c" width="100%" height="100%" x="11"/></g><use xlink:href="#d" width="100%" height="100%" y="46"/><use xlink:href="#d" width="100%" height="100%" transform="rotate(-45 313 180)"/></g><use xlink:href="#d" width="100%" height="100%" x="46"/><use xlink:href="#e" width="100%" height="100%" transform="matrix(-1 0 0 1 480 0)"/><g id="f" fill="#fff"><path fill="#039" d="M233 202a8 8 0 0 0 2 6c1 2 3 2 5 2s4 0 5-2c2-1 3-3 3-6v-10h-15v10"/><circle cx="236.1" cy="195.7" r="1.5"/><circle cx="244.4" cy="195.7" r="1.5"/><circle cx="240.2" cy="199.7" r="1.5"/><circle cx="236.1" cy="203.9" r="1.5"/><circle cx="244.4" cy="203.9" r="1.5"/></g><use xlink:href="#f" width="100%" height="100%" y="-26"/><use xlink:href="#f" width="100%" height="100%" x="-21"/><use xlink:href="#f" width="100%" height="100%" x="21"/><use xlink:href="#f" width="100%" height="100%" y="26"/></g></svg>