<svg xmlns="http://www.w3.org/2000/svg" xmlns:xlink="http://www.w3.org/1999/xlink" viewBox="0 0 640 480"><path fill="#ffb700" d="M0 0h640v480H0z"/><path fill="#ff5b00" d="m27 240 88-213h88v426h-88z"/><path fill="#005641" d="M27 27h88v426H27z"/><path fill="#8d2029" d="M229 27h387v426H229z"/><path id="a" fill="#ffb700" stroke="#000" stroke-width="1.1" d="M579 409s4 7 8 10c6 4 18 4 23 9 6 6 0 15 0 15v5h-6l-8 2c-13-1-12-12-13-21l-3-12-1-8z"/><use xlink:href="#a" width="100%" height="100%" transform="matrix(-1 0 0 1 845 0)"/><use xlink:href="#a" width="100%" height="100%" transform="matrix(1 0 0 -1 0 480)"/><use xlink:href="#a" width="100%" height="100%" transform="rotate(180 423 240)"/><g transform="translate(0 -76)"><use xlink:href="#b" width="100%" height="100%" stroke="#000" stroke-width="5.6"/><g id="b" fill="#ffb700"><path d="m363 416 3-2 1 2c1 2 5 2 7 0l2-2 2 2c2 2 6 2 8 0s2-2 3-1l4 2c4 0 4 0 5-3 2-2 2-3 2-5a59 59 0 0 1-1-5c0-3 0-3 4-4l5-2 6-7-4-1c-8-1-9-5-4-13a72 72 0 0 0 14-37c2 3-1 16-6 26l-2 4 2-1 14-6c18-8 24-10 36-9 10 0 14 2 21 9 4 4 7 7 14 11 14 9 14 10 15 20s0 11-8 12c-6 2-10 5-12 9 0 3 1 3 4 1l3-2 1 2c1 2 5 2 7 0l2-2 2 2c3 2 7 1 8-2l2 1c2 2 8 3 9 1l-1-3c-4-5-5-7-5-10 0-4 1-6 6-9s7-8 3-8c-3 0-5-2-7-6-3-7-2-15 2-29 5-13 6-16 6-25 0-7 0-8-2-12l-5-9-2-3 3-3c11-9 9-24-4-29-4-2-5-2-12-2l-14 1-15 1-10-1c-3-2-3-3-4-6l-1-1c-1-1-5 3-6 5l-1-1-2-3c-1-4 0-6 4-8l3-1-2-1c-3-3-10-1-12 3l-1 2-3-3c-5-4-3-11 3-13 4-1 6 0 7 2 1 3 4-1 3-5 0-3 0-3 2-3 3 0 8 3 10 6s2 8-1 11l-1 3h2l8-5c2-3 2-8 0-11-1-2-1-3 1-2 4 2 6 3 7 6 2 3 2 3 1 6l-2 5v2l6-3 2-4 1-3 2 2c1 3 4 6 8 7 4 2 5 2 3 0-1-1-4-8-3-9l12 9c5 5 9 7 14 7 7 0 11-6 8-11-2-4-6-4-8-1l-1 3-1 2c-2 0-6-2-13-8-10-9-23-16-32-19-6-1-18-2-24-1-7 1-14 5-19 9-7 7-7 16 0 25l2 2-1 2c-2 3-2 8 0 11l2 2 1-2c0-3 1-4 3-5s3 0 12 3c8 3 23 4 38 0 7-1 16-1 20 1 7 3 9 10 3 16-2 3-4 4-11 6l-20 1-19 1-22 1h-16l2 1 3 2c1 1 1 1-1 2l-5 1h-3l-1 2v5l-5-1-5-2-2 1-8 5v-2l-2-5-2-6h-1l-1 3-2 5-1 2-1-2-3-4-1 1-5 7-1-3-1-3v1l-5 5-2 1c-1 1-2 1-1-1l-1-3-1-4-4 1c-4 1-5 1-3-1l3-4 2-4v1l-2 3-1 2v3c1 1 1-1 3-2l3-1v1l1 5 1 3 2-1c2-1 5-5 5-8h1l1 4 1 3 1-2 3-4c0-3 1-4 1-2 0 1 4 6 5 5l1-3c1-4 3-7 4-6v1l2 5a2558 2558 0 0 1 2 7c1 1 1 1 4-2l3-3h2l9 3 1-4v-4l2 1h5l3-1-3-2-3-3-4-1c-4 0-11-4-11-6l2 1c3 2 7 4 10 4h3l-2-2-2-5c0-3-1-4-4-6l-5-4-1-2-1 2-1 3-3-2-2-2-1 3-2 3-1-2-3-3-1-2 3 2 2 3 1-2 1-4v-1l3 4 2 1 2-2c1-3 1-3 2-2 1 3 7 8 13 11l-1-5-1-4c0-2 0-3-3-4-3-3-4-5-5-9l-1-4c-1-1-1 0-1 3v6l-1 2-1-2-3-4-3-2 4 2 3 2v-9c-1-2-1-2 1 0l3 6c1 4 1 5 5 8l4 3 1-11c0-11-1-13-3-17l-2-2 3-2c2-3 4-5 4-9l1-2-3 2c-2 2-3 2-5 2s-3 0-5-2l-8-5-2 1-1 4-1 2-3-3-6-3c-4-1-4-1-4 2 0 5-2 5-6 2-3-2-5-3-10-2h-4v6c-2 3-5 4-9 4l-6 1-5 1-5 1c-1 0-2 0-1-2 0-4-2-6-6-6-5 0-7 4-5 10a45 45 0 0 1 1 4c0 1 2 4 5 6l6 6 2 3 3 1-1-2c0-3 1-3 2-1l3 2h2v-3l1-2 2 3 5 7c4 5 6 10 5 11h-5l-6-1c-3 1-3 1-1-1 1-2 1-3-2-3s-12-1-16-3c-3-1-4-1-5 3l-1 5-1 3h3l6-1h2l-1 2-1 3 2-1 4-1c2-1 2-1 3 1 2 3 3 3 4 0 0-3 1-3 3 1 1 4 3 6 4 3l2-2c2-2 4-1 5 1 0 2-2 5-8 9-12 7-20 18-22 31-1 12 4 24 16 33l14 7c-2-8-2-21 0-24v3c-2 8-1 15 4 29 4 13 4 19-3 23l-9 1c-6 0-6 0-8 2-2 1-5 6-5 8h4z"/><path d="m461 416 2-2 2 1c2 3 5 3 7 0l2-1v1l4 2 4-1 1-2 3 2c6 4 10-1 7-10-2-4-1-7 4-13l4-6-3-1c-3 0-4 0-5-2-2-2-2-5 0-8l2-3-3-2-8-7c-5-6-11-9-18-9l-4-1v4c0 4 2 9 8 16 6 8 7 10 7 21v9l-2 2c-1 1-2 2-8 2-5 0-6 1-8 2-2 2-3 3-3 5-1 2 0 2 1 2l4-1zm-143-25 1-2c0-2 1-2 3-2l4-1-2-1c-3-2-3-4-1-4s6-2 6-4v-2h-4c0 2-1 2-3 0s-3-7 0-10v-3c-2-2-3-5-2-6l3 1h3c2-2 0-4-4-4l-2-1-3-1c-3-1-3-1-3 1s-1 2-4 1c-1-1-3 0-3 2 0 1 2 2 5 2 2 0 3 2 0 4l-2 2 2 2c2 3 2 8-1 10l-1 2-1-2c-2-2-4-2-5 1 0 1 0 2 2 3l4 2c2 0 2 2 0 4l-2 1 3 1 3 1 3 5 1-2zm39-16 8-7-4-4c-4-4-8-10-9-14l-12-13-11-10h-3l-5 1 1 2 2 1 3-1c2-2 3-2 3-1l-1 3-1 3-2 1c-2 1-3 5-1 5 1 0 4-4 4-6v-1 4l-1 2-2 2c-2 1-3 4-1 4l4-5v-2c1-1 1 2 1 3v2c0 2 0 4-2 5l1 2c2 1 2 1 2 8 0 5 1 7 2 8h1c0-2 2-3 3-3l7 6 7 5 2 1 4-1zm-34-26c0-2-3-4-8-4-3-1-3-1-3 1s0 2 3 3c4 2 8 2 8 0z"/><path d="m327 349 2-4c-2 0-5 3-5 4 0 2 1 2 3 0zm-4-6-2-2c-4-2-9-3-10-2-2 2 0 4 3 5h9zm0-5c1-1 0-2-8-4-5-2-7-1-6 2l4 2 5 1c3 1 5 1 5-1zm4-5 2-3-5 4c-1 2 1 2 3-1zm-4 0c1-2-2-3-7-4-4-1-6 0-5 1 0 1 1 2 5 3 5 2 7 2 7 0zm5-7c7-3 8-11 1-13-2-1-4 0-5 2-1 1 0 3 1 3l1 1c0 3-11 4-15 2l-1-3c1 0 2-2 1-3 0-2-2-3-5-2-6 2-6 9 0 12s17 3 22 1z"/><path d="M324 320v-2c-2-1-1-2 0-4l2-25c1-38 3-65 7-72 1-3 1-3-3 0s-8 7-11 13c-6 12-9 27-9 61 0 18 1 21 2 23v4l-1 2c2 2 12 1 13 0zm56-36-1-3c-1-3-1-3-3-3-5 0-14-3-23-7l-8-2c-1 2 2 5 6 7 3 2 13 4 18 4 3 0 3 0 1 2l-1 2h11z"/><path fill="#000" d="m412 301-6-5h-2l-2 5-1-1-3-5-2-2-1 2-5 4v-2l-1-3h-1l-4 5-1-3a258 258 0 0 0 1-3l1 5 2-3 1-3 1-1 1 4 1 3 2-2 2-3h2l3 4 2 2v-3l1-3 7 5 3 2v-4c0-3 0-4-2-5-2-2-2-2-3-1 0 2-2 2-2 0l-4-6-2 3-2 2-6-7 1 1 3 3c2 2 3 2 4-2l1-2 6 7 1 2v-2c1-2 1-3 2-1l5 4 3 3 1-3 1-1-1 5-3-2-2-1v8c-1 1-2 2-2 0zm-18-25c-5-4-6-5-5-6v-2 1l3 4 2 2 2-2 1-2c0-1 1-1 4 1 2 3 2 3 3 1v-5l2 3c2 1 2 1 2-1v-5l3 3c2 2 2 3 3 1l1-3v-2c1 1 1 4-1 7l-1 2-1-2c-2-3-2-3-3 0s-2 3-3 1-1-1-1 1l-1 3-3-2-3-2-1 1-2 3h-1zm39-14-3-3h1l3 3c3 3 2 4-1 0zm-52-5c-2-2-2-4 0-6l4-1c1 0 5 1 7 3l8 3h3l-2-3c-2-3-2-4 1-2 2 2 5 3 12 3h4l-2-2c-3-3-2-3 1-1 3 3 3 3-3 4l-8-1h-3l1 2h1c0 2-7 0-11-1-8-4-9-5-11-4l-2 2c-2 3 3 6 5 3l-1-2c-1-2-1-2 1-1v4c-1 2-4 1-5 0zm31-8c-1-1 0-2 5-2s9-1 13-3c3-2 4-2 1 0s-7 4-12 4a94 94 0 0 0-7 1z"/></g></g></svg>