<svg xmlns="http://www.w3.org/2000/svg" xmlns:xlink="http://www.w3.org/1999/xlink" viewBox="0 0 800 600"><defs><path id="a" fill="#edb92e" d="M482-88c4 0 8 3 8 7s-4 8-8 8-8-3-8-8 4-7 8-7z"/></defs><path fill="#fff" d="M0 0h800v600H0Z"/><path fill="#0c4076" d="M0 0h800v400H0Z"/><path fill="#c6363c" d="M0 0h800v200H0Z"/><g transform="translate(-24 200) scale(.66666)"><path fill="#21231e" d="M473-41zm1 0zm-93 6c-2-1 4-1 5-1l88-5c0 2-4 0-6 1l-87 5v-1zm-1 0zm7 31-7-31c2 0 2 4 3 6l5 25zm0 0zm95-4c0 2-4 1-6 1l-89 3c0-2 5 0 7-1zm0 0zm95 4h-5l-90-3c1-2 5 0 7-1l88 3zm1 0zm6-31-6 31c-2-1 0-5 0-7l5-25zm0-1zm-94-5h5l88 5c0 2-4 0-6 1l-87-5zm0 1zm1-1zm-1 0zm-8 0c0-2 3 0 5-1 1 0 4-1 4 1-1 2-1-2 0 0zm0 0zm-8 0c1-1-3 1 0-1h8c0 2-3 1-5 1h-3c-1-1 0-1 0 0zm0-1zm-1 1z"/><path fill="#21231e" d="M595-54c0-2-1 2-3 3l-8 15c-2-1 1-3 1-5l9-14zm-19-4c1-2 0 4 1 5 2 4 7 5 10 3l7-5c2 2-3 3-5 5-3 2-9 3-12-1l-2-7zm0-1zm-2 1c-2-1 1-1 2-1 1 1 0 1-1 1zm-1-1zm-25-5 3 5c2 4 7 11 13 9 4-2 7-5 9-9 2 1-2 4-3 6-3 4-9 6-14 2-4-3-7-8-9-13zm-1-1zm-29 0c0-2 3 3 3 4 2 5 7 11 13 9s9-8 13-13c1 2-2 4-3 6-4 5-10 11-16 8s-8-9-11-14zm0-1zm-34 1c2-1 3 3 4 5 4 5 11 9 17 6 5-3 9-7 13-12 1 2-3 4-4 6-5 5-13 10-20 6-4-2-8-7-10-11zm0 0zm1-2zm-1 0zm-1 0h2v-1c1 2-1 2-2 1zm0 0zm1-1zm-1 0zm-1 1 1-1c1 1 0 1-1 1zm0 0zm0 0c-3-1 2-2 0 0 0 0-2 0 0 0zm-1-1zm0 1zm0 0zm0 0-1-1c1 0 2 2 0 1-1 1-1-2 0 0zm-1-1zm0 3zm1 0zm-34 0 3 3c5 5 12 11 20 7 4-2 7-6 10-10 1 1-2 4-3 6-4 5-11 9-18 5-5-2-9-7-13-11zm-1-1zm-28 2 3 4c3 4 8 10 15 8 5-3 8-9 10-14 2 1-2 5-2 7-3 5-8 10-14 8-6-3-10-8-13-13zm-1-1zm-26 7c0-3 2 3 4 4 3 3 8 6 13 2 4-3 6-8 9-13 2 2-2 5-3 7-3 5-8 11-14 9-4-2-7-6-10-9zm0-1zm-2 1c-2-1 1-1 2-1 1 1-1 1-2 1 0 0-1 0 0 0zm-1 0zm-18 3c-2 0 3 2 4 3 4 2 10 5 12 0l2-6c2 0 0 4 0 6-2 4-8 5-11 3l-8-5zm11 19c0 2-2-3-3-4-2-5-5-10-9-14 2-1 3 3 4 4zm0 1zm101-6c0 2-5 0-7 1l-94 5c0-2 5-1 7-1zm0 0zm101 5c0 2-4 0-6 0l-95-4c1-2 5 0 8-1l94 5zm0 1zm0 0zm1-1z"/><path fill="#edb92e" d="M584-36c3-6 6-13 11-19-12 9-18 8-19-3l-3-1c-9 14-17 12-26-5-11 18-21 18-29-1-13 16-25 16-34 0v-2h-1v-1l-1 1-1-1v1h-1v2c-9 16-20 16-34-1-7 19-17 20-29 1-8 18-17 20-26 6l-3 1c0 11-7 12-18 4l11 18 101-5zm-79 12-23 12-23-12 23-11"/><path fill="#edb92e" d="m474-41-93 6 6 31 95-3 95 3 7-31-93-6z"/><path fill="#edb92e" d="m597-63-3-1c-7 18-14 18-15 1 2 0 1-3 3-2 1 1 2-1 1-2-2-1-4-1-5 1-1-3-3-4-6-3l1 2 1 3c-12 17-19 15-17-7l-10-2c-11 23-19 24-26 3 1-1 1-4 3-3 1 1 2-1 1-2-2-2-5-2-7 1-1-3-4-4-6-2-2 0-1 3 0 2 3 0 2 3 3 4-5 19-30 21-26-8h-13c4 29-22 27-27 8 2-1 1-4 3-4 1 1 2-2 1-2-3-2-6-1-7 2-2-3-4-4-7-2-1 1 0 3 1 3 3-1 2 2 4 3-7 21-15 20-27-3l-9 2c1 21-5 23-18 7 1-1 0-3 2-3v-2c-2-1-4 0-5 2-2-1-3-2-5 0-1 1 0 3 1 2 2-1 1 2 3 2-2 17-8 16-15-1l-4 1c0 4 2 8 4 11 11 14 19 11 19-4 14 16 24 14 26-3 12 21 31 11 31-2 5 19 34 19 36-3 1 22 30 22 35 3 0 13 19 23 31 2 2 17 12 19 26 3 0 15 8 18 19 4 2-3 4-7 4-11z"/><path fill="#21231e" d="M594-64c4 0 4 2 0 1zm-1 0zm-14 1 1 6c1 2 2 7 5 5 4-3 6-8 8-12 2 1-1 4-2 6-2 3-4 8-8 8-4-3-4-8-5-13zm-1 0zm4-2-1 1c0 2-3 2-2 1s1-4 3-2zm1-1c1-3 1 2-1 2l1-2s0-1 0 0zm0-1zm-6 1c1 0 1-2 3-2 1-1 4 0 3 2-2-2-4-2-5 0zm1 0zm-6-3c-1-2 3-1 4 0 2 0 2 4 1 2s-3-3-5-2zm0 2c1 2-2-1-1-2s1 0 1 1l1 1zm3 3-2-2v-1c2-1 1 2 2 3zm0 0zm-18-7v6c0 4 0 9 4 11 4 1 7-4 10-7 1-1 5-5 3-1-4 3-7 9-13 9-5-1-4-7-5-12 1-1 0-7 1-6zm0-1zm-9-1c-2-2 2 0 4 0l5 2c-1 1-4-1-5-1zm-1-1zm-27 3c2 1 2 4 3 6 2 4 5 10 10 9 6-3 9-10 13-16 2-4 2 1 0 2-4 6-7 13-13 15-6 1-9-6-11-10l-2-5zm0 1zm4-4c0 1-2 1-2 3s-2 1-1 0c1-2 1-3 3-3zm1-1c1-2 2 3 0 3s0-1 0-2zm-7 1s0-2 3-3c1-1 4 0 4 1h-4zm1 0zm-7-2c-2-2 2-2 3-2 2 1 5 3 3 4-1-2-4-4-6-2zm0 2c1 2-2 0-1-2h1zm4 4c-1 0-2 0-2-2s-2-1-2-2c3-1 2 3 4 4zm0-1zm-27-7v6c-1 6 2 15 10 16 8 0 14-7 16-14 2 1-1 4-2 6-3 7-13 11-20 6-6-5-6-13-5-21zm0-1zm-7 1c0-2 3 0 4-1 1 0 4 0 2 1zm0 0zm-6-1h3c1 0 4-1 3 1h-6zm-1 0zm-26 8 3 6c3 7 12 11 18 6 6-4 6-13 5-19 2 0 1 5 2 7 0 6-4 15-12 16-8 0-15-7-17-15zm-1 1zm4-4-1 2c0 1-2 3-2 1 1-1 1-4 3-3zm1-2c1-2 2 2 0 3-2 0 0-1 0-2zm-7 2s0-2 2-3 5-1 5 1h-4c-2 0-2 2-3 2zm1 0zm-7-1c-2-2 2-3 3-2 1 0 5 2 3 3-1-2-4-3-6-1zm0 1c2 3-2 1-2-1h1zm4 4-2-2c0-1-2 0-1-2 2 0 2 3 3 4zm0-1zm-27-2c0-2 3 3 3 5 3 4 6 11 12 12 6 0 8-6 10-10 0-2 3-7 2-2-2 5-4 12-10 13-7 0-10-6-13-11zm0-1zm-9 3 4-2 5-1c0 2-3 2-5 2zm-1 0zm-17 7c1-1 2 3 4 4 3 3 6 7 10 6 4-2 3-8 3-12 0-1 0-8 1-4 0 6 1 12-2 16-4 3-9-1-11-4zm0 0zm2-3c0 1-2 1-1 2 0 2-2 1-1 0 0-2 0-3 2-2zm0-2c1-2 2 2 0 2zm-6 3 2-4c1-1 5-1 4 1-2-1-4 0-5 2v1zm1 0zm-6-1c-1-1 2-2 3-1 2 0 4 2 2 2-1-2-4-2-5-1zm0 0zm1 1c2 3-3 1-2-1 1-1 1 0 2 1 0 0 0 1 0 0zm4 3c-1 1-2 0-2-1l-2-2c2-1 2 2 4 3zm-1 0zm-14-1 2 5c2 3 4 7 7 8 4-2 4-7 5-11v4c0 3-2 9-6 7-5-3-7-8-9-13zm0-1zm-4 1c4-2 4 1 0 1zm-1 0zm5 12c-2 1-3-4-4-5 0-2-2-6 0-7 0 5 2 9 4 12zm19-5-1 6c0 4-3 10-9 8-4-2-7-5-10-9 2-1 3 4 5 5 3 2 9 5 11 1 2-3 3-7 3-11zm-1 0zm27-3-1 5c-1 6-5 11-11 10-6-2-11-7-15-11 2-1 3 3 5 4 4 4 10 8 16 5 4-3 5-8 5-13zm-1 0zm32-2-1 6c-3 8-14 12-21 7-4-2-7-6-10-10 2-1 3 4 5 5 4 6 13 9 19 4 4-2 7-7 7-12zm35-3c-1 0 1 4-1 6-2 10-14 15-23 11-6-2-10-7-12-13 2-1 2 4 4 6 6 9 22 10 28 1 2-3 3-7 3-10h1zm36 3c-1 0 0 4-2 6-6 10-22 13-30 3-3-3-4-7-4-11 2 0 1 4 2 6 4 9 17 13 25 7 4-2 7-6 8-11zm31 2c-1 0-1 4-3 5-5 7-14 11-21 7-5-3-8-8-8-13 2 0 1 4 3 6 3 7 13 10 20 5 3-2 6-6 8-10zm-1 0zm27 3s-1 3-4 5c-4 4-10 9-17 6-4-3-6-9-6-14 2 0 1 5 2 6 1 5 5 9 11 8 5-2 9-7 13-11zm-1 0zm19 5c2 1-2 4-3 5-3 3-10 7-13 2-2-3-3-8-3-11 3 0 1 4 2 6 1 4 4 8 8 6s7-5 9-8zm4-11v5c-1 2-2 6-4 6l3-6c1-1 0-6 1-5zm0-1zm0 0zm0 1z"/><path fill="#edb92e" d="M482-37c-34 0-68 2-102 5-8 0-2-8 4-6 67-7 134-7 201 0 7 3-2 8-6 6-32-4-65-5-97-5z"/><path fill="#0c4076" d="M482-195a18 18 0 0 1 0 35c-9 0-17-8-17-18 0-9 8-17 17-17z"/><path fill="#edb92e" d="M485-215c2 0 3-1 3-3s-1-3-3-3c0-2-1-3-3-3-1 0-3 1-3 3-1 0-3 1-3 3l3 3v6h-5l-3-3c-2 0-3 2-4 3l-3 3c0 2 2 3 3 3 0 2 2 4 3 4 2 0 4-2 4-3h5v21h6v-21h6c0 1 1 3 3 3s3-2 3-3c2 0 3-2 3-4 0-1-1-3-3-3 0-1-1-3-3-3s-3 2-3 3h-6z"/><path fill="#21231e" d="m488-218 1 1-4 2 1-1zm-3-3v-1c2 0 4 2 4 4l-1-1zm0 0zm-3-3 1-1c2 1 3 2 3 4l-1-1zm-3 3c0-1 0-1 0 0 0-2 1-4 3-4v1l-2 3zm1 0zm-3 3c-1 0-2 0-1-1 0-2 2-3 3-3l-1 1-2 3zm3 3h-1c-2 0-4-1-4-3h1l3 2v1zm-1-1zm0 7v-6l1 1v5zm1 0zm-6 0h5l-1 1h-4zm0 1zm-3-3v-1c2 0 3 2 3 3h-1c0-1-1-2-3-2zm-4 3v-1c0-2 2-3 3-3v1l-2 2zm1-1zm-3 3h-1c0-2 2-3 3-3v1c-2 0-2 1-2 2zm3 4h-1c-2 0-3-2-3-4l1 1 2 2zm-1-1zm3 3v1c-2 0-3-2-3-3h1zm4-3v1c0 2-2 3-4 3l1-1 2-2zm-1 1zm6 0h-5c-1-1 0-1 1-1h4zm0-1zm0 22v-21c1-1 1 0 1 1v20zm0 1zm6 0h-6c0-1 0-2 1-1h5zm1-1zm0-21v21l-1-1v-20zm-1 0zm6 0h-6l1-1h5zm0-1zm3 3c0 1 0 2-1 1l-3-3h1zm3-3 1 1c0 2-2 3-4 3v-1l2-2zm0 1zm3-3 1 1-4 2 1-1zm-3-3v-1c2 0 4 2 4 4l-1-1zm0 0zm-3-3 1-1 3 3h-1zm-3 3-1-1c0-2 2-3 4-3l-1 1c-1 0-2 1-2 3zm0 0zm-6-1h6l-1 1h-5zm0 1zm1-7v7l-1-1v-6zm-1 0zm0 0zm0 0z"/><path fill="#21231e" d="M500-178h-1c0-6-4-12-9-15l-8-1c0-1 0-2 1-1 6 0 12 4 15 9zm-18 18 1-1c6 0 12-4 14-9l2-8 1 1c0 6-4 12-10 15zm-17-18 1 1c0 6 4 12 9 14 2 2 5 2 7 2l-1 1c-6 0-12-4-15-10zm17-17-1 1c-6 0-11 4-14 9l-1 7c-1 0-2 0-1-1a18 18 0 0 1 17-16z"/><path fill="#edb92e" d="M499-181v6l-17-1-17 1v-6l17-1z"/><path fill="#21231e" d="M500-178h-1v-3h1zm-1 3v-1c0 1 0 0 0 0v-2h1v3zm1 0s-1 0 0 0zm-18 0 1-1h16v1zm-17 0h1v-1h16v1zm0 0c0 1 0-1 0 0zm0-3h1v3h-1zm1-4v4h-1v-3zm-1 1c0-1 1-1 0 0zm17-1v1h-16v-1zm18 1h-18l1-1h16zm-1-1c1 0 1 1 0 0z"/><path fill="#edb92e" d="M469-167c-4-2-4 1-4 5 0 13 3 26-1 42-1 6-4 10-1 11 5 3 8 6 7 8 1 3 6 2 12 1 6 1 11 2 12-1-1-2 2-5 8-8 2-1 0-5-2-11-3-16-1-29-1-42 0-4 0-7-4-5-7 4-19 5-26 0z"/><path fill="#21231e" d="m465-162-1-1c0-2 1-5 3-5l2 1h-2l-2 3zm0 42c-2 0-1-1-1-2 2-10 1-21 1-31l-1-9c2-1 1 1 1 2 1 11 2 22 1 33zm-2 11h-2l1-7 2-4v2l-2 8zm7 8c-1 1 0 0-1-1-1-3-4-4-6-6-1 0 0-2 1 0 2 1 5 3 6 6zm-1 0zm13 1-1 1c-3 1-7 2-10 0l-2-2c1-1 2 1 2 1 3 2 6 1 8 1zm0 0zm12-1v1c-2 2-5 2-8 2l-4-1 2-1c3 1 6 2 9 0zm1 0zm7-8c1 1-1 1-1 2l-6 5-1 1c0-2 2-4 3-5zm-2-11c1-1 1 1 1 2l2 8-1 2v-2zm-1-42c2 0 1 1 1 2 0 11-2 22 0 33l1 7c-1 1-1-1-1-2-2-10-2-21-1-31zm-3-4c-1-1 0-2 1-2s3 1 3 3v3c-1 1-1-1-1-2s0-3-2-3zm-27 0c0-2 1-1 2 0 6 3 14 3 20 1l4-2c1 1 0 1-1 2-6 3-14 3-21 1z"/><g id="b"><path fill="#edb92e" d="M363 212c-2-4 0-10 0-11 1-1 0-2-1-3-13-18-13-20-4-27 8-6 26-12 39-16l7-7c-25 2-52 12-65 24-8 6 1 19 12 38 6 5 9 7 12 2z" transform="translate(0 -300)"/><path fill="#21231e" d="M363 201v11c-1 1-1-1-1-2-1-3 0-6 1-9zm-1-3 1 1 1 2-1-1-1-1zm-4-27c1 1-1 2-1 2-3 2-5 5-4 8l6 12 4 5c-1 1-2-1-3-1l-8-15c-1-3 0-6 2-8zm39-16c1 1-1 1-2 1-11 4-22 7-32 13l-5 3c-1-1 1-2 1-2l27-12zm1 1zm6-7c0-2 1 0 0 0l-6 7c-2-1 0-2 1-2l5-6zm0-1c2-1 1 1 0 0v-1zm-65 24c-2-1 1-2 1-2a150 150 0 0 1 64-23c1 2-1 1-2 2a120 120 0 0 0-63 23zm12 37c-1 2-1 0-2-1-4-8-9-15-12-24-2-4-3-9 0-12 1-1 3 0 1 1-3 3-1 7 0 11 3 8 8 16 13 24zm0 1zm12 1v2c-2 2-4 2-6 1l-6-4 2 1c2 1 4 3 7 3 2 0 2-2 3-3zm0 1zm0 0zm1 0z" transform="translate(0 -300)"/><path fill="#edb92e" d="m359 214-1-5c-1-3 0-6 1-8-3-5-7-9-9-14-2-3-3-7-2-10 1-4 4-7 7-9l14-8c11-4 20-7 26-7l-4 4c-12 4-26 9-33 15-9 6-9 8 4 26 1 1 2 2 1 3 0 1-2 7 0 11-1 2-2 1-4 1z" transform="translate(0 -300)"/><path fill="#21231e" d="M357 209c2-1 1 1 2 1l1 3h-2zm1 0zm0-8c1-1 1 0 1 1l-1 7-1-2 1-7zm1-1zm-10-12h2c2 5 5 8 8 12h-2zm-2-11 1 1c-1 3 1 6 2 9-1 1-1 0-1-1-2-2-3-6-2-9zm8-10c1 1 0 2-1 2l-6 8v-2c1-3 4-5 7-8zm14-7c1 1-1 1-1 1-5 2-9 4-12 7-2-1 0-1 0-2zm0 0zm27-6c-2-2 0 0-1 0-9 0-18 3-26 7-1-1 1-2 1-2 8-3 17-6 25-6zm-1-1c2-1 2 0 1 1zm-4 4 4-4-1 2-3 2v-1zm1 0zm-34 15c-1-1 0-1 1-2 7-5 15-7 23-10l9-3c1 1 0 1-1 1l-28 11zm5 26c-1 1-2 0-2-1-3-5-7-9-9-14-1-3-1-6 1-8l5-4c1 1 0 1-1 2-2 2-5 4-5 7l5 10 5 8zm1 3-1-1-1-1h1zm0 12-2-2c-1-3 0-7 1-10v1l1 10zm0-1zm-5 1c0 2-1 0 0 0 2 0 3 1 4-1v2h-4zm0 1c0-1 1-1 0 0zm0-1z" transform="translate(0 -300)"/><path fill="#edb92e" d="M468 132v2l-2-1-1 5v3c-33-1-53 4-58 14-4 8 3 21 14 36v3c-2 2-4 6-3 9-6 3-14 4-21 1-1-3-3-4-5-5l-2-2-10-31c-10-31 75-34 88-34z" transform="translate(0 -300)"/><path fill="#21231e" d="M467 134c2-1-1 0 0-2 1 0 0-2 2-2 0 1 0 3-1 2s0-1 1-1l-1 3zm1 0c1 3-1 0 0 0zm-2-1h1l1 1zm0 0zm-1 5c-2 1-1-1-1-2l2-4v2zm-1 0zm1 3c0-1-1 1-1-1l1-2zm0 0zm-58 14 1-3c5-6 13-8 20-9 12-3 25-3 37-3 0 2-3 1-4 1-13 0-27 1-40 4-5 2-11 5-14 10zm14 36c-1 1-2-2-3-2-5-8-10-16-12-25v-9c2 0 1 2 1 3-1 6 2 12 5 18 2 5 6 10 9 14zm0 3v-3c1 1 2 2 0 3zm-2 9-2-2c0-3 1-5 3-7 2 0 0 1 0 2-1 2-2 5-1 7zm0 0zm-22 2h3c6 2 13 0 18-3 1 2-1 2-2 3-6 2-13 3-19 0zm0 0zm-5-6c0-2 1 0 2 1l4 4c-1 1-1 0-2-1zm-2-2 1 1c1 0 2 0 1 1l-2-1zm-11-31c2-1 2 1 2 2l9 29c-1 1-1-2-2-3zm89-34-2 1c-19 0-37 2-55 6-9 2-18 5-26 11-3 3-6 8-5 13 0 1 1 3-1 3-1-5 0-10 3-14 5-6 13-9 20-12a219 219 0 0 1 66-8zm1 0zm-1 0zm1 0z" transform="translate(0 -300)"/><path fill="#fff" d="M405 190c4 0 6 3 6 7 0 3-3 6-6 6s-6-3-6-6c0-4 3-7 6-7z" transform="translate(0 -300)"/><path fill="#21231e" d="M412 197h-1a6 6 0 0 0-6-6v-1c2 0 5 1 6 3l1 3zm-7 7v-1c2 0 4-2 5-4l1-2h1c0 2-2 4-4 6zm-7-7h1c0 2 1 4 3 5h3v1a7 7 0 0 1-7-6zm7-7v1c-2 0-4 1-5 3l-1 3h-1c0-3 2-5 4-6z" transform="translate(0 -300)"/><path fill="#fff" d="M351 204c3 0 6 2 6 6s-3 6-6 6-6-3-6-6 3-6 6-6z" transform="translate(0 -300)"/><path fill="#21231e" d="M357 210h-1c0-2-1-4-3-5l-2-1v-1c2 0 4 1 5 3zm-6 6v-1c2 0 4-1 5-3v-2h1c0 2-1 4-3 5zm-7-6h1c0 2 2 4 3 4l3 1v1c-2 0-5-1-6-3zm7-7v1c-2 0-4 1-5 3l-1 3h-1c0-3 2-5 3-6z" transform="translate(0 -300)"/><path fill="#fff" d="M345 193c3 0 6 2 6 6s-3 6-6 6-6-3-6-6 3-6 6-6z" transform="translate(0 -300)"/><path fill="#21231e" d="M352 199h-1c0-2-2-4-3-5l-3-1v-1a6 6 0 0 1 7 7zm-7 6v-1c2 0 4-1 5-3l1-2h1c0 2-2 4-3 5zm-6-6h1c0 2 1 4 3 4l2 1v1c-2 0-4-1-5-3zm6-7v1c-2 0-4 1-5 3v3h-1c0-3 1-5 3-6z" transform="translate(0 -300)"/><path fill="#fff" d="M340 182c3 0 6 2 6 6s-3 6-6 6-6-3-6-6 3-6 6-6z" transform="translate(0 -300)"/><path fill="#21231e" d="M346 188h-1c0-2-1-4-3-5l-2-1v-1a6 6 0 0 1 6 7zm-6 6v-1c2 0 4-1 5-3v-2h1c0 2-1 4-3 5zm-7-6h1c0 2 1 4 3 5h3v1l-6-3zm7-7v1c-2 0-4 1-5 3l-1 3h-1c0-2 1-5 3-6z" transform="translate(0 -300)"/><path fill="#edb92e" d="M444 202c4 0 3 6 2 7-1 2-1 2-3 1 0-2-2-8 1-8z" transform="translate(0 -300)"/><path fill="#21231e" d="m447 210-1-1v-5l-1-1h-1v-1h2l1 3zm-4 0 1-1 1 1 1-1h1l-2 2h-1zm1-8v1h-1v2l1 4-1 1-1-3v-3l1-2 1-1z" transform="translate(0 -300)"/><path fill="#fff" d="M445 206c8-1 6 13 4 17s-4 4-7 0c-2-3-6-17 2-17z" transform="translate(0 -300)"/><path fill="#21231e" d="m449 223-1-1 2-5-1-8-3-3h-2v-1l4 1c2 1 2 3 3 5l-1 9zm-7 0h1l2 2c1 1 2 0 2-1l1-1h1l-2 3h-3zm2-17v-1 1l-3 2-1 5 2 8 1 2h-1l-2-5-1-8 3-4 3-1v1zm0-1z" transform="translate(0 -300)"/><path fill="#edb92e" d="M380 211c3-1 4 5 3 6 0 2-1 3-2 1-1-1-4-6-1-7z" transform="translate(0 -300)"/><path fill="#21231e" d="m384 218-1-1v-2l-1-3-2-1v-1h2l1 2 1 4v1zm-4 1 1-1 1 1 1-1v-1l1 1-1 2h-2zm0-9v1l-1 1v3l2 3-1 1-1-3-1-3 1-2z" transform="translate(0 -300)"/><path fill="#fff" d="M381 214c7-2 9 12 8 16s-3 5-6 2-10-15-2-18z" transform="translate(0 -300)"/><path fill="#21231e" d="m390 230-1-1a21 21 0 0 0-3-12c0-2-2-3-3-3h-2 4l3 4 2 9zm-7 2v-1l3 2 2-1 1-3h1l-2 4h-3zm-2-19v1l-3 3v5l4 8 1 1-1 1-3-5-2-8c0-2 0-3 2-5zm0 1s0-1 0 0z" transform="translate(0 -300)"/><path fill="#edb92e" d="M464 138c-17-2-35 0-52 7-15 6-14 23 4 47l-2 11h5c-2-3 0-7 1-9s2-1 0-3c-10-15-17-28-13-36 5-10 24-15 58-14z" transform="translate(0 -300)"/><path fill="#21231e" d="M412 145c-1-1 1-1 2-1 16-6 33-8 50-7 1 2-1 1-2 1-17-1-34 1-50 7zm5 47-2-1c-6-8-11-17-13-26-1-6-1-12 4-16 1-2 4-3 6-4 1 1-1 1-2 2-4 2-7 6-7 11-1 8 2 15 6 21zm0 0zm-3 11-1-1c1-4 1-7 3-10 2 0 0 1 0 2zm0 1zm4-1c2-1 1 1 0 1h-4c-1-2 1-1 2-1h3zm1 0zm1-9c2 0 0 1 0 2-1 2-2 5-1 7-1 1-1-1-1-2zm0-3c1-1 2 0 2 1l-1 3v-2zm-13-36v2c-2 6 1 11 3 16l11 18c-1 1-2-1-2-1-5-8-10-15-13-24v-11zm57-14c2 0 0 1-1 1-13-1-26 0-39 3-6 2-12 4-16 9l-1 1c3-6 9-8 15-10 12-4 25-4 37-4h6zm1 0zm-1-2h1v2c-1 1-1 0-1-1zm1-1zm-1 0h1l-1 1zm0 0zm0 0zm0 0z" transform="translate(0 -300)"/><path fill="#fff" d="M381 143c3 0 6 2 6 6s-3 6-6 6-7-3-7-6 3-6 7-6z" transform="translate(0 -300)"/><path fill="#21231e" d="M387 149h-1c0-2-1-4-3-5l-2-1v-1c2 0 4 1 5 3zm-6 7v-1c2 0 4-2 5-3v-3h1l-3 6zm-7-7h1c0 2 1 4 3 5l2 1v1c-2 0-4-2-5-3zm6-7v1l-4 3-1 3h-1a6 6 0 0 1 7-7z" transform="translate(0 -300)"/><path fill="#fff" d="M393 139c3 0 6 2 6 6 0 3-3 6-6 6-4 0-6-3-6-6 0-4 2-6 6-6z" transform="translate(0 -300)"/><path fill="#21231e" d="M399 145h-1a6 6 0 0 0-5-6v-1c2 0 4 1 5 3zm-6 7v-1c2 0 4-2 5-3v-3h1l-3 6zm-7-7h1c0 2 1 4 3 5l3 1v1a7 7 0 0 1-7-7zm7-7v1c-2 0-4 1-5 3l-1 3h-1c0-3 1-5 3-6z" transform="translate(0 -300)"/><path fill="#edb92e" d="m394 144 2 2c-10 6-14 11-13 17l10 32 10 8 1 2c0 3-3 2-5 1l-7-7-2-2-10-31c-3-10 3-17 14-22z" transform="translate(0 -300)"/><path fill="#21231e" d="M396 147c0-1 0 0 0 0l-2-3 1 1 1 1zm1-1zm-13 17c-1 1-1 0-1-1-1-4 2-8 6-11l7-5c1 1 0 1-1 2-4 2-8 5-10 10zm0 0zm9 31a443 443 0 0 1-9-30l9 31zm0 1zm10 9-1-1-9-8h1l10 8v1zm0-1zm1 2h-1v-2l1 1v1-1zm-1 0zm-5 2 1-1h4l1-2v2c-1 2-3 1-5 1l-1-1zm0 0zm-6-8h1c2 2 5 4 6 7-1 1-1 0-2-1l-6-6zm0-1zm-3 0h3l-1 1-1-1zm-9-32c1-1 1 0 1 1l9 30c-1 1-1 0-1-1zm15-22c-2 0 0 1-1 1-5 2-10 6-13 11-2 3-2 7-1 10l-1-1c-1-5 0-9 3-13s7-6 12-8zm-1 0z" transform="translate(0 -300)"/><path fill="#edb92e" d="M356 217v2h-8c4-3 6-4 8-2z" transform="translate(0 -300)"/><path fill="#21231e" d="M355 219v-2h1v2zm1 0zm-8 0 1 1-1-1 7-1 1 1-7 1h-1zm0 1h-1l1-1zm8-3h-1 1-2l-3 1-2 2-1-1 4-3h4zm0 0zm0 0zm0-1v1z" transform="translate(0 -300)"/><path fill="#edb92e" d="m356 212 2 1 4-1c4-2 4 2 2 5-1 3 0 5 1 7v4l-2 1c-1 2-2 1-2 0-4-2-5-6-6-9-2-5-8-6 1-8z" transform="translate(0 -300)"/><path fill="#21231e" d="M358 213v1l-2-1v-1h2zm3-1 1 1h-1l-3 1v-1zm0 0zm3 6v-5l-1-1-1 1-1-1 3-1 1 3-1 3zm1 6h-1v-7 1zm0 5-1-1 1-2-1-2h1l1 3-1 1zm0 0zm-2 1v-1l1-1 1 1zm0-1zm-2 0v-1l1 1h1c0 1-1 2-2 1l-1-2zm0-1c1 0 1 1 0 0zm-7-8h1c1 2 2 5 4 6l2 2v1l-5-5zm2-8v1h-1l-3 1v1l3 4v1h-1c0-2-2-3-3-4v-3l2-1 3-1zm0 0zm0 1v-1zm0-1z" transform="translate(0 -300)"/><path fill="#edb92e" d="M357 213c4 1 4-1 6-1-1 5-2 8-7 5-3-2-7 1-7 2-1 1-2 0-3-2-3-6 7-6 11-5z" transform="translate(0 -300)"/><path fill="#21231e" d="M364 212h-1l-3 1h-3v-1h3l3-1zm-1-1 1 1zm-7 6v-1l4 2 2-2 1-4h1l-2 5-2 2zm-7 2h-1l3-2h5l-5 1-2 2zm-3-2h1l1 2c1 0 0 0 0 0l1 1h-1l-2-2zm11-5v1l-6-1-4 2-1 2 1 1-1 1-1-4 4-2zm0 1v-1z" transform="translate(0 -300)"/><path fill="#fff" d="M459 125c3 0 6 2 6 6s-3 6-6 6-6-3-6-6 3-6 6-6z" transform="translate(0 -300)"/><path fill="#21231e" d="M466 131h-1c0-2-2-5-4-5l-2-1v-1l6 3zm-7 6v-1c2 0 4-1 5-3v-2h1a6 6 0 0 1-6 6zm-7-6h1c0 2 1 4 3 5h3v1c-2 0-5-1-6-3zm7-7v1c-2 0-4 1-5 3l-1 3h-1c0-3 1-5 3-6z" transform="translate(0 -300)"/><path fill="#fff" d="M446 125c4 0 6 2 6 6s-2 6-6 6-6-3-6-6 3-6 6-6z" transform="translate(0 -300)"/><path fill="#21231e" d="M453 131h-1c0-2-1-4-3-5l-3-1v-1c3 0 5 1 6 3zm-7 6v-1c2 0 4-1 5-3l1-2h1c0 2-1 4-3 5zm-6-6h1c0 2 1 4 3 5h2v1c-2 0-4-1-5-3zm6-7v1c-2 0-4 1-5 3v3h-1c0-3 1-5 3-6z" transform="translate(0 -300)"/><path fill="#fff" d="M434 126c3 0 6 2 6 6 0 3-3 6-6 6s-6-3-6-6c0-4 2-6 6-6z" transform="translate(0 -300)"/><path fill="#21231e" d="M440 132h-1c0-2-1-4-3-5l-2-1v-1c2 0 4 1 5 3zm-6 6v-1c2 0 4-1 5-3v-2h1c0 2-1 4-3 5zm-7-6h1c0 2 1 4 3 5h3v1c-3 0-5-1-6-3zm7-7v1c-2 0-4 1-5 3l-1 3h-1c0-3 1-5 3-6z" transform="translate(0 -300)"/><path fill="#fff" d="M422 128c4 0 6 3 6 6s-2 6-6 6c-3 0-6-3-6-6 0-4 3-6 6-6z" transform="translate(0 -300)"/><path fill="#21231e" d="M429 134h-1a6 6 0 0 0-6-6v-1c3 0 5 1 6 3zm-7 7v-1c2 0 4-2 5-3l1-3h1c0 2-1 4-3 5l-4 1zm-6-7h1c0 2 1 4 3 5h2v1c-2 0-4-1-5-3zm6-7v1c-2 0-4 1-5 3v3h-1c0-3 1-5 3-6z" transform="translate(0 -300)"/><path fill="#fff" d="M346 159c4 0 6 3 6 7 0 3-2 6-6 6s-6-3-6-6c0-4 3-7 6-7z" transform="translate(0 -300)"/><path fill="#21231e" d="M353 166h-1c0-2-1-4-3-5l-3-1v-1c3 0 5 1 6 3zm-7 6v-1c2 0 4-1 5-3l1-2h1c0 2-1 4-3 5zm-6-6h1c0 2 1 4 3 5h2v1c-2 0-4-1-5-3zm6-7v1c-2 0-4 1-5 3v3h-1c0-3 1-5 3-6z" transform="translate(0 -300)"/><path fill="#fff" d="M357 153c3 0 6 3 6 6s-3 6-6 6-6-2-6-6 2-6 6-6z" transform="translate(0 -300)"/><path fill="#21231e" d="M364 159h-1c0-2-2-4-3-5l-3-1v-1l6 3zm-7 7v-1c2 0 4-2 5-3l1-3h1l-3 6zm-7-7h1c0 2 1 4 3 5l3 1v1l-6-3zm7-7v1c-2 0-4 1-5 3l-1 3h-1c0-3 1-5 3-6z" transform="translate(0 -300)"/><path fill="#fff" d="M369 147c3 0 6 3 6 6 0 4-3 7-6 7s-6-3-6-7c0-3 2-6 6-6z" transform="translate(0 -300)"/><path fill="#21231e" d="M375 153h-1c0-2-1-4-3-5h-2v-1c2 0 4 1 5 3zm-6 7v-1c2 0 4-1 5-3v-3h1c0 3-1 5-3 6zm-7-7h1c0 2 1 4 3 5l3 1v1c-2 0-5-1-6-3zm7-6v1c-2 0-4 1-5 3l-1 2h-1a6 6 0 0 1 7-6z" transform="translate(0 -300)"/><path fill="#fff" d="M338 170c4 0 6 2 6 6 0 3-2 6-6 6s-6-3-6-6c0-4 3-7 6-7z" transform="translate(0 -300)"/><path fill="#21231e" d="M345 176h-1c0-2-1-5-3-5l-3-1v-1c2 0 5 1 6 3zm-7 6v-1c2 0 4-1 5-3l1-2h1a7 7 0 0 1-7 6zm-7-6h2c0 2 1 4 3 5h2v1l-6-3v-3zm7-7v1c-2 0-4 1-5 3l-1 3c0-3 1-5 3-6z" transform="translate(0 -300)"/><path fill="#edb92e" d="m409 279 22-13 23 10-22 13z" transform="translate(0 -300)"/><path fill="#21231e" d="m431 267-22 12 22-13zm0-1zm23 11-23-10v-1l24 10v1zm1-1h1l-1 1zm-23 13 22-13 1 1-22 12zm1 0-1 1zm-24-10 24 10-1 1-23-10zm0 1-1-1h1z" transform="translate(0 -300)"/><path fill="#c6363c" d="M431 271c6-1 11 2 11 6s-4 7-10 7c-6 1-10-2-11-6 0-4 5-7 10-7z" transform="translate(0 -300)"/><path fill="#21231e" d="M442 277h-1c0-2-1-3-3-4-2-2-4-2-7-2v-1c3 0 7 1 9 3zm-10 8v-1c3 0 6-1 8-3l1-4h1l-2 5c-3 2-5 3-8 3zm-11-7h1c0 2 1 3 3 4 2 2 5 2 7 2v1l-9-3zm10-8v1c-3 0-5 1-7 3l-2 4h-1c0-2 1-4 3-5 2-2 5-3 7-3z" transform="translate(0 -300)"/><path fill="#edb92e" d="m382 270 24 9-20 13c-4-2-8-19-3-22z" transform="translate(0 -300)"/><path fill="#21231e" d="m406 279-24-9 1-1 23 9zm0-1 1 1h-1zm-20 14 20-14v2l-19 13zm1 1zm-4-24v1l-1 1-1 6c0 4 1 8 3 11 0 2 1 3 3 4h-1c-2 0-3-2-4-4l-2-11 1-7zm-1 0c1 0 1 0 0 0zm1 1zm-1-1c1 0 1 0 0 0z" transform="translate(0 -300)"/><path fill="#0c4076" d="M383 274c6 0 10 2 11 6 0 4-4 8-10 8-3 0-6-3-6-6-1-4 1-7 5-8z" transform="translate(0 -300)"/><path fill="#21231e" d="M394 280h-1c0-2-1-3-3-4l-7-1v-1c3 0 6 0 8 2 2 1 3 2 3 4zm-10 8v-1c3 0 6-1 8-3l1-4h1l-2 5c-2 2-5 3-8 3zm-7-6h1c1 2 1 4 3 5h3v1c-2 1-3 0-4-1zm6-8v1l-4 2-1 5h-1l2-7z" transform="translate(0 -300)"/><path fill="#fff" d="M458 280c1 0 3 2 3 4 0 1-2 3-4 3s-3-2-3-4c0-1 2-3 4-3z" transform="translate(0 -300)"/><path fill="#21231e" d="M461 284h-1l-2-3h-1v-1c2 0 3 1 3 2zm-4 3v-1l3-1v-1h1l-1 3h-2zm-3-3h1l2 2h1v1l-3-1zm4-4v1l-3 2v1h-1c0-2 0-3 2-3z" transform="translate(0 -300)"/><path fill="#fff" d="m409 283 3 3c0 2-2 4-3 4s-4-2-4-4c0-1 2-3 4-3z" transform="translate(0 -300)"/><path fill="#21231e" d="M412 286h-1l-1-2h-1v-1l3 1zm-3 4v-1l2-2v-1h1l-1 3zm-4-4h1l2 3h1v1c-2 0-3-1-3-2zm4-3v1l-3 1v1h-1l2-3z" transform="translate(0 -300)"/><path fill="#fff" d="M407 268c2 0 3 2 3 4s-1 3-3 3-3-2-3-4 1-3 3-3z" transform="translate(0 -300)"/><path fill="#21231e" d="M411 272h-1l-2-3h-1v-1l3 1 1 2zm-4 3v-1l3-2h1l-2 3zm-4-4h1c0 2 1 3 2 3h1v1l-3-1-1-2zm4-3v1l-2 1-1 1h-1l2-3z" transform="translate(0 -300)"/><path fill="#fff" d="M457 266c2 0 4 2 4 3 0 2-2 4-4 4-1 0-3-2-3-4z" transform="translate(0 -300)"/><path fill="#21231e" d="M461 269h-1l-2-2h-1v-1l3 1zm-4 4v-1l3-2v-1h1l-2 4zm-3-4h1l1 3h1v1l-3-2zm3-3v1l-2 1v1h-1l1-3z" transform="translate(0 -300)"/><path fill="#edb92e" d="M371 237c2 0 6 5 7 5 1-3-1-11-5-16-3-1-4-3-4-8-1-1-3 0-3 2v8c4 2 5 4 5 9z" transform="translate(0 -300)"/><path fill="#21231e" d="M378 242h1-1l-3-2-3-2-1-1 4 2 3 2zm1 0h-1zm-7-16 1-1 1 2c2 3 4 7 4 11l1 4h-1l-1-5zm1-1zm-5-6h1l1 5 3 1-1 1-3-2zm-2 1 2-3 1 1-1 1c0-1 0 0 0 0l-1 1zm1 6h-1v-6h1zm-1 2-1 1v-1l1-2h1l-1 3zm-1 1v-1zm5 8h1-1c1-2 1-4-1-6l-4-2 1-1 5 4v5zm1 0h-1zm-1 0h1l-1 1z" transform="translate(0 -300)"/><path fill="#edb92e" d="m369 219-1 3 1 3 3 3 3 3 1 4 2 7h3l-1-3-2-3v-4l1-2c0-2-2-6-4-6s-3-1-5-4l-1-2z" transform="translate(0 -300)"/><path fill="#21231e" d="M369 222h-1v-4l1 1zm1 3h-1l-1-3h1zm3 2-1 1-3-3h1l2 2zm2 3-1 1-2-3 1-1 2 4zm1 5h-1l-1-4 1-1zm2 6v1c-2 0-2-2-2-3l-1-4h1l1 5 1 2zm2 1h1l-1 1-2-1v-1h2zm1 0h-1zm-2-2 1-1 1 3h-1zm-1-4h1l1 3-1 1zm1 0zm-2-3h2v2l-1 1v-4zm2-3h1l-1 3h-1zm-4-5v-1l3 2 2 4h-1l-3-5zm-5-4 1-1 2 3h2v1l-4-1zm-1-2-1-1h1l1 2v1l-2-2zm-1-1h1zm1 1zm-1-1h1z" transform="translate(0 -300)"/><path fill="#edb92e" d="m360 227 2-1h4c6 2 8 11 2 14l-4-3c-1-4-2-6-4-7z" transform="translate(0 -300)"/><path fill="#21231e" d="M362 226v1l-2 1v-1l2-2zm4-1v1h-4zm2 15v-1l3-3c0-2 0-5-2-6 0-2-1-3-3-3v-1c2 0 4 2 5 4l1 7c-1 1-2 3-4 3zm0 0zm-4-3 1-1 2 3h1v1c-1 1-2 0-3-1zm0 0zm-4-7h1l4 6-1 1c-1-2-2-5-4-6zm0 0zm0-3v1l1 2h-1l-1-3zm0 0zm0 1v-1zm0 0z" transform="translate(0 -300)"/><path fill="#edb92e" d="M363 228c5-2 9 8 4 10-2 1-3-3-3-4-1-3-6-4-1-6z" transform="translate(0 -300)"/><path fill="#21231e" d="M367 238v-1l2-1-1-4-2-3-3-1v-1h2l3 3 2 5-2 3zm-4-4h1l1 3 1 1h1-2l-2-2zm0-7v1l-2 1v1l3 3v1h-1l-2-2-1-2 1-2z" transform="translate(0 -300)"/><path fill="#0c4076" d="M363 229c3-1 7 5 3 7-2 1-4 0-4-2-1-2 0-4 1-5z" transform="translate(0 -300)"/><path fill="#21231e" d="m367 236-1-1 1-1v-2l-2-2h-1l-1-1h2l2 2 1 3zm-6-2h1l2 2 2-1 1 1h-3c-2 0-2-1-3-2zm2-5 1 1-2 1v2l-1 1v-4zm1 0h-1z" transform="translate(0 -300)"/><path fill="#fff" d="M400 180c4 0 6 2 6 6s-2 7-6 7c-3 0-6-3-6-7s3-6 6-6z" transform="translate(0 -300)"/><path fill="#21231e" d="M407 186h-1c0-2-1-4-3-5l-3-1v-1c2 0 5 1 6 3zm-7 7v-1c2 0 4-1 5-3l1-3h1c0 2-1 5-3 6zm-7-7h1c0 2 1 4 3 5l3 1v1l-6-3zm7-7v1c-2 0-4 1-5 3l-1 3h-1a7 7 0 0 1 7-7z" transform="translate(0 -300)"/><path fill="#fff" d="M395 169c4 0 7 3 7 6 0 4-3 7-7 7-3 0-6-3-6-7 0-3 3-6 6-6z" transform="translate(0 -300)"/><path fill="#21231e" d="M402 175h-1c0-2-1-4-3-5h-2v-1l6 3 1 3zm-7 7v-1c3 0 5-1 6-3v-3h1c0 3-1 5-3 7l-3 1zm-6-7h1c0 3 1 5 3 6h2v1c-2 0-4-1-5-3l-1-3zm6-7v1c-2 0-4 2-5 4v2h-1l3-6z" transform="translate(0 -300)"/><path fill="#fff" d="M411 132c3 0 6 2 6 6s-3 6-6 6-7-3-7-6 3-6 7-6z" transform="translate(0 -300)"/><path fill="#21231e" d="M417 138h-1c0-3-1-5-3-5l-2-1v-1c2 0 4 1 5 3zm-6 6v-1c2 0 4-1 5-3v-2h1c0 2-1 4-3 5zm-7-6h1c0 2 1 4 3 5h3v1c-3 0-5-1-6-3zm7-7v1c-2 0-4 1-5 3l-1 3h-1c0-3 1-5 3-6z" transform="translate(0 -300)"/><path fill="#fff" d="M400 136c4 0 7 3 7 7 0 3-3 6-7 6-3 0-6-3-6-6 0-4 3-7 6-7z" transform="translate(0 -300)"/><path fill="#21231e" d="M407 143h-1a6 6 0 0 0-6-6v-1c3 0 5 1 6 3l1 3zm-7 7v-1c2 0 5-2 6-4v-2h1l-3 6zm-7-7h1c0 2 2 4 4 5h2v1l-6-3zm7-7v1c-2 0-4 1-5 3v3h-1c0-3 1-5 3-6z" transform="translate(0 -300)"/><path fill="#fff" d="M393 145c3 0 6 3 6 7 0 3-3 6-6 6s-6-3-6-6c0-4 3-7 6-7z" transform="translate(0 -300)"/><path fill="#21231e" d="M400 152h-1c0-3-2-5-4-6h-2v-1l6 3zm-7 7v-1c2 0 4-2 5-4l1-2h1c0 2-2 4-4 6zm-7-7h1c0 2 1 4 3 5h3v1c-2 0-5-1-6-3zm7-7v1c-2 0-4 1-5 3l-1 3h-1a7 7 0 0 1 7-7z" transform="translate(0 -300)"/><path fill="#fff" d="M392 157c3 0 6 2 6 6s-3 7-7 7-6-3-6-7 3-6 6-6z" transform="translate(0 -300)"/><path fill="#21231e" d="M398 163h-1c0-2-1-4-3-5l-3-1v-1c3 0 5 1 7 3l1 4zm-7 7v-1c3 0 5-1 6-3v-3h1c0 3-1 5-3 6l-3 1zm-6-7h1c0 2 1 4 3 5l3 1v1c-3 0-5-1-6-3zm6-7v1c-1 0-4 1-5 3v3h-1c0-2 1-5 3-6z" transform="translate(0 -300)"/><path fill="#edb92e" d="M474 198c-2-5-5-8-8-10 4-13 5-30 2-51 0-3-1-4-2-4l-2 5 2 30-5 21 4 4 5 5z" transform="translate(0 -300)"/><path fill="#21231e" d="M465 188h2c3 2 6 6 8 10-1 1-1 0-2-1-2-3-4-7-7-8zm1 1zm2-52 1 2c2 14 2 29-1 43l-2 7v-2c4-14 4-28 3-42zm0 0zm-2-4 1-1c2 1 2 3 2 5-1 1-1 0-1-1s0-3-2-3zm-1 5-1-1c0-2 0-3 2-4 0-1 1 0 0 0l-1 3zm-1 0zm2 30-1-1c1-10 0-19-1-29l1 2c1 9 2 19 1 28zm-4 21c-1 1-1 0-1-1 2-7 4-13 4-20l1 1c0 7-2 14-4 21zm3 4h-1l-3-3h1l4 2zm1 0zm4 5h-1c0-2-2-4-4-5h2l4 5zm0 1zm1-2v2l-1-1zm4 1c-2 0-1-1 0 0l-2 1h-2l2-1zm-1 0c-1-1 1-1 0 0zm0 0c1 0 0 0 0 0z" transform="translate(0 -300)"/><path fill="#edb92e" d="m458 215 3-2v-3c-1-6 3-5 6-3l5 6 3 2v9l-3 2-5 5c-3 3-7 3-6-2v-3l-3-2-2-2v-5z" transform="translate(0 -300)"/><path fill="#21231e" d="M460 213c2 0 1 1 0 1h-2zm1-3c1-1 1 2 1 2 0 1-1 2-2 1zm6-3c0 2-2-1-3-1s-3 1-2 2l-1 2c0-2-1-4 1-5zm5 5c0 2-1 0-2-1l-3-3c0-2 2 0 2 1zm4 3h-1l-3-2 2 1zm0 0zm0 4c-2 1-1-2-1-3 0 0 0-2 1-1zm-1 0zm0 0zm0 0zm1 5h-1v-5c2 0 0 2 1 3zm0 0zm-4 3c-1-1 1-2 2-3h1zm-5 5c-1-1 1-2 2-3l3-3c1 1-1 2-1 3zm-6-3 1 3h2l3-1c1 1-1 2-2 2l-4 1zm-1-3c1-1 2 1 2 2l-1 1zm-2-1c0-2 2 0 3 0l-1 1zm1-1zm-3-2c1-1 1 1 2 2h-1zm-1-3c2 0 1 2 1 3-1 1-1-1-1-2zm1-2v3l-1-3zm2-3c1 1 0 2-1 3h-1zm1 1z" transform="translate(0 -300)"/><path fill="#21231e" d="M476 220v1l-10 4zm0-1v-1c-4-1-7-2-10-5 2 3 6 5 10 6z" transform="translate(0 -300)"/><path fill="#edb92e" d="m461 207 4 2c1 2 0 4-2 7l-1 3 1 4c2 2 3 5 2 7l-4 2v-6l-2-2-3-2v-5l3-2 2-2z" transform="translate(0 -300)"/><path fill="#21231e" d="m465 209-1 1-3-2v-1zm-1 7h-1l2-5-1-1 1-1v3l-2 4zm-1 3h-1l1-3zm1 4h-1l-1-3h1v3zm1 7-1-1v-3l-1-3c2 1 3 3 3 5zm-4 2 1-1h-1l3-2 1 1zm0 0s0 1 0 0c-1-1 0 0 0 0zm0-3h1v3h-1zm-1-3 1-1 1 5-1-1zm-2-1 1-1 2 1-1 1-1-1zm0 0s0-1 0 0zm-2-3h1l2 2-1 1zm0 0v1zm-1-3h1v3zm1-2h1v3h-1zm2-3 1 1-2 2h-1zm3-1v1l-2 1h-1l1-1 1-1zm0-3h1l-1 4zm0-2v-1l1 1v2h-1v-3zm0-1h1zm0 0v1zm-100 19h1c-2-2-2-4-2-6-1 1-1 4 1 6z" transform="translate(0 -300)"/><path fill="#edb92e" d="m411 200 2 3h3c5-2 5 2 4 6l-4 6-1 4h-4l-4 1-3-3-6-5c-3-3-4-7 0-7l3-1 1-3 1-3h5z" transform="translate(0 -300)"/><path fill="#21231e" d="m413 202-1 1-1-2v-1h1zm-1 1zm4-1v1h-4l1-1zm4 7-1-1v-5l-1-1-2 1v-1h4l1 4zm-4 6h-1l4-6h1zm-1 4-1-1 1-3 1 1zm0 0zm-4 1v-1l4-1-1 1zm0 0zm0 0v-1c0 1 0-1 0 0zm0-1zm-4 1v-1h4v1zm0 0zm-3-3h1l2 2-1 1-2-2zm-6-4 1-1 5 4v1zm0-8v1l-2 1 1 2 2 3h-1c-1-1-3-3-3-5l1-2zm3-1v1l-3 1v-1zm0 0zm0-3 1 1v2h-1zm2-3v1l-1 2h-1zm0 1 1-1zm2-2v1l-2 1v-1zm0 1s-1 0 0 0zm3-1-1 1h-2v-1zm3 3h-1l-1-1-1-1v-1zm0 0zm-1 0h1zm0 0z" transform="translate(0 -300)"/><path fill="#21231e" d="M410 219h-1c-1-3-3-7-6-9 3 1 6 5 7 9zm1 0h1c0-4 0-7 2-11-2 3-3 7-3 11z" transform="translate(0 -300)"/><path fill="#edb92e" d="m418 202-1 4c-1 2-3 2-6 0l-4-1-3 2c-1 2-3 4-5 2l-3-3h2l3-1 1-3 1-3 3-1h2l3 2 2 2z" transform="translate(0 -300)"/><path fill="#21231e" d="m418 207-1-1 1-4h1zm-8-1 1-1 4 2 2-1 1 1-3 1-4-2zm-2 0-1-1h4v1zm-3 1-1-1 3-1v1zm-6 3v-1h3l2-3 1 1-3 3-3-1zm-3-5 1 1s0-1 0 0l2 3-3-3zm0 1v-1zm3-1v1h-2l-1-1zm2-1 1 1-3 1v-1zm0 0zm0-3 1 1v3l-1-1zm2-3 1 1-2 3-1-1zm0 0zm2-1 1 1-2 1-1-1zm0 0zm3 0v1h-2l-1-1zm0 1zm3 2h-1l-2-2v-1zm2 2-1 1-1-2v-1s0-1 0 0zm-1 1zm4-1v1h-4l1-1zm3 0h-1v1h-2v-1zm-1 0h1z" transform="translate(0 -300)"/><path fill="#edb92e" d="m392 221 1-1-1-3c-2-5 0-5 4-3l3 2 2 3 3 1 2 5 2 4-2 2-2 4-3 3c-1 0-2-1-2-4 0-2-1-3-2-3l-2-2-2-2-1-2-1-2z" transform="translate(0 -300)"/><path fill="#21231e" d="M393 220h1l-2 2v-1zm1 0zm-2-3h1v3zm4-3-1 1-3-1v3l-1-4h2zm3 2-1 1-3-2 1-1zm2 2v1l-3-2 1-1zm4 2-1 1h-1l-2-2 1-1 2 2zm0 0zm1 5h-1l-1-4h1zm0 0zm0 0s-1 0 0 0c-1 0 0 0 0 0h-1l1-1v1-1c1 1 0 1 0 0v1-1zm0-1zm2 5h-1v-1l-1-3h1zm0 0zm-2 2h-1l2-2h1l-1 2zm-2 5-1-1 2-4h1zm-4 3 1-1 2-2h1l-3 3zm-2-5h1l1 4h1l-1 1-2-3zm-1-3h1l1 3h-1zm-2-1v-1l3 2h-1zm-3-2h1l2 1v1l-2-2zm-1-2h1l1 2h-1zm0-3h1v2l-1 1zm1 0c0 1 0 1 0 0zm0-1v-1 3l-1-1 1-2zm0-1h1l-1 1zm0 0v1zm0 1h-1l1-1z" transform="translate(0 -300)"/><path fill="#21231e" d="M407 226v1l-4 2-2 3 2-4zm-1-2v-1l-5-1-5-2 5 3z" transform="translate(0 -300)"/><path fill="#edb92e" d="m391 214 3 2 2 3-1 3 1 4 2 4c2 2 4 5 3 6l-1 2-2-2-1-4-2-2-3-1c-1-1-3-5-1-7s2-3 1-6z" transform="translate(0 -300)"/><path fill="#21231e" d="m395 215-1 1-3-2v-1zm1 3h-1l-1-2 1-1zm0 4h-1v-3h1v4zm-1 0zm1 4h-1v-4h1zm2 3-1 1-2-4h1zm4 7h-1l-1-3-2-3v-1l4 5zm-3 2h1v-1l1-1h1l-2 2zm1 0h-1zm-2-2h1l1 2h-1zm-1-4 2 3-1 1zm0 0zm-2-2v-1l2 3c1 0 0 0 0 0h-1zm-3-1 1-1 2 1v1h-1zm-1-8v4l2 3-1 1-2-5zm0-5h1l1 4-2 2v-1l1-3zm0-3v1h1v2h-1zm0 1v-1zm0 0v-1zm0-1z" transform="translate(0 -300)"/><path fill="#edb92e" d="m434 226-2 2v3c2 5-1 4-5 3l-5-5-3-1-1-5-1-4 3-3 3-6c3-3 6-4 6 2l1 3 3 1 2 2 1 3v3z" transform="translate(0 -300)"/><path fill="#21231e" d="m433 228-1-1 2-1v1zm0 3h-1v-3h1zm-6 3 1-1c1 1 2 2 3 1l1-1v-2h1v4h-4zm-5-4 1-1 5 4-1 1-5-5zm0-1zm-4-1c1 0 2 0 1-1l3 1v1h-1l-2-1zm1 0zm-1-4v-1l1 1 1 4h-1zm0-1c1 0 1 1 0 0zm0 0h1-1v1zm1 0zm-2-4h1l1 4h-1zm0 0zm2-3 1 1-2 2h-1l2-2zm4-6v1l-3 6-1-1zm7 2h-1l-1-3h-2l-2 2-1-1 4-3 2 2zm1 3-1 1-1-4h1zm0 0zm2 1-1 1-2-1 1-1zm3 2-1 1-3-2 1-1zm-1 1s0 1 0 0zm1 2h-1v-2h1zm0 3s-1 0 0 0l-1-3h1zm-1 3-1-1 1-2h1l-2 3z" transform="translate(0 -300)"/><path fill="#21231e" d="M418 223v-1c3-1 6-3 8-6-2 3-5 6-8 7zm0 1v1c4 0 7 1 10 3-2-2-6-4-10-4z" transform="translate(0 -300)"/><path fill="#edb92e" d="m433 233-4-1c-1-1-1-4 1-7v-3l-2-4c-2-2-3-4-2-6l3-3v3l1 3 3 1 2 2 1 3v3l-2 2-2 2v3z" transform="translate(0 -300)"/><path fill="#21231e" d="m429 232 1-1 3 2v1zm0-7 1 1-1 4 1 1-1 1-1-3zm0-3h1v4l-1-1zm-1-3 1-1 1 4h-1zm0 0zm-3-8 1 1 1 3 2 3-1 1c-1-1-3-3-3-5v-2zm4-2h-1l1 1-3 2h-1zm0 0s0-1 0 0zm1 3h-1l-1-3h1zm1 3-1 1-1-4h1zm2 1-1 1-2-1 1-1 1 1zm3 2-1 1-3-2 1-1zm-1 1s0 1 0 0zm1 2h-1v-2l1-1zm0 3-1-3h1zm-1 3-1-1 2-2h1zm-2 1h-1l2-2v1c1 0 0 0 0 0zm0 3-1 1v-4h1zm0 3v-1h-1v-1l1-1zm0 0s0 1 0 0c-1 0 0 0 0 0zm0 0zm0 0s0 1 0 0c-1 0 0 0 0 0z" transform="translate(0 -300)"/><path fill="#edb92e" d="M411 216c4 0 8 4 8 8 1 4-2 8-6 8s-7-3-8-7 1-8 6-8z" transform="translate(0 -300)"/><path fill="#21231e" d="M420 224h-1c-1-3-3-6-7-7h-1v-1c2 0 5 1 7 4zm-7 8v-1l5-2v-5h1c1 2 0 5-2 7zm-9-7 1-1c1 4 3 6 6 7h2v1c-3 0-6-1-8-4zm6-9v1l-4 3-1 4-1 1c0-3 0-5 2-7z" transform="translate(0 -300)"/><path fill="#edb92e" d="M411 219c3-1 6 2 6 5 1 3-1 6-4 6s-6-2-6-5 1-6 4-6z" transform="translate(0 -300)"/><path fill="#21231e" d="M418 224h-1l-5-5h-1v-1c2 0 4 1 5 3zm-5 6v-1c1 0 2 0 3-2l1-3h1l-2 5zm-7-5h1c1 2 2 4 5 4h1v1c-2 0-5-1-6-3l-1-3zm5-7v1l-3 2-1 3h-1c0-1 0-3 2-4z" transform="translate(0 -300)"/><path fill="#0c4076" d="M411 221c2 0 4 1 4 3s-1 4-3 4-3-2-4-4c0-2 2-3 3-3z" transform="translate(0 -300)"/><path fill="#21231e" d="M416 224h-1l-3-3h-1v-1l4 2zm-4 4v-1l2-1 1-2h1l-1 4zm-4-3 1-1c0 2 1 3 3 3v1c-1 0-2 0-3-2zm3-4h1-1l-2 1v2l-1 1 1-4 2-1zm1 0h-1zm0 0h-1v-1zm-1 0v-1z" transform="translate(0 -300)"/></g><path fill="#fff" d="M482-117a7 7 0 1 1 0 14c-4 0-7-3-7-7s3-7 7-7z"/><path fill="#21231e" d="M490-110h-1a6 6 0 0 0-7-6v-1c3 0 5 1 6 3l1 4zm-8 7v-1c3 0 5-1 6-3l1-3h1c0 2-2 5-4 6zm-7-7h1c0 2 1 5 4 6h2v1l-6-3zm7-7v1c-2 0-4 1-5 3l-1 3h-1c0-3 2-5 4-6z"/><path fill="#fff" d="M482-129c4 0 7 3 7 7a7 7 0 1 1-14 0c0-4 3-7 7-7z"/><path fill="#21231e" d="M490-122h-1c0-2-2-5-4-6h-3v-1c2 0 5 1 6 3l1 4zm-8 7v-1c3 0 5-1 6-3l1-3h1c0 2-2 5-4 6zm-7-7h1a6 6 0 0 0 6 6v1l-6-3zm7-7v1c-2 0-4 1-5 3l-1 3h-1c0-3 2-5 4-6z"/><path fill="#fff" d="M482-140c4 0 7 3 7 7s-3 6-7 6-7-3-7-7c0-3 3-6 7-6z"/><path fill="#21231e" d="M490-133h-1c0-3-2-5-4-6l-3-1v-1c2 0 5 2 6 4l1 4zm-8 7v-1c3 0 5-1 6-4l1-3h1c0 3-2 5-4 7zm-7-7h1c0 2 1 4 3 5l3 1v1c-2 0-5-2-6-4l-1-4zm7-8v1c-2 0-4 2-5 4l-1 3h-1c0-3 1-5 3-7z"/><path fill="#fff" d="M482-173c4 0 7 3 7 7a7 7 0 0 1-14 0c0-4 3-7 7-7z"/><path fill="#21231e" d="M490-166h-1c0-2-2-5-4-6h-3v-1c2 0 5 1 6 3l1 4zm-8 7v-1c3 0 5-1 6-3l1-3h1c0 2-2 5-4 6zm-7-7h1a6 6 0 0 0 6 6v1l-6-3zm7-7v1c-2 0-4 1-5 3l-1 3h-1c0-3 2-5 4-6z"/><path fill="#fff" d="M482-163c4 0 7 3 7 7a7 7 0 1 1-14 0c0-4 3-7 7-7z"/><path fill="#21231e" d="M490-156h-1c0-2-2-5-4-6h-3v-1c3 0 5 1 7 3zm-8 7v-1c3 0 5-1 6-3l1-3h1c0 3-2 5-4 6zm-7-7h1a6 6 0 0 0 6 6v1l-6-3zm7-7v1c-2 0-4 1-5 3l-1 3h-1c0-2 2-5 4-6z"/><path fill="#fff" d="M482-152c4 0 7 3 7 7a7 7 0 1 1-14 0c0-4 3-7 7-7z"/><path fill="#21231e" d="M490-145h-1c0-2-2-5-4-6h-3v-1c2 0 5 1 6 3l1 4zm-8 7v-1c3 0 5-1 6-3l1-3h1c0 3-2 5-4 6zm-7-7h1a6 6 0 0 0 6 6v1l-6-3zm7-7v1c-2 0-4 1-5 3l-1 3h-1c0-2 2-5 4-6z"/><path fill="#edb92e" d="m487-104 1 2h4c5-1 4 3 2 6l-5 5-2 4h-9l-2-4-6-5c-2-3-3-7 3-6h3l1-3 2-2h6l2 2z"/><path fill="#21231e" d="M489-102h-1l-2-2 2-1 1 2zm-1 0zm4 0v1l-4-1zm2 7v-1l1-4-2-1h-1v-1h4v4zm-5 5v-1l5-5v1zm-2 3v-1l1-2 1-1v1zm0 0zm-5 0v-1h5v1zm0-1zm0 0v1zm0 0zm-5 1 1-1h4v1h-4zm1 0zm-3-3 1-1 2 3-1 1-1-2zm-5-5 1-1 5 5-1 1zm3-7-1 1h-2v3l1 2h-1l-2-4c0-1 1-2 3-2zm3-1v1l-3 1v-1zm1-2 1 1-2 2v-1zm0 0zm2-2 1 1-2 2-1-1zm3-1v1h-2s-1 0 0 0zm3 1-1 1h-2l1-1zm0 0zm2 3v-1h-1l-1-1v-1l3 2zm1-1v1l-1-1zm-1 0v1zm0 1v-1z"/><path fill="#21231e" d="M481-87h-1c0-4-2-7-4-10 3 2 5 6 5 10z"/><path fill="#edb92e" d="m494-102-2 4c-1 1-4 0-6-2l-4-1-3 1c-3 2-5 3-7 2l-2-4h6l1-3 2-2h6l2 2 1 3z"/><path fill="#21231e" d="m493-98-1-1 2-3 1 1zm-8-1 1-1 4 2 2-1v1l-3 1zm1-1zm-4 0v-1l4 1-1 1zm-3 1-1-1 4-1v1h-3zm-7 1v-1l3 1 3-2 1 1-5 2zm-2-4v1h1l1 3-2-3zm0 1v-1zm3-1-1 1h-2v-1zm3 0-4 1 1-1zm0 0c0 1 0 1 0 0zm1-3 1 1-1 2h-1s-1 0 0 0l1-2zm2-2 1 1-2 2-1-1zm3 0v1h-2l-1-1zm3 0v1h-3v-1zm0 0zm2 2v1l-2-2v-1zm2 3h-1l-1-2c-1 0 0 0 0 0h1zm-1 0zm4 0v1l-4-1zm3 1-1-1v1h-2v-1h2zm-1-1h1zm0 0c1 1 1 1 0 0zm0 0h1z"/><use xlink:href="#a"/><path fill="#21231e" d="M483-87h1c0-4 2-7 4-10z"/><use xlink:href="#b" width="100%" height="100%" transform="matrix(-1 0 0 1 964 0)"/><path fill="#edb92e" stroke="#21231e" d="M577-6c2 0 3 1 3 2 0 2-1 3-3 3l-2 1c-60 5-125 5-186 0l-2-1c-2 0-3-1-3-3 0-1 1-2 3-2l2-1c60-5 125-5 186 0z"/><path fill="#21231e" d="M412-2v-1h4l20-1c0 2-3 1-4 1l-11 1h15c0 3-2 1-4 1zm0 0zm47-3c0 2-2 1-4 1l-19 1c-1-2 2-1 3-1zm23 0c1 2-2 1-3 1h-20c-1-2 2-1 3-1zm24 0c0 2-3 1-4 1h-20c0-2 3-1 4-1zm23 1c0 2-2 1-4 1l-19-1c-1-2 2 0 3-1zm23 1 1 1-9 1-15 1c-1-2 2-1 4-2h10l-14-1c0-2 2-1 4-1zm0 1zM436-2v2zm93 2v-2zm-47-35-22 12-1-1 23-12zm0-1zm23 13-23-12v-1l23 12zm0-1h1l-1 1zm-23 11 23-11v1l-23 11zm0 1zm-22-12 22 11v1l-23-11v-1zm-1 1-1-1h1z"/><path fill="#0c4076" d="M482-31c6 0 10 3 10 7s-4 7-10 7c-5 0-10-3-10-7s5-7 10-7z"/><path fill="#21231e" d="M493-24h-1c0-3-2-4-4-5l-6-1c0-1 0-2 1-1l9 3zm-11 7 1-1c3 0 6-1 8-3l1-3h1c0 3-3 5-5 6zm-11-7h1c1 3 3 4 5 5l5 1v1c-4 0-7-1-9-3zm11-7v1c-3 0-6 1-8 3l-1 3h-1c0-3 2-5 4-6z"/><use xlink:href="#a"/><path fill="#21231e" d="M490-81h-1c0-2-1-5-4-6l-3-1v-1c3 0 6 2 7 4zm-8 9v-1c3 0 5-2 7-4v-4h2c0 3-2 6-4 8zm-8-9h1a7 7 0 0 0 7 8v1c-3 0-5-2-7-4zm8-8v1a7 7 0 0 0-7 7h-1a8 8 0 0 1 8-8z"/><path fill="#edb92e" d="M482-86c3 0 6 2 6 5 0 4-3 6-6 6s-5-2-5-6c0-3 2-5 5-5z"/><path fill="#21231e" d="M488-81h-1l-2-4-3-1v-1l6 3 1 3zm-6 7v-1c2 0 4-1 5-3v-3h1c0 2-1 5-3 6zm-6-7h1c0 2 1 4 3 5l2 1v1c-2 0-4-1-5-3zm6-6v1c-2 0-3 1-4 3l-1 2h-1c0-2 1-4 3-5z"/><path fill="#0c4076" d="M482-84c2 0 4 1 4 3s-2 4-4 4-3-2-3-4 1-3 3-3z"/><path fill="#21231e" d="M486-81h-1l-2-2-1-1v-1a4 4 0 0 1 4 5zm-4 5v-1l3-2v-2h1l-2 4zm-4-5h1c0 2 1 3 2 3h1v2l-3-2zm4-4v1l-3 2v1h-1l2-3zm0 41c-44 1-68 2-102 6l-3 1-1 3c0 1 1 3 5 3a963 963 0 0 1 202-1c3 1 5 0 5-2 1-1 0-3-2-4l-8-1c-31-3-67-5-96-5zm0 1c29 0 65 2 96 5l8 1c1 1 2 2 1 3a1002 1002 0 0 0-210 0l1-3h3c30-3 57-5 101-6z"/><path fill="#c6363c" d="M315 1v272c0 48 18 92 49 124s72 52 118 52 88-20 119-52c30-32 49-76 49-124V1Z"/><path fill="#fff" d="m313 0 1 283c2 42 19 84 49 115 3-4-7-9-9-14-28-35-40-80-38-124V3h332v280c-3 67-47 132-111 155-17 6-36 10-55 10 1 5 12 0 17 1 64-6 120-54 141-114 11-29 12-60 11-91V0Z"/><g fill="#fff" stroke="#21231e"><path d="M484 435c1 0 4 0 5-2 3-2 2-9 2-14l-4-128h-10l-3 128c-1 5-2 13 1 14 2 2 4 1 5 2z"/><path d="M500 434c-2 0-4 1-6-1-3-1-3-9-3-14l-8-128 5-1h1c9 59 13 101 19 127 1 3 3 12 0 15l-5 2z"/><path d="M518 431h-6c-2-1-2-9-4-14-6-25-10-67-19-127l5-1c15 58 20 99 31 124 1 3 4 12 2 16l-6 2z"/><path d="M537 426c-1 0-4 2-6 1-3-1-3-10-6-14-11-25-16-66-31-124l5-2 3-1c18 57 23 97 40 122 3 4 5 12 3 14-1 2-4 3-5 3zm-72 8c1 0 4 1 6-1a7227 7227 0 0 1 11-142l-6-1c-10 59-13 101-20 127-1 3-3 12 0 15l6 2z"/><path d="M446 431h6c3-1 3-9 4-14 6-25 10-67 20-127l-5-1h-1c-15 58-19 99-31 124-1 3-4 12-1 16l5 2z"/><path d="M427 426c2 0 4 2 6 1 3-1 4-10 6-14 12-25 16-66 32-124l-5-2-3-1c-18 57-24 97-41 122-3 4-5 12-3 14l5 3zm100-43h-5c-3-2-5-9-6-14-12-24-23-66-41-124l4-1 5-1c19 58 28 99 46 122 3 4 6 12 4 15l-4 2z"/><path d="m512 386-6-1c-2-1-3-9-4-14l-26-126 4-1 5-1c15 59 18 103 32 125 3 5 4 13 2 15-1 2-3 2-5 2z"/><path d="m496 388-5-1c-2-2-2-10-3-15l-11-128h9c8 59 12 103 18 127 1 5 2 13 0 15l-5 2z"/><path d="M437 383h6c2-2 4-9 6-14 12-24 23-66 40-124l-4-1-4-1c-20 58-28 99-47 122-3 4-5 12-4 15l5 2z"/><path d="m452 386 6-1c2-1 3-9 4-14l26-126-4-1-4-1c-15 59-19 103-33 125-2 5-4 13-2 15 1 2 4 2 5 2z"/><path d="m468 388 5-1c3-2 3-10 3-15l12-128h-9c-8 59-13 103-18 127-1 5-3 13-1 15l5 2z"/><path d="m484 388 5-1c2-2 1-10 1-15l-3-128h-9c-2 60-2 103-4 128 0 5-1 13 2 15l5 1h2z"/><path d="M517 348h-4c-3-1-4-9-5-14-10-23-18-65-32-123l4-1 3-1c15 57 21 99 36 121 2 4 4 12 3 15-1 2-3 2-4 2z"/><path d="M505 351c-1 0-3 1-4-1-2-1-3-9-4-14l-20-126 4-1h3c12 58 14 102 25 125 2 4 3 12 2 14l-4 3z"/><path d="m493 353-4-1c-2-2-2-10-2-15l-9-127 3-1h4c6 59 10 103 14 127 0 5 2 13 0 15l-4 2z"/><path d="M448 348h4c2-1 4-9 5-14 9-23 17-65 31-123l-4-1-3-1c-15 57-21 99-36 121-2 4-4 12-3 15 1 2 3 2 4 2z"/><path d="M459 351c1 0 3 1 4-1 3-1 3-9 4-14l20-126-3-1h-4c-11 58-14 102-25 125-2 4-3 12-1 14l3 3z"/><path d="m471 353 4-1c2-2 2-10 3-15l9-127-4-1h-4l-13 127c-1 5-2 13-1 15l4 2z"/><path d="m483 353 4-1c2-2 1-10 1-15l-2-128h-7l-3 128 1 15 4 1z"/><path d="M475 259v14l-11 2c0 5 12 56 18 56s18-51 18-56l-10-2-1-14-7 8z"/></g><g id="d" transform="translate(0 -300)"><path fill="#edb92e" stroke="#21231e" d="M412 585c-3 0-7 2-18 12-5 10-10 20-17 29l-6 3h-17c-5-4-12-2-9 3-2 1 2 8 5 5 3-2 13 0 16-1-1 3-10 5-17 5-5 0-5 6-3 11h2c2 4 8 4 8 0s14-9 16-12l-11 17c-3 3-5 4-1 10 4 0 5-1 7 1 6 0 7-2 6-7s3-14 5-17c1-2 1-5 3-6 2-2 12-8 15-6 5 2 9 1 9-4-1-1 0-8-4-8-2-1-4 0-7 2-4 4-6 6-7 5-3-1 6-5 14-15 11-15 12-22 11-27z"/><use xlink:href="#c" width="100%" height="100%" transform="matrix(-1 0 0 1 802 0)"/><path fill="#edb92e" stroke="#21231e" d="M345 635c-4-3-6-3-8-1-1 1-2 1-1-1 3-6 7-7 11-4l2 2c0 2-3 3-4 4zm58-6c4-3 8-4 10-2 1 1 3 0 1-1-4-6-9-7-13-3l-3 3zm-34 36c0-1-1-6-3-7l-4 3c-4 5-4 11 3 17 1 1 2 0 1-2-1-3 1-6 3-11zm-16-14c-4 2-6 4-6 6s-1 2-1 1c-5-12 0-14 7-13z"/><path fill="#21231e" d="m384 621 1 1v1l2 2-1 1-2-2zm7 1-1 1-3-2h-1l-1 1-1-1 1-1h3l2 2z"/><path fill="#21231e" d="M387 618h1v2l2 2v1l-3-3v-3zm7 0-1 1-2-2h-2l-1 1h-1l2-2h2z"/><path fill="#21231e" d="M391 613h1v3l2 2-1 1-2-3zm7 1-1 1-3-3h-1l-1 1h-1l2-2h2l2 2z"/><path fill="#21231e" d="M395 608h1v3l2 3-1 1-2-4zm7 1-1 1-2-3h-2l-1 1h-1l2-2h2l2 2z"/><path fill="#21231e" d="M399 603h1v3l2 3h1l-1 1c-2-1-3-2-3-4zm8 1-1 1-3-3h-1l-2 1h-1l2-2h2l3 2z"/><path fill="#fff" stroke="#21231e" d="m463 581-10-6c-4 3-7 14 0 22 9 11 12 19 14 28 6-8 9-16 5-25-6-11-9-17-9-20z"/><path fill="#fff" stroke="#21231e" d="m470 573-9-5c-4 3-13 13-6 22 9 10 18 19 20 27 6-8 8-16 5-24-6-11-10-17-10-20z"/><path fill="#fff" stroke="#21231e" d="m449 569-9-5c-4 3-7 13 0 22 8 11 12 19 14 28 6-8 8-17 4-25-5-11-9-17-9-20z"/><path fill="#fff" d="m406 469-2 75c-1 8-4 13-8 17-4-5-6-12-6-20v-70c7-17 12-17 15-2z"/><path fill="#21231e" d="M404 544c-2 0 0-2-1-3a3267 3267 0 0 0 1 3zm-9 17 2-2c4-4 6-10 6-15 2-1 1 1 1 2-1 6-3 12-8 15zm1 0zm-7-19c2-1 1 1 1 2 1 6 3 12 6 16-1 2-1-1-2-1-3-6-4-12-5-17zm1-71c2 0 1 2 1 3a3697 3697 0 0 0-1-2zm0 0zm16-2c-2 1-1-1-2-2-1-3-1-6-4-8-2-1-3 1-5 3l-4 9c-2 0 0-1 0-2 2-4 3-8 7-11 1-1 4 0 5 2zm0 0z"/><path fill="#fff" d="m368 455-3 79c0 7 9 49 14 58 12-6 15-34 12-62-2-28 1-52 3-57l-1-19z"/><path fill="#21231e" d="m365 534 2-79c2 0 1 3 1 4l-2 76h-1zm1 0zm13 57c0 3-2-1-2-2l-10-36-2-19c2 0 0 3 1 4l9 42 4 12zm0 1zm12-62c2 0 1 3 1 4 1 15 1 29-3 43-1 6-4 13-10 15-1-1 2-1 3-3 6-5 7-14 9-21zm2-57c2 0 0 3 0 4-2 16-2 32-1 47v6c-2 1-1-2-1-4a220 220 0 0 1 3-52zm1 0zm-1-18v2l1 16c-2 1 0-2-1-3l-1-16zm0-1zm-25 1c-2-1 2-1 3-1h22c0 2-3 0-4 1zm-1 0zm1 0zm-1 0z"/><path fill="#fff" d="m353 468 2 80c-1 7 11 48 16 56 13-10 10-50 8-62-4-24-3-52-2-56v-21z"/><path fill="#21231e" d="m354 548-1-80c2-1 0 3 1 4l1 75h-1zm1 0zm16 56-2-2c-5-12-8-24-11-37l-4-17c2-1 1 2 2 4a208 208 0 0 0 16 52zm0 1zm8-63c2-1 1 3 1 4 2 14 2 29-1 43-1 5-3 11-8 15-1-1 2-2 2-3 5-8 6-17 7-25 1-12 1-23-1-34zm-2-57c2 0 0 3 1 4a255 255 0 0 0 2 53c-2 0-1-3-2-4-2-16-3-33-2-49zm1 0zm-1-20v2l1 18c-2 1-1-2-1-3l-1-17zm0-1zm-24 4c0-2 3-1 4-1l20-3c0 2-3 1-4 2zm0 0zm0-1zm0 1z"/><path fill="#fff" d="m342 487 21-1c-2 9 0 36 3 56 4 20 8 70-12 82-12-27-3-52-9-75-5-25-6-45-3-62z"/><path fill="#21231e" d="M363 487h-21c0-2 3 0 4-1h17zm0-1zm4 56c-2 1-1-2-2-4a255 255 0 0 1-2-52c2 0 0 3 0 4-1 15 1 29 3 44l1 9zm-13 82 3-3c7-6 9-16 11-25 2-17 1-35-2-52a174 174 0 0 1 2 54c-1 9-4 19-11 25-1 0-2 2-3 1zm1 0zm-10-75c1-1 1 2 1 3 4 19 0 37 4 56 1 5 2 10 5 15-2 1-2-2-3-3-6-14-5-30-5-45 0-9 0-18-2-26zm0 0zm-3-63v4c-2 20 0 39 4 59-2 0-1-3-2-4-4-19-6-39-2-59zm0 1zm0 0zm0 0z"/><path fill="#fff" d="m422 454-4 75c-1 8-4 14-8 17-4-5-6-12-6-20l3-70c7-17 12-17 15-2z"/><path fill="#21231e" d="M419 529c-2 0-1-2-1-3a3263 3263 0 0 0 1-7zm-10 17 1-2c5-4 7-9 8-15v3c-1 5-4 11-8 14zm1 0zm-7-20c2 0 1 2 2 3 0 6 2 11 5 16-1 2-2-1-2-1-3-6-4-12-5-18zm4-70v3l-3 66a3837 3837 0 0 1 2-69zm0 0zm16-2c-2 1-1-1-2-2l-4-8c-2-1-4 1-5 3l-5 9c-2 0 0-1 1-2 1-4 3-8 6-11 2-1 5 0 5 2zm0 0zm-1 0zm1 0z"/><path fill="#fff" d="m385 407-1 63c0 8 4 17 7 22 4-3 8-8 8-16l1-56-12-10z"/><path fill="#21231e" d="M385 470c-2 0-1-1-1-2v-61c2 0 1 1 2 2l-1 60zm6 22h-1c-4-7-6-14-6-21-1-1 1-2 1 0 0 7 2 14 5 20 0 0 2 2 0 1zm0 1zm8-17v2c0 6-3 11-8 15-1-1 1-2 1-2 4-4 6-10 7-15zm1-56c1-1 1 1 1 2l-1 52-1 2v-4a1798 1798 0 0 0 1-52zm0 0zm-12-10c0 2 0-1 1 1l12 9c-1 1-2 0-3-1l-10-8zm0 1c-2-1 1-2 0 0zm-3-4h1l2 3v1l-4-3zm-1 0c0-2 2 0 1 0z"/><path fill="#fff" d="M400 419v55c0 7 2 14 5 19 4-3 8-9 9-17l2-43c-5-2-12-10-16-14z"/><path fill="#21231e" d="m400 474-1-2v-53c2 0 1 1 1 2zm5 19-1-1c-3-5-4-12-5-18 2-1 1 0 1 1 1 6 2 13 6 18zm1 0zm8-17 1 2c-1 6-4 12-9 15v-1c5-4 7-10 8-16zm2-42a714 714 0 0 1-1 42l-1-2 2-41zm1-1zm-16-14c-2 1 0-1 0 0 5 5 8 10 14 13 0 1 2 0 1 1h-2c-6-4-9-9-14-13zm-1 0c-1-1 1 0 0 0z"/><path fill="#fff" d="m387 406-14-21c-3 10-6 83-2 89 0 8 3 14 6 19 4-3 10-8 8-17-1-8 1-62 2-70z"/><path fill="#21231e" d="m373 385 15 20c-2 2-2-1-3-2l-13-18zm-1 0zm-1 89-1-2c-2-9-1-17-2-25 1-19 1-37 3-55l2-7v3c-2 13-3 27-3 41v39zm0-1zm6 20-1-1c-4-6-6-12-6-18 2-1 1 1 1 2 1 6 3 12 7 17zm0 0zm8-17c1-1 1 2 1 3 0 6-4 11-9 14-1-1 1-1 2-2 4-4 7-9 6-15zm2-70v2l-2 43 1 25c-1 1-2-1-1-2v-38c0-10 0-20 2-30 0-1 0 0 0 0zm0-1zm0 0zm0 1z"/><path fill="#fff" d="m358 451-1 23c0 8 2 14 6 19 4-3 9-8 8-16-2-32 1-61 5-90l-12-7c-7 38-9 62-6 71z"/><path fill="#21231e" d="M357 474c-1 1 0-2-1-3l1-20c2 0 1 2 1 3zm5 19-1-1c-3-5-4-12-5-18 2 0 1 2 2 3 0 5 2 11 5 16zm1 1zm7-17c2-1 1 2 1 3 0 5-4 10-8 14-2-1 1-2 1-3 4-3 7-9 6-14zm6-89a423 423 0 0 0-4 89c-2 0-1-2-2-3-1-29 2-58 6-87zm1-1zm-12-7h1l11 7c-1 2-2-1-3-1l-10-6zm-1 0zm-6 71-1-2c-2-9-1-19 0-28l6-42c2 0 1 3 1 4a414 414 0 0 0-6 68h-1zm0 0zm0 1zm0-1z"/><path fill="#fff" d="m344 472 4 15c0 7 5 14 8 19 4-3 7-8 6-16-5-47-3-78 6-115-22 15-32 46-25 97z"/><path fill="#21231e" d="m347 487-4-15c2-1 1 2 2 4l3 10zm1-1zm8 19c1 2-1 0-2-1-3-5-7-11-7-17 2-1 1 2 1 3 2 6 5 10 8 15zm0 1zm6-16c2-1 1 2 1 3 0 5-3 10-7 13-1-1 2-2 2-3 4-4 5-9 4-13zm7-115c-1-2 0 1-1 2a265 265 0 0 0-5 112c-2 1-1-2-1-4a294 294 0 0 1 6-111zm-1-1zm-24 98c-2 1-1-3-1-4-3-20-4-42 3-62 3-12 11-24 22-32 2 1-2 2-2 3a66 66 0 0 0-22 41c-4 18-2 36 0 54zm-1 0zm1 0zm-1 0z"/><path fill="#fff" d="m345 486-20-7c-3 21 1 46 7 80 4 29 2 51-2 66 22-3 31-31 20-83-3-14-6-32-5-56z"/><path fill="#21231e" d="m325 479 20 7c-1 2-3-1-5-1l-16-5zm-1 0zm8 79c-2 1-1-2-2-4-3-21-7-42-7-64l1-11c2 0 0 3 1 5-2 20 2 40 5 60l2 15zm-2 66v-3c5-20 4-42 1-62 2-1 1 2 2 4 3 20 3 41-2 62zm0 1zm19-83c2-1 1 3 2 4 3 17 6 35 2 53-2 10-6 20-15 24l-8 2c0-2 3-1 4-2 9-2 15-11 17-20 5-16 3-32 1-47zm-4-55v3c0 17 2 35 5 51-2 1-1-2-1-3-4-17-5-35-5-52h1zm0-1z"/><path fill="#21231e" d="m344 584 1 1zm-5-40c2-1 2 1 2 2 2 12 4 25 4 38-2 1-1-1-1-2 0-13-2-26-5-38zm-5-50c2-1 1 1 1 2 0 16 2 32 6 48-2 1-2-1-2-2-3-16-5-32-5-48zm1 0s-2 0-1-1z"/><path fill="#fff" d="m344 367 13 3-4 23c-5 24-9 53-5 84 2 12 4 21 8 29-15-2-24-16-23-41-3-29-1-52 3-70z"/><path fill="#21231e" d="m357 370-13-2c0-2 3 0 4-1l9 2zm0-1zm-4 24c-2 0 0-2 0-4l4-20c2 0 0 3 0 4zm-4 84c-2 1-1-3-2-4-2-27 0-54 5-80 2 0 0 2 0 4-5 26-6 53-3 80zm7 29c0-1-2-1-2-3-4-8-5-17-6-26 2 0 1 3 1 4 1 8 3 17 7 24zm0-1zm-24-40c2-1 1 3 1 4 0 10 2 21 9 29 4 4 9 6 14 7 0 2-3 0-5 0-8-2-14-11-16-19-2-7-3-14-2-21zm1 0zm3-70c2 1 0 3 0 5-5 21-4 43-3 65-2 0 0-3-1-4-1-22-2-44 4-66zm8-28-1 3-6 26c-2 0 0-3 0-4 2-8 3-17 6-25zm0 0zm0 0zm0 0z"/><path fill="#fff" d="m336 370 6 8c-1 1 2 7 0 18-1 6-5 14-6 22-2 26-2 60 6 81-15-2-20-15-20-40-1-20-1-45 4-73 1-6 5-11 10-16z"/><path fill="#21231e" d="m342 378-6-7c1-2 2 1 3 2l4 5zm1-1zm0 19c-2 0-1-2-1-4l-1-13c0-1 2-2 1 0l1 9-1 8zm0 0zm-6 22c-2 0-1-3-1-4l5-18c2 0 1 2 1 3-2 6-5 12-5 19zm5 81-2-3c-5-16-6-34-6-51l2-28c2 0 0 3 0 4a242 242 0 0 0 6 78zm0 0zm-21-40c2 0 1 3 1 4 1 9 1 19 6 27 3 5 8 8 14 8 0 2-3 1-4 1-7-2-11-8-13-15-3-8-4-16-4-25zm5-73c2 0 0 3 0 4-4 23-4 46-4 69-2 0 0-2-1-4 0-23 1-46 5-69zm1 1zm9-17-2 2c-4 4-6 9-7 15-2 0-1-2 0-4 1-5 4-10 9-13zm-1 0z"/><path fill="#fff" d="m372 390-13-2-5 27c-1 9 2 17 5 23 5-3 7-10 9-19z"/><path fill="#21231e" d="m359 388 13 2-1 1-12-2zm-1 0zm-4 27v-1l4-22v-4l1 1-4 24zm5 22-1 1c-3-7-5-15-5-23 1-1 2 0 1 1 0 7 2 15 5 21zm0 1zm9-19 1 1-6 15-4 3v-1c4-3 6-7 7-11zm4-28 1-1-4 29c-1 0-2 0-1-1l4-28zm0-1c1-1 1 1 0 0zm0 0zm0 1z"/><path fill="#fff" d="M407 419h-12v22c0 7 2 14 5 19 4-3 7-9 8-17l-1-25z"/><path fill="#21231e" d="M395 418h12l-1 1h-11zm0 1c0-1 1-1 0 0zm0 22-1-1 1-19v-3l1 1-1 21zm5 18v1l-1-2c-3-5-5-11-5-17h1c1 7 2 13 5 18zm0 1c0 1-1 0 0 0zm7-17 1 1c0 6-3 12-8 16v-1c5-4 7-10 7-16zm0-24s0-1 0 0v3c1 7 2 14 1 21h-1zm0-1c1 0 1 1 0 0z"/><path fill="#fff" d="m420 424-12 1v22c1 8 3 14 7 19 3-3 6-9 7-17z"/><path fill="#21231e" d="M408 424h12l-1 1h-11zm0 1c-1-1 1-1 0 0zm1 22h-1v-22h1zm5 18v1l-1-2c-3-5-5-11-5-17l1 1c0 6 2 12 6 17zm1 1c0 1-1 0 0 0zm6-17 1 1c0 6-3 12-7 16v-1c4-4 6-10 6-16zm-1-25s0 1 0 0l1 2 1 23h-1l-2-24zm0 0c-1 0 1 0 0 0zm0 1v-1z"/><path fill="#fff" d="M395 412h-12l-2 22c0 7 1 14 4 19 4-3 8-8 9-16z"/><path fill="#21231e" d="m383 411 12 1-1 1-11-1zm0 1c0-1 1-1 0 0zm-2 22-1-1 2-19 1-2 1 1-3 20zm4 18v1l-1-1c-3-6-4-12-4-18h1c0 7 1 13 4 19zm0 1c0 1-1 0 0 0zm8-16 1 1c-1 6-4 12-9 15v-1c5-3 7-9 8-15zm2-24v-1 4l-1 21-1-1 2-24zm0-1c1 0 1 1 0 0z"/><path fill="#fff" d="m384 400-13-6c-2 9-5 38 0 50 4-3 9-8 10-17z"/><path fill="#21231e" d="m371 394 13 5-1 1-12-5zm-1 0c0-1 2 0 0 0zm1 50h-1c-2-5-2-11-3-17a161 161 0 0 1 3-33l1 1a148 148 0 0 0-1 45l2 4zm0 1s-1-1 0 0zm10-18v1c-1 7-4 13-10 17v-2c6-3 9-10 10-16zm3-27c0-1 0-1 0 0l-2 27c-1 0-2 0-1-1l2-26zm0-1zm0 1zm0-1z"/><path id="c" fill="#edb92e" stroke="#21231e" d="M388 701c8 7 15-8 8-27-5-15-31-9-17 10h2c-1-4 2-7 5-6 11 2 11 22 0 18-2 0-1 4 2 5z"/><path fill="#edb92e" stroke="#21231e" d="M400 639c-1 4-5 8-8 11-4 5-3 12 0 16s5 9 6 13v16c0 4-2 6-5 7-1 1 1 3 5 6l2 3h2c0-2 2-3 2-3 4-3 5-5 4-6-2-1-4-4-5-7l1-16c1-4 2-9 6-13 3-4 4-11-1-16-3-3-7-7-8-11v-1z"/><path fill="#edb92e" d="M395 686h12c2 0 3 1 3 3s-1 4-3 4h-12c-2 0-3-2-3-4s1-3 3-3z"/><path fill="#21231e" d="M407 686h-12v-1h12zm4 3h-1l-3-3s-1 0 0 0v-1c2 0 3 2 4 3zm-1 0h1zm-3 4v-1c1 0 3-1 3-3h1c0 2-2 4-4 4zm-12-1h12v1h-12zm-4-3h1c0 2 1 3 3 3v1c-2 0-4-1-4-3zm1 0h-1zm3-4v1c-1 0-3 1-3 3h-1c0-2 2-4 4-4z"/><path fill="#fff" d="m417 579 1-11c-5-2-16 0-20 10-6 13-11 20-18 26 10 1 18-1 24-8z"/><path fill="#21231e" d="M418 568v11c-1 0-2 0-1-1v-10zm0 0zm-20 11v-2c3-6 9-10 16-10l4 1h-2c-3-1-7 0-10 2s-6 5-8 9zm-18 24c0 1 0 1 0 0 5-5 10-10 13-17l4-8 1 2c-4 8-8 15-15 22l-3 2zm0 1v-1zm23-8v1c-3 4-8 7-13 7h-10l1-1c6 1 12 1 17-2zm14-17v1l-6 6-7 10v-1l10-14 3-2h-1zm1 0z"/><path fill="#fff" d="m425 581-12-5-9 20c-3 7-4 14-2 19 4-1 10-4 14-11z"/><path fill="#21231e" d="m414 575 11 5-1 1-11-5zm-1 0zm-9 21v-1l8-18 1-1v1l-8 18zm-2 19h-1c-1-6 0-13 2-19 1 0 2 0 1 1-2 6-3 12-2 18zm0 1c-1 0-1-1 0 0zm13-13 1 2c-3 5-8 9-14 11v-1c6-2 11-6 13-12zm10-22h1l-10 23v-1l9-23zm0-1c1 0 0 1 0 0z"/><path fill="#fff" d="m429 581-13-2-4 22c-1 7 0 14 2 19 5-2 9-7 11-15l3-24z"/><path fill="#21231e" d="m416 578 13 2-1 1-12-2zm-1 1c0-1 1-1 0 0zm-3 22-1-1 4-19v-2c1 0 2 0 1 1l-4 20zm2 19s1 1 0 0c-3-6-4-13-3-19h1c0 6 0 13 3 19zm1 0c-1 1-1 0 0 0zm10-15v1c-1 6-5 11-10 14v-1c5-3 8-8 10-14zm4-25v1l-3 24c-1 0-2 0-1-1 2-7 2-16 3-24zm-1 0zm1 1z"/><path fill="#fff" d="M430 563h8c4 2 9 13 4 22-7 12-9 21-10 30-7-7-11-15-8-24 3-11 7-25 6-28z"/><path fill="#21231e" d="M438 564h-8l2-1h6zm0-1zm4 23v-2c3-6 2-13-2-18l-2-2 1-1c3 3 5 7 5 11 1 4 0 8-2 12zm-10 29v-1c0-7 2-15 6-22l3-7v1c-4 8-7 16-8 25v4zm1 0h-1zm-10-24c2 0 2 1 1 2-1 5 0 10 3 15l5 7h-1c-4-5-8-10-8-17l1-7zm8-28v1l-2 8a232 232 0 0 1 1-5v-4zm-1 1zm0 0zm0 0z"/><path fill="#fff" d="m434 558-12-4-9 20c-2 8-2 14-1 20 5-1 11-4 14-12 4-7 5-16 8-24z"/><path fill="#21231e" d="m422 553 12 5h-1l-11-4zm-1 1zm-7 21-1-1 8-19v-1l1 1-8 19zm-2 19s1 1 0 0c-2-6-1-13 1-20l1 1c-2 6-3 13-1 19zm0 1s0-1 0 0zm14-13 1 1c-3 5-7 9-12 11l-3 1 1-2c5-1 9-4 12-9zm8-23v-1l-7 25-1-1 7-24zm0-1c1 0 0 1 0 0zm0 0zm0 0c1 0 0 1 0 0z"/><path fill="#fff" d="m426 550-3-17c-3 0-6 6-10 10l-3 3-3 8c-3 13-7 20-13 27 10 0 18-4 22-12z"/><path fill="#21231e" d="m423 533 3 17-1-1-2-16h1zm0 0zm-10 10v-1l7-8 3-1-1 1-5 5-3 4zm-2 3-1-1 3-3v2zm-3 8c-1 0-2-1-1-2l3-7v1l-2 7zm-14 27c1 1 0 0 0 0a72 72 0 0 0 13-28v2a61 61 0 0 1-12 26zm0 1v-1zm21-13c2 0 2 1 1 1-3 5-7 9-13 10l-9 2c0-1 1-2 2-1 6-1 12-2 16-7l4-5zm10-19h1l-5 9-5 10v-1l8-16 2-3zm1 0z"/></g><use xlink:href="#d" width="100%" height="100%" transform="matrix(-1 0 0 1 964 0)"/><path fill="#fff" stroke="#21231e" d="m536 115 5-1c-7-5-14-11-21-22-8-12 3-33 8-45 9-7 18-17 21-31 1-7-19-5-33 2-17 8-19 6-25 7-3 11 2 12 6 11-9 15-13 30-15 52-2-22-6-37-15-52 4 1 9 0 7-11-6-1-9 1-26-7-14-6-34-9-33-2 3 14 12 24 22 31 4 12 15 33 8 45-8 11-14 17-22 22l5 1c-1 2-11 5-12 4-8-6-15-18-22-25-18-21-27-37-24-50 5-14 21-30 0-27-22 3-40 32-46 68l-4 34c11-5 17-9 20-14l-3 14c9-1 16-6 19-15l3-9h12l22 30c8 12 20 22 24 22 2 1 3-4 3-10h126c-1 6 0 11 2 10 4 0 16-10 24-22l22-30h12l3 9c3 9 10 14 19 15l-3-14c3 5 9 10 20 14l-4-33c-6-36-24-66-46-69-21-2-5 13-1 27 4 13-5 29-24 50-6 7-13 20-21 25-1 1-11-2-12-4z"/><g id="e"><path fill="#edb92e" d="M441 357c-2 2-9 2-18 2-15 1-24-4-26-13 6 6 13 10 20 8 10-3 16-5 18-4 2 0 4 3 6 7z" transform="translate(0 -300)"/><path fill="#21231e" d="M423 360v-1l14-2h3v1l-7 1zm0 0zm-25-15v2c1 4 4 7 7 9 5 2 11 3 16 3h2l-1 1c-6 0-12-1-17-3-4-2-6-5-8-9v-2zm19 8-1 1c-4 1-9 0-12-2l-7-6h1c3 4 8 7 13 8zm18-4v1l-8 2-10 2 1-1 14-3zm0 0zm6 8h-1c-1-3-2-5-4-6l-1-2 2 1 4 6zm0 0zm-21-36v2l-1-2zm15 4-1 2-10-4h-4v-2l11 2zm9 3v1l-4-1-6-1 1-2 8 3zm0 1v-1zm23 8v-2l1 2zm-10-2 1-2 9 3v1zm1-2-1 2v-1z" transform="translate(0 -300)"/><path fill="#21231e" d="m432 332-1 1c-3-1-5-4-6-6l-3-4 2-1 5 8 2 2zm7-5h2c-1 3-3 5-5 6l-4 1-1-1 1-1h3l4-4z" transform="translate(0 -300)"/><path fill="#21231e" d="m430 331-3-2c-1-2 0-3 2-6l5 2zm-7 82v1zm24-4 1 1c-3 3-6 5-10 6-5 1-10 0-15-2v-1c5 2 10 3 15 1 3 0 7-2 9-5zm3-2h1l-3 3-1-1zm1 0-1-1z" transform="translate(0 -300)"/><path fill="#21231e" d="M452 401h-1zm-5 16v1h-1l5-15v-2h1l-4 16-1 1zm-1 1h1zm16-10 1 1-11 8-5 1v-1c4-1 9-3 12-6zm1 1-1-1h1z" transform="translate(0 -300)"/><path fill="#21231e" d="M461 400h-1zm5 16v1c-4-5-5-10-6-16v-1h1a34 34 0 0 0 6 16zm0 1 1-1-1 1h-1zm7-13h1c-1 5-3 10-7 13l-1-1c4-3 6-7 7-12zm1 0h-1z" transform="translate(0 -300)"/><path fill="#edb92e" d="M406 318c-17 2-16 12 0 28 3 3 4 3 4 0 1-6 7-9 10-5 2 3 2 5 9 4 9 7 16 12 5 12-5 0-9 3-16 2l3 5c7 1 14-3 20-2 14 3-23-38-22-40 1-4-9-11-13-4z" transform="translate(0 -300)"/><path fill="#21231e" d="M406 346c-1 1-1 0-2-1-4-4-8-9-10-15-1-3-1-7 1-9 3-3 7-3 11-4l-2 1c-3 1-7 2-9 5s0 7 1 10c3 5 6 9 10 12zm4 0v1c0 1-1 2-2 1l-3-2c1-1 1 0 2 1l2 1zm11-5c-1 1-1 0-2-1-4-2-8 2-8 6-2 0-1-1-1-2 1-3 5-6 8-5zm8 3-1 1c-2 0-5 1-7-2l-1-2c1-1 1 0 2 1 0 1 1 2 3 2zm0 0zm5 13c-1-1 0-1 1-1l4-1-2-3-8-7c0-2 1-1 2 0l8 8v3zm-16 2h1l13-3 2 1h-2l-13 3c-1-1-2 0-1-1zm-1 0zm4 4-1 1-3-5c1-1 2 0 2 1zm0 1zm20-2h-1c-6 0-12 3-19 2l2-1c6 1 12-3 18-1zm-23-40 2 1 22 29c1 3 3 5 3 8 0 2-1 3-3 3v-1c1 0 2 0 2-2 0-3-2-5-4-8-6-10-14-19-21-28zm-12-4v-2c2-2 5-3 7-2 3 2 6 4 6 7h-1c0-2-1-3-3-5-2-1-6-2-7 0zm1 0zm-1 0zm0 0z" transform="translate(0 -300)"/><path fill="#21231e" d="m407 317-1 1v-1zm8 11-1 1-8-10v-1l1-1c1 4 3 7 6 9zm-1 1 1-1zm-10-5 2 2-2 1-1-2zm-46 39c1-1 2 0 1 1zm-22 56c1-10 5-20 8-30 4-8 7-17 12-24 1-2 4-3 3-1-5 4-7 11-10 16-5 12-9 24-12 37 0 1 1 2-1 2zm5 80c-5-16-6-33-7-50l2-30c2 0 0 3 1 4a233 233 0 0 0 5 76zm1 0h-1z" transform="translate(0 -300)"/></g><use xlink:href="#e" width="100%" height="100%" transform="matrix(-1 0 0 1 964 0)"/><path fill="#21231e" d="M473 98v6l2 6 4 7 3 4h1l1-1 2-4a36 36 0 0 0 5-14v-3s0-1 0 0l-1 1v6l-2 5-3 6-3 3-3-4a41 41 0 0 1-5-13v-4h-1z"/><path fill="#c6363c" d="M549 122v109c0 19-7 37-19 49a65 65 0 0 1-95 1 73 73 0 0 1-20-50V122Z"/><use xlink:href="#f" width="100%" height="100%" transform="matrix(-1 0 0 1 964 -90)"/><path fill="#fff" stroke="#21231e" d="M549 189v28h-53v83a66 66 0 0 1-28 0v-83h-53v-28h53v-67h28v67z"/><use xlink:href="#f" width="100%" height="100%" y="-90"/><path id="f" fill="#fff" stroke="#21231e" d="M459 267v-39c-8-2-29-11-30 8-1 8 10 14 13 6 1-3 0-6-2-7-2 0-5 1-4 4-9-5 8-15 16-2 2 4-4 8-4 11 0 2 6 7 4 10-8 13-25 3-16-2-1 3 2 5 4 4s3-3 2-7c-3-7-14-2-13 7 1 18 22 10 30 7z"/><use xlink:href="#f" width="100%" height="100%" transform="matrix(-1 0 0 1 964 0)"/><path fill="#21231e" d="M414 121v114c1 28 20 54 46 64 23 8 49 2 67-14 16-15 24-37 23-58V121Zm2 2h132v112c-1 26-19 52-44 61-22 8-47 3-64-13a71 71 0 0 1-24-57z"/></g></svg>